<svg xmlns="http://www.w3.org/2000/svg" width="134" height="35" fill="none"><path fill="#2AC864" d="m5.135 6.455 20.472 4.352a.414.414 0 0 1 .32.491l-.347 1.635q-.187.87-.5 1.678l4.215-.897a.415.415 0 0 1 .492.32l.521 2.45c1.81 8.513-3.902 16.884-12.65 18.199C9.592 35.894 2.1 30.19.409 22.23L.01 20.36a.414.414 0 0 1 .32-.49l7.019-1.492C4.766 15.746 3.57 11.822 4.383 7.993l.259-1.217.003-.002a.414.414 0 0 1 .491-.32M20.415.01a.415.415 0 0 1 .492.32l.118.551a5.106 5.106 0 0 1-4.246 6.11c-2.707.407-5.224-1.507-5.792-4.18l-.076-.358a.414.414 0 0 1 .319-.49z"/><path fill="#0E3727" d="M129.227 11.22c0-.093.065-.173.158-.193l3.757-.778a.132.132 0 0 1 .158.129V28.25c0 .073-.06.132-.132.132h-3.81a.13.13 0 0 1-.131-.132zm-19.079-.002c0-.093.065-.174.157-.193l3.62-.777a.132.132 0 0 1 .16.129v2.326c.855-1.3 2.772-2.738 5.579-2.738 4.21 0 6.537 2.875 6.537 6.674v11.609a.13.13 0 0 1-.131.131h-3.81a.13.13 0 0 1-.132-.131V17.46c0-2.157-1.301-3.834-3.628-3.834s-4.278 1.814-4.278 4.381v10.24c0 .072-.06.131-.132.131h-3.81a.133.133 0 0 1-.132-.131zm-29.045 17.03v-17.03c0-.093.064-.174.157-.193l3.62-.777a.132.132 0 0 1 .16.129v2.326c.752-1.266 2.463-2.738 5.133-2.738 2.362 0 4.142 1.13 5.1 2.943.924-1.403 3.046-2.943 5.716-2.943 3.936 0 6.127 2.84 6.127 6.674v11.609a.13.13 0 0 1-.132.131h-3.809a.13.13 0 0 1-.132-.131V17.29c0-2.191-1.164-3.663-3.15-3.663-1.984 0-3.764 1.575-3.764 4.176v10.445c0 .072-.06.131-.132.131h-3.81a.13.13 0 0 1-.131-.131V17.29c0-2.157-1.13-3.663-3.115-3.663-2.088 0-3.765 1.575-3.765 4.176v10.445c0 .072-.06.131-.132.131l-3.81-.004a.13.13 0 0 1-.132-.131zm-11.258.645c-5.134 0-9.173-3.457-9.173-9.481s4.074-9.447 9.173-9.447 9.173 3.457 9.173 9.447-4.073 9.48-9.173 9.48m-5.1-9.481c0 3.97 2.396 5.853 5.1 5.853s5.1-1.883 5.1-5.853-2.43-5.853-5.1-5.853-5.1 1.882-5.1 5.853m-22.229 8.836v-17.03c0-.093.064-.173.156-.193l3.62-.777a.132.132 0 0 1 .16.13v2.325c.855-1.302 2.772-2.74 5.579-2.74 4.21 0 6.537 2.876 6.537 6.675v11.609a.13.13 0 0 1-.131.131h-3.81a.13.13 0 0 1-.132-.131V17.459c0-2.157-1.3-3.834-3.628-3.834-2.327 0-4.278 1.814-4.278 4.381v10.24c0 .072-.06.131-.132.131h-3.81a.133.133 0 0 1-.131-.133zm85.682-22.975.073.343c.3 1.412 1.63 2.424 3.061 2.21a2.7 2.7 0 0 0 2.244-3.23l-.095-.447a.136.136 0 0 0-.16-.104l-5.019 1.066a.137.137 0 0 0-.104.161z"/></svg>