<svg width="22" height="22" viewBox="0 0 22 22" fill="none" xmlns="http://www.w3.org/2000/svg">
<path fill-rule="evenodd" clip-rule="evenodd" d="M11.4336 6.26367C11.1494 6.26367 10.96 6.45315 10.96 6.73736V11.4742C10.96 11.6637 11.0547 11.8531 11.2442 11.8531L14.6547 13.6531C14.7494 13.6531 14.8442 13.7479 14.8442 13.7479C15.0336 13.7479 15.2231 13.6531 15.2231 13.4637C15.3179 13.2742 15.2231 12.99 15.0336 12.8005L11.9073 11.19V6.73736C11.9073 6.45315 11.7179 6.26367 11.4336 6.26367Z" fill="#1A8040"/>
<path d="M11.4336 6.26367C11.1494 6.26367 10.96 6.45315 10.96 6.73736V11.4742C10.96 11.6637 11.0547 11.8531 11.2442 11.8531L14.6547 13.6531C14.7494 13.6531 14.8442 13.7479 14.8442 13.7479C15.0336 13.7479 15.2231 13.6531 15.2231 13.4637C15.3179 13.2742 15.2231 12.99 15.0336 12.8005L11.9073 11.19V6.73736C11.9073 6.45315 11.7179 6.26367 11.4336 6.26367" stroke="#1A8040"/>
<path fill-rule="evenodd" clip-rule="evenodd" d="M11.9069 2C7.07527 2 3.19106 5.78947 2.90685 10.5263H1.4858C1.01212 10.5263 0.822642 10.8105 1.20159 11.1895L3.2858 13.4632C3.66475 13.8421 4.23317 13.8421 4.51738 13.4632L6.60159 11.1895C6.8858 10.8105 6.69633 10.5263 6.22264 10.5263H4.80159C5.0858 6.83158 8.11738 3.89474 11.9069 3.89474C15.7911 3.89474 19.0121 7.11579 19.0121 11C19.0121 14.8842 15.7911 18.1053 11.9069 18.1053C10.3911 18.1053 8.97001 17.6316 7.73843 16.7789C7.35948 16.4947 6.69633 16.5885 6.41212 16.9684C6.12791 17.3474 6.22264 18.0096 6.60159 18.2947C8.11738 19.4306 10.0121 20 11.9069 20C16.8332 20 20.9069 15.9263 20.9069 11C20.9069 6.07368 16.8332 2 11.9069 2Z" fill="#1A8040"/>
<path d="M11.9069 2C7.07527 2 3.19106 5.78947 2.90685 10.5263H1.4858C1.01212 10.5263 0.822642 10.8105 1.20159 11.1895L3.2858 13.4632C3.66475 13.8421 4.23317 13.8421 4.51738 13.4632L6.60159 11.1895C6.8858 10.8105 6.69633 10.5263 6.22264 10.5263H4.80159C5.0858 6.83158 8.11738 3.89474 11.9069 3.89474C15.7911 3.89474 19.0121 7.11579 19.0121 11C19.0121 14.8842 15.7911 18.1053 11.9069 18.1053C10.3911 18.1053 8.97001 17.6316 7.73843 16.7789C7.35948 16.4947 6.69633 16.5885 6.41212 16.9684C6.12791 17.3474 6.22264 18.0096 6.60159 18.2947C8.11738 19.4306 10.0121 20 11.9069 20C16.8332 20 20.9069 15.9263 20.9069 11C20.9069 6.07368 16.8332 2 11.9069 2" stroke="#1A8040" stroke-width="0.2"/>
</svg>
