<svg xmlns="http://www.w3.org/2000/svg" width="22" height="22" viewBox="0 0 22 22">
    <path fill="#1A8040" fill-rule="evenodd" d="M10.542 3.835c3.802 0 6.075.774 6.616 1.19a1.2 1.2 0 0 0-.092.098c-.848.553-3.216 1.134-6.524 1.134-3.61 0-5.89-.693-6.634-1.216.51-.415 2.79-1.206 6.634-1.206m-.818 14.267v-5.111a.921.921 0 0 0-.188-.553l-4.12-5.5c1.34.268 3.46.617 5.126.617 1.673 0 3.9-.417 5.222-.681l-4.268 5.568a.923.923 0 0 0-.19.552v3.1c0 .966-.667 1.781-1.582 2.008M10.542 2C6.602 2 2 2.797 2 5.07c.02.465.228.9.571 1.211l5.317 7.026v5.776c0 .506.411.917.918.917h.428a3.912 3.912 0 0 0 3.907-3.906v-2.786l5.272-6.92a1.8 1.8 0 0 0 .671-1.332C19.084 2.8 14.482 2 10.542 2"/>
</svg>
