<svg width="22" height="23" viewBox="0 0 22 23" fill="none" xmlns="http://www.w3.org/2000/svg">
<path fill-rule="evenodd" clip-rule="evenodd" d="M11 1.78711C15.5359 1.78737 19.2137 5.46406 19.2139 10C19.2139 10.5265 19.1621 11.0411 19.0674 11.54C18.1921 10.8867 17.1059 10.5 15.9297 10.5C14.8291 10.5001 13.8077 10.8391 12.9639 11.418C12.9942 11.2295 13.0211 11.0401 13.041 10.8496H8.95898C9.13704 12.5493 9.73176 14.1753 10.6836 15.5869C10.6819 15.6411 10.6797 15.6954 10.6797 15.75C10.6797 16.6374 10.9004 17.4732 11.2891 18.2061C11.1931 18.2094 11.0968 18.2139 11 18.2139C6.4639 18.2137 2.78613 14.5361 2.78613 10C2.78632 5.46402 6.46402 1.7873 11 1.78711ZM4.54297 10.8496C4.87466 13.3947 6.67423 15.4778 9.06543 16.2207C8.04818 14.6044 7.42684 12.764 7.25488 10.8496H4.54297ZM9.06641 3.77832C6.67473 4.52098 4.87483 6.60499 4.54297 9.15039H7.25488C7.42694 7.2355 8.04857 5.39484 9.06641 3.77832ZM11.001 3.9668C9.86324 5.47664 9.15616 7.26881 8.95898 9.15039H13.041C12.8441 7.26896 12.1386 5.47657 11.001 3.9668ZM12.9336 3.77832C13.9518 5.39492 14.5749 7.23534 14.7471 9.15039H17.457C17.1252 6.60502 15.3251 4.52103 12.9336 3.77832Z" fill="#9B9B9B"/>
<path fill-rule="evenodd" clip-rule="evenodd" d="M16.0322 18.2574C14.6138 18.2574 13.4644 17.1306 13.4644 15.7413C13.4644 14.3514 14.6138 13.2246 16.0322 13.2246C17.4506 13.2246 18.6 14.3514 18.6 15.7413C18.6 17.1306 17.4506 18.2574 16.0322 18.2574ZM21.8005 20.498L19.264 18.0125C19.2272 17.9765 19.1812 17.9583 19.139 17.9325C19.585 17.3184 19.8502 16.569 19.8502 15.7578C19.8502 13.6824 18.1332 12 16.0152 12C13.8972 12 12.1802 13.6824 12.1802 15.7578C12.1802 17.8332 13.8972 19.5156 16.0152 19.5156C16.8074 19.5156 17.5437 19.2794 18.1545 18.8763C18.183 18.9224 18.2044 18.9718 18.2449 19.0116L20.781 21.4966C21.0522 21.7623 21.4998 21.7542 21.7814 21.4783C22.0635 21.2024 22.0712 20.7638 21.8005 20.498Z" fill="#1A8040"/>
</svg>
