<svg width="40" height="40" viewBox="0 0 40 40" xmlns="http://www.w3.org/2000/svg" xmlns:xlink="http://www.w3.org/1999/xlink">
    <defs>
        <filter x="-17.9%" y="-14.7%" width="150%" height="141.2%" filterUnits="objectBoundingBox" id="koij4dyr6a">
            <feOffset dx="2" dy="2" in="SourceAlpha" result="shadowOffsetOuter1"/>
            <feGaussianBlur stdDeviation="2" in="shadowOffsetOuter1" result="shadowBlurOuter1"/>
            <feComposite in="shadowBlurOuter1" in2="SourceAlpha" operator="out" result="shadowBlurOuter1"/>
            <feColorMatrix values="0 0 0 0 0 0 0 0 0 0 0 0 0 0 0 0 0 0 0.05 0" in="shadowBlurOuter1"/>
        </filter>
        <filter x="-17.9%" y="-14.7%" width="150%" height="141.2%" filterUnits="objectBoundingBox" id="jppru228qc">
            <feOffset dx="2" dy="2" in="SourceAlpha" result="shadowOffsetOuter1"/>
            <feGaussianBlur stdDeviation="2" in="shadowOffsetOuter1" result="shadowBlurOuter1"/>
            <feComposite in="shadowBlurOuter1" in2="SourceAlpha" operator="out" result="shadowBlurOuter1"/>
            <feColorMatrix values="0 0 0 0 0 0 0 0 0 0 0 0 0 0 0 0 0 0 0.05 0" in="shadowBlurOuter1"/>
        </filter>
        <rect id="0bryzr2ezb" x="0" y="0" width="28" height="34" rx="5"/>
        <rect id="jr3xnerckd" x="0" y="0" width="28" height="34" rx="5"/>
    </defs>
    <g fill="none" fill-rule="evenodd">
        <g transform="translate(9 5)">
            <use fill="#000" filter="url(#koij4dyr6a)" xlink:href="#0bryzr2ezb"/>
            <rect stroke="#9B9B9B" stroke-linejoin="square" fill="#FFF" x=".5" y=".5" width="27" height="33" rx="5"/>
        </g>
        <path fill="#E3E3E3" d="M15 30h16v3H15zM15 24h16v3H15zM15 18h16v3H15zM21 11h10v3H21z"/>
        <path fill="#9B9B9B" d="M15 11h3v3h-3z"/>
        <g>
            <g transform="translate(4 1)">
                <use fill="#000" filter="url(#jppru228qc)" xlink:href="#jr3xnerckd"/>
                <rect stroke="#9B9B9B" stroke-linejoin="square" fill="#FFF" x=".5" y=".5" width="27" height="33" rx="5"/>
            </g>
            <path fill="#E3E3E3" d="M10 26h16v3H10zM10 20h16v3H10zM10 14h16v3H10z"/>
            <path fill="#62CBC9" opacity=".3" d="M16 7h10v3H16z"/>
            <path fill="#62CBC9" d="M10 7h3v3h-3z"/>
        </g>
    </g>
</svg>
