<svg xmlns="http://www.w3.org/2000/svg" width="14" height="18" viewBox="0 0 14 18">
    <path fill="#FFF" fill-rule="evenodd" d="M2.078 13.009l.943-2.68V5.78c0-2.013 1.4-3.651 3.324-3.651h1.238c1.924 0 3.406 1.638 3.406 3.65v4.563l.916 2.668H2.078zm4.785 3.024c-.512 0-.931-.43-.958-.97.477-.031 2.256.02 1.915 0-.026.54-.446.97-.957.97zm6.98-3.738l-.874-2.333.062-4.35C13.03 2.519 10.54 0 7.583 0H6.345C3.387 0 .979 2.518.979 5.613v4.36l-.84 2.332c-.231.642-.17 1.3.165 1.806.336.506.904.964 1.56.964l2.167-.167-.002.267c0 1.647 1.27 2.819 2.834 2.819 1.563 0 2.834-1.34 2.834-2.985 0-.033-.002.1-.003.066h2.456c.66 0 1.23-.461 1.56-.971.33-.51.378-1.17.133-1.81z"/>
</svg>
