<svg xmlns="http://www.w3.org/2000/svg" width="13" height="16" viewBox="0 0 13 16">
    <g fill="#1A8040" fill-rule="evenodd">
        <path fill-rule="nonzero" d="M7.461 13.786H5.498V5.4h1.963z"/>
        <path d="M.997 5.416v8.862c0 .816.67 1.477 1.495 1.477h7.974c.826 0 1.495-.66 1.495-1.477V5.416H9.967v8.37H2.99v-8.37H.997zM12.46 3.939H.497A.495.495 0 0 1 0 3.446v-.984c0-.272.223-.493.498-.493h3.987V.492C4.485.22 4.71 0 4.984 0h2.99c.275 0 .498.22.498.492V1.97h3.987c.276 0 .499.22.499.493v.984a.495.495 0 0 1-.499.493z"/>
    </g>
</svg>
