<svg xmlns="http://www.w3.org/2000/svg" width="17" height="17" viewBox="0 0 17 17">
    <g fill="none" fill-rule="evenodd" transform="translate(.263 .316)">
        <circle cx="8" cy="8" r="8" fill="#FFCD00"/>
        <path fill="#000" stroke="#000" d="M7.58 11.313c-.105.105-.147.258-.147.487 0 .138.056.263.147.354.105.104.258.146.487.146.138 0 .263-.056.353-.146.105-.105.147-.259.147-.487 0-.135-.056-.258-.154-.345-.117-.103-.284-.155-.833-.009zm.1-7.807c-.074.04-.133.1-.174.175-.05.09-.073.198-.073.319v4c0 .12.023.23.073.32.04.074.1.133.175.174.09.05.198.073.319.073.12 0 .23-.023.32-.073.074-.04.133-.1.174-.175.05-.09.073-.198.073-.319V4c0-.12-.023-.23-.073-.32-.04-.074-.1-.133-.175-.174-.09-.05-.198-.073-.638 0z"/>
    </g>
</svg>
