<svg width="31" height="30" viewBox="0 0 31 30" xmlns="http://www.w3.org/2000/svg">
    <g fill="#1A8040" fill-rule="evenodd">
        <path d="M27.978 14.986c0-.765-.62-1.386-1.386-1.386H7.187a1.386 1.386 0 0 0 0 2.772h19.405c.766 0 1.386-.62 1.386-1.386z"/>
        <path d="M16.028 24.204a1.386 1.386 0 0 0 0-1.96l-7.841-7.841a1.386 1.386 0 0 0-1.96 1.96l7.84 7.841a1.386 1.386 0 0 0 1.96 0z"/>
        <path d="M16.028 5.948a1.386 1.386 0 0 0-1.96 0l-7.842 7.84a1.386 1.386 0 0 0 1.96 1.961l7.842-7.84a1.386 1.386 0 0 0 0-1.961z"/>
    </g>
</svg>
