<svg width="258" height="191" viewBox="0 0 258 191" fill="none" xmlns="http://www.w3.org/2000/svg">
<path d="M113.176 14.2166C119.251 0.367434 124.456 -1.03162 138.758 0.483003C146.791 5.80855 148.651 9.41543 149.618 18.8527C162.293 19.8805 170.303 17.8099 174.758 31.1782C178.328 31.3207 181.891 31.5008 185.453 31.7258C205.463 33.1062 201.916 50.5854 200.881 65.4916L201.391 71.223C215.221 75.2215 225.496 81.8681 232.733 94.7487C238.321 104.614 239.693 116.324 236.528 127.217C234.098 135.289 230.963 138.875 225.226 144.591C234.976 147.067 260.288 165.799 257.018 178.799C256.606 180.465 254.528 183.098 253.411 184.561C248.041 187.149 243.923 188.462 237.998 186.189C226.921 181.928 214.763 166.511 207.188 157.359C204.443 157.884 197.251 158.979 195.413 160.495L197.333 168.222L198.796 170.255C198.391 175.671 198.661 177.254 195.511 181.672C189.511 184.583 183.698 184.928 177.128 185.671C149.558 188.057 108.076 186.121 79.4331 185.806C67.6356 183.795 55.0056 185.919 39.3531 182.663L38.6181 182.438C33.1056 179.527 32.1756 177.667 28.9506 172.355C28.7781 171.71 28.6356 171.065 28.5456 170.397C25.8081 150.78 24.5481 36.437 34.5606 24.5166C40.0581 17.96 60.0906 22.0185 68.0631 21.1633C72.9981 13.5714 74.6631 13.4064 83.5731 13.7064C93.4206 14.0515 103.328 14.2466 113.176 14.2166Z" fill="#12191A"/>
<path d="M172.831 178.544C159.023 180.554 49.366 179.586 39.421 175.986C27.376 163.442 35.9785 59.0995 37.5385 37.0441C37.7185 34.591 38.5359 31.0052 40.1184 29.0022C46.3884 24.9137 60.9159 26.6316 68.4534 27.0292C68.9334 30.1125 69.2634 33.5933 69.6384 36.729C64.7184 36.639 47.476 33.8708 46.3435 40.1199C43.561 55.7987 35.956 168.424 49.4335 169.954C65.101 171.732 167.513 176.631 177.533 171.372L178.291 170.659C178.658 169.046 178.703 167.936 179.888 166.833L182.071 167.133C181.771 171.019 181.733 173.772 181.793 177.681L166.666 177.673L166.696 177.959L172.831 178.544Z" fill="#D2DAC2"/>
<path d="M187.066 70.233C188.071 25.4245 176.153 54.6966 169.261 40.0831C170.513 33.4064 189.173 37.2549 193.906 38.2602C195.503 46.6247 195.203 56.8047 195.151 65.4318C191.956 65.2743 190.763 64.6591 188.333 66.017C187.816 67.5398 187.456 68.6726 187.066 70.233Z" fill="#E1F2D2"/>
<path d="M183.323 166.369L190.223 167.622L191.303 167.884C187.463 180.81 185.61 178.92 172.83 178.545L166.695 177.959L166.665 177.674L181.793 177.682C181.733 173.773 181.77 171.02 182.07 167.134L183.323 166.369Z" fill="#B4D8B0"/>
<path d="M200.88 65.492L201.39 71.2234C196.32 70.6832 192.12 70.4432 187.065 70.2332C187.455 68.6728 187.815 67.54 188.333 66.0172C190.763 64.6593 191.955 65.2744 195.15 65.432L200.88 65.492Z" fill="#FEFDF3"/>
<path d="M177.556 158.852L185.303 160.832C183.248 162.745 183.211 163.263 183.323 166.368L182.071 167.134L179.888 166.834C178.703 167.936 178.658 169.047 178.291 170.659L177.533 171.372C177.601 167.201 177.608 163.023 177.556 158.852Z" fill="#F3F5DF"/>
<path d="M185.303 160.832L191.213 161.417C191.243 164.718 191.776 165.063 190.223 167.621L183.323 166.368C183.211 163.263 183.248 162.745 185.303 160.832Z" fill="#FEFDF3"/>
<path d="M191.213 161.417L195.413 160.494L197.333 168.221L191.303 167.883L190.223 167.621C191.775 165.063 191.243 164.718 191.213 161.417Z" fill="#FEFDF3"/>
<path d="M50.873 41.651C55.118 41.3959 63.8631 42.4387 68.4006 42.8363C77.4906 43.6315 86.5955 44.2992 95.708 44.8393L151.156 48.2001C161.206 48.7477 170.656 48.6952 180.758 49.633C180.931 57.1498 181.006 63.3988 181.981 70.8406C167.933 72.491 157.223 75.8068 147.728 87.0296C132.128 105.477 134.483 133.338 152.685 148.942C159.39 154.313 164.056 155.611 172.021 157.862L172.043 168.049C138.676 168.184 81.8705 169.707 51.173 164.966C44.6705 147.314 46.718 60.8557 50.873 41.651Z" fill="#FEFDF3"/>
<path d="M59.393 128.921C63.8105 127.555 77.078 128.291 82.0955 128.448L91.0655 129.146C91.1105 135.29 92.378 150.481 89.1155 154.772C85.043 157.495 67.658 155.672 60.053 156.002C59.4605 150.241 57.8705 134.127 59.393 128.921Z" fill="#172A25"/>
<path d="M76.53 131.463L86.6175 132.206L86.52 152.183C78.8325 152.266 71.145 152.176 63.465 151.913C63.345 145.192 61.4775 138.725 63.48 133.241C65.94 131.006 66.1425 131.688 70.23 131.283L76.53 131.463Z" fill="#FEFDF3"/>
<path d="M59.3926 128.921C63.8101 127.555 77.0775 128.291 82.095 128.448L82.4401 129.378C80.1151 130.999 79.3651 130.999 76.5301 131.464L70.23 131.284C65.8575 130.991 63.2251 131.441 59.3926 128.921Z" fill="#12191A"/>
<path d="M88.0058 59.5124C89.5283 58.6647 91.5759 57.2994 93.2259 57.1719L94.7858 58.2447L94.9209 57.397L92.8358 57.487L94.9808 58.5222C93.4283 63.706 77.2283 78.7471 72.8183 82.7681C68.8433 77.9519 60.6758 68.3797 60.0908 62.4682C61.1783 60.7728 61.1934 60.8253 62.7759 59.535L63.9684 58.9273C67.4484 60.6152 66.6683 62.4307 69.7658 65.1538C74.8883 64.0661 76.3358 63.9986 81.6233 64.0361C83.8733 61.7255 85.1258 59.9175 88.0058 59.5124Z" fill="#1D4330"/>
<path d="M62.7754 59.5354L63.9679 58.9277C67.4479 60.6156 66.6679 62.4311 69.7654 65.1543C74.8879 64.0665 76.3353 63.999 81.6228 64.0365C83.8728 61.726 85.1253 59.918 88.0053 59.5129C86.5053 61.891 77.1454 70.5331 74.5804 73.1137C69.3904 68.5676 65.5354 61.5384 62.7754 59.5354Z" fill="#F3F5DF"/>
<path d="M89.1826 92.6719C90.4951 92.9344 90.1501 92.9119 91.3576 93.6771L91.6575 95.47C89.7375 100.766 76.4101 113.144 71.7526 117.413C67.7776 113.654 64.5375 109.326 61.1325 105.035C59.865 103.362 59.7601 102.784 59.0176 100.774C59.8426 98.1707 59.205 98.8908 61.2 97.5555C65.325 98.5457 69.0526 105.365 71.5801 109.086C77.3326 103.49 83.1976 98.0207 89.1826 92.6719Z" fill="#1D4330"/>
<path d="M105.818 64.591C111.968 63.7808 152.056 65.6488 158.018 67.0591L158.686 68.5745C153.346 69.4522 111.143 68.1694 106.538 66.579L105.818 64.591Z" fill="#12191A"/>
<path d="M104.468 151.785C111.39 150.45 133.583 151.373 141.645 151.433C144 151.448 144.33 152.333 145.493 153.818C141.525 154.351 134.13 154.478 130.073 154.321C123.96 154.088 108.66 155.559 104.468 151.785Z" fill="#12191A"/>
<path d="M111.78 134.509C117.713 134.291 128.108 133.616 133.553 135.222L133.838 136.114C131.715 137.855 130.785 137.66 127.98 137.712C122.198 137.825 108.885 138.417 103.68 136.79L103.478 135.889C105.96 134.321 108.825 134.569 111.78 134.509Z" fill="#12191A"/>
<path d="M104.686 77.4644C112.748 76.5266 129.676 77.1193 138.008 78.0345C140.251 78.2821 139.928 78.4921 141.076 80.165C136.141 81.4328 108.878 81.0952 104.686 77.4644Z" fill="#12191A"/>
<path d="M103.185 102.296C107.828 102.191 128.978 101.006 131.985 103.519L131.355 105.192C127.17 105.447 104.738 105.815 102.428 103.714L103.185 102.296Z" fill="#12191A"/>
<path d="M104.453 112.746C108.825 112.566 125.835 111.103 128.325 113.594L127.545 115.304C123.278 115.319 105.713 116.295 103.5 113.879L104.453 112.746Z" fill="#12191A"/>
<path d="M186.93 75.1914C228.698 75.514 249.555 123.983 211.23 147.404C205.335 151.005 196.583 151.853 189.69 152.813C177.953 151.718 168 150.442 158.318 142.82C150.69 136.699 145.77 127.824 144.63 118.109C141.383 90.6677 162.48 77.787 186.93 75.1914Z" fill="#F3F5DF"/>
<path d="M185.753 81.209C232.043 82.6418 237.863 141.666 188.858 146.737C179.19 146.677 169.605 144.885 162.015 138.508C155.603 133.114 151.62 125.38 150.96 117.023C149.288 95.2524 165.42 82.6493 185.753 81.209Z" fill="#12191A"/>
<path d="M180.946 85.5739C222.631 81.0428 233.026 134.283 192.826 141.575C184.493 141.958 176.911 141.935 169.403 137.764C163.081 134.276 158.453 128.349 156.601 121.365C151.801 103.248 164.138 89.9175 180.946 85.5739Z" fill="#F3F5DF"/>
<path d="M203.61 101.869C204.113 103.865 204.885 105.38 203.67 107.233C198.495 115.132 190.223 122.027 184.2 129.063C180.45 125.845 171.563 118.463 170.985 113.347C174.623 112.484 180.24 118.988 183.075 121.419C186.255 118.463 199.403 106.798 199.62 103.227C200.843 102.604 202.283 102.259 203.61 101.869Z" fill="#26573B"/>
<path d="M199.62 103.226C198.63 100.083 197.573 99.9176 197.895 96.8869L199.133 96.8418C201.233 98.4172 202.058 99.79 203.61 101.868C202.283 102.258 200.843 102.603 199.62 103.226Z" fill="#2B5E3F"/>
<path d="M118.343 20.4504C120.361 10.7806 124.051 0.783635 139.013 6.45577C142.066 7.6148 142.906 18.9876 143.423 22.746C145.343 24.4564 146.116 24.1263 148.928 24.6364L149.566 25.4917C149.138 29.8127 148.756 32.4008 149.251 36.6994C148.936 39.325 149.386 39.4826 147.946 40.983C142.426 40.9079 100.478 39.07 96.9606 38.1923L96.0081 37.9672C93.2331 35.4616 94.2981 29.1225 93.6306 24.0813C90.2406 25.9868 90.2856 26.1744 88.7856 29.5427C88.9431 32.761 88.7331 34.959 88.4706 38.1623C84.8631 37.7872 79.4856 37.8922 76.8081 36.3093C75.2556 34.3514 75.5331 33.091 75.4881 30.5404L74.3782 24.2463C73.1032 14.4489 110.948 20.2029 118.343 20.4504Z" fill="#FEFDF3"/>
<path d="M96.9609 38.1928C105.361 38.4403 110.311 36.3247 118.396 36.0397C128.483 35.6796 139.133 36.3022 149.251 36.6998C148.936 39.3255 149.386 39.4831 147.946 40.9834C142.426 40.9084 100.478 39.0705 96.9609 38.1928Z" fill="#E1F2D2"/>
<path d="M75.4883 30.5404C75.9683 30.5104 76.4932 30.5404 76.9357 30.3529C80.8732 28.62 85.5908 30.1579 88.7858 29.5427C88.9433 32.761 88.7332 34.9591 88.4707 38.1623C84.8632 37.7872 79.4858 37.8923 76.8083 36.3094C75.2558 34.3514 75.5333 33.0911 75.4883 30.5404Z" fill="#E1F2D2"/>
<path d="M74.3779 24.247L74.9329 25.0047C75.4804 25.7774 75.6379 25.995 76.0204 26.8877C77.9479 27.0978 78.6904 25.0798 79.2904 25.1173C84.1204 25.4249 88.9504 24.2621 93.6304 24.082C90.2404 25.9875 90.2854 26.1751 88.7854 29.5434C85.5904 30.1585 80.8729 28.6206 76.9354 30.3536C76.4929 30.5411 75.9679 30.5111 75.4879 30.5411L74.3779 24.247Z" fill="#F3F5DF"/>
<path d="M128.745 12.3717C131.16 10.9914 134.235 11.8091 135.645 14.2097C137.055 16.6103 136.283 19.6935 133.905 21.1414C132.338 22.0941 130.373 22.1316 128.775 21.2314C127.17 20.3312 126.18 18.6432 126.173 16.8053C126.165 14.9748 127.148 13.2794 128.745 12.3717Z" fill="#12191A"/>
<path d="M228.698 157.48L231.278 155.244C236.085 155.949 246.128 166.759 249.135 170.9C250.53 172.888 250.86 174.179 250.215 176.399C240.083 184.539 227.873 170.563 220.058 164.186L228.698 157.48Z" fill="#84AB82"/>
<path d="M228.698 157.48L231.278 155.244C236.086 155.949 246.128 166.759 249.136 170.9C242.288 175.829 231.203 163.384 228.698 157.48Z" fill="#E1F2D2"/>
<path d="M148.928 24.6367C154.485 24.7793 160.89 24.0666 165.068 27.3599C168.038 32.0335 166.155 37.6824 165.24 43.3763L155.055 42.9937C155.303 37.1723 155.385 28.9878 149.565 25.4919L148.928 24.6367Z" fill="#E1F2D2"/>
<path d="M222.938 148.154C225.383 148.094 226.651 148.349 228.541 149.73L228.676 151.41C226.628 154.553 222.166 157.367 219.016 159.692C216.668 159.467 214.778 158.769 213.886 156.631C214.973 154.749 220.703 150.277 222.938 148.154Z" fill="#E1F2D2"/>
<path d="M4.20767 172.61C12.8477 168.686 20.5652 167.974 28.9502 172.355C32.1752 177.666 33.1052 179.526 38.6177 182.437C35.5127 183.592 35.8877 182.932 34.1627 185.168C35.6102 186.781 35.4527 186.301 38.0477 186.901C37.2377 187.493 37.4552 187.471 36.5402 187.741C28.4852 187.321 13.9877 183.922 5.67773 182.04L6.46518 181.334C6.86268 178.349 5.67023 180.367 2.86523 176.691C3.65273 175.738 4.44024 174.77 5.21274 173.802L4.20767 172.61Z" fill="#7BA179" fill-opacity="0.439216"/>
<path d="M77.3402 187.397C77.3927 187.412 67.2452 186.767 64.5752 186.294L64.8152 185.979C69.6827 185.957 74.5577 185.897 79.4327 185.807C108.075 186.122 149.558 188.057 177.128 185.672L175.905 187.952C170.753 188.065 150.99 187.9 147.848 188.643L147.36 189.76C141.338 190.668 103.973 190.751 99.0227 187.997C96.3002 187 80.9702 187.375 77.3402 187.397Z" fill="#7CA27B" fill-opacity="0.0627451"/>
<path d="M198.795 170.256C198.923 172.161 199.043 175.98 199.418 177.69C200.903 179.686 202.103 181.959 204.323 182.559C210.315 182.184 209.505 176.49 214.508 180.556C214.425 182.859 210.938 186.355 209.025 187.473C194.483 189.221 162.09 190.173 147.36 189.761L147.848 188.643C150.99 187.9 170.753 188.065 175.905 187.953C183.128 187.12 192.18 188.718 195.51 181.674C198.66 177.255 198.39 175.672 198.795 170.256Z" fill="#7CA27B" fill-opacity="0.486275"/>
<path d="M188.483 1.70117C193.658 5.28555 189.443 9.76791 202.29 14.8617C199.065 16.1145 196.688 17.4272 193.651 19.0476C192.503 20.8856 191.31 23.8638 190.403 25.9268C189.773 26.1144 189.443 25.9943 188.723 25.9493C187.2 20.5855 183.57 17.5773 179.543 13.9614C180.675 13.2563 181.8 12.5286 182.895 11.7709C187.568 8.4851 187.576 7.10999 188.483 1.70117Z" fill="#12191A"/>
<path d="M190.493 9.37109C192.428 11.5166 193.32 11.7641 193.658 14.2623C192.173 16.4903 190.92 17.5406 189.015 19.3785L184.718 15.4926C186.563 13.7071 188.7 11.2991 190.493 9.37109Z" fill="#F3F5DF"/>
<path d="M199.418 177.69C210.428 175.379 210.728 175.372 221.363 178.47L224.16 186.234C218.753 186.999 214.531 187.757 209.026 187.472C210.938 186.354 214.425 182.858 214.508 180.555C209.505 176.489 210.315 182.183 204.323 182.558C202.103 181.958 200.903 179.685 199.418 177.69Z" fill="#7CA27B" fill-opacity="0.364706"/>
<path d="M39.3525 182.662C55.005 185.918 67.6351 183.795 79.4326 185.805C74.5576 185.895 69.6826 185.955 64.8151 185.978L64.575 186.293C67.245 186.766 77.3926 187.411 77.3401 187.396C80.6326 188.528 81.8475 188.536 85.2975 188.814C79.5975 189.129 50.91 189.129 46.005 188.213C43.7625 187.658 42.7501 187.388 40.6276 186.488C39.0976 184.545 39.525 185.4 39.3525 182.662Z" fill="#7CA27B" fill-opacity="0.305882"/>
<path d="M195.51 181.672C192.18 188.716 183.128 187.118 175.905 187.951L177.128 185.67C183.698 184.928 189.51 184.583 195.51 181.672Z" fill="#7CA27B" fill-opacity="0.188235"/>
<path d="M4.20749 172.611L5.21255 173.804C4.44005 174.772 3.65255 175.74 2.86505 176.692C5.67005 180.368 6.8625 178.35 6.465 181.336L5.67755 182.041C2.45255 180.503 0.75 179.963 0 176.415C1.62 173.579 0.884989 174.562 4.20749 172.611Z" fill="#7CA27B" fill-opacity="0.529412"/>
<path d="M38.618 182.438L39.353 182.663C39.5255 185.401 39.0981 184.546 40.6281 186.489C42.7506 187.389 43.763 187.659 46.0055 188.214C42.4055 188.266 40.103 188.394 36.5405 187.741C37.4555 187.471 37.238 187.494 38.048 186.901C35.453 186.301 35.6106 186.781 34.1631 185.168C35.8881 182.933 35.513 183.593 38.618 182.438Z" fill="#7CA27B" fill-opacity="0.419608"/>
<path d="M77.3408 187.396C80.9708 187.374 96.3008 186.999 99.0233 187.996C93.3083 189.054 91.0133 188.934 85.2983 188.814C81.8483 188.536 80.6333 188.529 77.3408 187.396Z" fill="#759974" fill-opacity="0.54902"/>
</svg>
