<svg width="337" height="247" viewBox="0 0 337 247" fill="none" xmlns="http://www.w3.org/2000/svg">
<path d="M110.896 213.549C114.891 208.176 114.822 212.234 117.102 208.57C114.567 207.946 104.119 208.379 100.708 208.363C82.6235 208.239 64.538 208.266 46.454 208.444C40.3887 208.48 34.0557 208.5 27.986 208.544C9.677 208.677 -0.127743 205.072 0.00125679 184.739C0.197007 154.115 0.361254 123.474 0.401754 92.8622L0.419012 55.9269C0.424262 46.9412 -1.29476 31.4799 5.39074 24.474C10.2357 19.3975 15.5592 18.4808 22.406 18.5003C75.1265 18.6503 127.849 18.552 180.571 18.5325L235.621 18.519C244.426 18.5183 267.661 16.4358 272.844 23.5092C281.161 34.8783 278.124 62.5818 278.004 77.2561C279.039 81.6192 278.814 87.4481 278.829 92.0415C293.626 115.919 292.906 130.266 281.536 155.461C295.096 164.735 324.046 182.633 329.626 197.889C332.926 206.898 321.841 215.577 312.556 216.41C297.399 217.768 284.109 195.915 274.381 193.859C280.231 212.699 246.676 207.726 238.449 208.474C228.519 209.376 178.741 206.355 173.521 209.003C173.379 211.383 174.736 210.834 174.691 213.798C185.821 211.63 248.844 215.593 259.951 223.846C262.449 225.699 262.509 226.067 262.966 228.609C254.079 251.518 40.2875 253.377 25.178 230.635C22.805 214.722 97.577 214.134 110.896 213.549Z" fill="#F5F9EE"/>
<path d="M110.896 213.549C114.891 208.176 114.822 212.234 117.102 208.57C114.567 207.946 104.119 208.379 100.708 208.363C82.6235 208.239 64.538 208.266 46.454 208.444C40.3887 208.48 34.0557 208.5 27.986 208.544C9.677 208.677 -0.127743 205.072 0.00125679 184.739C0.197007 154.115 0.361254 123.474 0.401754 92.8622L0.419012 55.9269C0.424262 46.9412 -1.29476 31.4799 5.39074 24.474C10.2357 19.3975 15.5592 18.4808 22.406 18.5003C75.1265 18.6503 127.849 18.552 180.571 18.5325L235.621 18.519C244.426 18.5183 267.661 16.4358 272.844 23.5092C281.161 34.8783 278.124 62.5818 278.004 77.2561C275.686 77.8285 272.784 75.5772 270.144 74.1631C269.896 66.0041 269.821 57.8399 269.904 49.6771L97.6693 49.6606C68.7568 49.6531 38.3157 49.1505 9.54723 49.7154L9.48049 143.182C9.46699 158.689 9.15576 174.769 9.65526 190.298C9.77826 194.11 11.6338 198.884 16.1383 199.202C29.5055 200.147 43.1855 199.843 56.6307 199.862L140.904 199.958C155.731 199.964 265.711 200.793 268.906 198.339C269.574 195.408 269.086 195.085 271.089 193.762L274.381 193.859C280.231 212.699 246.676 207.726 238.449 208.474C228.519 209.376 178.741 206.355 173.521 209.003C173.379 211.383 174.736 210.834 174.691 213.798C185.821 211.63 248.844 215.593 259.951 223.846C262.449 225.699 262.509 226.067 262.966 228.609C254.079 251.518 40.2875 253.377 25.178 230.635C22.805 214.722 97.577 214.134 110.896 213.549Z" fill="#122123"/>
<path d="M174.692 213.798C185.822 211.631 248.844 215.593 259.952 223.847C262.449 225.7 262.509 226.067 262.967 228.609C254.079 251.518 40.2878 253.377 25.1783 230.635C22.8053 214.722 97.5773 214.134 110.896 213.549C108.08 224.323 93.6533 218.132 88.6156 227.331C86.6131 230.989 90.5536 237.992 94.9396 238.875C98.8208 239.656 102.704 239.822 106.713 239.804C133.691 239.68 160.817 240.467 187.764 239.373C192.047 239.199 196.817 236.483 197.777 232.037C200.979 218.627 175.479 221.025 173.957 215.649L174.692 213.798Z" fill="#F5F9EE"/>
<path d="M10.3206 32.8119C13.7998 28.9162 14.2784 27.6499 19.4684 27.5344C33.8091 27.2155 48.3689 27.3896 62.7141 27.4241L141.601 27.4676L223.374 27.4541C236.311 27.4474 249.241 27.3783 262.179 27.4053C266.394 27.4143 267.969 29.4698 269.911 32.8344C269.649 34.7796 269.851 41.8269 269.874 44.1652C183.399 43.6626 95.8033 45.2394 9.51808 44.0482C9.48733 40.3182 9.22259 36.346 10.3206 32.8119Z" fill="#A9C2C3"/>
<path d="M10.3203 32.8119C13.7996 28.9162 14.2781 27.6499 19.4681 27.5344C33.8088 27.2155 48.3686 27.3896 62.7138 27.4241L141.601 27.4676L223.374 27.4541C236.311 27.4474 249.241 27.3783 262.179 27.4053C266.394 27.4143 267.969 29.4698 269.911 32.8344C258.796 32.6731 247.546 32.6844 236.424 32.7534C161.124 33.223 85.5978 31.8922 10.3203 32.8119Z" fill="#F5F9EE"/>
<path d="M120.964 209.868C135.856 210.01 150.751 209.945 165.639 209.672C165.699 212.289 165.706 217.318 166.599 219.733C168.609 225.224 186.421 225.705 188.026 230.102C184.216 232.246 172.531 231.826 167.784 231.846C156.601 231.865 105.867 232.809 100.027 230.342L100.117 229.251C113.383 220.294 119.497 231.999 120.964 209.868Z" fill="#98B6AF"/>
<path d="M259.681 176.517C247.531 182.091 238.629 185.772 224.701 185.328C208.936 184.827 192.609 178.048 181.854 166.383C171.331 154.956 165.886 139.762 166.734 124.255C169.059 75.2556 223.269 51.8311 263.176 77.2758C269.259 81.1528 274.096 86.6749 278.829 92.0417C293.626 115.919 292.906 130.266 281.536 155.461C295.096 164.735 324.046 182.633 329.626 197.89C332.926 206.898 321.841 215.577 312.556 216.41C297.399 217.769 284.109 195.915 274.381 193.859C268.381 186.105 267.376 183.049 259.681 176.517Z" fill="#122123"/>
<path d="M184.231 96.6243C192.114 84.4106 204.744 76.0513 219.061 73.569C233.379 71.0873 248.086 74.7092 259.614 83.5591C263.146 86.2688 266.311 89.4211 269.041 92.9379C285.271 113.855 283.209 143.625 264.256 162.104C245.296 180.583 215.491 181.879 195.001 165.114C174.519 148.349 169.884 118.87 184.231 96.6243Z" fill="#B6E0B6"/>
<path d="M219.361 82.8426C226.201 81.4195 233.281 81.6926 239.994 83.6378C260.754 89.6587 273.766 110.228 270.316 131.576C266.866 152.924 248.034 168.342 226.426 167.508C204.826 166.675 187.239 149.853 185.439 128.302C183.639 106.752 198.196 87.2462 219.361 82.8426Z" fill="#122123"/>
<path d="M221.724 88.1434C241.674 84.634 260.746 97.766 264.601 117.656C268.449 137.544 255.646 156.847 235.831 161.034C222.706 163.808 209.109 159.284 200.259 149.202C191.417 139.121 188.694 125.049 193.142 112.393C197.589 99.7382 208.517 90.4675 221.724 88.1434Z" fill="#F5F9EE"/>
<path d="M223.996 99.0527C240.121 97.5748 248.724 105.658 243.939 122.197C242.049 128.753 235.644 137.279 231.721 143.184C229.554 144.421 230.514 144.236 228.084 144.157C223.351 141.416 217.869 131.993 215.536 127.1C209.694 114.837 210.924 105.121 223.996 99.0527Z" fill="#558C6B"/>
<path d="M226.404 103.435C232.966 103.176 240.196 106.203 238.876 114.022C237.924 119.663 234.669 121.561 230.341 124.585C220.906 124.528 211.029 111.344 226.404 103.435Z" fill="#F5F9EE"/>
<path d="M184.231 96.6243C192.114 84.4106 204.744 76.0513 219.061 73.569C233.379 71.0873 248.086 74.7092 259.614 83.5591L258.369 88.2838C251.799 84.3603 248.244 82.1856 240.826 80.2906L239.994 83.6372C233.281 81.6919 226.201 81.4189 219.361 82.842C217.659 81.4886 217.651 81.9417 217.269 80.2831C203.244 83.4316 198.219 88.046 187.816 97.2687C186.976 98.0122 185.236 97.0257 184.231 96.6243Z" fill="#F5F9EE"/>
<path d="M217.269 80.2834C223.891 78.5617 233.986 79.4072 240.826 80.2909L239.994 83.6374C233.281 81.6922 226.201 81.4191 219.361 82.8422C217.659 81.4889 217.651 81.942 217.269 80.2834Z" fill="#CBE8CC"/>
<path d="M259.614 83.5605C263.146 86.2702 266.311 89.4225 269.041 92.9393C264.999 95.4757 260.731 91.2814 258.369 88.2852L259.614 83.5605Z" fill="#CBE8CC"/>
<path d="M284.364 172.595C285.579 171.011 286.704 169.01 288.519 168.543C292.381 171.433 317.934 191.324 320.574 193.997C322.231 200.096 317.791 208.587 312.174 207.826C300.061 206.186 280.839 185.705 272.551 178.113C277.831 176.264 279.661 175.557 284.364 172.595Z" fill="#82A4A0"/>
<path d="M284.364 172.595C285.579 171.011 286.704 169.01 288.519 168.543C292.381 171.433 317.934 191.324 320.574 193.997C319.381 194.8 319.681 194.553 318.196 194.916C312.444 193.631 290.814 177.193 284.364 172.595Z" fill="#F5F9EE"/>
<path d="M277.479 158.861C281.004 160.765 283.014 161.766 282.054 165.86C279.151 169.755 274.389 171.562 270.009 173.515C267.594 173.885 268.494 174.059 266.334 173.169L266.064 171.808C267.639 168.771 274.644 161.89 277.479 158.861Z" fill="#F5F9EE"/>
<path d="M194.829 186.609C195.346 189.027 195.481 188.09 194.604 190.279C190.951 192.534 183.151 191.26 178.704 191.255L151.501 191.318C128.404 191.338 104.983 191.459 81.8795 191.257C80.1778 191.242 73.0063 190.343 72.3148 189.131C67.6686 179.171 70.8396 164.609 70.3138 153.687C70.0753 149.48 73.4301 145.673 77.6241 145.596C97.3438 145.234 117.139 145.329 136.864 145.367C144.864 145.382 154.561 144.943 162.339 145.661L163.396 147.791C167.889 160.84 177.841 173.172 189.099 180.903C192.106 182.971 193.599 183.071 194.829 186.609Z" fill="#B6E0B6"/>
<path d="M194.829 186.609C195.346 189.027 195.481 188.09 194.604 190.279C190.951 192.534 183.151 191.26 178.704 191.255L151.501 191.318C128.404 191.338 104.983 191.459 81.8795 191.257C80.1778 191.242 73.0063 190.343 72.3148 189.131C67.6686 179.171 70.8396 164.609 70.3138 153.687C70.0753 149.48 73.4301 145.673 77.6241 145.596C97.3438 145.234 117.139 145.329 136.864 145.367C144.864 145.382 154.561 144.943 162.339 145.661L163.396 147.791C161.409 150.721 161.221 149.75 157.899 150.135C146.791 151.423 80.7658 147.625 75.9583 152.09C74.1501 157.096 74.5708 180.681 75.1536 186.664C113.149 187.255 156.924 187.468 194.829 186.609Z" fill="#336651"/>
<path d="M42.2854 106.524C50.4544 105.917 57.5666 112.054 58.1636 120.226C58.7614 128.398 52.6174 135.504 44.4476 136.092C36.2899 136.68 29.1986 130.547 28.6016 122.388C28.0054 114.229 34.1291 107.129 42.2854 106.524Z" fill="#778275"/>
<path d="M39.7928 149.229C47.8208 147.735 55.5421 153.026 57.0466 161.054C58.5511 169.082 53.2703 176.812 45.2468 178.326C37.2083 179.845 29.4638 174.552 27.9563 166.509C26.4488 158.467 31.7506 150.726 39.7928 149.229Z" fill="#778275"/>
<path d="M42.3762 65.228C50.2527 64.5363 57.218 70.3165 57.9912 78.1867C58.7645 86.0576 53.0577 93.0831 45.1977 93.9383C40.0399 94.4986 34.9789 92.2458 31.9437 88.0373C28.9084 83.8295 28.3662 78.3149 30.5247 73.5963C32.6832 68.8776 37.2087 65.6826 42.3762 65.228Z" fill="#558C6B"/>
<path d="M72.0772 86.2633L121.769 86.2168C126.225 86.1988 145.824 85.2011 148.674 87.6857C149.109 90.1785 149.282 89.0097 148.074 91.3008C138.677 91.3211 72.7553 92.9872 70.6035 88.88L72.0772 86.2633Z" fill="#788A7D"/>
<path d="M70.118 113.326L122.076 113.134C128.981 113.113 143.124 112.699 149.514 113.453C150.916 115.285 150.451 114.747 150.114 117.855L96.9027 117.987C90.938 118.005 76.1727 118.483 71.1612 117.678C69.6987 115.96 70.1937 116.233 70.118 113.326Z" fill="#788A7D"/>
<path d="M69.9409 73.4324C89.5332 73.0415 109.304 73.5652 128.913 73.2486C134.799 73.1533 141.159 73.0505 146.971 73.6169C148.629 75.1406 148.096 74.8697 148.434 77.8232C136.576 78.3821 121.685 77.8952 109.617 78.0235C98.5729 78.1405 82.3264 78.5359 71.6029 77.7422C69.7587 76.2471 70.3542 76.6357 69.9409 73.4324Z" fill="#788A7D"/>
<path d="M70.2876 130.538L70.4631 127.892C73.1249 125.901 108.231 125.828 111.841 127.86C112.25 130.059 112.394 129.069 111.716 130.958C106.59 131.714 74.5296 131.846 70.2876 130.538Z" fill="#778275"/>
<path d="M70.2876 130.539C74.2866 129.854 107.821 130.161 111.716 130.958C106.59 131.715 74.5296 131.846 70.2876 130.539Z" fill="#343C3A"/>
<path d="M280.937 16.6413C284.957 14.9834 287.327 13.9309 290.777 11.39C295.022 8.25801 296.702 1.17254 299.139 0C301.982 2.37208 302.454 6.41482 306.654 10.8664L307.269 11.5123C311.964 14.225 314.777 15.5213 319.682 17.6451C312.422 18.4568 309.692 17.9999 304.464 23.1401C303.947 24.9713 299.514 33.2249 298.457 35.4289C295.119 21.5377 294.279 21.1604 280.937 16.6413Z" fill="#091114"/>
<path d="M299.289 8.08398C301.509 11.117 301.914 11.5753 304.906 13.8926C305.964 14.7734 306.819 15.486 307.809 16.4575L307.134 17.2002C303.144 19.2249 302.206 20.5648 299.574 23.9691C296.281 19.8003 295.486 18.9984 291.159 15.9564C295.366 12.9692 296.079 12.1672 299.289 8.08398Z" fill="#F5F9EE"/>
<path d="M307.269 11.5117C311.964 14.2244 314.776 15.5207 319.681 17.6445C312.421 18.4562 309.691 17.9993 304.464 23.1396C305.064 21.4989 306.369 18.8785 307.134 17.2011L307.809 16.4584C306.819 15.4869 305.964 14.7743 304.906 13.8936L305.701 13.2251L308.476 14.4674C307.816 13.5425 307.771 13.4352 307.494 12.3737L307.269 11.5117Z" fill="#122123"/>
<path d="M313.201 48.2738C315.271 46.4779 316.651 45.3099 318.421 43.1538C320.664 40.4172 320.754 35.9791 323.146 34.7285C328.494 43.6234 324.174 43.7412 336.841 51.6174C333.031 53.3863 329.071 55.201 326.634 58.6684C325.059 61.8994 323.979 65.7846 322.899 69.2474C318.916 57.2543 317.686 55.8927 305.904 51.3668C308.274 50.2971 310.794 49.2836 313.201 48.2738Z" fill="#122123"/>
<path d="M305.904 51.3664C308.274 50.2967 310.794 49.2832 313.201 48.2734C314.229 50.401 313.756 50.3124 315.414 51.1001C317.236 52.4625 322.284 57.2066 323.311 57.0896C324.879 57.65 325.381 57.6417 326.634 58.668C325.059 61.899 323.979 65.7842 322.899 69.2471C318.916 57.2539 317.686 55.8923 305.904 51.3664Z" fill="#010203"/>
<path d="M323.289 43.1582C325.479 47.2032 326.034 47.7433 329.357 50.9631C327.264 52.9451 325.142 54.8603 323.312 57.0899C322.284 57.2069 317.237 52.4627 315.414 51.1004C318.887 48.0599 320.349 46.6736 323.289 43.1582Z" fill="#F5F9EE"/>
</svg>
