<svg width="280" height="213" viewBox="0 0 280 213" fill="none" xmlns="http://www.w3.org/2000/svg">
<path d="M79.4843 195.736C70.9493 193.642 42.5767 185.016 37.3417 179.035C36.5842 172.459 49.8442 166.489 54.0442 162.078C59.1217 156.749 62.4067 149.932 64.5292 142.958C74.2042 111.235 72.2017 30.5989 88.5142 8.59606C92.1817 3.64936 97.0118 1.76115 102.922 0.935944C122.459 -1.79022 242.594 1.57285 252.142 9.28173C254.849 11.4678 255.944 14.6688 256.297 18.0206C256.867 23.4317 254.722 45.2343 251.039 49.0925C247.784 52.4975 240.877 52.2417 236.564 52.1247C234.794 64.9671 234.787 88.5633 231.194 99.7463C233.129 100.496 233.969 100.671 236.039 100.686C236.399 101.301 236.849 102.004 237.112 102.641C246.142 95.5851 252.667 60.2417 269.962 63.3077C292.124 67.2356 270.007 100.726 265.049 110.244C254.294 130.877 226.402 193.96 202.642 198.023L197.819 199.497C191.677 199.746 191.737 200.546 188.024 205.454C167.437 207.715 153.239 205.362 134.377 205.608C131.182 204.75 122.737 203.842 119.497 203.917C106.709 200.829 93.6143 199.26 79.4843 195.736Z" fill="#FEFDF3"/>
<path d="M79.4843 195.736C70.9493 193.642 42.5767 185.016 37.3417 179.035C36.5842 172.459 49.8442 166.489 54.0442 162.078C59.1217 156.749 62.4067 149.932 64.5292 142.958C74.2042 111.235 72.2017 30.5989 88.5142 8.59606C92.1817 3.64936 97.0118 1.76115 102.922 0.935944C122.459 -1.79022 242.594 1.57285 252.142 9.28173C254.849 11.4678 255.944 14.6688 256.297 18.0206C256.867 23.4317 254.722 45.2343 251.039 49.0925C247.784 52.4975 240.877 52.2417 236.564 52.1247C234.794 64.9671 234.787 88.5633 231.194 99.7463C230.452 106.397 228.502 107.593 224.287 113.181C221.467 109.923 230.864 34.839 233.564 26.5247C235.102 21.7873 237.794 15.44 240.682 11.0717C212.407 7.78437 183.704 7.15947 155.257 6.23299C139.724 5.72737 123.097 4.22925 107.669 5.98018C104.204 6.37327 100.694 6.8984 97.9117 9.17521C77.5042 25.8578 83.3242 121.993 70.1392 151.663C65.4592 162.193 56.8943 168.9 49.6868 177.449C60.8243 183.281 71.4292 185.273 83.3917 188.092C110.392 194.455 136.424 196.995 164.069 197.585C171.164 197.737 178.252 197.206 185.392 197.368C192.487 197.529 190.537 199.744 197.819 199.497C191.677 199.746 191.737 200.546 188.024 205.454C167.437 207.715 153.239 205.362 134.377 205.608C131.182 204.75 122.737 203.842 119.497 203.917C106.709 200.829 93.6143 199.26 79.4843 195.736Z" fill="#12191A"/>
<path d="M247.132 14.8125C249.382 15.3879 248.55 14.7817 249.847 16.5184C250.41 22.7127 247.05 37.1942 245.392 43.5153C244.95 45.2024 244.11 45.0831 242.475 45.6683C241.65 45.4485 239.227 44.8806 239.017 44.3022C235.627 35.1732 241.68 19.9843 247.132 14.8125Z" fill="#B4D8B0"/>
<path d="M237.112 102.641C246.142 95.5846 252.668 60.2412 269.963 63.3072C292.125 67.2351 270.007 100.726 265.05 110.244C254.295 130.877 226.403 193.959 202.643 198.023L199.103 191.862C200.16 162.82 213.99 146.803 227.19 122.221C230.355 116.326 235.005 108.963 237.112 102.641Z" fill="#12191A"/>
<path d="M250.334 92.9082L257.542 96.4506C259.259 97.5729 261.359 98.8572 262.882 100.171C258.457 109.429 253.717 119.624 248.849 128.568C242.174 140.831 234.644 152.654 228.112 165.063C226.349 163.483 224.572 161.917 222.787 160.363L214.979 156.804C219.554 146.531 228.502 132.31 233.992 122.165C238.664 113.531 245.099 100.787 250.334 92.9082Z" fill="#F3F5DF"/>
<path d="M257.542 96.4492C259.26 97.5715 261.36 98.8558 262.882 100.17C258.457 109.427 253.717 119.622 248.85 128.567C242.175 140.829 234.645 152.652 228.112 165.062C226.35 163.482 224.572 161.915 222.787 160.362C226.74 150.678 235.222 136.269 240.292 126.866C244.845 118.428 252.217 103.887 257.542 96.4492Z" fill="#84AB82"/>
<path d="M211.717 161.176C215.797 162.456 220.657 166.541 224.137 169.227C220.935 176.52 219.645 177.256 213.262 182.407C211.395 183.814 208.237 185.585 206.145 186.843C205.92 176.221 207.352 170.885 211.717 161.176Z" fill="#E9F4DD"/>
<path d="M264.202 69.1761C278.617 68.5025 273.629 80.2639 269.287 87.8827C265.559 80.1198 266.317 79.8595 257.542 78.7035C259.529 75.4559 261.952 72.2677 264.202 69.1761Z" fill="#F3F5DF"/>
<path d="M260.249 92.2454C256.709 90.1734 253.507 90.2522 251.744 87.4465C252.772 84.9281 252.524 85.67 254.954 83.7601C257.452 82.9679 258.989 83.9296 261.539 84.8778C265.319 87.3062 268.334 89.1577 265.439 94.1831C262.904 94.9701 262.109 94.2364 260.249 92.2454Z" fill="#F3F5DF"/>
<path d="M261.54 84.8789C265.32 87.3072 268.335 89.1587 265.44 94.1842C262.905 94.9711 262.11 94.2375 260.25 92.2465C260.692 91.0567 261.322 86.398 261.54 84.8789Z" fill="#84AB82"/>
<path d="M180.787 24.5933C187.417 24.2452 218.76 24.411 222.33 29.1687C224.055 37.5107 218.512 65.0995 216.727 74.4415C216.12 77.638 214.837 78.1916 212.505 79.533C206.88 79.2997 175.98 78.6372 171.51 74.0071C169.642 72.0746 171.202 58.3073 172.177 54.8655C173.992 48.4949 174.9 28.2527 180.787 24.5933Z" fill="#1D4330"/>
<path d="M182.654 28.1264C192.217 27.9006 209.159 28.7783 218.092 30.7791C218.099 36.8713 214.124 72.0654 211.282 75.4952C200.527 75.5853 185.182 73.6596 174.547 72.0422C175.334 61.9372 179.609 37.1534 182.654 28.1264Z" fill="#FEFDF3"/>
<path d="M201.629 34.2773C203.092 34.6089 202.649 34.4791 203.969 35.2151C204.232 39.9412 204.517 39.4123 207.637 42.4693L207.614 43.5324C205.364 44.9622 199.942 43.1978 194.579 44.7184L193.972 46.5413C195.532 48.3875 201.959 51.5481 204.337 52.8076C205.994 58.8128 201.689 63.0889 196.687 65.3867C195.352 65.9981 194.669 67.9501 193.927 69.3221C193.012 68.602 192.194 68.0873 191.782 66.9973C189.854 61.9103 189.284 65.2126 187.012 62.0821L187.402 60.2787C191.137 58.2232 195.239 62.0439 199.064 59.7483C199.904 57.0116 199.837 58.1722 199.259 55.329C195.652 51.4273 191.677 54.5173 189.299 49.2532C189.472 46.1167 191.084 42.9375 193.379 40.8174C199.582 39.8182 199.207 39.8234 201.629 34.2773Z" fill="#1D4330"/>
<path d="M134.534 95.7953C146.144 94.9199 183.224 97.2192 196.394 99.0946C197.062 99.1892 197.204 101.314 197.392 102.32C186.112 102.978 149.834 99.6272 136.769 98.5582C135.352 98.4427 134.999 96.9416 134.534 95.7953Z" fill="#12191A"/>
<path d="M135.42 131.817C145.102 131.17 193.35 132.076 200.392 135.501L200.662 137.131C195.262 138.009 140.557 135.308 136.072 133.83L135.42 131.817Z" fill="#12191A"/>
<path d="M128.564 160.144C134.489 159.412 181.574 160.786 189.209 163.555C190.049 163.858 189.892 164.485 190.02 165.476C181.41 166.796 141.555 164.256 130.957 163.085C129.33 162.906 129.134 161.528 128.564 160.144Z" fill="#12191A"/>
<path d="M126.487 81.791L128.452 82.2974L129.195 83.587C128.28 88.4376 113.625 103.156 108.667 103.333C106.162 101.654 105.562 100.117 104.13 97.5209C102.495 94.4046 99.7047 90.5854 103.185 88.1361C107.79 89.0723 108.487 91.9575 110.625 95.9035C115.777 90.731 120.375 85.7962 126.487 81.791Z" fill="#2B5E3F"/>
<path d="M123.277 121.59C124.192 121.792 124.357 122.002 125.212 122.474L125.415 124.325C123.945 128.308 116.392 136.066 112.867 138.456C105.517 143.433 103.027 141.621 98.8496 135.2C97.5446 132.22 96.3521 130.495 97.8596 127.377L99.4721 127.563C102.652 129.214 104.07 132.332 105.967 135.451C110.595 132.524 118.762 125.355 123.277 121.59Z" fill="#2B5E3F"/>
<path d="M116.692 155.303C119.024 155.41 117.989 155.066 119.924 156.355C120.217 161.574 106.649 173.237 101.699 173.504C99.3368 171.78 98.0243 168.776 96.5243 166.131C95.0918 162.999 93.3068 160.597 94.9343 157.348L96.7193 157.654C99.8243 159.429 101.542 163.019 103.424 166.156C108.112 162.033 111.659 159.018 116.692 155.303Z" fill="#2B5E3F"/>
<path d="M102.337 56.1156C112.544 55.643 123.277 56.4037 133.552 56.4075C138.292 56.4097 154.582 55.9709 157.154 59.3077L156.457 61.0593C149.212 60.8425 105.652 60.1246 101.857 58.5717L101.422 57.2724L102.337 56.1156Z" fill="#12191A"/>
<path d="M106.305 35.7588C112.935 35.3132 151.95 34.9126 155.595 37.575L155.7 39.6635C150.69 40.3289 110.955 39.5037 106.927 37.9096L106.305 35.7588Z" fill="#12191A"/>
<path d="M23.22 20.7383C27.945 22.8493 28.7849 33.745 33.2024 37.5904C36.2624 40.249 44.8875 42.9099 46.1325 46.339C42.2025 48.3105 35.0775 51.2955 32.1375 54.2955C28.095 58.4237 28.2149 65.6075 24.1124 69.8378C22.9049 67.7095 21.81 62.444 19.74 58.615C14.3625 48.6428 9.975 47.8799 0 44.6129C15.2925 37.886 18.5625 37.147 23.22 20.7383Z" fill="#12191A"/>
<path d="M24.945 29.3379C29.415 37.8885 26.8275 39.4736 36.93 45.4308C30.315 49.2507 28.0949 51.388 24.8624 58.1314C21.4649 50.8546 19.2 48.4488 12.5625 44.2808C19.6125 40.1315 21.6825 36.6147 24.945 29.3379Z" fill="#F3F5DF"/>
<path d="M51.7568 195.688C54.6743 195.376 61.0493 195.569 63.9443 196.184C73.8668 197.798 82.1243 199.129 91.8668 202.23C95.6243 203.427 106.799 202.888 109.349 204.812C111.824 206.457 139.829 209.858 141.254 209.361C139.589 204.18 137.467 208.204 134.377 205.607C153.239 205.361 167.437 207.714 188.024 205.453C199.297 200.895 199.424 208.814 211.342 199.405C209.422 212.143 199.912 202.444 193.582 209.108C189.532 209.234 187.889 208.395 185.437 211.993C159.442 212.378 134.639 212.448 108.607 210.967C100.807 210.524 82.5593 210.414 75.3893 208.799C86.6618 206 94.1318 208.093 105.532 207.991C109.214 207.958 110.984 208.875 114.764 208.638L114.757 208.206C102.824 205.438 90.0593 205.371 77.8493 203.715C73.8818 203.176 73.0643 199.545 71.6018 199.055C65.2718 196.935 59.1743 197.895 52.5518 195.931L51.7568 195.688Z" fill="#84AB82" fill-opacity="0.341176"/>
<path d="M211.342 199.405C212.452 197.976 224.392 191.592 226.814 190.283L227.827 191.417C230.557 193.479 247.829 194.621 253.717 196.062C251.557 197.848 251.047 199.955 250.072 202.561L250.507 204.196C244.762 207.458 217.664 210.643 211.139 210.294C207.292 208.646 198.165 209.037 193.582 209.108C199.912 202.444 209.422 212.143 211.342 199.405Z" fill="#84AB82" fill-opacity="0.403922"/>
<path d="M75.3895 208.8C74.9545 208.838 73.7846 208.95 73.3796 208.877C67.4021 207.812 44.272 207.026 44.7595 199.168C47.062 196.564 47.9096 196.925 51.7571 195.689L52.5521 195.932C59.1746 197.896 65.2721 196.936 71.6021 199.056C73.0646 199.546 73.882 203.177 77.8495 203.716C90.0595 205.372 102.825 205.44 114.757 208.207L114.765 208.639C110.985 208.876 109.215 207.959 105.532 207.992C94.1321 208.094 86.662 206.001 75.3895 208.8Z" fill="#84AB82" fill-opacity="0.415686"/>
<path d="M49.9573 14.5626C54.6673 10.3174 53.6698 6.71798 56.4973 4.49219C58.6048 5.84927 59.8873 10.0976 60.9973 12.7209C65.2273 14.5949 67.1623 15.7749 71.1073 18.2791C59.5048 23.8192 63.9598 23.5131 56.1373 30.6766C52.0273 27.3548 57.0073 23.9309 45.1348 18.6204C45.7498 16.6151 47.7448 15.9827 49.9573 14.5626Z" fill="#12191A"/>
<path d="M49.957 14.5626C54.667 10.3174 53.6695 6.71798 56.497 4.49219C58.6045 5.84927 59.887 10.0976 60.997 12.7209L61.732 16.8109C59.377 14.6024 59.4445 13.8455 56.827 13.7922C55.102 15.3901 53.032 17.2048 50.9845 18.3518C51.0445 16.6152 50.6545 16.2716 49.957 14.5626Z" fill="#12191A"/>
<path d="M50.9844 18.3526C53.0319 17.2056 55.1018 15.3909 56.8268 13.793C59.4443 13.8462 59.3768 14.6032 61.7318 16.8117L63.0969 17.8717C60.8544 20.7817 58.8894 21.0375 56.7969 23.2858C55.1769 21.952 52.5219 19.3728 50.9844 18.3526Z" fill="#FADBB0"/>
<path d="M47.16 63.7578C49.89 65.5635 51.8025 70.5987 53.52 73.928C55.785 74.6497 58.0275 75.1163 59.79 76.6242C58.365 79.8477 53.9775 77.907 49.6575 86.6632L49.23 87.5454L48.6974 88.8417C47.1449 88.4658 43.6874 81.5904 41.7449 79.1516C40.2299 78.7645 39.2475 78.7127 38.25 77.5342C40.275 71.9258 45.42 77.2198 47.16 63.7578Z" fill="#12191A"/>
<path d="M79.4843 195.736C93.6143 199.261 106.709 200.829 119.497 203.918C114.457 205.315 114.442 205.523 109.349 204.813C106.799 202.889 95.6243 203.428 91.8668 202.231C82.1243 199.13 73.8668 197.799 63.9443 196.185C70.0418 195.384 75.8243 196.77 79.4843 195.736Z" fill="#84AB82" fill-opacity="0.215686"/>
<path d="M243.037 172.056C246.127 167.367 250.627 157.403 254.73 155.402L255.645 156.017C256.822 162.825 254.745 168.179 250.965 173.543C247.665 174.899 248.857 174.954 246.217 173.936C245.355 172.31 246.015 174.633 243.037 172.056Z" fill="#7CA27B" fill-opacity="0.415686"/>
<path d="M119.497 203.916C122.737 203.841 131.182 204.749 134.377 205.607C137.467 208.203 139.59 204.179 141.255 209.361C139.83 209.858 111.825 206.457 109.35 204.811C114.442 205.522 114.457 205.313 119.497 203.916Z" fill="#84AB82" fill-opacity="0.301961"/>
<path d="M243.037 172.055C246.015 174.632 245.355 172.308 246.217 173.934C248.857 174.953 247.665 174.897 250.965 173.541C244.342 183.897 244.027 176.643 237.09 183.191L237.3 180.414C238.17 177.793 241.26 174.106 243.037 172.055Z" fill="#7CA27B" fill-opacity="0.34902"/>
<path d="M193.582 209.108C198.165 209.038 207.292 208.647 211.14 210.294C203.662 210.826 192.652 211.954 185.438 211.994C187.89 208.396 189.532 209.234 193.582 209.108Z" fill="#84AB82" fill-opacity="0.435294"/>
<path d="M253.717 196.062C254.947 198.987 255.405 198.768 254.865 201.57C253.005 203.138 252.765 203.206 250.507 204.197L250.072 202.561C251.047 199.956 251.557 197.849 253.717 196.062Z" fill="#7CA27B" fill-opacity="0.513725"/>
<path d="M237.299 180.414L237.09 183.191C234.24 185.927 230.107 189.13 227.827 191.417L226.814 190.283C230.669 187.136 234.299 184.409 237.299 180.414Z" fill="#7CA27B" fill-opacity="0.698039"/>
</svg>
