<svg width="308" height="257" viewBox="0 0 308 257" fill="none" xmlns="http://www.w3.org/2000/svg">
<path d="M171.994 23.0383C177.071 9.17418 184.609 -0.544422 201.956 4.94917C211.496 7.97166 214.429 17.5657 213.244 27.0675C215.861 27.7202 220.331 28.7262 222.604 29.8665C224.809 31.051 227.029 36.3976 229.466 36.877C239.794 38.91 254.824 37.8229 261.409 47.8056C262.834 49.9624 263.314 54.5903 263.051 57.1836C261.806 69.1843 258.476 81.2165 256.819 93.1302C264.041 93.3935 296.794 93.1782 293.936 105.27C292.226 112.497 283.624 125.16 277.661 130.136C281.179 131.314 285.206 132.541 288.844 133.266C326.569 140.774 298.579 154.421 284.449 167.231C282.686 182.286 280.616 201.238 276.971 215.724C341.816 226.969 250.241 253.503 234.596 254.343C228.311 254.681 220.451 256.646 213.851 256.286C205.729 256.571 201.484 255.768 193.691 255.371C185.516 257.404 121.076 252.663 106.834 251.177C88.8938 249.294 33.3038 243.015 18.3413 228.109C16.9688 226.736 17.2539 225.078 17.4789 223.436C22.6164 217.029 35.5388 214.553 43.2563 213.683C41.8313 206.481 39.7613 197.612 39.5738 190.432C31.8488 188.088 -0.581155 183.881 6.40885 171.393C10.8263 163.493 29.7713 144.249 37.8788 140.668C32.0138 128.54 29.3963 117.798 25.7663 104.882C19.1513 103.529 10.2938 102.091 5.92883 96.7783C-10.6537 76.6044 11.2463 65.9653 26.4038 57.2362C36.4688 51.5963 45.8813 47.9211 57.5963 49.561C84.2588 53.2947 97.6013 58.1799 94.7513 87.0695L99.1013 86.5668C101.089 76.4979 110.966 35.844 114.776 27.6227C127.691 16.9386 139.819 24.8815 153.844 23.9776C162.566 23.4157 161.689 21.3219 171.994 23.0383Z" fill="#122123"/>
<path d="M43.2564 213.684C43.9314 217.247 44.3814 221.335 47.5164 223.661C57.4614 231.065 143.719 245.529 161.546 248.77C171.881 250.653 183.934 251.575 193.691 255.371C185.516 257.404 121.076 252.663 106.834 251.178C88.8939 249.295 33.3039 243.016 18.3414 228.11C16.9689 226.737 17.2539 225.079 17.4789 223.436C22.6164 217.029 35.5389 214.554 43.2564 213.684Z" fill="#F5F9EE"/>
<path d="M276.972 215.723C341.817 226.968 250.242 253.502 234.597 254.342C228.312 254.68 220.452 256.645 213.852 256.285C228.342 245.775 265.107 228.333 276.972 215.723Z" fill="#F5F9EE"/>
<path d="M99.1007 86.5664C98.6357 89.3886 95.9356 103.437 96.1606 105.026C87.6556 102.179 83.9507 109.876 74.9357 109.346L72.2207 101.266C80.6282 96.6143 86.8231 92.5371 94.7506 87.069L99.1007 86.5664Z" fill="#E2EFDB"/>
<path d="M74.9365 109.347C83.9515 109.876 87.6565 102.18 96.1615 105.026C93.904 110.87 82.849 113.731 77.0515 115.875C76.489 114.003 75.709 111.026 74.9365 109.347Z" fill="#CBE8CC"/>
<path d="M92.2012 150.927C100.984 112.805 109.151 74.0088 120.334 36.5311C123.161 27.0615 131.734 29.1313 139.541 29.5904C143.171 29.8027 149.426 29.7419 152.531 31.018C153.341 32.6917 152.449 36.2506 152.134 38.3038L152.411 41.5521C153.701 42.8379 155.674 44.6969 157.556 45.042C177.386 48.6781 197.936 51.1845 218.021 52.9361C224.464 53.4973 225.806 49.4605 227.809 44.1845C234.994 45.066 247.451 46.1094 253.046 50.2204C257.906 56.5145 244.151 98.3274 247.571 103.36C253.699 105.49 252.259 100.131 259.361 100.183C269.036 100.253 278.059 101.695 287.516 103.588C284.471 110.257 280.931 116.691 276.934 122.84C273.701 117.061 267.941 114.399 262.376 113.412C253.706 111.872 215.756 99.8691 210.829 104.798C201.904 113.732 186.536 157.314 182.869 168.41C155.966 162.881 129.026 157.563 102.041 152.456L92.2012 150.927Z" fill="#FEFDF1"/>
<path d="M92.2012 150.927C100.984 112.805 109.151 74.0088 120.334 36.5311C123.161 27.0615 131.734 29.1313 139.541 29.5904C143.171 29.8027 149.426 29.7419 152.531 31.018C153.341 32.6917 152.449 36.2506 152.134 38.3038L152.411 41.5521C145.871 41.5851 139.294 40.9564 132.769 40.4538C130.249 51.1507 108.649 149.488 106.324 150.676C105.206 151.248 103.624 151.264 102.379 151.392L102.041 152.456L92.2012 150.927Z" fill="#F5F9EE"/>
<path d="M126.964 42.0188C131.066 42.4726 129.604 42.8957 132.769 40.4531C130.249 51.15 108.649 149.488 106.324 150.675C105.206 151.248 103.624 151.263 102.379 151.391C103.346 141.905 108.896 119.489 111.184 109.581C116.284 87.0238 121.541 64.5025 126.964 42.0188Z" fill="#87B795"/>
<path d="M126.964 42.0196C127.534 40.1119 127.961 38.0069 129.776 36.9949C134.809 34.1809 146.899 36.6633 152.134 38.3039L152.411 41.5522C145.871 41.5852 139.294 40.9566 132.769 40.4539C129.604 42.8965 131.066 42.4735 126.964 42.0196Z" fill="#D9D7BA"/>
<path d="M139.384 55.9082C145.272 56.5706 163.272 57.1692 166.377 60.8421C167.584 65.386 162.919 77.8188 161.367 83.5787C161.232 83.8653 160.384 84.5982 160.107 84.8615C155.157 85.0723 140.322 82.4459 134.914 81.563C136.092 73.2539 137.892 64.2262 139.384 55.9082Z" fill="#336651"/>
<path d="M143.538 60.1816C150.483 61.5995 156.948 62.1171 163.998 62.796C158.816 65.5274 155.268 67.7427 150.378 70.9085C148.691 68.988 147.176 66.7997 144.896 65.9183L144.086 67.0998C144.183 70.7645 145.601 75.0765 149.576 75.7974C152.853 73.2026 157.166 70.4771 160.691 68.1141L157.436 80.5033C151.443 79.6339 145.968 79.0825 139.841 78.072C140.478 73.2228 142.443 65.2004 143.538 60.1816Z" fill="#F5F9EE"/>
<path d="M124.916 128.906C132.536 129.352 145.144 131.548 152.726 133.13C151.811 140.714 149.126 148.746 148.076 157.191C139.676 155.113 129.814 153.935 120.536 151.686C121.594 144.509 122.801 135.721 124.916 128.906Z" fill="#336651"/>
<path d="M128.374 133.506C132.551 134.027 142.976 135.05 146.299 136.398L146.606 137.37C144.716 139.889 137.749 143.564 134.606 145.486C132.956 143.93 131.974 142.777 130.519 141.036L129.941 141.951C131.029 144.052 131.659 144.779 131.599 147.046C129.874 148.783 129.814 148.846 127.526 149.59L126.446 148.939C125.314 145.336 127.481 137.59 128.374 133.506Z" fill="#F5F9EE"/>
<path d="M144.829 143.289L145.474 143.467C146.052 145.238 144.567 150.634 144.094 152.909L136.602 151.454L134.434 150.913L134.352 150.012C136.797 147.412 141.574 145.092 144.829 143.289Z" fill="#F5F9EE"/>
<path d="M133.819 93.0586C141.356 93.544 152.958 95.3992 160.751 96.3864C158.666 104.662 156.806 112.992 155.171 121.368C151.766 121.375 134.696 118.699 129.416 118.115C130.001 111.056 132.199 99.9723 133.819 93.0586Z" fill="#336651"/>
<path d="M135.814 105.196L137.644 97.1445C141.829 98.1655 152.914 98.101 154.669 101.367L153.116 103.33L153.506 106.567C152.906 109.94 152.224 113.466 151.699 116.836C147.806 116.318 137.689 115.769 135.229 113.001C134.591 112.285 134.704 110.066 134.629 108.832L135.814 105.196Z" fill="#F5F9EE"/>
<path d="M135.813 105.196L137.644 97.1445C141.829 98.1655 152.913 98.101 154.668 101.367L153.116 103.33C146.756 104.933 142.308 107.342 135.813 105.196Z" fill="#F5F9EE"/>
<path d="M135.814 105.197C142.309 107.342 146.756 104.933 153.116 103.33L153.506 106.567C150.341 106.826 147.799 108.737 145.031 110.406C142.219 109.972 137.299 109.052 134.629 108.833L135.814 105.197Z" fill="#336651"/>
<path d="M242.921 51.6211C244.353 51.8349 245.448 52.1822 246.828 52.5776L247.368 53.8139C246.798 59.474 238.931 101.748 237.506 103.486C234.941 102.886 234.423 102.909 232.323 101.447C232.466 93.6261 240.543 59.9151 242.921 51.6211Z" fill="#D9D7BA"/>
<path d="M179.936 65.1758C185.869 65.1938 222.206 68.7587 224.884 71.013L224.696 73.8869C218.321 73.0385 182.486 70.6304 179.719 68.1548L179.936 65.1758Z" fill="#788A7D"/>
<path d="M177.026 78.1699C186.289 79.3185 208.309 80.4565 217.624 83.7191C218.441 84.0056 218.351 85.9666 218.486 87.2134C211.391 86.5255 180.604 84.725 176.929 81.0634L177.026 78.1699Z" fill="#788A7D"/>
<path d="M170.073 100.527C177.251 100.911 189.258 101.748 196.173 103.708C197.778 104.164 198.071 105.991 198.753 107.677C191.913 106.742 177.438 106.546 170.793 104.106C169.908 103.782 170.141 101.887 170.073 100.527Z" fill="#778275"/>
<path d="M168.566 114.886C173.471 114.514 188.479 115.965 193.526 118.249C194.584 118.727 194.569 120.645 194.876 122.207C188.509 121.168 175.271 120.09 169.369 117.95C168.566 117.66 168.686 116.079 168.566 114.886Z" fill="#778275"/>
<path d="M165.349 153.661C161.966 153.124 162.506 153.719 160.294 151.804L161.299 150.577C165.379 149.097 168.409 149.876 172.691 150.472C175.841 150.9 178.616 150.965 181.144 152.859L181.031 153.887C175.669 156.096 170.914 154.93 165.349 153.661Z" fill="#778275"/>
<path d="M165.349 153.661C161.966 153.124 162.506 153.719 160.294 151.804L161.299 150.577C165.379 149.097 168.409 149.876 172.691 150.472L173.441 151.978C170.314 153.76 168.544 152.681 165.349 153.661Z" fill="#788A7D"/>
<path d="M164.283 135.621C169.766 136.59 179.418 136.125 182.876 139.332L182.598 142.11C177.978 141.336 166.136 142.091 163.608 138.594L164.283 135.621Z" fill="#788A7D"/>
<path d="M40.9457 146.832C76.0457 154.543 111.236 161.832 146.508 168.697C156.993 170.813 181.751 174.9 191.021 177.577C194.726 178.202 201.348 178.893 204.243 180.829L204.768 182.084C203.681 183.406 203.531 183.673 202.151 184.769C195.273 192.671 180.206 211.065 171.243 210.27C153.783 208.724 20.0282 180.001 14.4482 173.636C15.3032 170.343 29.7483 157.09 33.2133 153.599C35.6358 151.43 38.4257 148.815 40.9457 146.832Z" fill="#F5F0D1"/>
<path d="M40.9463 146.832C76.0463 154.543 111.236 161.832 146.509 168.697C156.994 170.813 181.751 174.9 191.021 177.577L193.481 179.95L192.724 180.361C191.621 180.969 190.759 181.575 189.731 182.289L63.7689 159.017C54.4464 157.2 45.5064 155.034 36.0264 155.009C35.5164 155.008 33.7389 153.938 33.2139 153.599C35.6364 151.43 38.4263 148.815 40.9463 146.832Z" fill="#F5F9EE"/>
<path d="M191.021 177.576C194.726 178.201 201.349 178.892 204.244 180.828L204.769 182.083C203.681 183.405 203.531 183.672 202.151 184.768C196.909 184.241 194.861 183.717 189.731 182.289C190.759 181.574 191.621 180.969 192.724 180.361L193.481 179.949L191.021 177.576Z" fill="#F5F0D1"/>
<path d="M205.631 192.442L211.294 186.928C211.579 196.222 212.194 239.888 208.699 247.082C201.506 249.1 172.946 242.603 164.089 241.088C140.801 237.104 117.259 232.176 94.1287 227.255C83.9662 225.019 62.0137 221.793 53.6887 218.44C51.9412 211.906 51.2512 204.884 50.7937 198.126C50.4337 195.376 49.9388 195.149 51.0413 192.958C62.6438 194.325 76.9087 199.456 88.8712 201.741C116.179 206.947 144.664 215.297 172.279 217.96C183.821 219.078 197.749 200.758 205.631 192.442Z" fill="#E4D5AA"/>
<path d="M50.7937 198.126C50.4337 195.375 49.9388 195.149 51.0413 192.958C62.6438 194.324 76.9087 199.456 88.8712 201.741C116.179 206.947 144.664 215.296 172.279 217.96C183.821 219.077 197.749 200.758 205.631 192.441C208.016 204.591 197.576 225.056 186.619 230.93C174.716 229.738 150.289 222.941 137.614 219.91C113.006 214.036 73.9312 207.044 50.7937 198.126Z" fill="#CEC098"/>
<path d="M211.781 116.061C213.049 113.408 213.769 111.124 216.079 109.445C221.891 108.916 260.794 118.643 267.214 121.698C269.336 124.651 267.334 127.535 265.961 130.662C263.689 135.285 258.979 145.578 256.159 149.187L253.039 151.558C251.029 152.195 248.614 152.61 247.481 154.231L248.216 155.775C246.851 157.504 241.984 160.579 240.079 161.099C235.504 163.438 231.911 165.383 227.471 168.029C226.294 168.946 224.876 170.221 223.564 170.732L214.204 175.387C205.811 173.27 197.929 171.621 189.446 169.899C197.456 152.646 201.454 134.469 211.781 116.061Z" fill="#B6E0B6"/>
<path d="M206.351 142.358C207.438 140.834 208.481 138.712 210.423 138.689C220.511 138.575 248.793 143.789 256.158 149.188L253.038 151.559C251.028 152.196 248.613 152.611 247.481 154.232L248.216 155.776C246.851 157.505 241.983 160.58 240.078 161.1C235.503 163.439 231.911 165.384 227.471 168.03C226.293 168.947 224.876 170.223 223.563 170.733C219.911 168.139 214.998 167.442 210.656 166.867C209.163 163.937 209.823 163.994 211.046 161.167C212.171 159.238 212.246 158.542 212.823 156.346C210.926 151.598 207.101 154.046 202.571 151.118C202.248 148.983 202.136 149.844 203.718 147.627L215.711 150.448C216.986 147.977 217.616 147.088 218.088 144.303C215.928 140.518 210.716 144.704 206.351 142.358Z" fill="#345B48"/>
<path d="M236.493 146.562C240.776 147.438 249.363 149.637 253.038 151.559C251.028 152.196 248.613 152.61 247.481 154.232L248.216 155.776C246.851 157.505 241.983 160.579 240.078 161.1C238.353 160.143 233.568 158.504 231.483 157.73C231.851 157.482 232.826 155.508 233.126 154.963C234.086 152.241 235.383 149.265 236.493 146.562Z" fill="#B6E0B6"/>
<path d="M233.126 154.964C239.598 156.143 241.976 157.478 247.481 154.232L248.216 155.776C246.851 157.505 241.983 160.58 240.078 161.1C238.353 160.144 233.568 158.505 231.483 157.731C231.851 157.483 232.826 155.509 233.126 154.964Z" fill="#336651"/>
<path d="M231.483 157.73C233.568 158.504 238.353 160.143 240.078 161.1C235.503 163.439 231.911 165.383 227.471 168.029C226.908 163.32 228.693 161.316 231.483 157.73Z" fill="#B6E0B6"/>
<path d="M223.316 144.164L232.481 145.685L228.694 153.556C226.046 153.13 223.069 153.045 221.359 151.218C221.036 148.07 221.936 147.403 223.316 144.164Z" fill="#B6E0B6"/>
<path d="M218.164 155.111C221.471 155.744 223.429 155.762 225.356 158.107C225.461 160.657 224.021 162.509 222.701 164.826L215.179 162.478L218.164 155.111Z" fill="#B6E0B6"/>
<path d="M211.781 116.061C213.049 113.408 213.769 111.124 216.079 109.445C221.891 108.916 260.794 118.643 267.214 121.698C269.336 124.651 267.334 127.535 265.961 130.662C263.966 129.362 261.461 127.015 259.609 125.398C250.144 123.75 240.401 122.144 230.989 120.299C224.224 118.973 218.974 116.805 211.781 116.061Z" fill="#F5F9EE"/>
<path d="M210.656 166.867C206.629 166.748 199.616 166.304 197.441 162.466L198.199 161.072C202.474 159.065 206.276 160.367 211.046 161.167C209.824 163.994 209.164 163.937 210.656 166.867Z" fill="#558C6B"/>
<path d="M212.808 126.697C222.251 127.333 247.136 131.549 255.896 134.708C257.516 136.526 256.968 136.181 256.946 139.444C250.451 137.723 214.803 131.373 212.756 129.653L212.808 126.697Z" fill="#669F7A"/>
<path d="M275.178 171.895L275.883 173.003C275.028 182.146 271.586 203.053 268.706 211.26C263.958 216.068 223.541 241.762 217.076 242.82C215.741 241.079 216.183 240.479 216.153 237.914C217.428 221.335 219.408 199.269 213.926 184.022C248.501 193.268 247.361 193.102 275.178 171.895Z" fill="#E4D5AA"/>
<path d="M8.11138 77.7715L8.59139 77.2636C16.6389 68.8916 40.234 54.5863 52.069 54.9502C59.389 55.1752 75.424 57.245 80.854 62.4055L80.3589 63.9366C70.0539 67.2022 50.9964 78.905 46.8714 79.9163C45.3339 81.3844 44.2464 82.2419 43.2039 84.0948C44.8164 87.2283 44.0964 95.9919 43.5714 99.3258C42.4839 106.155 16.9915 97.34 14.104 95.2966C9.59647 92.4331 5.47138 82.4151 8.11138 77.7715Z" fill="#E4EDEB"/>
<path d="M14.104 95.2965C9.59647 92.4331 5.47138 82.4151 8.11138 77.7715L12.034 77.923C16.804 78.0753 41.9589 84.8352 43.2039 84.0948C44.8164 87.2283 44.0964 95.9919 43.5714 99.3257C42.4839 106.155 16.9915 97.34 14.104 95.2965Z" fill="#769A97"/>
<path d="M14.104 95.2965C9.59647 92.4331 5.47138 82.4151 8.11138 77.7715L12.034 77.923C11.7415 85.0363 15.7989 90.9529 14.8764 94.7099L14.104 95.2965Z" fill="#98B6AF"/>
<path d="M27.416 71.7966C51.6485 54.757 56.0885 64.1627 80.3585 63.9384C70.0535 67.204 50.996 78.9069 46.871 79.9181C39.671 78.0847 33.8585 75.3262 27.416 71.7966Z" fill="#769A97"/>
<path d="M190.871 9.18427C199.106 8.83844 203.073 11.9374 207.641 18.2255C207.198 22.6111 206.358 27.6523 205.728 32.0701C210.611 32.5352 216.993 32.509 220.691 35.4647C222.326 38.704 222.026 43.6424 219.363 46.1585C214.661 46.911 199.061 44.6117 193.338 43.9042C182.156 42.2538 170.036 41.046 158.733 39.7317C159.228 34.2419 159.468 32.3087 160.998 27.0191L177.896 28.8368C179.073 18.2915 180.033 12.8917 190.871 9.18427Z" fill="#BBCECD"/>
<path d="M191.636 17.7658C194.576 16.4785 198.004 17.8236 199.286 20.768C200.569 23.7125 199.219 27.1393 196.279 28.4184C193.339 29.6945 189.919 28.3479 188.636 25.4094C187.361 22.4709 188.704 19.0509 191.636 17.7658Z" fill="#122123"/>
<path d="M288.701 139.515C292.646 139.15 297.116 141.341 300.851 142.837C300.783 142.918 300.723 142.999 300.656 143.081C292.488 153.62 261.251 174.887 248.868 182.896L237.041 181.426C232.594 180.768 227.801 179.783 223.354 178.962C238.144 170.327 253.113 161.883 267.476 152.564C274.503 148.009 281.336 143.514 288.701 139.515Z" fill="#F5F0D1"/>
<path d="M34.1357 106.588L34.5932 105.419C41.1032 103.52 44.8007 106.512 51.3707 105.183L52.8108 105.931C52.7208 107.035 52.2707 113.278 52.5032 114.103C55.3907 124.519 59.3432 133.782 61.4732 144.483C59.2532 144.098 52.3158 142.728 50.4783 142.827C42.4833 138.912 36.8282 115.386 34.1357 106.588Z" fill="#58807D"/>
<path d="M34.1357 106.59L42.3257 107.716C44.6807 113.673 52.7657 135.035 52.2332 140.383C51.6932 141.153 51.0633 142.118 50.4783 142.829C42.4833 138.914 36.8282 115.387 34.1357 106.59Z" fill="#769A97"/>
<path d="M74.9291 71.6621C77.7566 74.182 78.5065 74.6546 79.2865 78.4918C78.8965 81.5728 55.8116 92.2704 51.9341 93.3731C51.5741 90.3754 51.2366 87.3754 50.9141 84.3725C58.2641 79.9074 67.2266 75.422 74.9291 71.6621Z" fill="#B6E0B6"/>
<path d="M82.0909 75.1982C84.8209 74.409 85.5184 74.5861 88.3759 74.8907C88.8859 78.7436 89.3884 80.3332 90.5659 84.0564C86.7484 86.3257 60.7534 101.651 58.1059 102.491C55.8784 100.98 55.3159 99.5709 55.8409 96.8733C62.5984 90.598 74.1859 89.3077 80.7934 82.5635C83.2534 80.0564 82.6534 78.4975 82.0909 75.1982Z" fill="#788A7D"/>
<path d="M69.6415 128.512C72.124 126.381 71.3666 126.387 74.1041 125.998C78.7391 129.426 81.169 142.804 82.6615 148.651L75.4841 147.097L71.5691 146.009C69.5366 145.761 69.0866 145.79 67.2491 144.976C65.2241 142.561 65.1791 138.657 64.7891 135.409L65.4865 130.399L69.6415 128.512Z" fill="#788A7D"/>
<path d="M69.6415 128.512L70.6016 130.784C70.4966 137.577 71.4641 140.598 71.5691 146.009C69.5366 145.761 69.0866 145.79 67.2491 144.976C65.2241 142.561 65.1791 138.656 64.7891 135.409L65.4865 130.399L69.6415 128.512Z" fill="#395D57"/>
<path d="M70.6007 130.783C72.5507 136.103 74.8607 141.491 75.4832 147.096L71.5683 146.008C71.4633 140.597 70.4957 137.576 70.6007 130.783Z" fill="#336651"/>
<path d="M65.284 104.062C68.749 105.947 74.2464 120.261 72.4464 123.615L69.7689 123.634C67.2939 122.128 65.3439 116.177 64.8339 113.46C63.8664 108.291 62.854 108.039 65.284 104.062Z" fill="#769A97"/>
<path d="M89.9358 120.271C91.7883 121.899 88.0683 135.504 86.6283 137.624L85.6683 136.503C83.7858 131.995 82.2483 127.608 80.6133 123.018C85.0308 122.283 85.8933 122.132 89.9358 120.271Z" fill="#98B6AF"/>
<path d="M74.9287 71.6619C78.7162 70.19 83.3436 68.2657 87.4236 69.1877C89.7711 71.1142 89.3737 72.121 88.3762 74.8891C85.5187 74.5846 84.8212 74.4075 82.0912 75.1967L80.8537 72.3558C79.4737 73.6941 79.6162 76.1404 79.2862 78.4915C78.5062 74.6543 77.7562 74.1817 74.9287 71.6619Z" fill="#336651"/>
<path d="M64.7881 135.409C63.2131 130.455 57.7831 116.378 59.6431 112.297C61.8481 113.848 64.803 127.246 65.4855 130.399L64.7881 135.409Z" fill="#98B6AF"/>
<path d="M273.506 136.236L274.691 136.948C274.751 139.113 273.506 140.119 272.089 142.266L270.934 142.389C270.686 140.607 272.531 137.978 273.506 136.236Z" fill="#788A7D"/>
<path d="M78.101 4.00391C84.716 5.81035 81.941 12.1502 86.4935 17.0174C88.916 19.6055 93.2735 19.7991 96.761 22.6768C95.9585 25.3279 86.5085 30.6902 84.551 34.3399C83.066 37.1058 81.9785 40.9347 81.0335 43.9137L80.471 44.6143L79.2785 44.6466C72.8135 31.8102 80.0885 33.4246 64.6385 25.7457C63.986 22.3894 74.5085 17.0931 76.286 12.427C77.456 9.34223 77.6285 7.20644 78.101 4.00391Z" fill="#122123"/>
<path d="M80.0357 14.9453C83.1857 19.4577 85.1957 20.1396 87.5732 23.4802C87.0407 26.6767 83.5007 27.6887 80.6432 32.6594L80.2682 33.3271C76.1282 29.1763 76.0757 27.8425 70.9307 24.2394C75.5657 20.9978 76.8857 19.5597 80.0357 14.9453Z" fill="#F5F9EE"/>
<path d="M266.111 0C266.981 4.47109 267.476 9.14921 270.049 13.0179C272.366 16.5018 282.259 20.7036 283.481 23.9451C279.109 27.0674 276.694 24.4552 271.226 30.1401C268.309 34.798 267.191 39.6464 265.691 44.8827C264.139 39.2248 262.826 33.8978 259.804 28.8708C257.531 27.6735 249.409 23.8206 248.411 22.0584C251.486 19.582 253.211 19.9174 255.799 18.354C261.206 15.0824 263.989 5.57911 266.111 0Z" fill="#122123"/>
<path d="M257.283 22.4351C261.438 19.3999 262.646 18.0766 265.368 13.8613C268.541 18.2679 270.191 19.802 274.578 22.8747C272.748 24.1321 271.256 25.5042 269.583 26.9603C268.368 28.5762 267.603 29.6692 266.171 31.0863C264.311 30.4134 265.173 30.922 263.741 29.1688C262.526 25.9017 260.051 24.4651 257.283 22.4351Z" fill="#F5F9EE"/>
<path d="M263.741 29.1695C265.174 30.9226 264.311 30.414 266.171 31.0869C267.604 29.6698 268.369 28.5768 269.584 26.9609L271.226 30.1417C268.309 34.7996 267.191 39.648 265.691 44.8843C264.139 39.2264 262.826 33.8994 259.804 28.8724C260.861 28.9279 262.781 28.9564 263.741 29.1695Z" fill="#091114"/>
<path d="M45.8815 19.2889C48.154 19.1726 50.119 20.8441 50.374 23.1036C50.629 25.3632 49.0764 27.4299 46.8414 27.8207C45.2664 28.0953 43.669 27.4742 42.694 26.2071C41.719 24.94 41.524 23.2364 42.199 21.784C42.8665 20.3317 44.284 19.3707 45.8815 19.2889Z" fill="#122123"/>
<path d="M5.62833 115.939C6.88833 115.265 8.41084 115.353 9.58084 116.165C10.7508 116.978 11.3658 118.379 11.1783 119.791C10.9833 121.203 10.0159 122.388 8.66586 122.857C6.79836 123.507 4.75084 122.612 3.95584 120.802C3.16084 118.992 3.88833 116.875 5.62833 115.939Z" fill="#122123"/>
</svg>
