<svg xmlns="http://www.w3.org/2000/svg" width="22" height="22" viewBox="0 0 22 22">
    <path fill="#9B9B9B" fill-rule="evenodd" d="M11 8.213a2.79 2.79 0 0 0-2.787 2.786 2.79 2.79 0 0 0 2.786 2.788A2.79 2.79 0 0 0 13.787 11 2.79 2.79 0 0 0 11 8.213zm0 7.288c-2.482 0-4.501-2.02-4.501-4.502 0-2.481 2.019-4.5 4.5-4.5a4.506 4.506 0 0 1 4.502 4.5A4.507 4.507 0 0 1 11 15.501zm-3.795.901l.533.305c.483.278 1 .492 1.534.637l.591.16.04.612a1.1 1.1 0 0 0 2.195 0l.04-.611.59-.16a6.556 6.556 0 0 0 1.534-.638l.532-.305.46.405a1.13 1.13 0 0 0 1.504-.05c.409-.408.43-1.069.048-1.503l-.404-.461.305-.532c.277-.48.492-.997.637-1.533l.162-.59.61-.04a1.103 1.103 0 0 0 1.027-1.099c0-.577-.451-1.06-1.027-1.097l-.61-.04-.162-.59a6.496 6.496 0 0 0-.637-1.534l-.305-.532.405-.46a1.102 1.102 0 0 0-.05-1.504c-.4-.4-1.08-.42-1.503-.05l-.46.406-.533-.305a6.52 6.52 0 0 0-1.533-.638l-.59-.16-.04-.61a1.101 1.101 0 0 0-2.195 0l-.04.61-.591.16c-.535.146-1.05.36-1.534.638l-.532.305-.462-.406a1.12 1.12 0 0 0-1.502.05 1.092 1.092 0 0 0-.322.777c0 .272.094.523.273.727l.404.46-.305.532a6.558 6.558 0 0 0-.637 1.534l-.16.59-.611.04a1.101 1.101 0 0 0 0 2.196l.61.04.161.59c.145.533.36 1.05.637 1.534l.305.532-.404.46a1.082 1.082 0 0 0-.273.726c0 .294.114.57.321.778a1.13 1.13 0 0 0 1.503.05l.461-.406zM10.999 21a2.975 2.975 0 0 1-2.814-2.05 8.687 8.687 0 0 1-.815-.338 2.97 2.97 0 0 1-1.35.325c-.79 0-1.533-.307-2.091-.865a2.932 2.932 0 0 1-.866-2.091c0-.47.112-.935.326-1.351a8.55 8.55 0 0 1-.338-.814A2.975 2.975 0 0 1 1 10.999c0-1.276.84-2.423 2.05-2.814.099-.277.213-.55.339-.814a2.968 2.968 0 0 1-.326-1.352c0-.79.307-1.531.866-2.09a2.94 2.94 0 0 1 2.09-.866c.47 0 .936.112 1.352.326.265-.127.538-.24.814-.338A2.975 2.975 0 0 1 10.999 1c1.277 0 2.425.84 2.816 2.051.276.098.55.212.814.338a2.96 2.96 0 0 1 3.442.54c.903.903 1.12 2.309.54 3.442.126.265.24.538.338.814A2.975 2.975 0 0 1 21 10.999c0 1.277-.84 2.425-2.051 2.816-.098.276-.212.55-.338.814a2.976 2.976 0 0 1-.54 3.442 2.94 2.94 0 0 1-2.092.865 2.97 2.97 0 0 1-1.35-.325c-.265.126-.538.24-.813.338a2.977 2.977 0 0 1-2.817 2.05z"/>
</svg>
