<svg width="16" height="16" viewBox="0 0 16 16" fill="none" xmlns="http://www.w3.org/2000/svg">
    <path fill-rule="evenodd" clip-rule="evenodd" d="M2.91 13.09H13.09V2.907H2.909v10.181zM13.09 1.452H2.909s-1.454-.028-1.454 1.455v10.181c0 1.438 1.454 1.455 1.454 1.455h10.182s1.455-.089 1.455-1.409V2.863c0-1.366-1.455-1.41-1.455-1.41zM6.546 11.635h5.09V10.18h-5.09v1.455zm0-2.91h5.09V7.272h-5.09v1.455zm0-2.908h5.09V4.362h-5.09v1.455zm-2.182 5.818h1.454V10.18H4.364v1.455zm0-2.91h1.454V7.272H4.364v1.455zm0-2.908h1.454V4.362H4.364v1.455z" fill="#9B9B9B"/>
</svg>
