<svg xmlns="http://www.w3.org/2000/svg" width="930" height="147" viewBox="0 0 930 147">
    <g fill="#FFF" fill-rule="evenodd">
        <path d="M82.185 144.306s14.9-25.318 7.686-48.207c-6.438-20.43-18.396-13.722-29.213-11.382 0 0 13.415 8.71 12.012 32.447-.409 6.914-8.892 27.142-8.892 27.142h18.407z"/>
        <path d="M51.922 86.15s19.16 15.101 13.7 37.253c0 0-7.487 1.56-11.386 0 0 0-2.94-14.247-15.912-24.49C24.47 87.972 16.017 80.192 18.2 62.565c0 0 3.692 23.71 33.72 23.584"/>
        <path d="M16.486 92.204s37.229 16.952 31.197 52.102H28.34s7.957-25.583-7.798-39.623c0 0 8.11 17.471-.47 39.623H.887s19.656-30.73 15.6-52.102M14.146 84.853S5.097 50.07 22.88 30.725c0 0-11.953-6.553-5.195-21.37 0 0-35.675 27.454-3.54 75.498M29.432 26.981s3.12-13.259-6.55-20.59c0 0 8.162-5.617 21.994-4.214 0 0-.046 11.545-1.973 25.116 0 0-7.075-3.64-13.47-.312M46.988 28.502S43.384 10.252 63.2 6.653c0 0 6.025 23.674-16.213 21.85M34.268 51.472a4.679 4.679 0 1 1-9.359 0 4.68 4.68 0 0 1 9.359 0M53.93 51.472a4.211 4.211 0 1 1-8.423 0 4.211 4.211 0 0 1 8.423 0"/>
        <path d="M41.502 44.66S53.93 55.683 60.475 67.096c5.642 9.84-10.757 19.162-20.068 11.196-8.013-6.856 1.445-17.877 1.913-24.116.468-6.24-.818-9.516-.818-9.516M97.005 101.251s4.202 16.375-6.367 43.05h19.224s.714-27.449-12.857-43.05M91.232 85.742s10.028 14.146 21.797 8.023c0 0-.996-11.388 12.592-13.317 0 0 5.859 16.904-9.7 17.283 0 0-18.858 9.713-24.69-11.989M152.029 131.672c0-5.913 1.533-8.541 5.256-13.36L193.42 73.2c5.693-7.008 9.855-10.293 9.855-10.293v-.438s-2.847.438-9.855.438h-27.594c-7.884 0-12.045-4.161-12.045-12.045v-7.666c0-7.883 4.16-12.044 12.045-12.044h76.65c7.884 0 12.045 3.285 12.045 9.417v2.847c0 5.913-1.533 8.54-5.256 13.359l-35.916 45.333c-5.475 6.789-10.074 10.294-10.074 10.294v.437s2.847-.657 10.074-.657h30.222c7.884 0 12.045 4.16 12.045 12.046v7.665c0 7.884-4.161 12.044-12.045 12.044h-79.498c-7.883 0-12.044-3.285-12.044-9.417v-2.847z"/>
        <path d="M326.293 73.199c0-9.198-5.913-16.863-15.549-16.863-10.95 0-16.206 7.884-18.178 16.863h33.727zM311.62 28.523c33.506 0 52.122 23.652 52.122 53.874 0 5.914-5.256 12.483-12.702 12.483h-59.35c2.848 13.797 14.235 20.149 26.281 20.149 7.665 0 14.892-2.41 20.586-5.257 7.227-3.285 12.483-2.41 16.206 4.599l3.066 5.694c3.504 6.789 2.409 12.703-4.161 16.425-8.104 4.599-21.462 10.074-38.763 10.074-40.297 0-61.978-29.127-61.978-59.13 0-33.07 22.339-58.911 58.693-58.911zM439.827 73.199c0-9.198-5.913-16.863-15.55-16.863-10.95 0-16.204 7.884-18.176 16.863h33.726zm-14.672-44.676c33.507 0 52.122 23.652 52.122 53.874 0 5.914-5.256 12.483-12.702 12.483h-59.35c2.848 13.797 14.235 20.149 26.28 20.149 7.666 0 14.892-2.41 20.586-5.257 7.227-3.285 12.484-2.41 16.207 4.599l3.066 5.694c3.504 6.789 2.409 12.703-4.161 16.425-8.103 4.599-21.462 10.074-38.764 10.074-40.296 0-61.977-29.127-61.977-59.13 0-33.07 22.338-58.911 58.693-58.911zM481.872 43.195c0-7.884 4.161-12.045 12.045-12.045h12.264c7.883 0 11.827 4.161 11.827 12.045v1.971c0 1.095-.22 2.847-.22 2.847h.438c5.256-7.884 15.767-19.49 33.506-19.49 14.237 0 25.623 6.35 31.538 19.052h.438c5.912-9.417 19.27-19.052 36.136-19.052 20.585 0 36.57 11.168 36.57 42.266v61.102c0 7.884-4.16 12.044-12.044 12.044h-13.797c-7.884 0-12.044-4.16-12.044-12.044v-54.75c0-8.322-1.534-14.236-8.76-14.236-16.425 0-21.68 16.425-21.68 33.29v35.696c0 7.884-4.163 12.044-12.048 12.044h-13.796c-7.884 0-12.045-4.16-12.045-12.044v-54.75c0-8.322-1.533-14.236-8.76-14.236-17.3 0-21.68 17.74-21.68 33.29v35.696c0 7.884-4.16 12.044-12.045 12.044h-13.798c-7.884 0-12.045-4.16-12.045-12.044V43.195zM709.164 118.313c10.95 0 19.271-10.731 19.271-19.93V95.32h-3.503c-11.607 0-26.498 3.064-26.498 13.358 0 5.255 3.721 9.635 10.73 9.635m15.55-44.675h3.284v-1.972c0-9.417-7.664-12.483-15.987-12.483-7.227 0-14.673 2.41-20.367 5.037-7.226 3.067-12.7 1.753-16.207-5.255l-2.627-5.475c-3.285-6.79-1.97-12.703 4.82-16.206 8.54-3.943 21.68-8.76 37.886-8.76 31.096 0 50.37 17.3 50.37 45.99v57.379c0 7.883-4.16 12.043-12.045 12.043h-10.513c-7.884 0-12.044-3.94-12.044-12.263v-.876c0-1.314.218-2.19.218-2.19h-.438s-10.73 17.958-33.287 17.958c-21.682 0-36.793-14.892-36.793-34.383 0-30.222 35.916-38.544 63.73-38.544M771.328 43.195c0-7.884 4.162-12.045 12.047-12.045h12.264c7.883 0 12.044 4.161 12.044 12.045v7.008c0 3.723-.439 7.008-.439 7.008h.44c3.722-11.607 15.767-27.156 30.002-27.156 7.665 0 10.293 4.161 10.293 12.045v12.264c0 7.884-4.162 12.045-12.046 12.045-17.957 0-26.717 15.33-26.717 33.726v31.756c0 7.884-4.16 12.044-12.045 12.044h-13.796c-7.885 0-12.047-4.16-12.047-12.044V43.195zM866.214 62.687h-3.286c-7.664 0-11.825-4.161-11.825-12.045v-5.476c0-7.883 4.16-12.044 12.045-12.044h4.16V12.754c0-7.885 4.16-12.046 12.045-12.046h12.702c7.884 0 12.046 4.161 12.046 12.046V33.12h11.607c7.884 0 12.045 4.161 12.045 12.045v5.476c0 7.883-4.161 12.044-11.827 12.044H904.1v34.166c0 9.635 6.35 13.358 13.139 14.233 8.76 1.096 12.045 3.725 12.045 12.046v9.856c0 8.977-5.475 12.043-15.55 12.043-16.643 0-47.521-7.663-47.521-41.17V62.686z"/>
    </g>
</svg>
