<svg xmlns="http://www.w3.org/2000/svg" width="117" height="156" fill="none"><g fill="#fff" clip-path="url(#a)"><path d="M72.88 97.892c-.027-.034-.113.155-.136.184.081-.01.156-.233.135-.184zm.816-.098-.05.07.185-.136zm.551.3c.115-.342-.227-.061-.267-.22l.022-.081-.179.227c.142.026.388-.057.424.074m-.067.835c.048-.131.12-.07-.045-.075a.1.1 0 0 1-.006.038c.014.004.028.011.052.037zm-.053-.039c-.017.12-.064-.021 0 0m.307.075-.136.066c-.021.08.035.134-.018.171.11-.017.132-.098.154-.237m.193-.186-.065.025c-.008.032-.005.049.065-.025m-.197.074.134-.05c.015-.055.07-.158-.058.012.055-.087-.009-.01-.08.037zm-.023-.071c-.007-.092-.039-.164.096-.23-.17-.037-.268.196-.096.23m.043-.994-.01-.125-.107.078c.053-.037.068.143.115.042zm.373 1.6c.04-.064.07-.19.109-.277l-.098.044c.003.06.035.131-.011.233m.109-.278.147-.066c-.068-.054-.11-.01-.147.066m-.1-.67-.27.163.299-.151zm.306 1.133-.132.126.214-.182zm.23.089c-.103.106-.068.241-.15.298.072.011.18-.074.278-.145-.078.03-.122-.014-.128-.153m.282.052c-.04.017-.093.057-.152.1a.5.5 0 0 0 .153-.1zm-.444-.557c-.012.044-.062.156-.037.226l.07-.205zm.034.013-.001.007.064.048-.063-.056zm-.044-.02.007.002s.007-.025-.007-.002m-.232-.42c.107-.078.27-.132.258-.347-.104.11-.097.229-.258.347m.32.164-.065-.092c-.025.048-.047.133-.1.17zm.076-.034-.075.034.023.033zm.234.596c.083-.06.13-.044.184-.029a.3.3 0 0 0-.123-.14c-.039.057-.119.15-.062.173zm-.164-.154.013-.004s.003-.026-.012.004zm.816.388.01-.037-.02.03.011.003v.003zm-.582-.443c-.02-.056-.067-.026-.12.023a.2.2 0 0 1 .11.017c.017-.023.026-.04.01-.04m.166.453a.7.7 0 0 0-.01-.14c-.015.07-.025.18.01.14m-.401-.347-.009.005c-.012.046 0 .027.009-.005"/><path d="M75.428 99.353c.036-.014.078-.054.113-.084a.24.24 0 0 0-.098.029l-.016.058zm1.624-.77c-.104.168-.293.27-.277.036-.159.079-.417.677-.517 1.035.044-.075.082-.143.229-.194.022-.112-.073-.33.087-.444.167-.022.064.115.07.238.072-.24.324-.227.475-.555l-.164.054c.025-.048.108-.109.104-.168zm-.952.958h-.046c.024.053.017.138-.004.305a.44.44 0 0 0 .192-.16l-.167-.124.03-.02H76.1z"/><path d="M75.888 99.454c.133-.173.263-.204.325-.435-.114-.046-.16.114-.27.159.198.05-.108.077-.04.252a.2.2 0 0 1-.122 0 .6.6 0 0 1 .043.132l.004-.014c.007-.03.012-.048.011-.029l.004.001c.015-.027.032-.046.045-.066.03.067-.018.054-.045.066-.003.011-.012.017-.019.027l.23-.006c-.024-.045-.073-.066-.165-.09v.003zm-.36-1.419a.2.2 0 0 1-.016.046c.024-.017.035-.03.016-.046m.012.151c-.03.02-.079.089-.11.045-.004-.075.047-.09.08-.151-.054.037-.161.086-.134.22l.025-.022c.035.104-.005.387-.03.405.072-.181.119-.31.166-.502zm.208.588.196-.014.016-.204-.05.1c-.06-.082-.11.045-.16.114zm.462 1.016-.129.19.24-.235-.11.045zm.201.086-.103.165.106-.074zm11.639 4.225.071-.02a.14.14 0 0 0-.071.02m-.286-.207-.06.078c.045-.035.068-.064.06-.078m-6.803-1.406c-.036.194-.113.48-.005.285l.091-.196c-.06.008-.081-.033-.086-.089m3.742.799.018-.066-.15.148q.062-.037.132-.082m.521-.729.007.167a.4.4 0 0 0-.007-.167m4.566 2.433.17-.151c-.073-.051-.104.063-.17.151m-11.436-4.106c.011.105.036.159.068.187-.001-.141.039-.335-.068-.187m8.323 5.046a.2.2 0 0 0 .105-.086.17.17 0 0 0-.105.086m-8.107-4.771c.003-.023 0-.04-.003-.06-.057.008-.11.014-.15-.028 0 .105.025.187.154.088zm16.846 8.067-.004.029c.017-.022.014-.026.004-.029m.302 2.961c-.023-.002-.049-.021-.076-.036.003.02.023.034.076.036m-18.606-11.811c-.016.019-.046-.012 0 0m-.009-.12q.003.048.02.083a.2.2 0 0 0-.02-.083m-.043.095s-.016-.027-.025-.038c-.023.029-.03.051.025.038m.114.044c-.026-.006-.039-.029-.052-.052 0 .015-.004.03-.009.032zm14.863 7.078-.006.022c.09-.046.063-.046.006-.022m-8.902-6.283s-.006.006-.01.005l-.001.007.012-.016zm.225-.054c-.2.19-.215.143-.234.067l-.278.557.509-.625z"/><path d="m88.793 104.519.01-.225c.293-.189.317-.041.377-.327-.387.552-.415-.194-.802.358l.016-.161s.038-.013.054.003c.054-.35-.363.343-.466.158-.026-.082-.013-.188.069-.229l-.215.056c-.03-.035.045-.125.071-.091l-.218-.081.013-.017a2.4 2.4 0 0 1-.306.205c.006-.112.063-.046.096-.124l-.196.07c.055-.174.235-.259.291-.193.27-.626-.18.085-.176-.381l.147-.008c.144-.361-.007-.296.008-.571-.04.123-.104.652-.31.714-.002-.063-.032-.111-.17-.037.129-.202.04-.19-.044-.228l.176-.263c-.132.023-.212.163-.338.251-.075-.087.042-.303.131-.491-.12-.138-.114.397-.317.335-.054-.179-.21-.127-.459-.06-.027-.149.12-.153.138-.25l-.213.163c-.015-.016.033-.078.058-.11-.118.043-.177.262-.325.274-.215.276.072-.562-.268-.304.018-.097.12-.156.176-.262-.309.113-.246.067-.576.273l-.006-.253c-.041.256-.303.425-.523.559-.031.117-.059.219-.064.269l-.244.045c.011-.056.085-.139.18-.235-.023.018-.046.031-.067.049.009-.135.135-.27.267-.396a4 4 0 0 0-.05.203c.143-.138.29-.295.382-.459a.2.2 0 0 1-.098.041.4.4 0 0 0 .083-.104c.013-.032-.04.017-.109.069l.153-.32-.086.114-.084-.316c-.334.208-.742.574-1.05.554.193-.184.235-.353.402-.61-.108.316.253-.007.339.126-.045-.067.05-.183.09-.216l-.373.116c.138-.21.05-.19.052-.312-.222.447-.335.182-.505.258.083-.147.192-.278.279-.177.081-.39-.461.403-.408.06.028.011.028.042.084-.021-.138.089-.228-.104-.114-.207l.03.008c-.144-.152-.525-.325-.775.02.028-.047.29-.421.342-.485l-1.05 1.021c.215-.291.56-1.094.81-1.18-.013-.07-.034-.15-.19-.094.002.063-.203.491-.26.496.106-.408.039-.23.087-.601.003.091-.34.549-.399.493.054-.068.287-.484.339-.517l-.458.376c.095-.061.252-.4.295-.557-.04.103-.14-.096-.212-.076l.003.153c-.146-.188-.59.56-.762.424.082-.084.421-.574.362-.692-.192.22-.9 1.062-1.176 1.153l.05-.159-.222.085c.298-.324.985-.968 1.286-1.197-.006-.155.08-.179-.033-.229.041-.154.177-.164.214-.155l-.197-.233c-.16.294-.36.174-.493.421l.446-.139c-.16.29-.642.723-.784.567.021-.14.335-.491.39-.591-.082.085-.28.09-.254.011l.166-.109c-.034-.166-.383.286-.342-.056-.028-.043.098-.44-.008-.277-.126.367-.713 1.387-.902 1.607 0-.031-.028-.439.023-.626.083-.295.459-.556.534-.806a.6.6 0 0 1-.176.172c-.003-.09.16-.232.047-.25-.186.284-.171-.136-.188.22-.138.03-.059-.118-.176-.165-.075.208-.47.585-.609.618.05-.069.084-.181.1-.228-.168-.131-.192-.322-.364-.427.022-.08-.01-.215.101-.319-.053.037-.135.125-.192.102.041-.315.141.03.239-.32-.104.168-.273.154-.412.219-.129.275.147.153.286.088-.21.364-.559.667-.839.729-.194.007.073-.271.02-.234-.232-.219-.593.5-.666.112.044-.282.258-.465.333-.64.167-.023.094.248.178.286l-.034-.166c.082-.056.191-.07.198.022.044-.251-.432-.304-.534-.614-.082.057-.192.102-.214.213l.086.004c-.044.22-.271.19-.237.325-.163.082-.38.232-.443.058l.126-.28c-.04.079-.007.202.072.14-.118.09.012-.467-.242-.15l-.015.23c-.163.083-.43.305-.494.159-.097.292.044-.016-.05.336.147-.42.27.174.387-.29-.119.401.052.231-.013.59.048-.089.059-.188.127-.091.018-.023.049-.05.065-.066-.001.004-.001.004.001.009l.003-.011s.011-.013.001-.004a.5.5 0 0 1 .028-.161c.16-.173.302-.088.412-.16.032.07-.08.088-.104.195l.164-.113c-.104.196-.037.402-.23.445l.11.073c.008.147.077.244.18.197.03.075.26-.135.124-.01l.251-.015-.025.048c.167.127.555-.106.556.357.09-.015.187-.036.255.076l-.08.179c.11-.014.136.299.271.147-.18.497.316.316.402.477l.133-.216c.084.066.212.057.378.039l.107-.195c.191-.098.174.286.347.359-.054.068-.081.026-.084-.038-.067.543.586-.078.565.336.083-.044.099-.001.101.063-.003-.001-.01-.003-.016.003q.004.008.016.012c0 .043-.005.093-.001.137a.4.4 0 0 0 .011-.13c.035.017.1.023.176.004l-.101.216.014.004c.004.103.098-.072.163-.243a.7.7 0 0 0 .14-.084c-.16.353.194-.034.036.351.135-.152.32.019.567-.327-.029.047-.026.079-.054.068.027.074.058.149.168.076l-.136.274.33-.277c-.023.202-.053.312-.244.469.36-.202.208-.031.54-.244l-.11.163c.055.026.278-.146.224.013-.081.39.548.402.663.88.247-.527 0 .306.25-.067-.054.127-.059.216-.168.289.224-.018.113.325.416.072-.057.126-.139.151-.167.226.028-.016.113-.068.084.011-.03.079-.085.083-.138.12.167.08.405-.268.63-.596-.02.21.031.208.229.026-.042.126-.072.267-.188.247.045.052.226.371.403.108-.026.08.064.069.097.046.113.093.109.123.244.175l-.006-.064c.255-.293.143-.009.267.013l-.025.032c.073.373.167-.049.212.355l.118-.208c.297-.419.029.377.259.294l.027-.146c.165-.101-.19.706-.153.806-.013.048-.063.046-.102.059.015.369.191-.247.365-.22-.066.159-.263.338-.192.424-.03.141.56-.286.506.061.045-.126.087-.252.203-.291.12.024-.013.577.299.292-.01.036-.019.069-.038.096.129-.04.331.01.498-.145-.387.728.672-.032.249.596l.244.113-.048.061c.113.136.266.02.42-.099.002.063-.06.105-.085.138.12.268.16.255.546.06l-.12.215c.128-.087.08.52.444.421a.3.3 0 0 1-.084.076c.392-.084.159.933.75.252l.275-.076c-.154-.19.248-.298.253-.477.108.009.041.36-.077.332l.013-.048c-.3.36.143.302-.045.562.393.246.617.714.954.981l.169-.323.11.104c-.018.093-.122.261-.2.186-.073.2.246-.037.297-.097.088.243-.31.297-.264.341l.088.023.01-.04c.144-.079.24-.203.338-.114.025.109-.095.206-.08.238-.013.02-.01.037.033.036l.137.135.106-.278c.15-.065.138.116.253-.199-.188.484.475.559.448.733.219-.099.31-.027.41.078.007-.069.178-.341.256-.237-.43.508.015.369-.186.813.115-.311.333.148.484-.298.05.104-.141.205-.172.378.354-.062.341.456.636.571.057-.068.095-.207.225-.27l-.131.448c.074 0 .346-.371.252-.062.03-.071.08-.171.128-.17.225.696 1.191.46 1.184 1.467.038-.186.091-.164.145-.13-.008-.057.131-.169.198-.269l.002.417c.238-.23.23.148.442-.082l-.098-.002c.312-.227.387-.741.69-1.107-.353.259.125-.688-.398-.334.028-.103.124-.096.172-.201-.164.128-.239.128-.271-.014l.04-.032c-.285-.155-.267-.398-.471-.719l-.121.203c-.044-.071-.01-.14-.003-.209-.285.23.161.145-.141.41.209-.443-.43-.331-.157-.808-.094-.072-.134.239-.229.167l.064-.136-.137.132c-.044-.071.037-.242.108-.344.006.021.065.005.088.008.022-.199-.262-.122-.255-.19l.037.139c-.34-.083-.54-.474-.972-.417l-.047.105c-.314.026-.081-.21-.347-.289l.024-.017c-.105.058-.197.061-.245.008.131-.066.05-.277.201-.342-.337.027-.205.063-.586.298l.078-.171c-.145.098-.2.17-.334.13.179-.066.098-.276.317-.374.012-.488-.567.091-.326-.456-.4.339.027.368-.095.414-.049.167-.306.247-.348.157-.063-.059.258-.613.076-.737.015.016.04-.017.055-.001.01-.154-.233.048-.195-.181-.223.218-.097-.093-.337.219l.216.043c-.154.017-.504.328-.529.039a.8.8 0 0 1 .229-.136c.022-.127-.13.001-.106-.13.24-.312.246.074.52-.1.047-.172-.355.097-.055-.215-.388.391-.136-.182-.497.067l.144-.185c-.04.017-.143.079-.179.05l.24-.203c-.252.145-.06-.318-.238-.271.204.133-.118.263-.132.463-.427.086.212-.603-.126-.701.055-.001.057.211-.063.262a.6.6 0 0 1-.003-.323c-.212-.088-.11.218-.272.28.102-.278-.157.033-.288.053l.134-.196c-.12-.271-.339.372-.42.088l.267-.219-.146.004.174-.209c-.222.094-.224.027-.286-.108-.073.157-.261.346-.356.29.02-.16.166-.164.013-.225.114-.102.255-.233.185-.017.052-.06.114-.103.166-.163.025-.182-.15-.146-.2-.179a.1.1 0 0 1 .022.08l-.376.143c.022-.096.085-.139.15-.18-.053-.006-.143.068-.208.046.123-.151.234-.318.365-.337l-.305.055c.036-.077.037-.257.103-.298-.035-.162-.458.144-.506-.073a.17.17 0 0 1-.108.05c-.1-.121-.079-.394-.377-.278l.11-.347c-.162-.012-.13.44-.4.419-.2.001.115-.28.122-.396-.168.101-.485.318-.454-.003.078-.027.084.038.137.044zm-1.533-.827c.058-.024.196-.116.142.014-.182.211-.136.082-.142-.014m-2.524-.935c.062-.055.075 0 .064.099-.035-.001-.063-.029-.064-.099m-7.093-2.309s.002-.008.01-.009c.02.119.012.073-.01.009m-.081-.167a.2.2 0 0 0-.058.083c.04-.049.073-.036.099-.002.02-.061.028-.106-.041-.081m13.938 8.782.01-.068c.096-.018.045.024-.01.068"/><path d="M85.162 102.644c-.01.04-.036.077-.059.118a.16.16 0 0 0 .06-.118zm4.596 2.378.003.004a.2.2 0 0 0 .028-.031l-.03.027zm-9.112-5.296a.3.3 0 0 1-.01.138c.033-.05.042-.098.01-.138m-3.996.515.116-.008c-.048-.013-.037-.069-.037-.112-.025.048-.05.128-.078.116zm-.02-1.712c-.029.02-.028-.012-.056.004l-.05.1c.056.024.138-.033.106-.104m.334.972c.091-.18.005-.151-.073-.153l.01.003c-.157.237-.046.192.064.146zm-.094-.151a.1.1 0 0 1-.058-.026c-.059.092.01.033.059.027zm.454.955c-.004-.06-.143.213-.122.132-.157.205.342-.163.122-.132m-.087-1.409-.1.228.13-.153zm.389.43-.064-.115a.12.12 0 0 1-.067.06c.055.042.097.12.13.055zm-.131-.056c-.029-.023-.061-.031-.095-.005.018.004.057.019.095.006zm-.085-.364.003.06.056.053zm1.225 1.046h.141c.054-.069.05-.129-.006-.124-.053.037-.11.045-.135.124m.023-.769c.004.06-.022.111-.051.19l.157-.264-.11.076zm.342.113c.053-.068.277-.126.132-.184-.054.068-.196.07-.132.184m1.38 1.253-.029-.012-.25.439zm2.002-.211c-.063-.178-.19.251-.223.054-.09.086.028.161-.055.233.14-.065.144.022.28-.282zm-.28.282s-.046.023-.078.041c.039-.013.058-.027.078-.041m13.715 11.987.01.14.057-.169zm.369-.188-.181.265.22-.195c-.026-.004-.073-.004-.04-.07zm-8.787-9.407-.048.062c-.033.078-.018.097.012.129l.04-.19zm.923.891-.016-.016-.126.264zm1.088.278c-.03-.035-.108-.009-.138-.041.107.01-.055.351.138.041m-5.69-44.959c-.041-.019-.034.188-.043.224.07-.044.043-.279.044-.224zm.705-.443-.015.086.109-.202zm.632.037c-.045-.358-.232.047-.339-.083l-.013-.082-.064.281c.14-.037.326-.219.42-.115zm.309.782c-.014-.136.078-.115-.076-.048.007.014.008.026.014.035.011 0 .03 0 .063.01v.003zm-.067-.013c.039.115-.068.005 0 0m.317-.067-.095.12c.013.082.094.104.062.162.096-.065.078-.144.033-.282m.091-.253-.049.05c.007.033.019.047.049-.05"/><path d="m85.56 59.42.102-.105c-.012-.058-.009-.171-.045.039.011-.103-.011-.003-.054.068l-.004-.001zm-.053-.055c-.046-.08-.11-.132-.016-.248-.172.04-.157.292.016.248m-.399-.915-.062-.108-.062.117c.03-.058.121.103.124-.01zm1.05 1.273c.009-.076-.02-.202-.026-.298l-.07.084c.034.052.094.103.096.214m-.023-.301.104-.125c-.085-.02-.105.042-.104.125m-.394-.548-.172.264.2-.268zm.79.87-.062.172.109-.258zm.249-.019c-.047.144.048.244 0 .334.07-.025.13-.146.187-.257-.055.06-.117.043-.187-.077m.282-.081a1 1 0 0 0-.094.16.5.5 0 0 0 .094-.16m-.66-.304c.007.045.015.164.07.219l-.029-.212s-.025-.007-.037-.007zm.036-.002-.002.007c.044.011.071.011.085.015z"/><path d="m86.394 59.339.01.003c-.002-.02-.004-.028-.01-.003m-.406-.267c.063-.116.186-.24.078-.422-.046.144.016.247-.078.422m.367.002-.104-.052c0 .055.014.137-.014.197zm.054-.064-.052.064.037.018zm.481.427c.047-.09.096-.096.154-.108a.34.34 0 0 0-.177-.071c-.01.068-.042.185.022.179zm-.22-.066.011-.012s-.009-.022-.01.012zm.919-.023s-.005-.025-.01-.038l-.002.039.01.003zm-.733-.128c-.043-.042-.072.009-.097.072a.25.25 0 0 1 .106-.034c.008-.029.006-.049-.008-.04zm.359.327a1 1 0 0 0-.074-.118c.021.068.063.174.074.118m-.521-.127s-.002.007-.006.01c.01.044.013.022.006-.01m-.001 0c.024-.03.046-.082.066-.128a.3.3 0 0 0-.078.07c.004.016.01.038.012.058m1.097-1.43c-.013.197-.136.376-.228.163-.101.146-.059.793.02 1.156.008-.085.01-.167.115-.28-.034-.107-.219-.255-.128-.43.14-.097.11.072.171.179-.048-.245.181-.352.164-.714l-.123.124c-.001-.055.046-.144.013-.196z"/><path d="m87.386 59.282-.041.024c.045.036.079.116.14.27a.42.42 0 0 0 .097-.233l-.207-.032.015-.028h-.004zm-.234.018c.042-.213.143-.3.088-.534-.124.01-.094.175-.169.265.2-.044-.062.117.08.245a.2.2 0 0 1-.109.053.6.6 0 0 1 .099.102l-.005-.014c-.008-.025-.012-.042 0-.027l.001-.004.01-.08c.058.047.008.058-.01.08a.1.1 0 0 0-.004.03l.201-.106c-.043-.032-.095-.026-.191-.005l.01-.005zm-.962-1.105s.007.032.007.048c.014-.023.019-.042-.007-.048m.076.128c-.016.031-.03.114-.075.09-.038-.065.003-.101.003-.172-.03.054-.107.148-.022.257l.015-.027c.078.075.17.347.154.375a3 3 0 0 0-.079-.524zm.452.437.168-.1-.079-.19.002.11c-.093-.048-.075.09-.09.176zm.884.694-.028.224.108-.317zm.22-.024-.013.197.062-.117zm12.124-2.535.046-.057a.2.2 0 0 0-.046.057m-.352.005-.002.096c.014-.054.017-.093.002-.096m-6.448 2.576c.072.184.153.469.142.246l-.025-.215c-.05.038-.087.016-.121-.032zm3.617-1.339s-.016-.044-.022-.065l-.044.208q.029-.066.066-.143m.027-.892.097.136a.5.5 0 0 0-.097-.136m5.05-.679.044-.223c-.088.007-.042.114-.044.223m-11.798 2.836c.06.086.11.12.153.131-.072-.125-.129-.31-.153-.131m9.868-.217a.2.2 0 0 0 .036-.132.16.16 0 0 0-.035.132z"/><path d="M90.373 59.533s-.023-.033-.034-.052c-.044.036-.09.062-.147.051.054.093.117.15.177 0l.004.002zm18.376-3.353s.012.01.017.023c-.001-.027-.008-.029-.017-.023m2.261 1.93a.2.2 0 0 1-.08.026c.016.011.04.01.08-.025zm-22.318 1.441c-.006.025-.045.01 0 0m2.156-1.351.004.001c-.012-.041-.01-.033-.004 0zm-2.222 1.25a.3.3 0 0 0 .056.066.2.2 0 0 0-.056-.065zm.008.1-.04-.022c-.01.037-.004.058.04.023zm.119-.01a.13.13 0 0 1-.07-.023.1.1 0 0 1 .01.034.3.3 0 0 1 .064-.01h-.004zm16.349-2.44.011.018c.036-.09.02-.076-.011-.018m-10.782.136-.003.01.007.002zm.162-.165c-.064.27-.106.235-.159.181l.062.621z"/><path d="m100.777 56.793-.123-.186c.122-.324.227-.218.107-.486.02.673-.437.091-.42.763l-.081-.14c.022.007.025-.032.047-.026-.163-.315-.085.491-.278.404-.069-.05-.118-.145-.077-.224l-.14.174c-.044-.012-.037-.128.003-.117l-.222.066.005-.018a2.4 2.4 0 0 1-.13.342c-.061-.095.026-.072.006-.155l-.116.169c-.06-.173.038-.347.126-.324-.143-.666-.098.174-.36-.21l.115-.091c-.091-.378-.177-.236-.318-.47.037.124.289.592.161.762-.041-.05-.09-.072-.16.067-.01-.239-.077-.178-.164-.162l-.006-.316c-.092.097-.077.258-.13.401-.107-.028-.14-.273-.17-.477-.173-.046.13.388-.068.456-.145-.117-.24.019-.407.214-.1-.106.01-.194-.026-.282l-.08.257c-.023-.006-.018-.083-.015-.122-.07.1.004.32-.11.407-.019.351-.256-.505-.387-.105-.04-.088.012-.192-.001-.318-.19.267-.166.195-.32.55l-.146-.203c.109.237-.014.522-.124.755.04.113.072.216.095.261l-.18.175c-.026-.05-.009-.159.019-.293-.008.03-.022.053-.032.078-.067-.116-.038-.3.002-.478.023.061.047.13.07.195.04-.193.077-.407.06-.596a.16.16 0 0 1-.058.087.4.4 0 0 0 .012-.13c-.007-.034-.026.036-.052.119l-.051-.351-.006.14-.245-.215c-.163.36-.3.888-.569 1.04.062-.262.007-.422.004-.733.082.325.207-.14.35-.078-.073-.032-.06-.182-.043-.232l-.245.3c0-.252-.056-.188-.127-.29.06.495-.18.333-.28.487-.01-.168.013-.338.14-.3-.144-.373-.165.587-.308.27.029-.004.046.02.056-.063-.067.15-.245.036-.206-.11l.029-.004c-.201-.054-.615.008-.64.428a10 10 0 0 1 .03-.596l-.346 1.422c.026-.361-.104-1.224.061-1.431-.048-.053-.107-.111-.209.018.033.052.088.522.043.557-.127-.403-.087-.215-.242-.56.05.077 0 .648-.078.628.01-.084-.01-.56.017-.62l-.189.558c.047-.101.006-.474-.039-.63.022.107-.166-.01-.217.047l.084.128c-.218-.081-.211.788-.43.757.026-.115.06-.71-.047-.778-.05.285-.22 1.377-.416 1.596l-.039-.164-.147.184c.092-.43.35-1.335.49-1.685-.082-.129-.023-.191-.144-.177-.042-.152.063-.234.1-.243l-.283-.1c.013.333-.219.334-.207.612l.308-.345c.013.333-.178.945-.382.886-.052-.131.04-.593.035-.705-.026.115-.192.22-.209.137l.087-.177c-.112-.124-.185.44-.32.122-.045-.02-.136-.429-.146-.231.075.38.086 1.557.032 1.845-.017-.024-.244-.364-.295-.554-.073-.298.12-.71.055-.967a.8.8 0 0 1-.064.238c-.05-.08.02-.28-.084-.242-.02.34-.216-.03-.053.284-.105.098-.11-.069-.233-.054.036.218-.116.742-.224.838a1 1 0 0 0-.027-.25c-.215-.034-.326-.19-.525-.196-.017-.083-.112-.183-.069-.328-.027.06-.058.173-.119.18-.113-.294.137-.042.051-.395-.01.198-.163.27-.254.392.02.303.203.062.29-.06-.005.418-.165.854-.377 1.045-.168.1-.068-.274-.096-.214-.309-.08-.28.725-.533.422-.097-.27.005-.532-.014-.722.136-.1.204.172.297.162l-.11-.128c.042-.086.135-.156.185-.076-.08-.241-.527-.054-.76-.282-.044.09-.12.18-.09.286l.077-.034c.063.217-.15.293-.056.397-.106.148-.224.383-.367.259l-.02-.304c-.001.09.087.184.132.09-.063.133-.21-.417-.285-.02l.096.213c-.108.152-.243.469-.367.373.05.3.03-.035.11.32-.067-.438.328.025.212-.438.083.41.157.175.27.528 0-.099-.037-.195.07-.139l.023-.088s.004.001.006.006l-.004-.013a.5.5 0 0 1-.053-.155c.061-.227.231-.217.29-.335.062.048-.03.114.004.22l.09-.175c.003.224.163.373.007.5l.134.013c.076.126.188.18.256.084.062.048.168-.245.106-.07l.216-.134v.055c.208.032.436-.362.672.042.07-.055.147-.121.264-.059l.018.194c.093-.066.27.198.311-.003.093.52.44.118.6.208l.009-.253c.11.014.215-.056.352-.157l-.007-.222c.119-.18.302.16.485.138-.012.087-.06.063-.093.01.222.504.465-.361.666.003.05-.081.086-.056.122 0q-.008.001-.012.013l.019.005c.021.037.044.083.07.117a.5.5 0 0 0-.058-.117.28.28 0 0 0 .153-.089l.026.239s.008-.002.014-.008c.056.085.046-.114.016-.294a.5.5 0 0 0 .074-.145c.046.385.15-.133.215.281.039-.202.289-.154.315-.575.001.055.018.08-.01.084.065.049.127.096.183-.026l.029.302.138-.41c.088.184.121.291.04.525.198-.36.162-.137.332-.496l-.006.198c.061-.007.156-.272.195-.112.144.372.684.042 1.044.382-.08-.58.17.257.177-.192.023.135.077.212.021.331.178-.137.277.212.395-.169.022.136-.035.203-.013.283.012-.032.055-.119.077-.038s-.023.115-.051.175c.184-.03.195-.45.195-.847.1.184.147.157.205-.106.037.128.095.261-.02.313.065.017.4.177.397-.137.022.08.092.024.106-.015.145.015.158.042.3.01l-.042-.05c.044-.385.114-.088.23-.14l-.003.04c.273.269.107-.137.38.167l-.024-.237c.008-.512.24.292.384.09l-.058-.133c.075-.18.255.689.341.747.02.045-.027.072-.049.109.228.293.018-.313.176-.392.038.167-.02.43.09.455.058.134.294-.557.453-.24-.037-.127-.077-.255-.007-.355.111-.048.331.478.418.065.014.036.025.07.024.101.085-.11.278-.188.319-.413.122.818.526-.424.563.331l.269-.053-.001.078c.177.044.227-.143.276-.326.041.05.018.122.015.16.262.138.283.104.473-.285l.037.246c.047-.148.385.362.615.062a.3.3 0 0 1-.023.112c.258-.303.712.642.753-.261l.169-.234c-.241-.052.01-.39-.097-.532.09-.058.258.254.146.306l-.02-.044c-.011.468.307.145.32.462.463-.057.939.173 1.379.154l-.08-.36.154.01c.046.08.078.28-.034.274.072.2.168-.186.166-.266.225.127-.049.43.017.433l.088-.035-.024-.042c.061-.153.052-.312.187-.303.088.066.063.22.096.23.001.023.014.035.049.005l.197.013-.102-.278c.075-.149.18.001.065-.316.172.485.729.12.824.264.102-.22.218-.229.364-.217-.04-.054-.092-.374.035-.348.017.668.254.265.404.733-.122-.308.347-.111.162-.546.109.045.031.248.125.395.224-.278.567.113.866-.008-.004-.087-.068-.214-.016-.35l.206.417c.056-.048.002-.506.144-.216-.023-.073-.057-.18-.022-.21.65.358 1.193-.481 1.895.237-.103-.158-.049-.182.014-.197-.046-.036-.025-.215-.049-.33l.294.294c.006-.332.274-.056.26-.37l-.073.067c.062-.38-.253-.798-.295-1.273-.069.433-.389-.583-.513.04-.054-.09.018-.156-.016-.264-.024.21-.08.258-.201.182l.006-.053c-.306.087-.461-.096-.828-.19l.052.229c-.08-.022-.104-.095-.144-.149-.047.365.212-.002.18.398-.154-.465-.536.049-.66-.483-.116.008.062.268-.054.276l-.048-.143-.008.19c-.081-.02-.138-.201-.153-.323.02.013.05-.041.069-.052-.118-.161-.271.088-.311.034l.12.08c-.302.174-.708.018-.984.345l.034.107c-.213.225-.199-.105-.447.013l.007-.025c-.042.114-.106.175-.176.172.052-.135-.144-.238-.071-.392-.234.244-.108.183-.239.612l-.054-.18c-.046.172-.038.26-.163.318.092-.168-.108-.273-.006-.493-.303-.375-.365.44-.54-.136-.079.516.26.261.198.374.074.162-.069.39-.158.343-.09-.005-.203-.636-.418-.61.023.002.022-.038.041-.037-.092-.123-.145.189-.259-.014-.032.31-.131-.008-.115.385l.19-.106c-.105.113-.175.577-.379.373a.8.8 0 0 1 .091-.25c-.065-.112-.098.084-.165-.029-.017-.393.236-.105.33-.414-.071-.16-.206.302-.178-.126-.044.546-.218-.05-.332.374l-.008-.233c-.018.038-.06.152-.103.149l.056-.311c-.099.268-.245-.211-.348-.062.237-.023.074.279.187.443-.27.335-.215-.603-.534-.465.041-.036.177.13.115.242a.6.6 0 0 1-.204-.247c-.214.065.05.237-.031.392-.094-.28-.1.123-.19.224l-.018-.24c-.258-.136-.032.502-.269.332l.071-.338-.112.096.006-.273c-.111.21-.157.162-.283.092.041.168.012.436-.097.45-.085-.137.026-.23-.127-.188.025-.15.053-.343.136-.124.001-.079.024-.15.026-.229-.092-.158-.206-.024-.262-.019.022.006.05.017.064.053l-.206.345c-.044-.087-.019-.163.008-.234-.043.028-.069.139-.135.164.005-.195-.011-.395.078-.493l-.203.228c-.021-.084-.124-.225-.101-.297-.124-.108-.27.394-.436.252a.2.2 0 0 1-.051.103c-.152-.036-.299-.264-.459.011l-.12-.342c-.133.086.159.431-.064.575-.157.12-.078-.295-.139-.386-.072.18-.194.544-.359.269.046-.07.088-.02.134-.047zm-1.699.232c.03-.051.091-.208.121-.07-.027.275-.062.144-.12.07zm-2.583.662c.022-.081.063-.043.109.048-.029.02-.067.014-.109-.048m-7.298 1.678.003-.01c.073.093.047.055-.003.01m-.152-.107a.14.14 0 0 0-.01.099c.011-.06.047-.062.086-.047-.01-.062-.03-.107-.075-.056zm16.675-.595-.035-.06c.063-.074.05-.01.035.06"/><path d="M96.785 57.35q.011.063.016.13a.16.16 0 0 0-.016-.13m5.046-.743.007.002a.1.1 0 0 0 .003-.041l-.01.04zm-10.365.654a.3.3 0 0 1 .061.122c.004-.058-.01-.108-.06-.122zm-3.256 2.383.103-.058c-.05.01-.064-.041-.088-.083 0 .055.018.138-.014.141zm-.817-1.502c-.015.028-.032.003-.047.03l.001.111c.061-.007.108-.093.047-.144zm.751.704c-.002-.2-.066-.135-.139-.1.004.001.009-.002.011.003-.028.283.048.19.127.1zm-.157-.091s-.042.012-.063.003c-.01.109.025.022.063-.003m.857.631c-.033-.052-.025.257-.046.173-.041.256.227-.305.046-.172zm-.744-1.203.02.249.045-.2zm.545.197-.11-.073c0 .043-.018.066-.031.086.068.01.14.06.14-.014zm-.143.014c-.033-.009-.069-.003-.087.038a.15.15 0 0 0 .087-.038m-.246-.282.028.055.078.017zm1.579.339.12-.07c.015-.086-.018-.138-.062-.103-.032.059-.076.09-.058.173m-.357-.688c.033.052.034.107.051.19l.008-.308zm.356-.063c.016-.087.18-.243.025-.226-.014.083-.135.153-.025.225zm1.816.405-.032.004.001.506zm1.597-1.205c-.144-.12-.033.314-.161.162-.032.12.105.122.072.227.085-.126.133-.055.089-.388zm-.092.39-.044.077c.024-.032.035-.057.044-.077m18.225 1.047.104.095-.078-.163zm.132-.392.06.319.021-.297c-.021.018-.056.048-.081-.022m-12.711-1.558-.005.077c.017.083.039.089.083.1zm1.245.19-.022-.006.052.288zm1.015-.424c-.044-.011-.09.059-.131.048.091-.059.163.314.131-.048M79.97 80.205c-.04-.027-.07.177-.084.213.082-.03.094-.266.084-.213m.817-.295-.029.078.15-.176zm.668.158c.018-.36-.254-.001-.344-.15l-.001-.084-.119.267c.156-.01.386-.152.464-.033m.185.826c.009-.137.103-.096-.074-.062l.006.037c.015.004.033.008.063.025zm-.068-.02c.018.121-.072-.008 0 0m.342-.002-.12.097c.001.083.078.119.037.17.11-.044.108-.127.084-.271v.004zm.145-.232-.057.038c.002.035.01.049.057-.039z"/><path d="m81.874 80.763.128-.084c0-.059.022-.17-.055.029.031-.102-.01-.003-.07.056zm-.046-.068c-.035-.088-.09-.15.031-.247-.186.005-.218.256-.03.247zm-.258-.975-.046-.119-.086.103c.045-.05.112.124.133.016zm.877 1.462c.02-.074.016-.204.03-.299l-.09.067c.025.057.079.119.06.232m.03-.299.13-.103c-.089-.035-.12.02-.13.103m-.311-.624-.23.225.264-.22zm.671 1.024-.096.154.164-.23zm.267.028c-.074.13.003.252-.061.33.076-.008.165-.117.245-.214-.071.048-.13.017-.18-.115h-.004z"/><path d="M83.41 81.292a1 1 0 0 0-.127.139.45.45 0 0 0 .127-.139m-.634-.435c-.001.047-.013.166.033.229l.006-.214-.04-.011v-.004z"/><path d="m82.815 80.865-.002.007c.044.011.075.027.085.03-.01-.003-.034-.017-.083-.037m-.048-.009.01.003c.001-.018 0-.026-.01-.002zm-.377-.349c.086-.102.241-.198.158-.4-.075.132-.03.246-.158.4m.388.081-.099-.073c-.01.055-.01.138-.05.19l.148-.117z"/><path d="m82.843 80.532-.066.056.036.025zm.429.523c.068-.08.121-.073.181-.077a.36.36 0 0 0-.172-.105c-.025.064-.077.172-.01.182zm-.218-.113.013-.007c-.002-.02-.005-.025-.013.007m.971.171v-.039l-.01.036zm-.745-.281c-.039-.05-.078-.005-.12.05a.24.24 0 0 1 .12-.01c.008-.03.013-.048 0-.04m.312.398a1 1 0 0 0-.055-.132c.01.07.033.185.055.133zm-.52-.234-.01.01c.006.048.008.025.01-.01m-.002 0c.03-.023.062-.07.093-.112a.3.3 0 0 0-.092.05c.004.016.002.04.004.06zm1.434-1.171c-.051.19-.217.339-.276.107-.138.12-.217.766-.207 1.138.023-.085.043-.162.173-.249-.013-.113-.183-.3-.052-.453.167-.065.1.094.148.212-.004-.252.262-.306.31-.662l-.155.096c.011-.056.075-.133.051-.19zm-.682 1.181-.05.013c.042.047.059.13.093.296a.4.4 0 0 0 .146-.208l-.211-.076z"/><path d="M83.574 80.973c.082-.202.209-.266.198-.504-.133-.016-.131.153-.229.225.221-.004-.086.102.038.253-.05.026-.09.027-.125.03a.5.5 0 0 1 .085.12v-.012c-.005-.028-.004-.044.006-.025l.005-.003c.008-.03.014-.055.028-.075.051.057-.004.058-.028.075l-.008.03.237-.067c-.037-.037-.094-.044-.2-.045zm-.809-1.287s-.002.035-.005.05c.017-.023.03-.04.005-.05"/><path d="M82.822 79.83c-.023.025-.056.106-.098.071-.027-.074.026-.098.038-.17-.044.047-.14.124-.067.249l.023-.025c.065.092.115.376.096.402a3 3 0 0 0 .016-.53l-.008.002zm.392.521.197-.06-.048-.202-.021.108c-.088-.067-.098.072-.131.153zm.806.867-.073.215.172-.287-.098.072zm.232.028-.051.19.086-.102zm13.343.589.062-.042a.2.2 0 0 0-.062.042m-.369-.099-.032.092c.028-.047.046-.085.032-.092m-7.399.776c.033.198.052.493.095.277l.025-.213c-.062.027-.096-.006-.117-.059zm4.103-.368q-.003-.03-.01-.07-.05.104-.097.19c.03-.038.068-.076.103-.12zm.25-.854.068.16a.4.4 0 0 0-.067-.16zm5.491.79.109-.199c-.093-.02-.078.097-.109.199m-13.079-.372c.044.098.088.141.133.165-.05-.139-.072-.333-.133-.165m10.342 2.316a.2.2 0 0 0 .075-.117.17.17 0 0 0-.075.117"/><path d="M86.912 81.912c-.006-.025-.015-.036-.024-.058-.054.025-.11.042-.165.015.035.103.09.173.185.042h.004zm20.073 2.043.011.03c.008-.029.001-.03-.011-.03m1.651 2.612c-.026.009-.058 0-.092-.005q.016.03.092.005m-23.492-5.02c-.013.02-.05.002 0 0m2.546-.829h.003c-.003-.042-.005-.035-.003 0m-2.6.719q.019.044.047.075a.3.3 0 0 0-.046-.075zm-.01.102s-.026-.023-.04-.03c-.013.035-.014.054.04.03"/><path d="M85.213 81.554a.12.12 0 0 1-.07-.038q.01.026.001.035zm17.701 2.051.006.021c.066-.075.045-.065-.006-.02zm-11.333-2.981s-.002.007-.006.01l.005.009.005-.018z"/><path d="M91.788 80.509c-.132.243-.168.202-.213.135l-.083.618z"/><path d="m98.494 81.978-.08-.218c.22-.275.298-.144.247-.436-.17.653-.487-.04-.654.61l-.048-.159c.02.014.035-.026.055-.012-.082-.352-.227.45-.404.307-.057-.066-.084-.171-.019-.24l-.194.124c-.04-.022-.003-.134.038-.111l-.25-.004.005-.019a2.3 2.3 0 0 1-.225.297c-.038-.108.048-.061.051-.147l-.167.128c-.014-.184.133-.322.218-.275.03-.683-.147.141-.323-.302l.145-.056c.006-.39-.122-.28-.208-.542.004.13.143.65-.036.779-.028-.058-.077-.095-.183.022.055-.233-.034-.194-.13-.2l.082-.308c-.127.064-.155.226-.247.35-.107-.056-.076-.303-.056-.51-.171-.093.035.414-.192.424-.123-.155-.257-.05-.48.091-.082-.132.062-.184.045-.282l-.151.226c-.021-.01.003-.085.017-.12-.1.078-.08.308-.224.363-.112.331-.141-.556-.38-.204-.018-.095.06-.184.078-.308-.27.206-.223.144-.476.445l-.101-.24c.053.258-.145.5-.32.7.01.12.021.225.034.28l-.233.122c-.012-.058.03-.157.095-.28l-.053.064c-.043-.13.034-.301.124-.462.01.066.018.139.027.208.09-.176.183-.375.216-.558a.17.17 0 0 1-.08.068.3.3 0 0 0 .044-.125c.002-.035-.035.03-.086.102l.036-.355-.043.133-.202-.273c-.262.306-.538.778-.856.853.13-.236.11-.41.185-.707.005.334.255-.085.39.014-.07-.05-.02-.19.011-.236l-.332.228c.065-.241-.014-.196-.06-.314-.059.495-.275.276-.414.4.032-.165.095-.325.218-.256-.063-.398-.322.526-.39.182.033.005.046.032.075-.047-.109.128-.267-.028-.189-.16l.033.008c-.197-.111-.648-.158-.775.244.01-.052.142-.488.176-.569l-.7 1.296c.115-.346.18-1.216.403-1.376-.038-.06-.09-.133-.226-.036.024.057-.032.529-.085.554-.04-.423-.04-.231-.125-.603.035.088-.152.626-.229.59.034-.081.12-.549.16-.6l-.328.496c.074-.086.115-.46.104-.623-.003.113-.175-.051-.24-.01l.058.145c-.21-.135-.406.712-.627.629.052-.108.228-.677.128-.77-.119.266-.545 1.286-.797 1.45l-.002-.169-.197.147c.193-.395.671-1.213.9-1.525-.06-.145.02-.194-.114-.207a.19.19 0 0 1 .163-.211l-.278-.165c-.06.33-.304.272-.358.548l.403-.261c-.06.329-.404.877-.603.772-.025-.14.176-.569.193-.678-.052.108-.253.168-.253.081l.131-.153c-.09-.15-.291.385-.365.044-.046-.032-.05-.454-.102-.263-.006.39-.256 1.54-.374 1.807-.012-.03-.175-.416-.19-.612-.014-.31.285-.665.27-.933a.7.7 0 0 1-.121.22c-.036-.089.084-.273-.037-.258-.095.324-.222-.08-.119.267-.133.07-.1-.094-.233-.11-.009.221-.285.697-.418.767.023-.084.025-.197.027-.248-.217-.082-.303-.258-.513-.31-.002-.083-.079-.205-.005-.335-.045.051-.097.159-.165.148-.06-.314.156-.01.14-.374-.051.19-.23.225-.35.322-.042.303.2.104.32.007-.093.407-.354.796-.616.938-.197.061-.015-.283-.06-.232-.31-.146-.444.647-.646.29-.05-.284.115-.519.135-.71.166-.065.181.218.28.229l-.09-.15c.065-.077.177-.117.21-.034-.038-.254-.542-.173-.747-.448-.064.077-.166.148-.153.262l.088-.02c.025.227-.218.256-.14.375-.143.122-.315.327-.439.173l.042-.303c-.015.086.057.2.121.119-.093.116-.137-.453-.3-.08l.06.231c-.143.123-.35.409-.461.285-.008.308.038-.025.055.336.018-.446.339.099.31-.38.005.421.129.207.178.578.019-.097-.002-.197.1-.123a1 1 0 0 1 .046-.082l.005.01-.004-.013c.007-.014.008-.018 0-.004a.4.4 0 0 1-.022-.163c.107-.21.286-.163.373-.265.058.063-.056.107-.043.216l.132-.153c-.043.22.092.402-.093.493l.14.038c.055.144.155.222.247.144.058.063.223-.203.126-.044l.253-.082-.015.055c.219.078.539-.252.698.195.085-.04.176-.086.286.002l-.021.195c.11-.045.242.253.327.068-.016.53.432.218.58.343l.064-.241c.11.041.236-.004.4-.07l.042-.22c.166-.148.28.228.479.25-.034.081-.075.046-.1-.011.119.542.572-.243.699.163.069-.067.102-.03.124.034q-.005-.001-.014.008c.004 0 .015.004.022.006.016.043.027.09.047.134a.4.4 0 0 0-.036-.131.3.3 0 0 0 .182-.05l-.028.24s.007.002.016-.003c.04.1.074-.099.083-.28a.5.5 0 0 0 .111-.124c-.04.386.186-.091.16.326.086-.186.336-.08.463-.48-.01.052.001.082-.033.077.058.063.112.124.199.022l-.042.302.239-.364c.048.202.06.315-.081.52.293-.302.205-.09.464-.397l-.051.19c.065.006.225-.226.23-.056.063.398.704.216.999.64.057-.58.113.294.23-.142-.01.139.026.227-.06.33.219-.087.235.278.45-.06-.009.139-.084.185-.083.268.023-.025.087-.102.088-.02.001.083-.052.108-.097.159.198.021.314-.383.417-.768.055.204.11.19.24-.045.003.134.031.279-.099.295.066.033.372.28.451-.028.002.083.09.044.115.01.146.056.154.085.31.092l-.032-.06c.143-.358.144-.055.275-.071l-.01.036c.213.332.145-.102.347.27l.04-.237c.14-.492.174.35.376.195l-.028-.145c.126-.15.086.734.158.816.01.05-.044.063-.079.089.16.344.1-.296.285-.328-.007.17-.137.406-.03.463.028.144.451-.456.534-.105-.003-.134-.01-.27.092-.344.13-.016.217.553.416.178a.3.3 0 0 1-.001.106c.116-.083.337-.102.442-.305-.102.82.662-.258.488.48l.291.027-.02.077c.164.09.27-.073.373-.238.031.06-.017.121-.027.162.23.21.264.184.57-.134l-.035.246c.092-.125.295.463.617.244a.2.2 0 0 1-.054.099c.356-.215.545.825.854-.023l.242-.17c-.233-.125.127-.37.054-.54.11-.029.192.323.062.34l-.01-.05c-.15.442.271.233.192.542.495.089.915.453 1.368.578l.028-.365.157.057c.022.093-.007.29-.118.248.013.215.23-.123.25-.2.191.196-.183.39-.115.416l.099-.005-.011-.046c.109-.127.149-.278.285-.23.07.09-.006.23.024.25-.007.026.001.04.049.021l.195.076-.014-.298c.122-.117.185.057.166-.281.025.52.711.347.759.52.172-.173.293-.14.442-.08-.026-.067.025-.387.148-.318-.199.637.176.337.174.828-.025-.333.394.01.344-.462.097.077-.05.246-.002.416.322-.189.54.297.885.288.022-.084.002-.227.098-.339l.072.463c.074-.027.171-.476.223-.156 0-.075-.001-.189.051-.206.541.56 1.376-.04 1.842.89-.049-.186.011-.19.079-.18-.034-.048.049-.21.068-.326l.196.382c.122-.31.294.043.394-.256l-.1.036c.196-.336.025-.84.152-1.297-.224.38-.198-.685-.542-.146-.023-.104.073-.141.076-.254-.097.186-.171.213-.269.097l.023-.045c-.345-.03-.441-.256-.787-.474l-.024.237c-.073-.051-.073-.126-.098-.191-.174.326.22.07.047.436.002-.49-.563-.139-.515-.683-.121-.033-.026.271-.147.243v-.15l-.074.177c-.074-.047-.074-.24-.05-.359.015.02.065-.021.086-.027-.065-.195-.31-.013-.333-.074l.098.116c-.368.055-.735-.228-1.131-.012l.001.114c-.297.14-.172-.164-.466-.137l.015-.023c-.081.096-.165.132-.236.101.097-.111-.071-.274.051-.394-.32.154-.174.138-.443.497l-.001-.188c-.098.146-.125.233-.27.245.149-.129-.023-.293.149-.466-.196-.457-.516.297-.515-.307-.246.464.186.333.087.424.024.175-.194.344-.274.276-.09-.032-.009-.67-.24-.716.022.006.032-.03.053-.021-.056-.145-.208.132-.268-.1-.128.288-.132-.047-.237.33l.23-.04c-.141.071-.359.491-.505.229a.7.7 0 0 1 .17-.21c-.032-.126-.126.049-.163-.079.106-.38.277-.024.473-.285-.024-.175-.306.22-.145-.176-.215.507-.211-.12-.46.25l.061-.228c-.031.03-.109.128-.151.113l.149-.278c-.186.225-.193-.28-.344-.167.256.053-.007.289.062.484-.384.234-.039-.643-.416-.614.056-.02.144.18.046.267a.56.56 0 0 1-.136-.299c-.241-.006-.018.246-.152.363-.014-.298-.141.088-.261.154l.055-.232c-.23-.211-.181.47-.377.232l.174-.298-.144.055.085-.26c-.182.167-.212.104-.325 0-.007.17-.113.42-.233.4-.048-.158.095-.21-.079-.217.072-.138.154-.312.178-.078.024-.076.072-.138.095-.21-.05-.178-.208-.087-.268-.1.02.014.047.033.053.07l-.316.268c-.017-.095.028-.161.076-.223-.055.013-.113.115-.189.118.061-.183.102-.38.225-.445l-.277.157c.003-.086-.066-.253-.021-.316-.1-.14-.397.294-.532.109a.15.15 0 0 1-.085.083c-.148-.079-.233-.345-.483-.13l-.028-.364c-.165.042.044.463-.229.531-.199.069.003-.305-.038-.414-.127.15-.356.465-.453.153.069-.052.096.006.15-.007zm-1.848-.268c.047-.042.153-.175.146-.031-.1.26-.103.121-.146.031m-2.884-.074c.043-.071.077-.023.102.074-.038.01-.073-.007-.102-.074m-8.052-.152.003-.011c.057.11.037.065-.003.01zm-.14-.14a.13.13 0 0 0-.028.095c.026-.056.061-.054.1-.024.001-.063-.009-.113-.068-.07h-.003zm17.491 3.95-.017-.068c.088-.051.053.006.017.067z"/><path d="M94.153 81.386a1 1 0 0 1-.015.13.14.14 0 0 0 .015-.13m5.498.728.008.002a.1.1 0 0 1 .014-.039zm-11.099-2.166a.3.3 0 0 1 .038.136c.015-.055.009-.108-.038-.136m-3.932 1.591.12-.035c-.056.001-.06-.055-.076-.099-.011.056-.01.14-.044.134m-.57-1.654c-.022.026-.034-.005-.056.02l-.021.109c.065.006.133-.07.074-.13zm.654.859c.038-.198-.043-.145-.126-.128l.01.003c-.083.268.015.196.113.124h.003zm-.143-.124a.1.1 0 0 1-.067-.01c-.032.106.023.029.067.01m.777.802c-.024-.057-.082.246-.083.163-.096.24.302-.249.083-.162zm-.542-1.342-.032.251.085-.185zm.532.312-.101-.094a.12.12 0 0 1-.052.077c.071.026.136.091.153.017"/><path d="M85.18 80.376c-.037-.01-.073-.02-.103.02a.14.14 0 0 0 .103-.02m-.21-.33.022.061.08.037zm1.603.684.144-.04c.033-.081.01-.139-.047-.119-.045.051-.098.072-.097.159m-.232-.752c.024.057.013.113.015.196l.072-.299zm.389.017c.033-.082.24-.195.073-.216-.032.078-.177.118-.073.216m1.827.823-.034-.005-.108.493zm1.963-.788c-.123-.155-.107.296-.208.116-.06.11.083.144.023.238.117-.102.15-.022.185-.355zm-.183.355a.4.4 0 0 0-.064.064.3.3 0 0 0 .064-.064m18.591 6.528.076.126-.026-.18zm.27-.326-.05.32.123-.269c-.026.009-.074.027-.074-.047zm-12.67-5.574-.02.077c-.007.085.014.094.055.117zm1.26.539-.02-.01-.024.292zm1.188-.105c-.041-.023-.11.03-.151.006.11-.03.082.352.15-.006z"/></g><defs><clipPath id="a"><path fill="#fff" d="M127.605 155.43.207 121.293 32.645.233 160.043 34.37z"/></clipPath></defs></svg>