<svg width="115" height="30" viewBox="0 0 115 30" fill="none" xmlns="http://www.w3.org/2000/svg">
<path fill-rule="evenodd" clip-rule="evenodd" d="M4.41894 5.55787L22.0361 9.30396C22.2289 9.34503 22.3526 9.53494 22.3115 9.72779L22.0127 11.135C21.9056 11.6349 21.7615 12.117 21.583 12.5794L25.21 11.8079C25.4027 11.7668 25.5927 11.8904 25.6338 12.0833L26.081 14.1917C27.6395 21.5217 22.7232 28.7285 15.1953 29.8606C8.25318 30.9032 1.80729 25.9929 0.35058 19.1399L0.00780649 17.5305C-0.0330456 17.3378 0.0905115 17.1487 0.283197 17.1077L6.32324 15.8235C4.10101 13.5575 3.07079 10.1792 3.7705 6.88306L3.99413 5.83521L3.99609 5.83326C4.03714 5.64043 4.22617 5.51684 4.41894 5.55787ZM17.5684 0.00806423C17.761 -0.032824 17.9502 0.0907012 17.9912 0.283455L18.0928 0.758064C18.6158 3.21867 16.9662 5.63847 14.4385 6.01881C12.1091 6.36857 9.94426 4.72065 9.45507 2.4192L9.38867 2.11158C9.34781 1.91884 9.47137 1.72978 9.66406 1.68873L17.5684 0.00806423Z" fill="#2AC864"/>
<path d="M111.207 9.65931C111.207 9.57884 111.264 9.5097 111.343 9.4927L114.576 8.82286C114.647 8.80812 114.712 8.86253 114.712 8.93393V24.3211C114.712 24.3835 114.661 24.4345 114.599 24.4345H111.32C111.258 24.4345 111.207 24.3835 111.207 24.3211V9.65931Z" fill="#ffffff"/>
<path d="M94.7882 9.65823C94.7882 9.57776 94.8437 9.50862 94.923 9.49162L98.0384 8.82291C98.1087 8.80817 98.1755 8.86144 98.1755 8.93398V10.9367C98.9119 9.81691 100.561 8.57922 102.977 8.57922C106.6 8.57922 108.603 11.0546 108.603 14.3256V24.32C108.603 24.3824 108.552 24.4334 108.489 24.4334H105.211C105.148 24.4334 105.097 24.3824 105.097 24.32V15.0329C105.097 13.1763 103.978 11.7324 101.975 11.7324C99.9723 11.7324 98.2933 13.2942 98.2933 15.5044V24.32C98.2933 24.3824 98.2424 24.4334 98.1801 24.4334H94.9015C94.8392 24.4334 94.7882 24.3824 94.7882 24.32V9.65823Z" fill="#ffffff"/>
<path d="M69.7972 24.32V9.65823C69.7972 9.57776 69.8527 9.50862 69.932 9.49162L73.0474 8.82291C73.1176 8.80817 73.1845 8.86144 73.1845 8.93398V10.9367C73.8325 9.84638 75.3052 8.57922 77.6027 8.57922C79.6351 8.57922 81.1667 9.55169 81.9915 11.1135C82.7868 9.90531 84.613 8.57922 86.9104 8.57922C90.2978 8.57922 92.1829 11.0251 92.1829 14.3256V24.32C92.1829 24.3824 92.1319 24.4334 92.0696 24.4334H88.791C88.7287 24.4334 88.6777 24.3824 88.6777 24.32V14.8855C88.6777 12.9995 87.6763 11.7324 85.9679 11.7324C84.2595 11.7324 82.7279 13.0879 82.7279 15.3276V24.32C82.7279 24.3824 82.6769 24.4334 82.6146 24.4334H79.336C79.2737 24.4334 79.2227 24.3824 79.2227 24.32V14.8855C79.2227 13.029 78.2507 11.7324 76.5423 11.7324C74.7456 11.7324 73.3023 13.0879 73.3023 15.3276V24.32C73.3023 24.3824 73.2513 24.4334 73.189 24.4334L69.9093 24.43C69.847 24.43 69.796 24.379 69.796 24.3166L69.7972 24.32Z" fill="#ffffff"/>
<path d="M60.1053 24.8754C55.6871 24.8754 52.2114 21.8991 52.2114 16.7126C52.2114 11.5261 55.7177 8.57922 60.1053 8.57922C64.493 8.57922 67.9993 11.5556 67.9993 16.7126C67.9993 21.8696 64.4941 24.8754 60.1053 24.8754ZM55.7166 16.7126C55.7166 20.1309 57.7784 21.7517 60.1053 21.7517C62.4323 21.7517 64.4941 20.1309 64.4941 16.7126C64.4941 13.2942 62.4028 11.6734 60.1053 11.6734C57.8079 11.6734 55.7166 13.2942 55.7166 16.7126Z" fill="#ffffff"/>
<path d="M36.5854 24.32V9.65814C36.5854 9.57767 36.641 9.50853 36.7203 9.49153L39.8357 8.82282C39.9059 8.80809 39.9728 8.86136 39.9728 8.93389V10.9366C40.7091 9.81569 42.3586 8.578 44.7739 8.578C48.3969 8.578 50.3998 11.0534 50.3998 14.3244V24.3188C50.3998 24.3812 50.3488 24.4322 50.2865 24.4322H47.008C46.9456 24.4322 46.8947 24.3812 46.8947 24.3188V15.0316C46.8947 13.1751 45.7754 11.7312 43.7724 11.7312C41.7695 11.7312 40.0906 13.293 40.0906 15.5031V24.3188C40.0906 24.3812 40.0396 24.4322 39.9773 24.4322H36.6987C36.6364 24.4322 36.5854 24.38 36.5854 24.3177V24.32Z" fill="#ffffff"/>
<path d="M110.321 4.53861L110.384 4.83329C110.642 6.04944 111.786 6.92104 113.017 6.73629C114.353 6.53568 115.225 5.25606 114.949 3.9549L114.867 3.57067C114.854 3.50834 114.792 3.46753 114.729 3.48113L110.411 4.3992C110.348 4.4128 110.308 4.47514 110.321 4.53747V4.53861Z" fill="#ffffff"/>
</svg>
