<svg width="33" height="33" viewBox="0 0 33 33" fill="none" xmlns="http://www.w3.org/2000/svg">
<g id="Colour=Nomni Green, Size=22">
<g id="Group">
<path id="Fill 3" fill-rule="evenodd" clip-rule="evenodd" d="M18.4314 24.8872L18.376 24.8536C17.7752 24.4891 17.0627 24.2883 16.3695 24.2883C15.6579 24.2883 15.0219 24.4925 14.5304 24.8791L14.497 24.9053L14.4697 24.9391C14.239 25.2228 14.1012 25.6346 14.1012 26.0409C14.1012 26.7224 14.6487 27.3202 15.2728 27.3203H17.6704C18.2944 27.3202 18.8419 26.7224 18.842 26.0408C18.842 25.6346 18.7042 25.2228 18.4735 24.9391L18.4314 24.8872Z" fill="#2AC864"/>
<path id="Fill 5" fill-rule="evenodd" clip-rule="evenodd" d="M16.3657 28.7588C14.552 28.7588 12.9754 27.9078 11.6795 26.2297C11.576 26.0622 11.4761 25.9023 11.3798 25.7481C10.2961 24.0138 9.72411 23.0984 9.69414 20.2417C13.6422 20.2194 18.0575 20.2045 23.1545 20.1963C23.132 23.3802 22.4048 24.5538 21.2487 26.1488C19.602 28.2805 17.7176 28.7446 16.4263 28.7585L16.3657 28.7588ZM20.8873 6.35883C22.1064 6.36348 23.7856 6.47452 24.9487 6.97724C26.002 7.43245 26.5728 7.96345 26.5728 9.46337C26.5728 10.6386 25.9715 11.5441 25.6101 11.9826C25.3327 12.3257 25.0305 12.5745 24.6395 12.7803C23.858 12.8897 23.2213 13.5694 23.2228 14.3214V17.0866C18.3376 17.0945 14.3091 17.1055 9.81695 17.1324V14.3221C9.81762 13.5488 9.15475 12.8613 8.34806 12.775C7.98784 12.6223 7.63652 12.2727 7.35106 11.9888L7.30083 11.9388C6.91849 11.4981 6.29157 10.6016 6.29157 9.46358C6.29157 7.96091 6.85652 7.43034 7.89927 6.97689C9.0732 6.46627 10.7839 6.35904 12.0122 6.35904C12.9635 6.35904 13.3543 5.82826 13.5211 5.6016L13.5693 5.53385C13.6738 5.36473 13.7785 5.19081 13.8826 5.01752C14.085 4.68089 14.2764 4.36273 14.4632 4.08574C14.8829 3.5317 15.2987 3.10927 16.4322 3.10927C17.5739 3.10927 17.9871 3.53677 18.4087 4.09568C18.6254 4.38297 18.7986 4.69584 18.966 4.99842C19.2615 5.69699 19.8229 6.02692 20.3289 6.20817V6.3589L20.8873 6.35883ZM6.52875 16.857C6.53331 17.6622 6.50034 17.0397 6.46835 17.8762C6.43561 18.7296 6.40451 18.0589 6.41214 18.7891C5.51724 19.071 4.63409 19.826 4.6663 21.7127C4.67557 22.6202 4.92374 23.5237 5.34712 24.1914C5.86714 25.0117 6.6304 25.4634 7.49637 25.4634C7.91683 26.4075 8.42483 27.2705 9.01033 28.0328C10.9102 30.5062 13.5207 31.8684 16.3611 31.8684C16.3926 31.8684 16.424 31.8683 16.4557 31.8679C19.3524 31.837 21.9983 30.4576 23.9061 27.9838C24.4934 27.2224 24.9996 26.3595 25.4132 25.4156C26.905 25.1764 27.9214 23.8381 28.16 21.7612C28.1792 20.7128 28.0156 19.3607 26.5144 18.8108V15.3542C27.349 14.8691 27.967 14.1878 28.2109 13.8949C29.2772 12.6003 29.8645 11.0266 29.8645 9.46365C29.8645 7.10153 28.5373 5.1177 26.3143 4.15695C24.7489 3.48023 23.0693 3.32732 21.7185 3.28996C21.5659 3.01318 21.3654 2.66759 21.0855 2.29649C20.5645 1.60603 19.0682 7.04986e-05 16.4322 0C13.7875 0 12.2971 1.59418 11.7792 2.27957C11.4958 2.65448 11.2843 3.01269 11.1295 3.28981C9.76463 3.32725 8.07089 3.48002 6.51387 4.15723C4.31364 5.11418 3 7.09779 3 9.46358C3 11.4772 3.96164 12.9999 4.77289 13.9278C5.32888 14.5462 5.89286 15.011 6.52875 15.3727V16.857Z" fill="#2AC864"/>
</g>
</g>
</svg>
