<svg width="33" height="33" viewBox="0 0 33 33" fill="none" xmlns="http://www.w3.org/2000/svg">
<g id="Colour=Nomni Green, Size=22, Type=Default">
<g id="Group">
<path id="Rectangle 23" d="M30.006 30C30.006 30.7693 29.4269 31.4033 28.6809 31.4899L28.506 31.5L4.506 31.5C3.73674 31.5 3.10274 30.9209 3.01609 30.1749L3.006 30L3.006 11.25C3.006 10.4216 3.67757 9.75 4.506 9.75C5.27525 9.75 5.90926 10.3291 5.99591 11.0751L6.006 11.25L6.0075 28.5L27.0075 28.5L27.006 11.25C27.006 10.4807 27.5851 9.84674 28.3311 9.76009L28.506 9.75C29.2753 9.75 29.9093 10.3291 29.9959 11.0751L30.006 11.25L30.006 30Z" fill="#2AC864"/>
<path id="Rectangle" d="M22.506 15C23.3344 15 24.006 15.6716 24.006 16.5V30C24.006 30.8284 23.3344 31.5 22.506 31.5H10.506C9.67757 31.5 9.006 30.8284 9.006 30V16.5C9.006 15.6716 9.67757 15 10.506 15H22.506ZM12.006 18V28.5H21.006V18H12.006Z" fill="#2AC864"/>
<path id="Path 6" d="M22.506 24V27H10.506V24H22.506Z" fill="#2AC864"/>
<path id="Path 6_2" d="M22.506 19.5V22.5H10.506V19.5H22.506Z" fill="#2AC864"/>
<path id="Path 6_3" d="M19.506 10.5C19.9202 10.5 20.256 10.8358 20.256 11.25C20.256 11.6182 19.9907 11.9244 19.6408 11.9879L19.506 12H13.506C13.0918 12 12.756 11.6642 12.756 11.25C12.756 10.8818 13.0213 10.5756 13.3712 10.5121L13.506 10.5H19.506Z" fill="#2AC864"/>
<path id="Path 5" d="M17.2943 1.72366C16.5894 1.28831 15.6652 1.50676 15.2298 2.21158C14.8256 2.86605 14.985 3.70976 15.5742 4.17551L15.7177 4.27602L30.2885 13.276C30.9933 13.7114 31.9176 13.4929 32.353 12.7881C32.7572 12.1336 32.5977 11.2899 32.0086 10.8242L31.8651 10.7237L17.2943 1.72366Z" fill="#2AC864"/>
<path id="Path 5_2" d="M15.7177 1.72366C16.4226 1.28831 17.3468 1.50676 17.7822 2.21158C18.1864 2.86605 18.0269 3.70976 17.4378 4.17551L17.2943 4.27602L2.72346 13.276C2.01865 13.7114 1.09436 13.4929 0.659016 12.7881C0.254766 12.1336 0.414247 11.2899 1.00341 10.8242L1.14693 10.7237L15.7177 1.72366Z" fill="#2AC864"/>
</g>
</g>
</svg>
