<svg width="33" height="33" viewBox="0 0 33 33" fill="none" xmlns="http://www.w3.org/2000/svg">
<g id="Colour=Grey (sidenav), Size=22">
<g id="Shape">
<path fill-rule="evenodd" clip-rule="evenodd" d="M21.8495 23.5579L21.5271 27.6765L22.6705 28.2097L22.9932 24.0912L21.8495 23.5579ZM5.99127 14.2106C6.43819 14.3732 6.73782 14.8692 6.6744 15.3414C6.61114 15.8133 6.19092 16.2135 5.71647 16.253L1.64263 16.6819C1.08373 16.7577 0.510355 16.3037 0.454412 15.7421C0.399107 15.1807 0.872103 14.6216 1.43456 14.5839L5.50872 14.1552C5.67105 14.1358 5.83758 14.1549 5.99127 14.2106ZM4.70712 8.57873L7.98854 10.1089C8.49611 10.337 8.74632 11.0114 8.51071 11.5166C8.27511 12.0219 7.5977 12.2637 7.09667 12.0215L3.9147 10.5377C3.40268 10.3308 3.1253 9.6756 3.333 9.16277C3.54038 8.64979 4.19509 8.3718 4.70712 8.57873ZM29.7426 18.2885L27.3411 23.4385C28.3978 23.3437 29.6334 22.6765 30.1352 21.6003C30.6366 20.5251 30.3481 19.1588 29.7426 18.2885ZM7.57583 2.53078C7.77106 2.60979 7.9412 2.74928 8.05757 2.92501L10.348 6.32157C10.6806 6.77667 10.5564 7.49839 10.0905 7.81671C9.6246 8.13502 8.90806 7.98717 8.60694 7.51106L6.31652 4.11451C6.05875 3.74516 6.0758 3.20591 6.35648 2.85285C6.63715 2.49978 7.15816 2.36202 7.57583 2.53078ZM15.5441 4.70613L7.81452 21.2822L8.72939 21.7088L17.2595 19.356C17.4973 19.2938 17.7573 19.3173 17.9786 19.4244L25.2973 22.8371L27.9729 17.0992L20.6542 13.6865C20.4304 13.5813 20.2466 13.3947 20.1443 13.1697L16.4688 5.13735L15.5441 4.70613ZM15.3818 2.30193L17.7088 3.38704C17.9322 3.48888 18.1178 3.67169 18.2232 3.89352L21.9041 11.9408L29.8192 15.6316C32.2077 16.7454 33.254 19.8964 32.0443 22.4905C30.8346 25.0847 27.7483 26.3086 25.3598 25.1948L25.0315 25.0417L24.6495 29.8846C24.599 30.5631 23.7665 31.0493 23.1513 30.7624L19.969 29.2784C19.5817 29.0971 19.3299 28.6607 19.3669 28.2335L19.8109 22.6073L17.4345 21.4992L8.91888 23.8467C8.68072 23.913 8.41928 23.8927 8.1955 23.7884L5.96793 22.7496C5.4681 22.5166 5.22609 21.8488 5.45946 21.3483L14.0809 2.85958C14.2971 2.38916 14.8933 2.13353 15.3818 2.30193Z" fill="#888888"/>
<path d="M21.8495 23.5579L22.008 23.218L21.5178 22.9895L21.4756 23.5286L21.8495 23.5579ZM21.5271 27.6765L21.1532 27.6472L21.1329 27.9065L21.3686 28.0164L21.5271 27.6765ZM22.6705 28.2097L22.512 28.5495L23.0021 28.7781L23.0444 28.239L22.6705 28.2097ZM22.9932 24.0912L23.3671 24.1205L23.3874 23.8613L23.1517 23.7514L22.9932 24.0912ZM5.99127 14.2106L6.11949 13.8582L6.11916 13.8581L5.99127 14.2106ZM6.6744 15.3414L6.30274 15.2915L6.30273 15.2916L6.6744 15.3414ZM5.71647 16.253L5.68531 15.8793L5.67721 15.8801L5.71647 16.253ZM1.64263 16.6819L1.60335 16.3088L1.5922 16.3103L1.64263 16.6819ZM0.454412 15.7421L0.0812185 15.7788L0.0812584 15.7792L0.454412 15.7421ZM1.43456 14.5839L1.45966 14.9583L1.4738 14.9568L1.43456 14.5839ZM5.50872 14.1552L5.54797 14.5282L5.55318 14.5276L5.50872 14.1552ZM4.70712 8.57873L4.86581 8.2384L4.84763 8.23105L4.70712 8.57873ZM7.98854 10.1089L7.83005 10.4488L7.8348 10.4509L7.98854 10.1089ZM7.09667 12.0215L7.25988 11.6839L7.25515 11.6816L7.09667 12.0215ZM3.9147 10.5377L4.0734 10.1974L4.05522 10.1901L3.9147 10.5377ZM3.333 9.16277L3.68058 9.30354L3.68066 9.30332L3.333 9.16277ZM29.7426 18.2885L30.0504 18.0743L29.6782 17.5393L29.4027 18.13L29.7426 18.2885ZM27.3411 23.4385L27.0012 23.2801L26.726 23.8702L27.3746 23.812L27.3411 23.4385ZM30.1352 21.6003L29.7953 21.4418L30.1352 21.6003ZM7.57583 2.53078L7.71651 2.18317L7.71632 2.18309L7.57583 2.53078ZM8.05756 2.92501L7.74489 3.13206L7.74665 3.13467L8.05756 2.92501ZM10.348 6.32157L10.0368 6.53138L10.0452 6.54285L10.348 6.32157ZM8.60694 7.51106L8.924 7.31052L8.91785 7.3014L8.60694 7.51106ZM6.31652 4.11451L6.62747 3.90482L6.62403 3.89989L6.31652 4.11451ZM15.5441 4.70613L15.7026 4.36626L15.3627 4.20778L15.2042 4.54764L15.5441 4.70613ZM7.81452 21.2822L7.47465 21.1237L7.31617 21.4636L7.65604 21.6221L7.81452 21.2822ZM8.72939 21.7088L8.57091 22.0487L8.69602 22.107L8.8291 22.0703L8.72939 21.7088ZM17.2595 19.356L17.1646 18.9932L17.1598 18.9945L17.2595 19.356ZM17.9786 19.4244L17.8153 19.762L17.8201 19.7642L17.9786 19.4244ZM25.2973 22.8371L25.1388 23.177L25.4786 23.3354L25.6371 22.9956L25.2973 22.8371ZM27.9729 17.0992L28.3127 17.2577L28.4712 16.9178L28.1314 16.7594L27.9729 17.0992ZM20.6542 13.6865L20.4948 14.0259L20.4957 14.0263L20.6542 13.6865ZM20.1443 13.1697L20.4857 13.0145L20.4853 13.0136L20.1443 13.1697ZM16.4688 5.13735L16.8098 4.98131L16.7524 4.85581L16.6273 4.79748L16.4688 5.13735ZM15.3818 2.30193L15.5403 1.96207L15.5225 1.95379L15.504 1.94741L15.3818 2.30193ZM17.7088 3.38704L17.5503 3.72692L17.5532 3.72826L17.7088 3.38704ZM18.2232 3.89352L18.5642 3.73752L18.5619 3.73264L18.2232 3.89352ZM21.9041 11.9408L21.5631 12.0968L21.6205 12.2223L21.7456 12.2806L21.9041 11.9408ZM29.8192 15.6316L29.6607 15.9715V15.9715L29.8192 15.6316ZM25.3598 25.1948L25.2013 25.5346V25.5346L25.3598 25.1948ZM25.0315 25.0417L25.1899 24.7018L24.7001 24.4734L24.6576 25.0122L25.0315 25.0417ZM24.6495 29.8846L24.2757 29.8551L24.2756 29.8568L24.6495 29.8846ZM23.1513 30.7624L22.9928 31.1022V31.1022L23.1513 30.7624ZM19.969 29.2784L19.8099 29.6181L19.8105 29.6183L19.969 29.2784ZM19.3669 28.2335L19.7405 28.2659L19.7407 28.263L19.3669 28.2335ZM19.8109 22.6073L20.1848 22.6368L20.2053 22.3774L19.9694 22.2674L19.8109 22.6073ZM17.4345 21.4992L17.593 21.1593L17.4679 21.101L17.3349 21.1376L17.4345 21.4992ZM8.91888 23.8467L8.81922 23.4851L8.8183 23.4854L8.91888 23.8467ZM8.1955 23.7884L8.03702 24.1282V24.1282L8.1955 23.7884ZM5.96793 22.7496L6.12641 22.4098H6.12641L5.96793 22.7496ZM5.45946 21.3483L5.1196 21.1898L5.45946 21.3483ZM14.0809 2.85958L14.4208 3.01806L14.4216 3.01621L14.0809 2.85958ZM21.8495 23.5579L21.4756 23.5286L21.1532 27.6472L21.5271 27.6765L21.9009 27.7058L22.2233 23.5872L21.8495 23.5579ZM21.5271 27.6765L21.3686 28.0164L22.512 28.5495L22.6705 28.2097L22.829 27.8698L21.6856 27.3366L21.5271 27.6765ZM22.6705 28.2097L23.0444 28.239L23.3671 24.1205L22.9932 24.0912L22.6194 24.0619L22.2967 28.1804L22.6705 28.2097ZM22.9932 24.0912L23.1517 23.7514L22.008 23.218L21.8495 23.5579L21.691 23.8978L22.8348 24.4311L22.9932 24.0912ZM5.99127 14.2106L5.86305 14.563C6.14394 14.6652 6.34276 14.9935 6.30274 15.2915L6.6744 15.3414L7.04607 15.3913C7.13287 14.7449 6.73245 14.0812 6.11949 13.8582L5.99127 14.2106ZM6.6744 15.3414L6.30273 15.2916C6.26283 15.5892 5.98406 15.8544 5.68531 15.8793L5.71647 16.253L5.74763 16.6267C6.39777 16.5725 6.95945 16.0374 7.04608 15.3913L6.6744 15.3414ZM5.71647 16.253L5.67721 15.8801L1.60337 16.309L1.64263 16.6819L1.68189 17.0548L5.75573 16.626L5.71647 16.253ZM1.64263 16.6819L1.5922 16.3103C1.24448 16.3575 0.862539 16.056 0.827565 15.7049L0.454412 15.7421L0.0812584 15.7792C0.158171 16.5514 0.922983 17.158 1.69306 17.0535L1.64263 16.6819ZM0.454412 15.7421L0.827605 15.7053C0.793018 15.3542 1.1088 14.9816 1.45965 14.9581L1.43456 14.5839L1.40947 14.2097C0.635405 14.2616 0.00519477 15.0072 0.0812187 15.7788L0.454412 15.7421ZM1.43456 14.5839L1.4738 14.9568L5.54796 14.5281L5.50872 14.1552L5.46948 13.7823L1.39532 14.211L1.43456 14.5839ZM5.50872 14.1552L5.55318 14.5276C5.65748 14.5151 5.76497 14.5274 5.86338 14.5631L5.99127 14.2106L6.11916 13.8581C5.9102 13.7823 5.68463 13.7565 5.46426 13.7828L5.50872 14.1552ZM4.70712 8.57873L4.54863 8.9186L7.83006 10.4488L7.98854 10.1089L8.14703 9.76902L4.8656 8.23887L4.70712 8.57873ZM7.98854 10.1089L7.8348 10.4509C8.15109 10.5931 8.3183 11.0419 8.17085 11.3582L8.51072 11.5166L8.85058 11.6751C9.17433 10.9808 8.84113 10.081 8.14228 9.76685L7.98854 10.1089ZM8.51072 11.5166L8.17085 11.3582C8.0234 11.6744 7.57208 11.8348 7.25986 11.6839L7.09667 12.0215L6.93348 12.3591C7.62332 12.6926 8.52683 12.3694 8.85058 11.6751L8.51072 11.5166ZM7.09667 12.0215L7.25515 11.6816L4.07318 10.1979L3.9147 10.5377L3.75622 10.8776L6.93819 12.3614L7.09667 12.0215ZM3.9147 10.5377L4.05522 10.1901C3.73573 10.0609 3.55049 9.62473 3.68058 9.30354L3.333 9.16277L2.98543 9.022C2.70011 9.72647 3.06963 10.6007 3.77418 10.8854L3.9147 10.5377ZM3.333 9.16277L3.68066 9.30332C3.81056 8.982 4.24692 8.79721 4.5666 8.92641L4.70712 8.57873L4.84763 8.23105C4.14327 7.94638 3.2702 8.31758 2.98534 9.02222L3.333 9.16277ZM29.7426 18.2885L29.4027 18.13L27.0012 23.2801L27.3411 23.4385L27.6809 23.597L30.0824 18.447L29.7426 18.2885ZM27.3411 23.4385L27.3746 23.812C28.5309 23.7083 29.9038 22.9838 30.475 21.7588L30.1352 21.6003L29.7953 21.4418C29.3629 22.3691 28.2647 22.9792 27.3075 23.065L27.3411 23.4385ZM30.1352 21.6003L30.475 21.7588C31.0465 20.5333 30.7119 19.025 30.0504 18.0743L29.7426 18.2885L29.4347 18.5026C29.9843 19.2926 30.2266 20.5168 29.7953 21.4418L30.1352 21.6003ZM7.57583 2.53078L7.43516 2.8784C7.55977 2.92883 7.67011 3.0191 7.7449 3.13205L8.05756 2.92501L8.37023 2.71797C8.21229 2.47946 7.98236 2.29076 7.71651 2.18317L7.57583 2.53078ZM8.05756 2.92501L7.74665 3.13467L10.0371 6.53123L10.348 6.32157L10.6589 6.1119L8.36848 2.71535L8.05756 2.92501ZM10.348 6.32157L10.0452 6.54285C10.2527 6.82674 10.1702 7.30806 9.87894 7.50707L10.0905 7.8167L10.302 8.12634C10.9425 7.68872 11.1085 6.7266 10.6507 6.10028L10.348 6.32157ZM10.0905 7.8167L9.87894 7.50707C9.58809 7.70579 9.11133 7.60701 8.92387 7.31061L8.60694 7.51106L8.29001 7.71151C8.70479 8.36733 9.66112 8.56424 10.302 8.12634L10.0905 7.8167ZM8.60694 7.51106L8.91785 7.3014L6.62743 3.90485L6.31652 4.11451L6.0056 4.32417L8.29602 7.72072L8.60694 7.51106ZM6.31652 4.11451L6.62403 3.89989C6.46134 3.66677 6.47236 3.30969 6.65002 3.0862L6.35648 2.85285L6.06293 2.61949C5.67925 3.10213 5.65616 3.82354 6.009 4.32912L6.31652 4.11451ZM6.35648 2.85285L6.65002 3.0862C6.8276 2.86282 7.17214 2.77212 7.43535 2.87847L7.57583 2.53078L7.71632 2.18309C7.14419 1.95192 6.4467 2.13674 6.06293 2.61949L6.35648 2.85285ZM15.5441 4.70613L15.2042 4.54764L7.47465 21.1237L7.81452 21.2822L8.15438 21.4407L15.8839 4.86461L15.5441 4.70613ZM7.81452 21.2822L7.65604 21.6221L8.57091 22.0487L8.72939 21.7088L8.88787 21.369L7.973 20.9424L7.81452 21.2822ZM8.72939 21.7088L8.8291 22.0703L17.3592 19.7175L17.2595 19.356L17.1598 18.9945L8.62968 21.3473L8.72939 21.7088ZM17.2595 19.356L17.3544 19.7188C17.5079 19.6787 17.6762 19.6946 17.8153 19.7619L17.9786 19.4244L18.1419 19.0868C17.8384 18.9399 17.4867 18.909 17.1646 18.9932L17.2595 19.356ZM17.9786 19.4244L17.8201 19.7642L25.1388 23.177L25.2973 22.8371L25.4557 22.4972L18.1371 19.0845L17.9786 19.4244ZM25.2973 22.8371L25.6371 22.9956L28.3127 17.2577L27.9729 17.0992L27.633 16.9407L24.9574 22.6786L25.2973 22.8371ZM27.9729 17.0992L28.1314 16.7594L20.8127 13.3466L20.6542 13.6865L20.4957 14.0263L27.8144 17.4391L27.9729 17.0992ZM20.6542 13.6865L20.8137 13.3471C20.6708 13.2799 20.5512 13.1588 20.4857 13.0145L20.1443 13.1697L19.8029 13.3248C19.9419 13.6306 20.1901 13.8827 20.4948 14.0259L20.6542 13.6865ZM20.1443 13.1697L20.4853 13.0136L16.8098 4.98131L16.4688 5.13735L16.1278 5.29338L19.8033 13.3257L20.1443 13.1697ZM16.4688 5.13735L16.6273 4.79748L15.7026 4.36626L15.5441 4.70613L15.3856 5.04599L16.3103 5.47721L16.4688 5.13735ZM15.3818 2.30193L15.2233 2.6418L17.5503 3.72691L17.7088 3.38704L17.8673 3.04718L15.5403 1.96207L15.3818 2.30193ZM17.7088 3.38704L17.5532 3.72826C17.6962 3.79342 17.817 3.91234 17.8844 4.0544L18.2232 3.89352L18.5619 3.73264C18.4187 3.43105 18.1682 3.18434 17.8644 3.04583L17.7088 3.38704ZM18.2232 3.89352L17.8822 4.0495L21.5631 12.0968L21.9041 11.9408L22.2451 11.7848L18.5642 3.73753L18.2232 3.89352ZM21.9041 11.9408L21.7456 12.2806L29.6607 15.9715L29.8192 15.6316L29.9776 15.2918L22.0626 11.6009L21.9041 11.9408ZM29.8192 15.6316L29.6607 15.9715C31.8406 16.988 32.8367 19.904 31.7044 22.332L32.0443 22.4905L32.3842 22.649C33.6713 19.8888 32.5748 16.5029 29.9776 15.2918L29.8192 15.6316ZM32.0443 22.4905L31.7044 22.332C30.5722 24.7601 27.6982 25.8714 25.5183 24.8549L25.3598 25.1948L25.2013 25.5346C27.7985 26.7457 31.097 25.4092 32.3842 22.649L32.0443 22.4905ZM25.3598 25.1948L25.5183 24.8549L25.1899 24.7018L25.0315 25.0417L24.873 25.3815L25.2013 25.5346L25.3598 25.1948ZM25.0315 25.0417L24.6576 25.0122L24.2757 29.8551L24.6495 29.8846L25.0234 29.9141L25.4053 25.0711L25.0315 25.0417ZM24.6495 29.8846L24.2756 29.8568C24.2614 30.0468 24.1327 30.239 23.9228 30.3619C23.7128 30.4847 23.4819 30.5028 23.3098 30.4225L23.1513 30.7624L22.9928 31.1022C23.4358 31.3088 23.9289 31.2273 24.3016 31.0092C24.6743 30.791 24.9871 30.401 25.0235 29.9125L24.6495 29.8846ZM23.1513 30.7624L23.3098 30.4225L20.1275 28.9386L19.969 29.2784L19.8105 29.6183L22.9928 31.1022L23.1513 30.7624ZM19.969 29.2784L20.128 28.9388C19.8833 28.8243 19.7171 28.5365 19.7405 28.2659L19.3669 28.2335L18.9933 28.2012C18.9428 28.7848 19.28 29.3699 19.8099 29.6181L19.969 29.2784ZM19.3669 28.2335L19.7407 28.263L20.1848 22.6368L19.8109 22.6073L19.4371 22.5778L18.993 28.204L19.3669 28.2335ZM19.8109 22.6073L19.9694 22.2674L17.593 21.1593L17.4345 21.4992L17.276 21.839L19.6525 22.9472L19.8109 22.6073ZM17.4345 21.4992L17.3349 21.1376L8.81922 23.4852L8.91888 23.8467L9.01854 24.2082L17.5342 21.8607L17.4345 21.4992ZM8.91888 23.8467L8.8183 23.4854C8.66482 23.5281 8.49535 23.5144 8.35398 23.4485L8.1955 23.7884L8.03702 24.1282C8.3432 24.271 8.69662 24.2978 9.01945 24.2079L8.91888 23.8467ZM8.1955 23.7884L8.35398 23.4485L6.12641 22.4098L5.96793 22.7496L5.80945 23.0895L8.03702 24.1282L8.1955 23.7884ZM5.96793 22.7496L6.12641 22.4098C5.815 22.2646 5.65315 21.8203 5.79933 21.5068L5.45946 21.3483L5.1196 21.1898C4.79904 21.8773 5.12119 22.7686 5.80945 23.0895L5.96793 22.7496ZM5.45946 21.3483L5.79933 21.5068L14.4208 3.01806L14.0809 2.85958L13.741 2.7011L5.1196 21.1898L5.45946 21.3483ZM14.0809 2.85958L14.4216 3.01621C14.5577 2.72029 14.954 2.55111 15.2596 2.65645L15.3818 2.30193L15.504 1.94741C14.8326 1.71595 14.0366 2.05802 13.7402 2.70294L14.0809 2.85958Z" fill="#888888"/>
</g>
</g>
</svg>
