<svg width="33" height="33" viewBox="0 0 33 33" fill="none" xmlns="http://www.w3.org/2000/svg">
<g id="Colour=Nomni Green, Size=22">
<path id="Fill 1" fill-rule="evenodd" clip-rule="evenodd" d="M28.4343 7.32C28.4373 6.5625 27.468 6 26.7141 6H22.4899L22.4944 11.955C22.4944 11.955 25.0493 11.9745 27.0148 11.9745C27.6251 11.9745 28.0978 11.652 28.2802 11.5485C28.5241 11.331 28.4238 9.978 28.4343 7.32V7.32ZM19.4758 6H13.5135L13.5239 11.988L19.5057 11.9715L19.4758 6ZM7.52417 14.9865V25.5C7.52417 26.328 8.1943 27 9.02 27H10.5158V21V19.5V18H22.4824V19.5V21V27H23.9783C24.804 27 25.4741 26.328 25.4741 25.5V14.997L7.52417 14.9865ZM6.24674 6C5.47639 6 4.51009 6.489 4.52355 7.2615C4.56394 10.1325 4.58787 10.2255 4.51009 11.1915C4.60731 11.7735 5.52725 12.024 6.12109 12.015C7.81586 11.985 10.5278 11.946 10.5278 11.946L10.5069 6H6.24674ZM15.0033 27H17.995H19.4908V21H13.5075V27H15.0033ZM31.4918 12.0075C31.4634 14.6625 29.2854 15.0705 28.4657 15.0165V27C28.4657 28.656 27.127 30 25.4741 30H7.52417C5.87278 30 4.53252 28.656 4.53252 27V15.009C2.93648 15.0135 1.6037 13.8855 1.54237 12.102C1.50796 10.9725 1.49749 9.105 1.50049 5.9985C1.50198 4.5045 3.11149 3 4.60133 3H28.4283C29.9032 3 31.4723 4.476 31.4783 5.9565C31.4918 9.3375 31.5112 9.774 31.4918 12.0075V12.0075Z" fill="#2AC864"/>
</g>
</svg>
