<svg width="33" height="33" viewBox="0 0 33 33" fill="none" xmlns="http://www.w3.org/2000/svg">
<g id="Colour=Grey (sidenav)">
<g id="Group 2">
<g id="Recipes icon">
<path fill-rule="evenodd" clip-rule="evenodd" d="M18.5269 2.2515C18.5269 1.8375 18.8644 1.5 19.2784 1.5C19.6924 1.5 20.0284 1.8375 20.0284 2.2515V11.2725C20.0284 11.955 20.2714 12.483 20.6344 12.849C21.0619 13.2825 21.6604 13.5075 22.2364 13.5075C22.6504 13.5075 22.9864 13.845 22.9864 14.259C22.6339 18.2745 21.5254 24.0705 21.5254 27.831C21.5284 28.203 21.6739 28.74 22.0204 29.196C22.3534 29.6355 22.8874 29.9925 23.6749 30.018H23.8819C24.6709 29.9925 25.2064 29.6355 25.5409 29.1945C25.8859 28.74 26.0329 28.2075 26.0359 27.8385L24.5809 14.3385C24.5374 13.926 24.8344 13.557 25.2454 13.5135L25.3249 13.5105C25.8994 13.5075 26.4979 13.2825 26.9269 12.8505C27.2899 12.483 27.5329 11.955 27.5329 11.2725V2.2515C27.5329 1.8375 27.8689 1.5 28.2829 1.5C28.6969 1.5 29.0329 1.8375 29.0329 2.2515V11.2725C29.0329 12.3855 28.6144 13.272 27.9874 13.905C27.4759 14.421 26.8249 14.763 26.1484 14.916L27.5269 27.6885L27.5299 27.8295C27.5314 28.458 27.2944 29.355 26.7304 30.096C26.1544 30.855 25.2484 31.4685 23.9284 31.5135H23.6284C22.3114 31.4685 21.4054 30.8565 20.8294 30.0975C20.2654 29.355 20.0269 28.458 20.0269 27.831C20.0359 27.8055 20.0329 27.7185 20.0344 27.6885L21.4114 14.916C20.7364 14.7615 20.0839 14.421 19.5724 13.905C18.9454 13.272 18.5269 12.3855 18.5269 11.2725V2.2515ZM7.90088 15.3915L6.55988 27.831C6.56288 28.203 6.70838 28.74 7.05488 29.196C7.38938 29.6355 7.92188 29.9925 8.70938 30.018H8.91638C9.70688 29.9925 10.2409 29.6355 10.5754 29.1945C10.9219 28.74 11.0674 28.2075 11.0704 27.8385L9.72338 15.3435C9.69188 15.0405 9.84638 14.7585 10.0939 14.616C10.8154 14.1735 11.4289 13.689 11.8444 12.9825C12.2734 12.255 12.5239 11.253 12.5239 9.7575C12.5239 8.1495 12.0019 6.2955 11.1709 4.9095C10.4989 3.7905 9.64838 3.003 8.77238 3.003C7.89338 3.003 7.04138 3.789 6.36938 4.908C5.53988 6.291 5.01938 8.1405 5.01938 9.7575C5.01938 11.2635 5.27888 12.285 5.72138 13.0245C6.15338 13.7475 6.78638 14.2365 7.52888 14.6655C7.79438 14.817 7.93088 15.1065 7.90088 15.3915ZM5.06888 27.6885L6.36188 15.7035C5.59688 15.2115 4.93688 14.6265 4.43888 13.7925C3.85838 12.8235 3.51938 11.5545 3.51938 9.7575C3.51938 7.8885 4.12388 5.7465 5.08538 4.1415C6.01688 2.5905 7.30388 1.503 8.77238 1.503C10.2394 1.503 11.5249 2.592 12.4534 4.1415C13.4194 5.751 14.0254 7.8975 14.0254 9.7575C14.0254 11.5425 13.6954 12.7905 13.1329 13.7445C12.6469 14.5695 12.0064 15.147 11.2624 15.645L12.5614 27.6885L12.5659 27.8295C12.5659 28.458 12.3289 29.355 11.7664 30.096C11.1904 30.855 10.2829 31.4685 8.96288 31.5135H8.66288C7.34588 31.4685 6.44138 30.8565 5.86538 30.0975C5.30138 29.355 5.06138 28.458 5.06138 27.831C5.07038 27.8055 5.06738 27.7185 5.06888 27.6885Z" fill="#888888"/>
<path d="M20.6344 12.849L20.9548 12.533L20.9539 12.5321L20.6344 12.849ZM22.9864 14.259L23.4347 14.2984L23.4364 14.2787V14.259H22.9864ZM21.5254 27.831H21.0754L21.0754 27.8346L21.5254 27.831ZM22.0204 29.196L22.3791 28.9242L22.3787 28.9237L22.0204 29.196ZM23.6749 30.018L23.6603 30.468H23.6749V30.018ZM23.8819 30.018V30.4682L23.8964 30.4678L23.8819 30.018ZM25.5409 29.1945L25.1825 28.9224L25.1824 28.9226L25.5409 29.1945ZM26.0359 27.8385L26.4859 27.8422L26.4861 27.8161L26.4833 27.7903L26.0359 27.8385ZM24.5809 14.3385L24.1334 14.3857L24.1335 14.3867L24.5809 14.3385ZM25.2454 13.5135L25.2284 13.0638L25.2132 13.0644L25.198 13.066L25.2454 13.5135ZM25.3249 13.5105L25.3225 13.0603L25.3079 13.0608L25.3249 13.5105ZM26.9269 12.8505L27.2462 13.1676L27.247 13.1667L26.9269 12.8505ZM27.9874 13.905L28.307 14.2218L28.3071 14.2217L27.9874 13.905ZM26.1484 14.916L26.0491 14.4771L25.6579 14.5656L25.701 14.9643L26.1484 14.916ZM27.5269 27.6885L27.9768 27.6789L27.9764 27.6595L27.9743 27.6402L27.5269 27.6885ZM27.5299 27.8295L27.98 27.8284L27.9798 27.8199L27.5299 27.8295ZM26.7304 30.096L26.3723 29.8235L26.3719 29.824L26.7304 30.096ZM23.9284 31.5135V31.9638L23.9437 31.9632L23.9284 31.5135ZM23.6284 31.5135L23.613 31.9635H23.6284V31.5135ZM20.8294 30.0975L21.1878 29.8255L21.1877 29.8253L20.8294 30.0975ZM20.0269 27.831L19.6025 27.6812L19.5769 27.7539V27.831H20.0269ZM20.0344 27.6885L19.587 27.6403L19.5856 27.6531L19.5849 27.666L20.0344 27.6885ZM21.4114 14.916L21.8588 14.9642L21.9017 14.5666L21.5118 14.4773L21.4114 14.916ZM19.5724 13.905L19.2527 14.2217L19.2528 14.2218L19.5724 13.905ZM7.90088 15.3915L8.34829 15.4397L8.34841 15.4386L7.90088 15.3915ZM6.55988 27.831L6.11248 27.7828L6.10969 27.8086L6.1099 27.8346L6.55988 27.831ZM7.05488 29.196L6.69659 29.4683L6.6968 29.4685L7.05488 29.196ZM8.70938 30.018L8.69481 30.468H8.70938V30.018ZM8.91638 30.018V30.4682L8.93089 30.4678L8.91638 30.018ZM10.5754 29.1945L10.2175 28.9217L10.2169 28.9226L10.5754 29.1945ZM11.0704 27.8385L11.5204 27.8422L11.5206 27.8161L11.5178 27.7903L11.0704 27.8385ZM9.72338 15.3435L9.27579 15.39L9.27598 15.3917L9.72338 15.3435ZM10.0939 14.616L10.3185 15.0061L10.3291 14.9996L10.0939 14.616ZM11.8444 12.9825L11.4568 12.7539L11.4565 12.7544L11.8444 12.9825ZM11.1709 4.9095L11.5568 4.6781L11.5567 4.67782L11.1709 4.9095ZM6.36938 4.908L5.9836 4.67632L5.98348 4.67654L6.36938 4.908ZM5.72138 13.0245L6.10768 12.7937L6.10753 12.7934L5.72138 13.0245ZM7.52888 14.6655L7.30376 15.0551L7.30586 15.0563L7.52888 14.6655ZM5.06888 27.6885L4.62148 27.6402L4.62009 27.6531L4.61945 27.666L5.06888 27.6885ZM6.36188 15.7035L6.80929 15.7518L6.83911 15.4754L6.6053 15.325L6.36188 15.7035ZM4.43888 13.7925L4.82525 13.5618L4.82491 13.5612L4.43888 13.7925ZM5.08538 4.1415L4.69961 3.90981L4.69935 3.91024L5.08538 4.1415ZM12.4534 4.1415L12.0674 4.3728L12.0675 4.37308L12.4534 4.1415ZM13.1329 13.7445L12.7452 13.5159L12.7452 13.5161L13.1329 13.7445ZM11.2624 15.645L11.0121 15.271L10.7858 15.4225L10.815 15.6933L11.2624 15.645ZM12.5614 27.6885L13.0112 27.6741L13.0106 27.6572L13.0088 27.6402L12.5614 27.6885ZM12.5659 27.8295H13.0161L13.0157 27.8151L12.5659 27.8295ZM11.7664 30.096L11.408 29.8239L11.4079 29.824L11.7664 30.096ZM8.96288 31.5135V31.9638L8.97822 31.9632L8.96288 31.5135ZM8.66288 31.5135L8.64751 31.9635H8.66288V31.5135ZM5.86538 30.0975L6.22385 29.8255L6.22373 29.8253L5.86538 30.0975ZM5.06138 27.831L4.63704 27.6812L4.61138 27.7539V27.831H5.06138ZM18.5269 2.2515H18.9769C18.9769 2.08603 19.1129 1.95 19.2784 1.95V1.5V1.05C18.6159 1.05 18.0769 1.58897 18.0769 2.2515H18.5269ZM19.2784 1.5V1.95C19.4427 1.95 19.5784 2.08486 19.5784 2.2515H20.0284H20.4784C20.4784 1.59014 19.9421 1.05 19.2784 1.05V1.5ZM20.0284 2.2515H19.5784V11.2725H20.0284H20.4784V2.2515H20.0284ZM20.0284 11.2725H19.5784C19.5784 12.069 19.865 12.7123 20.3149 13.1659L20.6344 12.849L20.9539 12.5321C20.6777 12.2537 20.4784 11.841 20.4784 11.2725H20.0284ZM20.6344 12.849L20.314 13.165C20.8325 13.6908 21.5495 13.9575 22.2364 13.9575V13.5075V13.0575C21.7713 13.0575 21.2913 12.8742 20.9548 12.533L20.6344 12.849ZM22.2364 13.5075V13.9575C22.4007 13.9575 22.5364 14.0924 22.5364 14.259H22.9864H23.4364C23.4364 13.5976 22.9001 13.0575 22.2364 13.0575V13.5075ZM22.9864 14.259L22.5381 14.2196C22.363 16.2142 22.0004 18.6485 21.6776 21.0814C21.3567 23.5 21.0754 25.917 21.0754 27.831H21.5254H21.9754C21.9754 25.9845 22.2483 23.6233 22.5698 21.1998C22.8894 18.7907 23.2572 16.3193 23.4347 14.2984L22.9864 14.259ZM21.5254 27.831L21.0754 27.8346C21.0792 28.3011 21.2553 28.9329 21.6621 29.4683L22.0204 29.196L22.3787 28.9237C22.0925 28.5471 21.9776 28.1049 21.9754 27.8274L21.5254 27.831ZM22.0204 29.196L21.6617 29.4678C22.0698 30.0064 22.7262 30.4375 23.6603 30.4678L23.6749 30.018L23.6894 29.5682C23.0486 29.5475 22.6369 29.2646 22.3791 28.9242L22.0204 29.196ZM23.6749 30.018V30.468H23.8819V30.018V29.568H23.6749V30.018ZM23.8819 30.018L23.8964 30.4678C24.8318 30.4375 25.4896 30.0067 25.8994 29.4664L25.5409 29.1945L25.1824 28.9226C24.9231 29.2643 24.51 29.5475 23.8673 29.5682L23.8819 30.018ZM25.5409 29.1945L25.8993 29.4666C26.3034 28.9343 26.4821 28.3075 26.4859 27.8422L26.0359 27.8385L25.5859 27.8348C25.5837 28.1075 25.4684 28.5457 25.1825 28.9224L25.5409 29.1945ZM26.0359 27.8385L26.4833 27.7903L25.0283 14.2903L24.5809 14.3385L24.1335 14.3867L25.5885 27.8867L26.0359 27.8385ZM24.5809 14.3385L25.0284 14.2913C25.0108 14.124 25.1307 13.9782 25.2927 13.961L25.2454 13.5135L25.198 13.066C24.5381 13.1358 24.064 13.728 24.1334 14.3857L24.5809 14.3385ZM25.2454 13.5135L25.2624 13.9632L25.3419 13.9602L25.3249 13.5105L25.3079 13.0608L25.2284 13.0638L25.2454 13.5135ZM25.3249 13.5105L25.3272 13.9605C26.0111 13.9569 26.7267 13.6907 27.2462 13.1676L26.9269 12.8505L26.6076 12.5334C26.2691 12.8743 25.7877 13.0581 25.3225 13.0605L25.3249 13.5105ZM26.9269 12.8505L27.247 13.1667C27.6961 12.7121 27.9829 12.0692 27.9829 11.2725H27.5329H27.0829C27.0829 11.8408 26.8836 12.2539 26.6067 12.5343L26.9269 12.8505ZM27.5329 11.2725H27.9829V2.2515H27.5329H27.0829V11.2725H27.5329ZM27.5329 2.2515H27.9829C27.9829 2.08486 28.1186 1.95 28.2829 1.95V1.5V1.05C27.6192 1.05 27.0829 1.59014 27.0829 2.2515H27.5329ZM28.2829 1.5V1.95C28.4472 1.95 28.5829 2.08486 28.5829 2.2515H29.0329H29.4829C29.4829 1.59014 28.9466 1.05 28.2829 1.05V1.5ZM29.0329 2.2515H28.5829V11.2725H29.0329H29.4829V2.2515H29.0329ZM29.0329 11.2725H28.5829C28.5829 12.2644 28.213 13.0378 27.6677 13.5883L27.9874 13.905L28.3071 14.2217C29.0158 13.5062 29.4829 12.5066 29.4829 11.2725H29.0329ZM27.9874 13.905L27.6678 13.5882C27.2202 14.0397 26.6472 14.3418 26.0491 14.4771L26.1484 14.916L26.2477 15.3549C27.0026 15.1842 27.7315 14.8023 28.307 14.2218L27.9874 13.905ZM26.1484 14.916L25.701 14.9643L27.0795 27.7368L27.5269 27.6885L27.9743 27.6402L26.5958 14.8677L26.1484 14.916ZM27.5269 27.6885L27.077 27.6981L27.08 27.8391L27.5299 27.8295L27.9798 27.8199L27.9768 27.6789L27.5269 27.6885ZM27.5299 27.8295L27.0799 27.8306C27.0812 28.365 26.8736 29.1648 26.3723 29.8235L26.7304 30.096L27.0885 30.3685C27.7152 29.5452 27.9816 28.551 27.9799 27.8284L27.5299 27.8295ZM26.7304 30.096L26.3719 29.824C25.8682 30.4877 25.0827 31.0239 23.9131 31.0638L23.9284 31.5135L23.9437 31.9632C25.4141 31.9131 26.4406 31.2223 27.0888 30.368L26.7304 30.096ZM23.9284 31.5135V31.0635H23.6284V31.5135V31.9635H23.9284V31.5135ZM23.6284 31.5135L23.6438 31.0638C22.4769 31.0239 21.6915 30.4891 21.1878 29.8255L20.8294 30.0975L20.4709 30.3695C21.1193 31.2239 22.1459 31.9131 23.613 31.9632L23.6284 31.5135ZM20.8294 30.0975L21.1877 29.8253C20.6858 29.1645 20.4769 28.3641 20.4769 27.831H20.0269H19.5769C19.5769 28.5519 19.845 29.5455 20.471 30.3697L20.8294 30.0975ZM20.0269 27.831L20.4512 27.9808C20.4652 27.9411 20.4713 27.907 20.4741 27.89C20.4772 27.8702 20.479 27.8524 20.4801 27.8392C20.4823 27.8131 20.483 27.788 20.4834 27.7703C20.4837 27.7519 20.4838 27.7335 20.4838 27.7223C20.4839 27.7063 20.4841 27.7063 20.4838 27.711L20.0344 27.6885L19.5849 27.666C19.5844 27.6776 19.5842 27.6884 19.5841 27.6955C19.5839 27.7031 19.5839 27.7109 19.5839 27.7174C19.5838 27.7317 19.5837 27.7422 19.5835 27.7526C19.5834 27.7574 19.5833 27.7611 19.5832 27.7636C19.5831 27.7664 19.583 27.7667 19.5832 27.7652C19.5832 27.7642 19.5838 27.7577 19.5854 27.7475C19.5863 27.7423 19.5877 27.7342 19.59 27.7242C19.5922 27.7146 19.5961 27.6995 19.6025 27.6812L20.0269 27.831ZM20.0344 27.6885L20.4818 27.7367L21.8588 14.9642L21.4114 14.916L20.964 14.8678L19.587 27.6403L20.0344 27.6885ZM21.4114 14.916L21.5118 14.4773C20.9135 14.3404 20.339 14.0391 19.892 13.5882L19.5724 13.905L19.2528 14.2218C19.8288 14.8029 20.5593 15.1826 21.311 15.3547L21.4114 14.916ZM19.5724 13.905L19.8921 13.5883C19.3468 13.0378 18.9769 12.2644 18.9769 11.2725H18.5269H18.0769C18.0769 12.5066 18.544 13.5062 19.2527 14.2217L19.5724 13.905ZM18.5269 11.2725H18.9769V2.2515H18.5269H18.0769V11.2725H18.5269ZM7.90088 15.3915L7.45348 15.3433L6.11248 27.7828L6.55988 27.831L7.00729 27.8792L8.34829 15.4397L7.90088 15.3915ZM6.55988 27.831L6.1099 27.8346C6.11366 28.3011 6.28979 28.9329 6.69659 29.4683L7.05488 29.196L7.41318 28.9237C7.12698 28.5471 7.01211 28.1049 7.00987 27.8274L6.55988 27.831ZM7.05488 29.196L6.6968 29.4685C7.10588 30.006 7.76017 30.4375 8.69482 30.4678L8.70938 30.018L8.72395 29.5682C8.0836 29.5475 7.67289 29.265 7.41297 28.9235L7.05488 29.196ZM8.70938 30.018V30.468H8.91638V30.018V29.568H8.70938V30.018ZM8.91638 30.018L8.93089 30.4678C9.86795 30.4375 10.5243 30.0065 10.9339 29.4664L10.5754 29.1945L10.2169 28.9226C9.9575 29.2645 9.54582 29.5475 8.90188 29.5682L8.91638 30.018ZM10.5754 29.1945L10.9332 29.4673C11.3398 28.934 11.5166 28.3067 11.5204 27.8422L11.0704 27.8385L10.6204 27.8348C10.6182 28.1083 10.504 28.546 10.2175 28.9217L10.5754 29.1945ZM11.0704 27.8385L11.5178 27.7903L10.1708 15.2953L9.72338 15.3435L9.27598 15.3917L10.623 27.8867L11.0704 27.8385ZM9.72338 15.3435L10.171 15.297C10.1584 15.1758 10.2205 15.0624 10.3184 15.006L10.0939 14.616L9.86935 14.226C9.47228 14.4546 9.22539 14.9052 9.2758 15.39L9.72338 15.3435ZM10.0939 14.616L10.3291 14.9996C11.0754 14.5419 11.7619 14.0104 12.2323 13.2106L11.8444 12.9825L11.4565 12.7544C11.0959 13.3676 10.5554 13.8051 9.85862 14.2324L10.0939 14.616ZM11.8444 12.9825L12.232 13.2111C12.7161 12.3901 12.9739 11.2996 12.9739 9.7575H12.5239H12.0739C12.0739 11.2064 11.8306 12.1199 11.4568 12.7539L11.8444 12.9825ZM12.5239 9.7575H12.9739C12.9739 8.06629 12.4289 6.13254 11.5568 4.6781L11.1709 4.9095L10.7849 5.1409C11.5749 6.45846 12.0739 8.23271 12.0739 9.7575H12.5239ZM11.1709 4.9095L11.5567 4.67782C11.2037 4.09008 10.7923 3.56908 10.3354 3.19022C9.87933 2.81208 9.34935 2.553 8.77238 2.553V3.003V3.453C9.07142 3.453 9.40469 3.58767 9.7609 3.88303C10.1162 4.17767 10.4661 4.60992 10.7851 5.14118L11.1709 4.9095ZM8.77238 3.003V2.553C8.19458 2.553 7.66365 2.81114 7.20653 3.18905C6.74866 3.56759 6.3367 4.08835 5.9836 4.67632L6.36938 4.908L6.75516 5.13968C7.07407 4.60865 7.42411 4.17691 7.77999 3.8827C8.13662 3.58786 8.47119 3.453 8.77238 3.453V3.003ZM6.36938 4.908L5.98348 4.67654C5.11273 6.12831 4.56938 8.05763 4.56938 9.7575H5.01938H5.46938C5.46938 8.22337 5.96704 6.45369 6.75529 5.13946L6.36938 4.908ZM5.01938 9.7575H4.56938C4.56938 11.3116 4.83667 12.4224 5.33524 13.2556L5.72138 13.0245L6.10753 12.7934C5.7211 12.1476 5.46938 11.2154 5.46938 9.7575H5.01938ZM5.72138 13.0245L5.33509 13.2553C5.82339 14.0725 6.53112 14.6087 7.30376 15.0551L7.52888 14.6655L7.75401 14.2759C7.04165 13.8643 6.48338 13.4225 6.10768 12.7937L5.72138 13.0245ZM7.52888 14.6655L7.30586 15.0563C7.41041 15.116 7.46538 15.2302 7.45336 15.3444L7.90088 15.3915L8.34841 15.4386C8.39639 14.9828 8.17835 14.518 7.75191 14.2747L7.52888 14.6655ZM5.06888 27.6885L5.51629 27.7368L6.80929 15.7518L6.36188 15.7035L5.91448 15.6552L4.62148 27.6402L5.06888 27.6885ZM6.36188 15.7035L6.6053 15.325C5.87997 14.8585 5.27775 14.3196 4.82525 13.5618L4.43888 13.7925L4.05252 14.0232C4.59602 14.9334 5.3138 15.5645 6.11847 16.082L6.36188 15.7035ZM4.43888 13.7925L4.82491 13.5612C4.29729 12.6805 3.96938 11.4975 3.96938 9.7575H3.51938H3.06938C3.06938 11.6115 3.41948 12.9665 4.05285 14.0238L4.43888 13.7925ZM3.51938 9.7575H3.96938C3.96938 7.97177 4.55083 5.90946 5.47142 4.37276L5.08538 4.1415L4.69935 3.91024C3.69694 5.58354 3.06938 7.80523 3.06938 9.7575H3.51938ZM5.08538 4.1415L5.47116 4.37319C6.37173 2.87369 7.53989 1.953 8.77238 1.953V1.503V1.053C7.06788 1.053 5.66204 2.30731 4.69961 3.90981L5.08538 4.1415ZM8.77238 1.503V1.953C10.003 1.953 11.1697 2.87466 12.0674 4.3728L12.4534 4.1415L12.8394 3.9102C11.8801 2.30934 10.4758 1.053 8.77238 1.053V1.503ZM12.4534 4.1415L12.0675 4.37308C12.9926 5.91438 13.5754 7.9811 13.5754 9.7575H14.0254H14.4754C14.4754 7.8139 13.8462 5.58762 12.8392 3.90992L12.4534 4.1415ZM14.0254 9.7575H13.5754C13.5754 11.4867 13.256 12.6496 12.7452 13.5159L13.1329 13.7445L13.5205 13.9731C14.1347 12.9314 14.4754 11.5983 14.4754 9.7575H14.0254ZM13.1329 13.7445L12.7452 13.5161C12.3036 14.2656 11.7194 14.7976 11.0121 15.271L11.2624 15.645L11.5127 16.019C12.2934 15.4964 12.9901 14.8734 13.5206 13.9729L13.1329 13.7445ZM11.2624 15.645L10.815 15.6933L12.114 27.7368L12.5614 27.6885L13.0088 27.6402L11.7098 15.5967L11.2624 15.645ZM12.5614 27.6885L12.1116 27.7029L12.1161 27.8439L12.5659 27.8295L13.0157 27.8151L13.0112 27.6741L12.5614 27.6885ZM12.5659 27.8295H12.1159C12.1159 28.3649 11.908 29.1652 11.408 29.8239L11.7664 30.096L12.1248 30.3681C12.7498 29.5448 13.0159 28.5511 13.0159 27.8295H12.5659ZM11.7664 30.096L11.4079 29.824C10.9043 30.4876 10.1174 31.0239 8.94755 31.0638L8.96288 31.5135L8.97822 31.9632C10.4483 31.9131 11.4764 31.2224 12.1248 30.368L11.7664 30.096ZM8.96288 31.5135V31.0635H8.66288V31.5135V31.9635H8.96288V31.5135ZM8.66288 31.5135L8.67825 31.0638C7.51159 31.0239 6.7276 30.4893 6.22385 29.8255L5.86538 30.0975L5.50692 30.3695C6.15517 31.2237 7.18018 31.9131 8.64752 31.9632L8.66288 31.5135ZM5.86538 30.0975L6.22373 29.8253C5.72149 29.1641 5.51138 28.3636 5.51138 27.831H5.06138H4.61138C4.61138 28.5524 4.88128 29.5459 5.50704 30.3697L5.86538 30.0975ZM5.06138 27.831L5.48573 27.9808C5.49973 27.9411 5.50584 27.907 5.50855 27.89C5.51174 27.8702 5.51353 27.8524 5.51462 27.8392C5.51677 27.8131 5.51751 27.788 5.51786 27.7703C5.51822 27.7519 5.51828 27.7335 5.51834 27.7223C5.51843 27.7063 5.51855 27.7063 5.51832 27.711L5.06888 27.6885L4.61945 27.666C4.61886 27.6776 4.61866 27.6884 4.61855 27.6955C4.61844 27.7031 4.61839 27.7109 4.61835 27.7174C4.61827 27.7317 4.61824 27.7422 4.61803 27.7526C4.61794 27.7574 4.61783 27.7611 4.61772 27.7636C4.6176 27.7664 4.61754 27.7667 4.61767 27.7652C4.61775 27.7642 4.61828 27.7577 4.61991 27.7475C4.62075 27.7423 4.62218 27.7342 4.6245 27.7242C4.62671 27.7146 4.63058 27.6995 4.63704 27.6812L5.06138 27.831Z" fill="#888888"/>
</g>
<path id="Path" fill-rule="evenodd" clip-rule="evenodd" d="M23.7784 11.2575C23.3644 11.2575 23.0284 10.92 23.0284 10.506V2.2515C23.0284 1.8375 23.3644 1.5 23.7784 1.5C24.1924 1.5 24.5299 1.8375 24.5299 2.2515V10.506C24.5299 10.92 24.1924 11.2575 23.7784 11.2575Z" fill="#888888" stroke="#888888" stroke-width="0.4"/>
</g>
</g>
</svg>
