<svg width="33" height="33" viewBox="0 0 33 33" fill="none" xmlns="http://www.w3.org/2000/svg">
<g id="Colour=Nomni Green, Size=22">
<g id="Page 1">
<path id="Fill 1" fill-rule="evenodd" clip-rule="evenodd" d="M16.5 8.25679C18.5529 8.25679 20.25 9.89565 20.25 11.9716C20.25 14.0476 18.5529 15.7137 16.5 15.7137C14.447 15.7137 12.75 14.0749 12.75 11.9989C12.75 9.923 14.447 8.25679 16.5 8.25679M16.5248 18.4457C20.1094 18.4457 23.0616 15.5599 23.0616 11.9526C23.0616 8.34532 20.1094 5.42944 16.5248 5.42944C12.9401 5.42944 9.98792 8.31529 9.98792 11.9226C9.98792 15.5299 12.9401 18.4457 16.5248 18.4457" fill="#2AC864"/>
<path id="Fill 3" fill-rule="evenodd" clip-rule="evenodd" d="M7.50002 26.666C7.66935 23.9105 9.52178 22.2492 12.1556 21.4296C13.264 22.1178 14.5202 22.5317 15.8336 22.6371C15.8453 22.6381 15.857 22.6393 15.8687 22.6401C15.956 22.6468 16.0434 22.6518 16.1312 22.6557C16.151 22.6566 16.1707 22.6581 16.1904 22.6588C16.2943 22.6626 16.3984 22.6649 16.5028 22.6649C16.6072 22.6649 16.7113 22.6626 16.8152 22.6588C16.8349 22.6581 16.8546 22.6566 16.8743 22.6558C16.9621 22.6518 17.0497 22.6468 17.137 22.6401C17.1486 22.6393 17.1602 22.6381 17.1719 22.6371C18.4852 22.5317 19.7415 22.1178 20.8501 21.4296C23.4611 22.214 25.3035 23.8693 25.5 26.5948C23.0524 28.9234 19.8555 30.202 16.4618 30.202C13.1031 30.202 9.93766 28.9492 7.50002 26.666M6.78419 6.83889C9.37451 4.25391 12.8186 2.83035 16.4818 2.83035C20.1451 2.83035 23.5891 4.25391 26.1794 6.83889C28.7697 9.4238 30.1963 12.8606 30.1963 16.5162C30.1963 19.246 29.4005 21.8535 27.919 24.0756C26.9378 21.0017 24.4072 19.2941 21.1036 18.5279C20.7722 18.4678 20.4107 18.5279 20.1396 18.7383C19.0853 19.5199 17.8201 19.9107 16.5248 19.9107C15.2294 19.9107 13.9642 19.4899 12.9099 18.7383C12.6388 18.5279 12.2773 18.4377 11.946 18.5279C8.61143 19.3012 6.06414 21.0467 5.10305 24.162C3.58416 21.9212 2.76732 19.2815 2.76732 16.5162C2.76732 12.8606 4.19386 9.4238 6.78419 6.83889M16.4818 0.0688477C7.37916 0.0688477 2.28882e-05 7.43261 2.28882e-05 16.5162C2.28882e-05 25.5998 7.37916 32.9635 16.4818 32.9635C25.5844 32.9635 32.9636 25.5998 32.9636 16.5162C32.9636 7.43261 25.5844 0.0688477 16.4818 0.0688477" fill="#2AC864"/>
</g>
</g>
</svg>
