<svg width="250" height="211" viewBox="0 0 250 211" fill="none" xmlns="http://www.w3.org/2000/svg">
<path d="M104.768 19.2917C106.037 1.36452 116.899 -3.19658 133.11 2.0292C138.469 7.65032 139.387 10.9233 141.024 18.3172C144.155 20.2534 146.316 21.897 150.113 22.4432C159.794 23.8348 167.111 20.9511 172.649 30.6187C209.277 30.3861 211.645 29.3238 211.66 68.1953L215.387 69.5562C221.803 62.2374 238.367 70.3663 237.206 79.6769C235.286 95.0766 209.758 123 208.537 136.331L209.27 136.491C211.589 135.011 210.812 134.999 212.91 135.365C215.415 138.146 220.027 182.713 218.873 187.282C215.21 192.968 212.231 196.457 205.087 197.648C194.667 199.384 182.445 199.969 171.821 200.583C141.537 202.333 110.814 203.422 80.4871 203.209C73.6336 203.16 64.5661 201.044 57.6698 200.623C51.0241 195.879 48.8978 193.475 47.6551 185.291L47.4908 184.522C46.0441 177.552 45.4096 172.611 45.1771 165.412C43.9831 128.44 40.1258 91.2995 40.5661 54.3395C40.6283 49.1407 42.0038 45.7229 44.1368 41.0762C52.7528 34.4731 62.3476 35.8932 73.3508 35.2323C73.9103 33.8639 74.4923 32.5886 75.0916 31.2488C78.0931 24.5347 88.1911 24.4724 94.3606 22.6885C97.7678 21.7028 101.313 20.4897 104.768 19.2917Z" fill="#FEFDF3"/>
<path d="M104.768 19.2917C106.037 1.36452 116.899 -3.19658 133.11 2.0292C138.469 7.65032 139.387 10.9233 141.024 18.3172C144.155 20.2534 146.316 21.897 150.113 22.4432C159.794 23.8348 167.111 20.9511 172.649 30.6187C209.277 30.3861 211.645 29.3238 211.66 68.1953C209.799 69.055 208.948 69.68 206.975 69.5712L205.016 67.3161C204.701 71.4654 206.229 76.9379 206.025 80.5013C205.867 83.2635 198.705 91.6265 198.625 94.6783L199.094 95.1854C198.584 96.0774 197.387 98.3099 196.8 98.9656C194.123 98.2019 191.963 96.7871 190.932 94.2559C191.389 88.5193 193.067 57.2862 189.71 49.9794C189.117 48.6883 176.952 48.8016 173.343 49.0214C138.931 51.1137 104.334 51.9201 69.8581 52.6163C67.7266 52.659 61.0861 52.9809 59.3596 53.8076C56.4683 63.5097 63.8191 166.721 66.7478 183.394C66.9023 184.273 68.6641 185.207 69.8078 185.306C81.0218 186.282 95.2058 185.793 106.404 185.357C135.878 184.21 169.633 184.573 198.659 180.949C198.512 175.051 197.987 166.427 199.06 160.908C199.393 160.853 207.21 162.034 208.384 162.153L209.097 161.415C209.394 156.829 207.996 156.841 207.791 153.923C207.477 149.455 210.17 141.803 208.087 137.295L208.537 136.331L209.27 136.491C211.589 135.011 210.812 134.999 212.91 135.365C215.415 138.146 220.027 182.713 218.873 187.282C215.21 192.968 212.231 196.457 205.087 197.648C194.667 199.384 182.445 199.969 171.821 200.583C141.537 202.333 110.814 203.422 80.4871 203.209C73.6336 203.16 64.5661 201.044 57.6698 200.623C51.0241 195.879 48.8978 193.475 47.6551 185.291L47.4908 184.522C46.0441 177.552 45.4096 172.611 45.1771 165.412C43.9831 128.44 40.1258 91.2995 40.5661 54.3395C40.6283 49.1407 42.0038 45.7229 44.1368 41.0762C52.7528 34.4731 62.3476 35.8932 73.3508 35.2323C73.9103 33.8639 74.4923 32.5886 75.0916 31.2488C78.0931 24.5347 88.1911 24.4724 94.3606 22.6885C97.7678 21.7028 101.313 20.4897 104.768 19.2917Z" fill="#12191A"/>
<path d="M209.269 136.49C210.453 140.686 211.369 180.726 209.949 185.878C206.992 189.714 199.997 190.828 195.472 191.423C177.417 193.796 68.3622 200.594 57.6635 192.81C54.2652 190.337 53.036 182.072 52.6565 178.212C51.0695 162.087 51.2382 145.651 50.1777 129.463C48.5952 105.314 45.3462 79.0617 46.5965 54.9823C46.7787 51.4775 47.1215 48.0251 49.0167 44.9891C53.7837 41.338 68.6787 38.0987 73.2222 41.8969C73.6407 45.0109 73.9775 44.0282 72.5322 46.1864C66.9282 48.4685 57.2532 45.5225 54.5855 52.689C52.1645 59.1923 58.217 165.455 59.6585 179.534C59.9712 182.592 60.3627 185.568 61.6047 188.407C66.9552 192.619 129.52 189.33 140.295 188.93C153.457 188.441 166.614 187.813 179.763 187.048C193.488 186.336 209.136 190.058 204.333 169.775C203.372 165.717 202.668 163.412 199.059 160.907C199.392 160.853 207.21 162.033 208.383 162.152L209.097 161.415C209.394 156.828 207.996 156.841 207.791 153.922C207.477 149.454 210.17 141.802 208.086 137.294L208.536 136.33L209.269 136.49Z" fill="#D5D7BE"/>
<path d="M190.932 94.2551C193.248 93.3197 194.057 93.1419 195.942 91.58C199.17 83.2305 196.227 60.3446 196.484 51.0221C196.81 39.1932 163.403 47.7543 172.852 36.491C174.054 36.0649 174.534 35.8811 175.846 35.7881C206.846 33.6013 204.467 39.479 205.016 67.3153C204.701 71.4646 206.229 76.9371 206.025 80.5005C205.866 83.2627 198.705 91.6257 198.624 94.6775L199.093 95.1846C198.584 96.0766 197.386 98.3091 196.8 98.9648C194.123 98.2011 191.963 96.7863 190.932 94.2551Z" fill="#FADBB0"/>
<path d="M110.396 25.5248C110.033 19.5639 109.085 14.2458 112.823 8.98402C116.78 3.41316 123.805 2.43568 129.21 6.69972C135.087 11.3359 135.145 16.8324 135.854 23.6936L145.146 23.8624C145.373 28.6231 145.402 33.9028 145.52 38.7048C145.43 41.3222 145.902 41.6455 144.591 43.1676C133.776 44.5457 120.414 43.7918 109.056 44.6965C106.486 44.689 103.692 44.4789 101.108 44.3379C97.5387 31.4378 94.4442 25.7319 110.396 25.5248Z" fill="#FEFDF3"/>
<path d="M145.52 38.7051C145.43 41.3225 145.902 41.6458 144.592 43.1679C133.776 44.546 120.414 43.7921 109.056 44.6968C113.573 43.0111 110.707 41.2655 117.857 40.7749C127.037 40.1455 136.38 39.6338 145.52 38.7051Z" fill="#F3F5DF"/>
<path d="M119.079 10.8301C126.484 11.5015 130.789 17.3342 125.599 23.3964C122.845 23.782 121.168 24.3701 118.793 23.0911C115.066 19.4242 116.186 14.6448 119.079 10.8301Z" fill="#12191A"/>
<path d="M150.333 33.5231C150.441 32.3446 150.333 29.6469 151.44 29.2185C162.126 25.0888 167.474 29.2666 167.953 39.3978L167.848 41.7406C164.639 44.4323 155.516 43.4293 151.057 43.2988C150.975 39.4923 150.906 37.2778 150.333 33.5231Z" fill="#7CA27B"/>
<path d="M150.333 33.5231C150.441 32.3446 150.333 29.6469 151.44 29.2185C162.126 25.0888 167.474 29.2666 167.953 39.3978C167.294 39.274 165.861 38.4616 165.177 38.1142C162.468 31.7962 156.429 33.3731 150.333 33.5231Z" fill="#FADBB0"/>
<path d="M78.8768 35.8909C81.1928 29.3546 86.295 27.3943 92.8373 29.8009C94.0748 31.8467 93.7005 32.2285 93.807 34.8017L95.0835 44.5878C90.054 44.5638 84.4493 46.1609 80.2928 44.2307C78.12 41.272 78.5468 39.9622 78.8768 35.8909Z" fill="#B4D8B0"/>
<path d="M78.8765 35.8909C81.1925 29.3546 86.2947 27.3943 92.837 29.8009C94.0745 31.8467 93.7002 32.2285 93.8067 34.8017C88.811 33.9097 84.3177 34.3913 79.8462 36.8691L78.8765 35.8909Z" fill="#F3F5DF"/>
<path d="M215.387 69.5552C221.803 62.2364 238.367 70.3654 237.206 79.6759C235.286 95.0757 209.758 122.999 208.537 136.33L208.087 137.294C202.131 147.366 189.815 166.736 179.621 172.012C157.34 183.543 166.738 154.342 171.05 144.556C178.124 128.5 188.499 114.329 196.8 98.9647C197.387 98.309 198.584 96.0765 199.094 95.1845L198.625 94.6773C198.705 91.6256 205.867 83.2625 206.025 80.5004C206.229 76.937 204.701 71.4644 205.016 67.3152L206.975 69.5702C208.948 69.679 209.799 69.0541 211.66 68.1944L215.387 69.5552Z" fill="#12191A"/>
<path d="M205.016 67.3145L206.974 69.5695C208.948 69.6783 209.799 69.0534 211.659 68.1937L215.386 69.5545C212.969 73.8088 201.853 92.1343 199.093 95.1838L198.625 94.6766C198.705 91.6249 205.867 83.2618 206.025 80.4997C206.229 76.9363 204.701 71.4637 205.016 67.3145Z" fill="#FEFDF3"/>
<path d="M207.741 92.9805L213.638 97.0112C215.142 98.2693 217.232 99.9047 218.526 101.297C214.673 110.598 196.258 141.986 189.941 149.745C188.496 148.903 185.744 147.413 184.502 146.492L178.196 143.06C186.754 126.913 197.888 108.463 207.741 92.9805Z" fill="#84AB82"/>
<path d="M207.741 92.9805L213.638 97.0112C209.409 99.147 197.582 124.632 193.482 129.877C191.567 132.327 185.429 143.412 184.502 146.492L178.196 143.06C186.754 126.913 197.888 108.463 207.741 92.9805Z" fill="#F3F5DF"/>
<path d="M175.354 147.049C178.1 148.085 184.418 152.295 187.198 154.041C184.283 158.062 182.688 160.116 178.873 163.206C177.529 163.887 173.448 164.811 171.791 165.235C170.851 158.866 173.008 152.883 175.354 147.049Z" fill="#E1F2D2"/>
<path d="M221.542 70.7539C228.619 71.132 233.354 78.7696 227.239 84.4718C223.54 80.9549 220.819 80.6969 215.886 79.4426C217.989 75.3526 218.657 74.339 221.542 70.7539Z" fill="#B4D8B0"/>
<path d="M211.589 84.2109C216.665 84.3137 222.256 84.9589 224.38 90.2229C224.667 92.79 223.49 93.9693 222.041 96.2214C220.623 95.5102 211.57 89.784 210.349 88.8185C209.689 86.562 210.051 87.0879 211.589 84.2109Z" fill="#E1F2D2"/>
<path d="M97.5142 66.7951C103.798 66.405 109.233 65.4433 114.987 68.9047C120.96 72.498 119.66 81.1236 115.911 85.9826C110.755 87.4815 102.51 87.6105 97.0492 87.777C96.8025 83.2016 95.8087 70.5445 97.5142 66.7951Z" fill="#1D4330"/>
<path d="M101.18 70.2637C109.429 70.3049 117.784 71.4152 112.532 82.2599C109.916 82.9208 104.443 83.3904 101.541 83.719L101.18 70.2637Z" fill="#FEFDF3"/>
<path d="M72.606 66.7633C79.572 66.3769 90.4823 64.9508 93.378 73.5524C93.3158 80.4376 86.067 81.3461 80.7593 81.8224C77.3288 81.3401 77.8898 87.4203 75.8933 91.5786L74.064 91.2613C72.9705 82.133 72.5325 75.989 72.606 66.7633Z" fill="#1D4330"/>
<path d="M77.2417 70.4235C80.7479 70.4205 84.2422 70.0176 86.9062 72.2104C87.7679 74.7595 87.5549 73.8435 86.9624 76.7588C84.1079 77.2726 81.1642 78.2246 78.6659 77.1534C76.9147 74.4617 77.4652 74.1077 77.2417 70.4235Z" fill="#FEFDF3"/>
<path d="M160.938 106.686C165.737 106.568 169.489 106.384 174.099 107.81L173.848 108.52C167.057 111.079 136.144 110.842 126.483 111.209C122.284 111.462 115.457 112.218 111.605 110.831L111.392 109.628C113.965 107.261 118.672 107.679 122.209 107.56C135.11 107.124 148.031 106.926 160.938 106.686Z" fill="#12191A"/>
<path d="M102.477 129.301C104.831 129.674 104.221 129.228 105.629 130.686C104.589 136.72 92.5216 148.4 88.0066 153.169C85.9704 151.514 83.5096 149.168 81.5139 147.361C79.4296 145.277 76.9876 143.638 78.3736 140.587C82.7836 139.664 84.5386 142.401 87.5649 145.306C92.1729 139.871 97.0419 133.827 102.477 129.301Z" fill="#1D4330"/>
<path d="M100.852 99.9746C103.062 101.714 102.562 100.824 103.228 103.284C101.881 108.826 91.574 119.376 87.119 123.217C84.545 121.071 81.6598 117.927 79.2673 115.462C77.567 112.795 77.0368 112.863 76.9048 109.94L78.026 109.012C83.324 109.81 83.894 111.837 86.786 116.101C91.1795 110.623 95.8198 104.837 100.852 99.9746Z" fill="#1D4330"/>
<path d="M100.044 158.502C107.3 162.404 96.7716 175.228 88.3019 174.782C85.4436 173.752 84.3674 172.032 82.3589 169.7C80.6954 167.289 78.7259 165.546 80.8746 163.008C85.5689 163.329 86.2214 165.771 88.5359 169.542C92.7321 164.94 95.0113 162.273 100.044 158.502Z" fill="#1D4330"/>
<path d="M131.191 165.245C136.363 164.906 155.213 163.803 158.951 166.394C156.069 169.137 143.17 168.647 138.973 168.648C134.245 168.835 116.084 170.552 113.33 168.281L113.464 166.786C115.744 165.19 127.18 165.428 131.191 165.245Z" fill="#12191A"/>
<path d="M131.005 137.5C135.184 137.275 155.708 135.378 157.987 138.503C155.578 140.523 143.311 140.564 139.608 140.73C134.677 140.701 115.073 142.735 112.627 140.379L112.899 138.782C114.891 137.538 127.717 137.591 131.005 137.5Z" fill="#12191A"/>
<path d="M162.867 70.6685C166.994 70.5664 174.893 69.8568 177.773 72.3871L178.883 72.2026C173.021 74.5642 155.566 74.4651 148.424 74.6639C144.526 74.7577 135.236 75.5312 132.315 73.952L132.007 72.8822C135.458 70.7262 157.509 70.8073 162.867 70.6685Z" fill="#12191A"/>
<path d="M132.444 81.8388C137.712 81.541 171.064 80.2357 172.96 83.5733L171.647 84.5133C165.661 85.2604 135.362 87.3189 131.922 84.0976L132.444 81.8388Z" fill="#12191A"/>
<path d="M218.873 187.282C222.622 186.584 223.714 184.401 228.856 184.658C227.174 185.786 219.894 189.159 219.658 189.465C215.227 195.22 215.521 195.207 208.864 198.304L209.561 199.404C212.351 199.144 215.044 196.809 217.342 195.047C214.161 202.075 208.979 200.91 209.141 203.021L209.884 202.824C213.487 201.899 214.108 202.085 217.494 203.994C199.821 207.461 167.9 209.912 150.007 209.979C135.499 210.035 62.3646 212.694 54.0681 207.813L54.5549 207.324C56.5454 207.918 70.0964 206.673 72.8616 206.396C60.9876 202.306 44.5746 210.504 38.8746 190.906L42.2346 187.026C39.6636 187.393 40.6986 187.493 38.2251 186.276L41.9346 185.967C46.4046 191.931 43.6198 201.652 57.6696 200.623C64.5658 201.044 73.6333 203.16 80.4868 203.209C110.814 203.422 141.537 202.333 171.82 200.583C182.445 199.97 194.667 199.384 205.087 197.648C212.231 196.457 215.209 192.968 218.873 187.282Z" fill="#84AB82" fill-opacity="0.380392"/>
<path d="M30.021 8.93359C31.332 12.1961 33.5669 17.3979 34.5614 20.629C37.0657 28.7692 43.6222 26.9838 47.5424 30.9943L47.7922 32.5066C45.8707 34.4811 46.7129 34.1442 44.3024 34.7429C34.8809 40.5073 34.6252 41.0579 30.9539 52.3759C26.4022 50.3805 31.0777 38.3873 11.2417 31.8652C18.5669 29.4541 20.6902 28.6304 26.3077 23.4294C27.6802 18.4782 28.89 13.9636 30.021 8.93359Z" fill="#F3F5DF"/>
<path d="M26.3077 23.4297C26.283 24.3487 26.2402 25.2676 26.181 26.1859C26.8575 24.9908 27.3817 24.4642 28.386 23.5775L29.2627 23.8671C28.2719 26.4312 24.7379 31.6487 21.8834 31.9113C24.1882 32.6427 29.6872 40.1063 31.0447 42.4866C34.7347 37.0373 35.5762 35.4514 41.6384 32.8918L44.3024 34.7432C34.8809 40.5076 34.6252 41.0582 30.9539 52.3763C26.4022 50.3808 31.0777 38.3876 11.2417 31.8655C18.5669 29.4544 20.6902 28.6307 26.3077 23.4297Z" fill="#12191A"/>
<path d="M30.0211 8.93359C31.3321 12.1961 33.5671 17.3979 34.5616 20.629C37.0659 28.7692 43.6224 26.9838 47.5426 30.9943L47.7924 32.5066C45.8709 34.4811 46.7131 34.1442 44.3026 34.7429L41.6386 32.8915L42.0354 32.5756C40.2542 31.1795 38.7294 31.2043 37.1852 29.9582C34.5737 27.8525 32.9356 24.7242 30.3789 22.5194L29.2629 23.8667L28.3862 23.5772C27.3819 24.4639 26.8577 24.9905 26.1812 26.1856C26.2404 25.2673 26.2832 24.3484 26.3079 23.4294C27.6804 18.4782 28.8901 13.9636 30.0211 8.93359Z" fill="#12191A"/>
<path d="M228.857 184.656C234.776 186.073 247.349 187.442 246.101 195.358C242.48 200.46 234.352 201.541 228.455 202.538C224.816 203.127 221.161 203.613 217.494 203.993C214.108 202.084 213.488 201.898 209.885 202.823L209.141 203.019C208.979 200.909 214.161 202.073 217.342 195.046C215.045 196.808 212.351 199.142 209.561 199.403L208.864 198.303C215.522 195.205 215.228 195.219 219.659 189.464C219.894 189.158 227.174 185.785 228.857 184.656Z" fill="#7CA27B" fill-opacity="0.411765"/>
<path d="M36.2226 185.457L38.2251 186.275C40.6986 187.493 39.6636 187.393 42.2346 187.026L38.8746 190.906C44.5746 210.503 60.9876 202.306 72.8616 206.396C70.0964 206.673 56.5454 207.918 54.5549 207.323L54.0681 207.813C46.3551 207.246 21.1439 202.122 19.4009 193.909C21.7424 189.304 30.3771 188.007 36.2226 185.457Z" fill="#7CA27B" fill-opacity="0.435294"/>
<path d="M234.03 29.1914L235.62 29.9476C240.422 43.6324 243.039 37.8178 249.453 44.0405L248.956 45.0045C242.323 47.2243 238.669 49.6159 236.32 56.5108L236.023 57.3998L235.162 58.5348C230.987 55.3413 236.775 51 223.604 44.7382C223.436 42.2491 230.438 39.0406 231.934 35.9318C233.111 33.4854 233.434 31.7698 234.03 29.1914Z" fill="#12191A"/>
<path d="M235.424 38.7168C237.564 41.443 239.976 42.4737 240.775 44.7513C239.1 46.5127 237.621 47.7633 235.798 49.3417C234.1 48.9568 231.237 45.3154 229.752 43.7243C232.79 41.6921 233.103 41.497 235.424 38.7168Z" fill="#F3F5DF"/>
<path d="M5.84325 43.834C8.823 47.4244 11.7975 48.1168 13.7707 51.1775L13.2862 52.8579C10.5285 55.4138 9.5985 56.185 7.7265 59.4498L7.34399 60.1287L6.849 60.9074L5.87474 60.9652C5.13824 58.4671 1.73325 54.3493 0 51.4146C3.045 48.6276 4.2885 47.6749 5.84325 43.834Z" fill="#12191A"/>
<path d="M36.2227 185.457C40.1557 184.543 43.8404 183.532 46.9769 186.878L47.6549 185.291C48.8976 193.475 51.0239 195.879 57.6696 200.623C43.6199 201.652 46.4047 191.93 41.9347 185.967L38.2251 186.276L36.2227 185.457Z" fill="#759974" fill-opacity="0.211765"/>
<path d="M231.809 160.811L232.799 161.703C234.403 165.08 234.659 180.466 234.463 184.381C231.883 175.498 233.378 169.46 231.809 160.811Z" fill="#759974" fill-opacity="0.909804"/>
</svg>
