<svg width="276" height="246" viewBox="0 0 276 246" fill="none" xmlns="http://www.w3.org/2000/svg">
<path d="M56.0248 88.1277C49.1068 67.3529 42.6193 42.6216 51.8608 21.5234C56.3713 11.2264 66.9516 6.7261 77.0541 12.354C90.8983 20.0674 98.3384 37.062 104.244 50.9516C105.325 40.5894 107.455 27.1386 115.98 20.1671C121.877 15.3449 130.477 16.0516 137.602 16.8596C150.424 18.3127 214.78 30.5639 221.078 37.9015C222.347 39.3801 222.602 41.4468 222.374 43.3238C222.055 45.9479 220.989 49.2847 218.752 50.9044C214.705 53.8346 207.949 53.0829 203.329 52.422C200.296 61.8293 197.125 71.1916 193.819 80.5066C199.253 81.7939 204.673 83.1465 210.075 84.5636C213.671 88.0422 214.911 90.0534 217.739 94.2575C240.959 98.0474 227.998 106.936 231.03 113.816C232.71 115.173 233.879 115.079 236.117 115.388C237.646 117.205 237.949 117.75 237.709 120.475C237.613 121.474 237.496 122.471 237.359 123.466C241.444 124.706 246.895 125.817 248.537 130.094C253.1 141.983 244.894 154.288 235.858 160.607C234.094 164.537 219.328 202.421 219.16 204.919C242.101 207.927 246.744 219.683 223.85 229.12C177.115 248.377 124.252 247.462 74.8416 242.083C51.7566 239.128 25.8329 232.901 5.56711 221.041C-11.2621 211.198 22.0768 202.729 28.0543 201.858L29.2701 201.581C29.1133 198.04 17.9271 167.235 15.8976 161.877L7.25085 158.03C2.1606 149.109 -6.1059 133.531 7.1826 127.362C10.1976 125.962 13.3169 124.692 16.3934 123.43C11.6916 109.489 16.2568 106.218 15.5773 92.8441C12.4648 83.4533 1.78484 79.1495 5.43584 68.3011C7.83434 61.1759 27.3426 52.5383 31.3588 56.9036C43.4541 70.0513 33.6298 81.4909 56.0248 88.1277Z" fill="#122123"/>
<path d="M28.0544 201.857C33.8144 204.281 34.4924 214.468 40.9439 217.604C54.9156 224.385 130.357 241.377 144.457 240.027C159.718 238.571 175.559 231.4 189.696 225.616C196.963 222.638 208.375 218.737 213.7 212.833C215.871 210.425 217.096 207.319 219.16 204.918C242.101 207.926 246.744 219.682 223.85 229.119C177.115 248.376 124.252 247.461 74.8416 242.082C51.7566 239.127 25.8329 232.9 5.56715 221.04C-11.2621 211.197 22.0769 202.728 28.0544 201.857Z" fill="#F5F9EE"/>
<path d="M211.311 166.455L225.329 161.98C222.185 172.001 212.236 200.087 207.153 208.369C196.157 214.828 151.046 233.807 139.691 231.962C117.165 228.309 64.2177 218.091 43.2215 209.989C37.406 194.558 31.142 178.32 25.835 162.774C31.4592 164.01 37.3212 165.208 42.8855 166.622C46.3272 167.491 49.787 168.29 53.2625 169.019C59.8025 170.446 67.0392 171.862 73.4809 173.461L74.5572 173.801C82.7892 175.178 90.9755 176.817 99.1025 178.715C101.161 179.032 106.285 179.695 108.044 180.201C117.512 182.146 127.047 183.752 136.629 185.016C153.478 186.523 163.333 181.793 178.982 176.418L188.563 173.313L202.875 168.976C205.662 168.053 208.475 167.213 211.311 166.455Z" fill="#F5F0D1"/>
<path d="M99.1025 178.715C101.161 179.032 106.285 179.695 108.044 180.201C106.005 185.072 113.959 204.333 111.413 211.039C109.26 211.835 110.096 211.655 107.68 211.28C105.46 209.262 101.023 187.141 99.5308 181.922L99.1025 178.715Z" fill="#8E9986"/>
<path d="M178.982 176.419L188.563 173.314C187.115 178.813 176.928 203.576 172.022 205.061C170.156 201.963 174.671 188.295 176.162 184.449C176.689 182.258 178.156 178.647 178.982 176.419Z" fill="#8E9986"/>
<path d="M42.8853 166.623C46.327 167.493 49.7868 168.291 53.2623 169.021L52.399 170.003C53.29 178.175 63.1382 193.179 58.1785 198.843L56.6942 198.618C53.0807 195.077 46.8993 174.36 42.8853 166.623Z" fill="#8E9986"/>
<path d="M202.875 168.976C205.662 168.053 208.475 167.213 211.311 166.455C208.595 177.323 199.288 194.573 189.632 201.527C193.668 191.332 199.08 179.813 203.696 169.754L202.875 168.976Z" fill="#8E9986"/>
<path d="M73.4809 173.461L74.5572 173.801L74.6554 174.908C78.6049 176.619 78.5157 178.801 79.8169 182.828C81.2037 186.879 85.9061 199.539 85.4629 203.192C83.7889 204.963 84.7886 204.505 82.3736 204.625C81.8576 204.287 81.2306 203.875 80.4934 203.395C77.2924 196.253 73.0152 181.7 71.0562 174.751C72.0567 173.829 72.1691 173.908 73.4809 173.461Z" fill="#8E9986"/>
<path d="M74.5571 173.801C82.7891 175.178 90.9754 176.817 99.1024 178.714L99.5306 181.922C92.8264 183.792 82.9819 181.223 79.8169 182.828C78.5156 178.801 78.6049 176.619 74.6554 174.908L74.5571 173.801Z" fill="#D9D7BA"/>
<path d="M136.629 185.015C153.478 186.523 163.333 181.792 178.982 176.418C178.156 178.645 176.689 182.257 176.162 184.447C173.447 183.957 172.903 183.699 171.06 181.641C168.831 181.452 161.992 183.647 159.553 184.433C151.911 186.893 145.752 186.815 137.859 187.208C137.745 194.392 137.53 201.572 137.214 208.751C136.774 200.649 136.675 193.14 136.629 185.015Z" fill="#D9D7BA"/>
<path d="M130.878 22.4082C137.728 23.0481 155.178 27.2424 162.252 28.8163C173.217 31.2552 189.177 34.0076 199.477 37.4517C193.401 55.7839 187.863 75.9023 182.382 94.4933C170.628 98.146 168.551 106.117 172.534 116.944C155.362 110.934 153.339 110.072 139.022 121.673C133.322 127.618 128.877 134.095 124.741 141.167C121.904 138.388 118.695 136.016 115.204 134.12C104.457 128.158 96.1114 129.439 85.0752 132.594C87.7107 123.202 96.3027 108.838 100.475 94.8654C106.78 73.753 111.228 49.6857 119.005 29.592C120.57 25.5508 126.847 23.478 130.878 22.4082Z" fill="#F5F9EE"/>
<path d="M160.745 41.2043C169.092 40.974 177.597 41.6754 181.786 50.3903C183.597 54.1652 183.728 58.5305 182.147 62.4082C179.761 68.2814 175.68 70.763 170.211 73.0856C166.804 73.883 163.118 73.6452 159.781 72.6325C155.67 71.3752 152.276 68.4472 150.429 64.5635C148.473 60.4533 148.292 55.7203 149.927 51.4728C152.139 45.5839 155.395 43.6094 160.745 41.2043Z" fill="#558C6B"/>
<path d="M158.815 49.8105C160.566 50.8481 164.976 55.6987 166.65 57.4444C169.755 55.4234 172.31 53.0506 176.083 54.2884L176.61 55.719C176.005 58.4669 174.994 59.3093 173.205 61.4826C166.655 66.2673 159.033 67.4473 155.778 56.8645C154.968 54.2321 157.065 51.8315 158.815 49.8105Z" fill="#F5F9EE"/>
<path d="M116.543 73.9297C124.618 74.172 161.061 81.127 168.372 84.2267C169.59 86.5148 169.173 85.8471 168.319 89.1959C166.252 88.8943 159.85 86.9289 157.38 86.3175C150.551 84.6828 143.686 83.2057 136.789 81.8876C133.48 81.2327 118.39 78.8171 116.665 77.2192L116.543 73.9297Z" fill="#8E9986"/>
<path d="M113.986 91.1934C118.046 91.4912 148.232 97.6487 152.347 98.8107C153.71 100.6 153.208 100.462 153.11 103.388C147.207 102.432 116.741 97.5542 113.941 94.825L113.986 91.1934Z" fill="#8E9986"/>
<path d="M108.099 106.826C112.077 107.119 126.668 109.41 129.943 112.109C130.711 112.741 130.302 114.333 130.227 115.684C125.954 115.304 112.449 113.292 108.954 110.756C107.929 110.013 108.21 108.481 108.099 106.826Z" fill="#8E9986"/>
<path d="M105.406 121.867C110.916 122.324 122.039 122.524 125.766 126.55L125.345 127.517C118.045 129.705 115.4 127.692 108.488 126.533C107.365 125.157 106.362 123.395 105.406 121.867Z" fill="#98B6AF"/>
<path d="M125.257 45.6504C129.812 46.4816 138.172 47.2851 140.971 50.5446L140.53 53.0345C136.245 52.0247 126.829 51.7111 124.458 48.3503L125.257 45.6504Z" fill="#788A7D"/>
<path d="M108.488 126.534C105.326 126.638 99.8947 127.205 99.4102 123.035C101.869 121.344 102.052 121.894 105.406 121.868C106.362 123.396 107.365 125.157 108.488 126.534Z" fill="#D9D7BA"/>
<path d="M233.458 134.387C235.861 133.437 236.229 133.071 238.581 133.684C241.955 137.973 238.132 145.725 236.382 150.551C210.174 159.707 173.117 171.058 145.694 177.994C137.033 180.184 109.086 171.295 99.5044 170.477C72.0912 164.599 39.8614 159.135 12.9716 151.533L9.76013 144.242L7.3999 134.807C29.8122 141.833 130.272 164.198 148.331 161.968C155.658 161.062 162.714 158.202 169.751 156.078C191.334 149.565 212.436 142.585 233.458 134.387Z" fill="#F5F0D1"/>
<path d="M7.3999 134.806C29.8122 141.832 130.272 164.198 148.331 161.967C155.658 161.062 162.714 158.201 169.751 156.078C191.334 149.564 212.436 142.585 233.458 134.387C234.145 136.939 234.419 137.297 233.739 139.727C226.334 145.471 212.932 148.946 203.853 152.259C186.259 158.679 167.583 160.765 150.969 170.103C129.99 168.699 112.605 166.654 92.1461 161.417C79.1456 158.088 65.3749 156.233 52.2836 153.23C40.8889 151.187 19.8701 144.712 9.76013 144.242L7.3999 134.806Z" fill="#FDFDF4"/>
<path d="M73.3257 102.036C51.2487 78.0258 47.0412 -10.7374 82.88 25.1318C89.906 32.1183 98.7717 53.3425 100.974 63.0896C98.9292 70.2291 89.192 106.5 84.9777 110.595C79.1465 111.561 76.3827 106.333 73.3257 102.036Z" fill="#E4D5AA"/>
<path d="M73.3257 102.036C51.2487 78.0258 47.0412 -10.7374 82.88 25.1318C75.5345 28.1123 54.3447 16.0156 66.1497 51.9659L66.23 53.6043C65.7687 60.7063 72.8045 83.9237 74.3712 92.3655C74.8685 95.0459 78.311 95.9994 78.9425 100.3C77.2445 101.473 75.392 101.624 73.3257 102.036Z" fill="#F5F0D1"/>
<path d="M66.1494 51.9673C68.7819 48.8848 74.8809 43.8526 78.6797 42.4902L80.4984 42.7408C81.8927 48.2704 70.4619 53.3289 66.2297 53.6057L66.1494 51.9673Z" fill="#343C3A"/>
<path d="M91.9001 63.5312L93.3416 64.391C95.0793 69.3774 79.2168 77.1793 75.1421 78.8327L73.6938 78.3676C74.8886 74.4359 87.7443 66.4795 91.9001 63.5312Z" fill="#122123"/>
<path d="M18.2456 84.8548C21.4751 81.7093 28.8228 75.8781 33.8778 77.572C34.8356 77.8931 35.0456 79.8031 35.3659 80.8811C37.4576 87.7415 41.4634 86.4415 41.9606 90.551L40.4523 92.4384L43.2048 93.4639C54.6993 95.5742 61.5221 98.5494 66.5936 110.151C72.1061 118.332 77.6808 133.837 78.9251 143.548C69.0641 142.379 57.1249 139.793 47.2174 137.903C44.2144 137.698 36.1856 135.554 32.9238 134.725C25.2371 131.293 21.0303 115.898 21.3821 108.024C21.4713 106.027 22.7118 103.047 23.4798 101.165C23.8143 92.9568 22.3294 91.9186 18.2456 84.8548Z" fill="#87B795"/>
<path d="M18.2456 84.8548C21.4751 81.7093 28.8228 75.8781 33.8778 77.572C34.8356 77.8931 35.0456 79.8031 35.3659 80.8811C37.4576 87.7415 41.4634 86.4415 41.9606 90.551L40.4523 92.4384L43.2048 93.4639C54.6993 95.5742 61.5221 98.5494 66.5936 110.151L65.0336 110.573C64.3331 109.282 63.8958 108.423 63.3011 107.085L60.7849 106.639L60.0064 107.471L60.3146 110.38L57.3221 110.586C48.7293 108.23 34.4644 109.447 31.3024 119.69C29.8676 124.335 32.7341 130.242 32.9238 134.725C25.2371 131.293 21.0303 115.898 21.3821 108.024C21.4713 106.027 22.7118 103.047 23.4798 101.165C23.8143 92.9568 22.3294 91.9186 18.2456 84.8548Z" fill="#E2EFD9"/>
<path d="M18.2456 84.8548C21.4751 81.7093 28.8228 75.8781 33.8778 77.572C34.8356 77.8931 35.0456 79.8031 35.3659 80.8811C37.4576 87.7415 41.4634 86.4415 41.9606 90.551L40.4523 92.4384L43.2048 93.4639C31.9316 93.6635 27.8576 101.117 23.4798 101.165C23.8143 92.9568 22.3294 91.9186 18.2456 84.8548Z" fill="#87B795"/>
<path d="M35.3657 80.8809C37.4575 87.7413 41.4632 86.4412 41.9605 90.5507L40.4522 92.4382C37.1455 92.1899 35.455 92.1419 32.2427 91.2559L31.6015 89.9003C31.0075 85.511 31.303 85.5432 33.6152 82.3369L35.3657 80.8809Z" fill="#669F7A"/>
<path d="M33.6152 82.3379C35.446 85.2028 35.5682 87.2681 33.397 90.2306L31.6015 89.9013C31.0075 85.5119 31.303 85.5442 33.6152 82.3379Z" fill="#558C6B"/>
<path d="M57.322 110.586L60.3145 110.38L60.0063 107.471L60.7848 106.639L63.301 107.085C63.8958 108.423 64.333 109.282 65.0335 110.573L66.5935 110.151C72.106 118.332 77.6808 133.837 78.925 143.548C69.064 142.379 57.1248 139.793 47.2173 137.903C60.5418 127.413 65.9658 129.326 57.322 110.586Z" fill="#B6E0B6"/>
<path d="M155.749 117.863C159.097 118.849 170.471 121.783 172.381 123.646C177.462 132.958 174.035 140.367 168.228 148.48C154.171 154.904 140.569 157.563 125.178 152.892L125.547 152.351C126.74 151.302 132.514 139.962 134.523 136.914C139.318 129.189 147.362 121.57 155.749 117.863Z" fill="#E4D5AA"/>
<path d="M155.748 117.863C159.096 118.849 170.471 121.783 172.381 123.646L171.012 126.244C164.641 128.067 159.147 123.86 153.585 126.738C147.771 129.747 141.552 144.367 134.523 136.914C139.318 129.189 147.362 121.57 155.748 117.863Z" fill="#F5F0D1"/>
<path d="M150.583 134.717C153.935 134.85 155.414 135.763 155.629 139.049C154.228 142.342 151.677 144.074 148.928 146.394L147.751 148.012L146.692 147.919C144.574 142.429 147.43 138.859 150.583 134.717Z" fill="#CEC098"/>
<path d="M175.376 109.592C178.293 103.519 179.084 101.309 185.717 99.0085C186.485 98.7444 187.259 98.4969 188.037 98.2644C189.591 94.6507 191.055 89.1496 193.414 86.818C195.816 86.3784 194.687 86.2382 196.916 87.2749C198.989 91.1714 195.925 93.6207 198.001 96.4699L199.677 96.3199C201.371 93.6567 201.269 90.9553 203.594 89.3859C206.919 89.3297 205.871 88.9508 208.395 90.3199C210.675 94.848 209.146 98.3401 214.423 100.037C217.76 101.111 220.784 100.996 223.547 103.138C225.326 106.234 225.016 104.896 225.014 108.241C222.205 113.355 220.562 111.392 219.769 116.986C217.866 113.12 216.968 109.913 212.235 111.204C208.556 111.366 204.013 114.615 200.686 116.589C197.411 112.095 197.452 108.751 191.646 108.632C192.24 112.463 192.287 113.117 194.293 116.432C194.947 123.281 189.52 127.239 183.32 128.353L181.626 127.774L181.332 126.863L182.844 125.533C181.573 122.18 181.15 121.329 180.901 117.711L180.635 115.377C179.328 112.824 177.524 111.519 175.376 109.592Z" fill="#91C694"/>
<path d="M180.636 115.376C188.887 113.947 183.812 111.008 191.646 108.631C192.24 112.462 192.288 113.116 194.293 116.431C194.947 123.28 189.52 127.238 183.32 128.352L181.626 127.773L181.333 126.862L182.844 125.532C181.573 122.179 181.15 121.328 180.901 117.71L180.636 115.376Z" fill="#558C6B"/>
<path d="M180.636 115.376C188.887 113.947 183.812 111.008 191.646 108.631C192.24 112.462 192.288 113.116 194.293 116.431C188.027 117.361 185.516 115.268 180.901 117.71L180.636 115.376Z" fill="#669F7A"/>
<path d="M212.236 111.205C216.969 109.913 217.867 113.121 219.769 116.986L221.634 118.568C223.147 118.423 225.104 118.176 226.589 118.129C227.151 115.338 226.586 115.869 228.35 114.604C231.938 116.532 233.125 121.895 232.221 125.642C229.891 129.439 224.26 130.205 220.344 132.142C216.691 133.519 213.089 135.026 209.545 136.662L209.219 135.371L210.186 133.727L209.348 131.59C207.395 130.177 205.868 128.957 204.021 127.408C201.826 126.104 201.571 125.982 199.826 124.165C199.684 117.431 207.584 121.757 212.236 111.205Z" fill="#558C6B"/>
<path d="M212.236 111.205C216.969 109.913 217.867 113.121 219.769 116.986L221.634 118.568C221.171 121.574 221.346 120.584 219.082 123.477C216.185 121.819 213.637 119.712 210.706 119.733C206.68 122.869 209.296 123.88 204.021 127.408C201.826 126.104 201.571 125.982 199.826 124.165C199.684 117.431 207.584 121.757 212.236 111.205Z" fill="#87B795"/>
<path d="M209.348 131.589C210.327 129.4 210.612 128.092 212.633 126.871C216.555 126.784 218.014 129.157 220.343 132.142C216.691 133.518 213.089 135.025 209.544 136.661L209.219 135.37L210.186 133.727L209.348 131.589Z" fill="#336651"/>
<path d="M221.634 118.567C223.147 118.422 225.104 118.175 226.589 118.129C226.806 120.902 227.092 121.59 225.925 123.969C223.244 125.968 221.909 125.679 219.082 123.476C221.346 120.583 221.171 121.573 221.634 118.567Z" fill="#669F7A"/>
<path d="M125.178 152.892C119.84 152.501 88.8866 146.715 85.3586 143.954L85.2461 142.426C92.1813 130.132 114.406 136.844 121.048 145.746C122.81 148.106 123.95 149.905 125.547 152.352L125.178 152.892Z" fill="#E4D5AA"/>
<path d="M182.365 132.908C194.239 129.923 197.448 131.763 209.219 135.371L209.544 136.662C199.686 139.721 189.627 142.626 179.718 145.578C181.008 141.324 181.614 137.27 182.365 132.908Z" fill="#98B6AF"/>
<path d="M18.0828 76.8498C15.685 78.1994 14.9118 77.5377 12.9325 76.3059C7.52426 67.4883 20.6725 62.0719 28.1665 62.0449C30.04 64.3315 31.819 65.9789 32.35 68.8041C30.8418 71.8843 22.4665 73.8723 18.0828 76.8498Z" fill="#F5F9EE"/>
<path d="M28.1669 62.0449C30.0404 64.3315 31.8194 65.9789 32.3504 68.8041C30.8421 71.8843 22.4669 73.8723 18.0831 76.8498C17.6376 63.8671 23.8859 72.3877 28.1669 62.0449Z" fill="#98B6AF"/>
<path d="M208.101 39.8965C210.643 40.3233 211.856 40.5942 214.312 41.3684C216.277 43.3864 215.743 42.3398 216.015 45.6129C213.423 45.9032 211.122 46.4928 208.849 45.4546C207.493 43.1223 207.984 42.8867 208.101 39.8965Z" fill="#98B6AF"/>
<path d="M253.32 37.5547C258.471 38.7047 256.492 43.7939 261.293 48.4863C266.102 53.187 269.551 54.5306 275.446 57.4233C262.267 61.4833 260.824 61.3857 256.771 74.9205C255.447 75.4772 255.882 75.2791 254.294 75.2086C252.589 72.2251 252.863 70.1314 250.97 66.7983C247.941 61.4668 242.684 60.1479 239.67 56.7661C241.096 52.169 249.444 53.4811 253.32 37.5547Z" fill="#122123"/>
<path d="M254.696 46.8789C257.363 51.2375 261.435 53.2314 262.729 56.398C259.228 60.2254 258.079 61.1954 256.151 66.0026L255.788 66.9215C253.218 61.815 252.036 59.9921 247.319 56.7648C247.529 55.3552 252.368 50.3898 254.187 47.6508L254.696 46.8789Z" fill="#F5F9EE"/>
<path d="M217.935 19.3082C232.704 12.1492 229.949 11.9714 234.339 0.20554L235.319 0C239.292 5.47259 236.31 8.75911 243.005 14.1102C246.414 16.3337 249.867 17.2812 251.865 19.4492C250.692 21.2287 243.538 24.2534 240.785 25.7245C239.39 29.3621 237.482 36.1281 235.587 38.8595L234.426 38.7477C232.767 36.2609 232.515 33.3044 232.013 30.3457C227.72 24.5242 224.081 23.0366 217.935 19.3082Z" fill="#091114"/>
<path d="M243.005 14.1094C246.414 16.3329 249.868 17.2804 251.865 19.4484C250.693 21.2279 243.538 24.2526 240.785 25.7237C239.39 29.3613 237.482 36.1273 235.587 38.8587L234.426 38.7469C232.767 36.2601 232.516 33.3036 232.013 30.3449C232.419 29.1153 232.024 28.2624 231.749 26.8378L232.337 27.6659L233.55 27.6847L234.568 28.972C237.031 24.2414 241.813 19.8438 242.31 18.4395L239.694 16.4087L243.005 14.1094Z" fill="#122123"/>
<path d="M235.033 10.291L239.694 16.4087L242.31 18.4395C241.813 19.8438 237.031 24.2414 234.568 28.9721C232.892 23.9976 230.173 22.2467 226.15 19.1266C230.661 16.8003 232.237 14.345 235.033 10.291Z" fill="#F5F9EE"/>
</svg>
