<svg width="303" height="212" viewBox="0 0 303 212" fill="none" xmlns="http://www.w3.org/2000/svg">
<path d="M87.9803 41.7423C88.3906 32.2675 86.1158 13.2023 90.8003 6.26688C97.6471 2.00509 114.767 2.89031 123.167 2.76278C137.645 2.51972 152.124 2.39668 166.604 2.39443C189.821 2.34267 212.993 2.29466 236.209 2.55348C252.334 2.73352 250.823 15.6862 249.232 28.2653C251.336 28.7229 254.906 29.3155 256.815 30.08C284.696 41.2389 287.552 71.268 266.566 90.3549L266.962 93.0646C268.784 117.152 265.438 147.744 267.679 173.121C278.855 175.013 284.525 180.982 280.207 192.552C275.129 198.518 272.639 199.527 264.817 200.724L255.005 201.733C237.591 201.505 218.969 202.976 201.128 203.088C154.435 203.569 107.736 203.043 61.0651 201.51C58.5983 200.463 46.7641 200.144 43.5533 199.854C33.7441 198.966 28.2413 199.044 21.5438 191.46C17.3918 177.291 25.8646 174.611 37.1378 172.325C36.0421 141.228 37.6433 109.158 37.0981 77.9746C36.9713 70.7271 37.2308 49.2441 44.4871 45.6305C57.0323 39.3837 74.5418 44.3267 87.9803 41.7423Z" fill="#12191A"/>
<path d="M57.3239 60.7783C67.3027 60.5871 77.9654 60.7453 87.9884 60.7408C87.9254 63.8203 87.8137 67.0566 87.8294 70.1174C87.9059 85.3363 87.8092 90.8472 104.668 90.7467C144.866 90.5081 184.834 90.3918 225 89.7647C231.595 89.6619 242.092 96.0445 249.477 95.2028C257.275 94.5508 259.376 93.9079 266.566 90.3558L266.962 93.0655C266.971 95.6439 267.395 98.5186 265.952 100.391C263.572 101.212 263.091 101.053 260.503 100.937L252.883 101.17C251.461 101.348 249.17 101.559 247.84 101.88C247.709 107.545 247.415 113.876 247.693 119.483C248.35 134.764 247.716 154.052 247.825 169.806C231.136 169.097 210.507 169.52 193.548 169.417L56.4157 169.617C56.0924 166.657 55.9462 162.733 56.0257 159.709C56.8987 126.752 56.2649 93.7219 57.3239 60.7783Z" fill="#FAFCEF"/>
<path d="M192.494 102.104C202.787 101.953 240.217 100.432 247.839 101.88C247.709 107.544 247.415 113.875 247.692 119.483L246.645 117.986C242.985 117.355 231.414 117.643 227.068 117.658C214.736 117.773 202.402 117.733 190.071 117.54C188.573 117.314 189.288 117.598 188.097 116.223C187.223 110.995 187.038 108.855 188.505 103.785C190.333 101.758 189.317 102.271 192.494 102.104Z" fill="#E1F2D2"/>
<path d="M190.071 117.539C188.573 117.313 189.288 117.597 188.097 116.223C187.223 110.995 187.038 108.854 188.505 103.785C190.333 101.757 189.317 102.271 192.494 102.104C192.418 102.942 194.414 106.976 194.931 108.731L194.601 110.269C191.238 112.099 189.92 111.457 188.674 113.776C188.919 115.653 188.84 116.062 190.071 117.539Z" fill="#E1F2D2"/>
<path d="M150.343 102.876C173.809 102.642 185.669 118.542 167.572 136.131C178.973 142.421 189.122 146.833 189.695 161.393C186.266 162.455 165.03 161.902 159.845 161.865C148.049 161.814 135.793 162.35 123.993 161.91C121.897 161.832 121.237 160.853 120.125 159.487C119.122 150.607 139.35 140.178 146.277 136.508C143.645 133.855 140.33 131.455 138.945 127.936C134.053 115.506 138.929 107.467 150.343 102.876Z" fill="#E3BE6E"/>
<path d="M158.004 141.276C166.288 139.918 170.17 144.598 175.505 150.134C177.063 151.751 179.248 152.744 181.124 154.83C179.261 156.029 161.64 155.511 158.018 155.495C149.076 155.422 139.647 155.86 130.672 156.139C138.725 147.29 146.047 142.108 158.004 141.276Z" fill="#FEFDF3"/>
<path d="M145.654 120.888C146.302 114.317 151.521 114.237 157.309 111.994C160.377 112.703 163.153 116.925 165.015 119.401C167.973 139.685 141.691 134.948 145.654 120.888Z" fill="#FADBB0"/>
<path d="M145.654 120.888C146.302 114.317 151.522 114.237 157.31 111.994C160.377 112.703 163.154 116.925 165.015 119.401L161.399 120.5C160.477 119.44 159.701 118.749 158.687 117.792C154.991 116.907 149.678 116.128 147.093 119.663L145.654 120.888Z" fill="#EBCA81"/>
<path d="M67.2053 73.601C69.8663 73.3385 70.884 73.1314 73.5337 73.7428C75.5415 79.64 75.3022 153.123 74.6197 161.653C73.7407 161.614 72.8617 161.562 71.9842 161.499C69.3712 161.283 68.8313 161.279 67.4288 159.637C66.294 150.91 65.7645 81.1816 67.2053 73.601Z" fill="#E1F2D2"/>
<path d="M85.2414 117.475L96.8229 120.025C97.7026 122.701 102.829 137.258 102.526 138.648C101.108 145.156 100.118 152.305 99.9091 159.723L99.8746 160.213C98.5359 161.554 87.7801 161.899 84.9999 162.121C85.3404 149.228 83.4264 129.64 85.2414 117.475Z" fill="#E1F2D2"/>
<path d="M252.883 101.168L260.503 100.936C259.826 121.981 260.866 148.888 261.019 170.425L253.453 170.622C252.787 147.643 254.676 124.621 252.883 101.168Z" fill="#B4D8B0"/>
<path d="M98.0742 8.30411C117.772 6.8555 145.002 7.44439 164.787 7.28686C176.772 7.19233 236.416 5.96802 241.212 9.32434C243.963 13.7812 243.033 23.2845 242.943 28.8036C236.296 30.0804 231.949 30.9004 226.172 34.6685C219.327 39.1051 214.6 46.1531 213.093 54.171C210.783 66.273 215.73 75.1049 222.215 84.5475C183.429 82.8303 144.186 84.849 105.36 83.846C102.486 83.7718 98.7777 83.1281 96.173 81.8776C93.9627 76.4335 94.565 18.8209 96.1295 11.7437C108.635 22.0482 137.229 38.8801 151.754 47.8185C153.093 48.3076 153.194 48.2326 154.347 49.0105C157.594 53.2828 170.053 58.2468 175.331 55.5116C184.695 50.6579 232.921 22.3498 235.803 15.6544L235.214 14.7519C230.333 14.5329 210.351 28.9274 204.696 32.2154C193.69 38.6122 181.887 45.5477 171.311 52.6227C166.701 50.6354 155.246 43.5439 150.529 40.748C132.908 30.1562 115.422 19.34 98.0742 8.30411Z" fill="#FEFDF3"/>
<path d="M151.754 47.8184C153.094 48.3075 153.194 48.2325 154.347 49.0104C146.977 58.9901 126.286 72.5369 114.399 76.3951C127.498 67.1071 139.834 56.2512 151.754 47.8184Z" fill="#12191A"/>
<path d="M190.199 49.9512C194.888 52.309 201.635 57.9091 207.209 60.0126C208.431 60.4732 208.286 62.7155 208.379 63.9736C201.827 63.3074 190.403 57.2512 190.199 49.9512Z" fill="#121A1A"/>
<path d="M176.766 178.531C189.479 178.084 262.828 177.599 271.373 180.519C273.688 184.499 271.673 191.437 265.792 191.999C257.745 192.77 250.17 192.792 242.104 192.843L195.425 192.806C143.524 192.952 90.9785 194.089 39.0935 191.687C37.0303 191.525 29.8685 191.026 28.6333 189.49C19.5335 178.121 42.2698 178.18 48.2795 178.423C75.2885 179.51 103.67 177.204 130.502 178.822C132.433 180.179 131.767 179.315 132.62 181.466C131.218 184.235 129.08 183.823 126.413 184.001C124.545 185.77 125.124 185.06 124.786 188.3C142.039 188.01 158.63 189.188 176.353 188.172C176.584 185.16 176.639 181.595 176.766 178.531Z" fill="#B4D8B0"/>
<path d="M124.786 188.3C119.396 188.723 88.2898 189.047 84.791 186.63L85.4023 185.692C91.0903 183.361 119.374 183.436 126.413 184.001C124.545 185.77 125.124 185.06 124.786 188.3Z" fill="#84AB82"/>
<path d="M244.183 34.7246C282.093 35.6631 283.325 84.0289 249.458 86.7978C241.46 86.5278 235.482 86.3335 228.742 81.407C223.244 77.3868 219.587 71.3298 218.588 64.5909C217.516 57.708 219.287 50.6855 223.496 45.1357C228.99 38.0127 235.699 35.8469 244.183 34.7246Z" fill="#E1F2D2"/>
<path d="M258.385 48.4648C259.714 49.3253 259.11 48.7979 259.84 50.5684C259.171 54.3995 246.094 68.7138 242.269 73.9238C239.601 70.8045 236.837 67.2359 234.232 64.0176C231.865 61.6441 231.093 61.0026 230.948 57.8961L233.179 57.9367C237.589 59.8466 239.187 62.386 242.159 66.1009C246.574 60.239 253.201 53.6944 258.385 48.4648Z" fill="#172A25"/>
<path d="M56.5319 56.2052C52.9792 58.2059 51.7612 60.1812 51.6367 64.2974C50.7967 92.0977 51.5062 120.049 51.4079 147.869C51.3907 152.776 52.2554 165.877 50.8034 169.81C48.7462 170.874 47.8784 170.652 45.4687 170.636L44.4749 169.356C43.5487 165.54 43.9702 162.353 43.9807 158.489C44.0707 126.272 43.6822 94.0347 44.0662 61.8233C44.1719 52.9787 47.1239 50.0117 55.3124 47.7754C54.1522 49.9134 53.5064 51.0889 54.3952 53.4775L53.9737 54.7161L56.5319 56.2052Z" fill="#FADBB0"/>
<path d="M55.3124 47.7761C66.2834 47.6936 77.2551 47.6794 88.2261 47.7326C88.2816 50.317 88.6536 52.9449 87.5309 55.1474C77.7644 56.2262 65.6091 54.7198 56.5319 56.206L53.9736 54.7168L54.3951 53.4783C53.5064 51.0897 54.1521 49.9142 55.3124 47.7761Z" fill="#FEFDF3"/>
<path d="M88.2261 47.7324C88.2816 50.3168 88.6536 52.9447 87.5309 55.1472C77.7644 56.226 65.6091 54.7196 56.5319 56.2057L53.9736 54.7166L54.3951 53.4781C64.4519 52.205 76.9176 53.049 87.0471 51.9762C87.6134 51.9162 88.0326 48.7054 88.2261 47.7324Z" fill="#A2B297"/>
<path d="M163.924 183.682C157.23 183.671 150.527 184.365 143.851 184.116C140.387 183.988 138.043 183.694 137.608 180.017L138.499 179.024C144.203 178.052 159.405 178.47 165.827 178.434C165.313 180.05 164.739 182.276 163.924 183.682Z" fill="#FEFDF3"/>
<path d="M165.827 178.436C169.496 178.592 169.151 178.036 171.841 179.829L172.148 181.213C169.289 184.504 168.166 183.764 163.924 183.683C164.739 182.277 165.313 180.051 165.827 178.436Z" fill="#E1F2D2"/>
<path d="M21.5437 191.461C28.2412 199.045 33.744 198.967 43.5532 199.855C46.764 200.145 58.5982 200.464 61.065 201.511L60.2092 202.263C65.4667 204.021 89.8177 202.765 95.1795 204.365C91.5322 205.551 85.3717 203.933 84.4192 205.363C94.743 207.463 113.122 206.813 123.868 206.598C152.692 206.02 181.852 206.219 210.675 206.218C218.448 206.217 235.513 204.034 241.453 204.848C248.035 207.513 259.411 205.057 264.817 200.725C272.639 199.528 275.128 198.519 280.207 192.553L280.896 192.617C280.593 199.606 279.146 203.428 271.221 201.372L270.598 202.414C271.804 205.043 272.305 204.311 273.083 205.872C241.038 214.136 199.663 210.756 166.293 211.495C133.618 212.219 99.8535 211.278 67.2255 209.364C50.8942 208.407 36.1537 207.852 20.0857 204.245L20.2357 203.463L19.5997 202.932C19.6207 198.681 17.0242 195.772 19.431 191.602L21.5437 191.461Z" fill="#84AB82" fill-opacity="0.360784"/>
<path d="M61.0652 201.51C107.736 203.042 154.435 203.568 201.128 203.087C218.969 202.976 237.591 201.505 255.005 201.733C250.986 202.814 245.333 204.765 241.453 204.847C235.514 204.033 218.448 206.216 210.675 206.216C181.853 206.218 152.692 206.018 123.868 206.597C113.123 206.812 94.7432 207.462 84.4195 205.361C85.372 203.931 91.5325 205.55 95.1797 204.363C89.818 202.764 65.467 204.019 60.2095 202.261L61.0652 201.51Z" fill="#84AB82" fill-opacity="0.101961"/>
<path d="M280.896 192.617C285.546 189.964 299.818 194.191 302.862 197.432C301.201 203.753 279.074 204.398 273.083 205.872C272.305 204.311 271.804 205.043 270.598 202.414L271.221 201.372C279.146 203.428 280.593 199.606 280.896 192.617Z" fill="#7CA27B" fill-opacity="0.423529"/>
<path d="M61.8488 0C68.0813 8.53258 60.7561 8.45531 74.2636 14.2452L74.4541 15.1965C67.4251 18.7126 64.5638 17.4455 63.1186 26.4477L62.9663 27.4192L62.4676 27.8956C60.5633 26.8558 58.3298 21.2849 57.1178 18.8536C54.2948 17.4388 52.8406 17.3637 51.4238 15.0037C52.3666 12.9317 55.1761 11.9062 57.3826 10.7381C59.2336 7.40731 60.5191 3.59263 61.8488 0Z" fill="#12191A"/>
<path d="M61.8189 8.82031C63.5101 10.797 64.7514 11.9823 66.3481 14.1391C65.5801 16.6065 64.3036 16.8248 61.8031 18.6567C60.1381 16.3236 58.7716 16.4182 57.7554 14.4189C59.4781 12.4167 60.3954 10.9913 61.8189 8.82031Z" fill="#FADBB0"/>
<path d="M36.1605 17.7656C38.7907 22.443 41.4922 23.3357 45.8835 26.3777C44.6107 28.7228 39.4695 32.1196 37.0185 36.2839L36.5363 36.8068L35.478 36.611L34.8412 35.1819C32.532 30.1084 33.0967 30.9613 28.3545 27.5285L28.4542 26.4497C33.291 23.8879 33.7335 22.536 36.1605 17.7656Z" fill="#12191A"/>
<path d="M11.772 203.015C7.79475 202.521 0.993 202.406 0 197.898C2.50875 193.521 10.6365 193.025 15.2355 192.387C13.53 194.848 11.9602 200.108 11.772 203.015Z" fill="#7CA27B" fill-opacity="0.423529"/>
<path d="M15.2355 192.388L19.431 191.602C17.0242 195.772 19.6207 198.681 19.5997 202.932L20.2357 203.463L20.0857 204.244L11.772 203.016C11.9602 200.109 13.53 194.849 15.2355 192.388Z" fill="#7CA27B" fill-opacity="0.407843"/>
<path d="M255.004 201.734L264.817 200.725C259.411 205.056 248.035 207.512 241.453 204.848C245.332 204.766 250.986 202.815 255.004 201.734Z" fill="#7CA27B" fill-opacity="0.2"/>
</svg>
