<svg width="228" height="182" viewBox="0 0 228 182" fill="none" xmlns="http://www.w3.org/2000/svg">
<path d="M71.685 132.069C55.2135 139.458 22.704 192.804 1.29005 165.782C-9.24445 152.489 48.1853 120.223 48.6945 114.844C40.2675 101.754 37.4903 89.7359 40.92 74.3797C42.2783 68.3032 44.6573 62.1816 48.2453 57.0579C54.2753 48.4383 64.0425 44.1247 70.4858 36.0978C77.6925 27.1106 79.6178 11.4318 89.4901 4.82265C98.8726 -1.45864 201.335 9.90138 216.96 14.0049C219.701 14.7251 223.601 15.6328 225.128 18.2134C228.732 24.2899 226.309 40.2313 224.335 46.6753C223.764 48.5358 222.8 50.2463 221.048 51.2215C218.389 52.6994 213.733 52.7593 210.694 53.1419C211.223 56.6228 210.695 59.0009 210.409 62.5267C207.494 98.513 196.351 134.724 176.51 165.002C175.176 167.042 173.138 168.835 171.108 170.05C164.322 173.569 98.5193 164.124 87.5888 162.196C84.0285 161.273 79.89 160.591 76.2315 159.908C70.5803 157.927 58.3793 156.817 57.4073 150.343C58.3373 147.732 58.4453 147.267 60.4088 145.347C65.8005 139.413 66.789 140.553 71.685 132.069Z" fill="#12191A"/>
<path d="M71.6849 132.069C89.9347 137.493 107.441 139.083 124.225 129.916C189.231 94.4099 148.864 13.9527 81.1409 33.7276C79.6222 34.1702 74.1967 35.8431 73.242 34.9729C75.7455 32.4598 77.3759 30.8319 80.8529 30.0292C87.2932 23.1425 89.3355 7.92877 99.741 8.16882C135.67 9.01653 174.678 12.6099 210.117 18.2138C203.929 31.9947 204.388 46.6007 202.618 61.3193C199.899 83.9223 194.376 109.391 184.657 130.081C181.745 136.285 177.939 141.904 174.537 147.823C172.49 151.386 169.738 159.758 165.953 161.461C158.365 164.867 74.7322 153.877 65.1082 148.993C63.336 148.093 62.0377 146.465 60.4087 145.347C65.8004 139.413 66.7889 140.554 71.6849 132.069Z" fill="#FEFDF3"/>
<path d="M161.953 26.1956C160.126 33.7724 158.296 42.6846 157.76 50.4415L158.658 51.7993C160.527 52.1519 162.002 52.3995 163.824 52.9396L164.308 54.1249C161.795 58.5585 154.037 54.4625 153.909 50.449C153.753 45.5203 156.216 27.4784 159.224 24.6652C164.088 20.1266 191.193 24.8828 197.073 26.2481C196.773 34.2001 195.91 44.8151 194.47 52.632C191.55 47.3657 195.149 33.5924 192.985 29.0988C185.218 27.2458 170.091 26.008 161.953 26.1956Z" fill="#153625"/>
<path d="M192.985 29.0977C195.149 33.5913 191.551 47.3646 194.47 52.6309C194.652 56.7044 193.507 64.2363 191.152 67.9647C187.294 70.8379 164.251 68.1147 160.921 65.1965C163.419 63.6061 184.005 65.3916 188.469 65.6617C190.215 53.9963 191.537 40.898 192.985 29.0977Z" fill="#123122"/>
<path d="M172.454 35.8207C177.557 36.0608 181.119 34.2603 184.246 38.3188C182.352 41.357 174.482 37.2685 173.449 42.0547C175.035 45.213 177.441 45.5205 181.203 47.306C184.27 51.6195 180.298 54.9278 177.126 58.0711C170.578 57.8235 173.155 60.4042 169.772 59.8941L168.395 55.1229C170.772 53.1949 173.135 55.9556 176.599 53.33C177.636 50.7493 177.621 51.792 177.006 49.2639C174.844 47.7336 171.242 47.7336 168.419 47.441C169.268 43.5776 170.16 38.9865 172.454 35.8207Z" fill="#1D4330"/>
<path d="M151.43 118.656C155.902 118.07 179.23 117.583 182.542 119.151L182.532 120.974C177.098 121.529 156.145 122.174 151.868 120.073L151.43 118.656Z" fill="#12191A"/>
<path d="M136.359 131.431C141.348 130.658 164.266 130.253 168.895 131.491L169.725 133.088C165.333 133.584 140.646 133.914 136.764 132.848L136.359 131.431Z" fill="#12191A"/>
<path d="M164.109 84.0641C167.801 83.5314 184.367 83.9066 187.383 85.7295L187.609 87.1174C182.371 87.755 169.776 87.1249 164.899 85.707L164.109 84.0641Z" fill="#12191A"/>
<path d="M47.6116 99.3146C45.1291 91.3251 44.7503 84.5285 46.7048 76.329C49.9103 63.1933 58.2833 51.9104 69.9248 45.0388C84.0721 36.6067 100.999 34.1762 116.947 38.2797C129.634 41.6105 137.713 48.1371 144.281 59.2323C157.378 86.3139 146.956 112.128 119.938 124.746C106.072 131.197 90.2235 131.918 75.8288 126.756C64.4063 122.585 50.9498 111.385 47.6116 99.3146Z" fill="#FEFDF3"/>
<path d="M111.638 122.33C81.0996 132.045 43.8613 109.217 53.7336 75.0911C57.2856 63.2457 65.4478 53.3357 76.3836 47.5743C88.8898 40.9202 103.538 39.5624 117.055 43.7934C128.028 47.2893 134.89 53.2007 140.137 63.3582C149.989 89.5171 136.78 112.308 111.638 122.33Z" fill="#12191A"/>
<path d="M96.7092 45.677C114.816 44.7993 132.577 51.2884 137.655 70.3505C140.197 79.8103 138.841 89.9002 133.89 98.3548C126.423 111.055 115.788 116.314 102.231 119.885C92.2144 120.658 81.7527 118.917 73.1044 113.583C65.6404 108.895 60.3822 101.393 58.5192 92.7734C56.4904 83.6587 58.2469 74.1014 63.3874 66.2995C71.0532 54.4991 83.3022 48.4527 96.7092 45.677Z" fill="#FEFDF3"/>
<path d="M104.179 60.1777C111.128 60.7854 108.906 62.1207 112.514 66.5918C112.774 66.9144 116.622 67.297 119.105 69.6375C119.382 71.6105 119.455 70.8303 118.079 72.8858C113.324 72.9758 103.864 71.1004 97.1153 70.8904L95.6738 79.1723C113.272 80.7402 117.003 79.3224 114.897 97.972C108.238 97.7094 104.702 95.8489 103.269 102.728C101.018 102.773 100.567 102.773 98.3685 102.368C92.8988 95.4138 89.772 98.1595 86.769 94.5136L87.0713 92.8707C90.8161 90.1625 102.083 93.936 108.362 93.2008L109.266 92.0005C109.604 89.9525 110.103 88.4221 109.407 86.5317C106.002 85.1738 93.48 84.4762 89.4165 84.3711C89.9288 79.2099 91.2158 72.1882 92.0355 66.9369C95.8028 66.7719 99.6593 67.6721 102.88 66.0742C104.516 63.6586 104.024 63.3735 104.179 60.1777Z" fill="#2B5E3F"/>
<path d="M69.8069 73.0742C71.0106 74.5521 70.5876 76.8402 70.2254 78.9407C69.2226 84.7471 74.9061 93.0816 73.1766 97.7478L70.9229 97.0501C64.9844 91.9114 66.3734 79.3983 69.8069 73.0742Z" fill="#1D4330"/>
<path d="M76.9894 55.3398L79.1457 56.18L79.2702 57.973L78.5832 57.6504C78.9124 61.1012 79.9422 62.7291 80.204 66.45C77.5422 65.2647 74.8272 63.5243 73.6265 60.8762C74.1815 57.8755 74.8519 57.868 76.9894 55.3398Z" fill="#E1F2D2"/>
<path d="M144.28 59.2324C157.378 86.314 146.956 112.128 119.938 124.746C106.072 131.197 90.2233 131.918 75.8286 126.756C64.4061 122.585 50.9496 111.385 47.6113 99.3147C50.5378 100.455 52.0078 103.381 53.7381 105.856C62.4853 118.384 73.9903 125.106 89.3833 126.179C96.1296 126.651 106.702 126.876 112.726 123.366L112.808 122.87L111.638 122.33C136.78 112.308 149.989 89.5173 140.137 63.3584L144.28 59.2324Z" fill="#B4D8B0"/>
<path d="M7.23588 163.913C7.06488 162.893 6.99364 161.91 7.26364 160.928C9.07189 154.296 32.0939 134.896 37.1684 132.008C39.3734 131.813 40.7046 133.096 42.6696 134.371L46.8284 136.824L50.1569 138.917L50.3676 139.937C42.9074 147.034 27.5691 161.573 18.4139 165.571C15.8189 164.956 10.8134 164.641 7.23588 163.913Z" fill="#F3F5DF"/>
<path d="M46.8286 136.824L50.1571 138.917L50.3678 139.937C42.9075 147.034 27.5693 161.573 18.4141 165.571C21.8326 155.189 36.9496 140.38 46.8286 136.824Z" fill="#7CA27B"/>
<path d="M42.6696 134.371L46.8283 136.824C36.9493 140.38 21.8324 155.189 18.4139 165.571C15.8189 164.956 10.8133 164.641 7.23584 163.913C18.8563 155.076 31.1219 142.938 42.6696 134.371Z" fill="#84AB82"/>
<path d="M40.9058 128.715C45.2108 124.881 48.1515 122.293 51.9968 117.957L58.884 123.673C60.5498 124.791 62.598 126.051 64.0613 127.372C60.5183 130.508 56.448 135.159 51.9743 135.099L50.3408 133.906C47.2883 131.775 44.2328 130.365 40.9058 128.715Z" fill="#FEFDF3"/>
<path d="M58.8841 123.674C60.5498 124.792 62.5981 126.052 64.0613 127.372C60.5183 130.508 56.4481 135.159 51.9743 135.099L50.3408 133.906C52.8961 128.528 54.4321 127.515 58.8841 123.674Z" fill="#B4D8B0"/>
<path d="M216.634 21.1016C217.633 21.4091 218.062 21.6942 219.015 22.1743C220.435 25.6701 219.067 43.0744 217.725 46.5028L216.259 46.9004L212.658 46.1876C207.871 41.334 212.791 26.1128 216.634 21.1016Z" fill="#B4D8B0"/>
<path d="M51.8366 163.727C53.2684 164.417 53.5706 164.912 55.2311 164.882C62.8939 164.484 71.8916 164.199 79.5229 164.559C86.4499 164.889 98.4896 171.979 105.091 172.586C118.899 173.869 130.85 168.348 144.396 174.379C147.596 175.804 161.169 170.958 166.774 174.949C167.988 176.817 168.217 176.952 168.111 179.068C139.737 184.687 92.6554 180.831 63.6611 177.35C56.8301 176.532 42.8996 169.781 39.3634 170.096L38.4844 169.143C40.4936 167.057 48.7931 164.259 51.8366 163.727Z" fill="#84AB82" fill-opacity="0.411765"/>
<path d="M12.3792 28.4225C25.6017 20.9957 22.6782 13.2087 27.1077 10.373C29.1162 11.8209 28.8957 12.8262 29.789 15.5868C36.023 34.544 44.354 27.4697 47.9795 34.1989C45.5652 37.6122 40.1975 37.6648 35.5482 42.0308C30.1077 47.1471 29.3562 55.7292 26.9682 57.9572C23.4927 56.2693 24.2765 48.0472 20.5632 43.096C16.4217 37.5672 7.50798 36.3594 5.94873 33.8838C7.27023 30.2154 9.42571 30.7331 12.3792 28.4225Z" fill="#12191A"/>
<path d="M12.3794 28.4225C25.6019 20.9957 22.6784 13.2087 27.1079 10.373C29.1164 11.8209 28.8959 12.8262 29.7892 15.5868L26.7209 18.1975C29.9242 26.9521 30.6802 29.8103 38.7899 34.8215C32.3324 38.2648 30.8002 39.0976 27.2302 45.3541C25.9162 43.1561 24.8347 41.5431 23.1787 39.5252C21.3907 37.3421 14.9197 34.0263 15.3869 31.8433L16.3417 30.9881C15.5167 29.9753 13.5854 29.0827 12.3794 28.4225Z" fill="#F3F5DF"/>
<path d="M12.3794 28.4225C25.6019 20.9957 22.6784 13.2087 27.1079 10.373C29.1164 11.8209 28.8959 12.8262 29.7892 15.5868L26.7209 18.1975C24.2654 23.7563 22.1909 28.2124 16.3417 30.9881C15.5167 29.9753 13.5854 29.0827 12.3794 28.4225Z" fill="#12191A"/>
<path d="M181.047 163.951C187.843 160.411 184.915 155.887 189.413 152.571C192.235 151.603 194.167 152.241 197.145 152.751C194.59 152.984 193.129 152.654 191.379 153.997C195.885 156.127 202.315 156 207.336 156.097L208.441 155.279L207.925 153.059L213.31 153.937L212.155 155.414L212.469 156.862C214.744 158.07 217.027 159.27 219.318 160.448C220.246 169.608 221.626 164.297 223.885 167.852C210.007 175.729 200.154 173.044 185.329 175.234C179.695 176.067 180.463 178.52 171.976 178.49C173.623 171.866 181.328 179.998 181.047 163.951Z" fill="#84AB82" fill-opacity="0.415686"/>
<path d="M215.868 85.4812C218.985 84.521 220.288 83.7484 222.815 84.9712C224.349 88.167 222.774 93.0656 223.016 96.6815C223.073 97.5442 224.774 98.1069 224.615 100.718L222.928 100.53L222.26 99.4647L221.867 100.132L222.527 100.065C219.122 102.953 220.661 118.729 222.293 122.33C220.967 126.224 219.839 130.057 217.698 133.583L215.175 132.728C211.427 134.731 212.956 137.334 211.231 137.341C208.538 137.356 207.065 138.092 205.081 139.674C204.191 141.963 204.257 140.957 205.379 143.71L206.657 144.453C203.018 145.638 202.046 145.668 199.546 143.013C197.98 137.874 199.994 133.853 201.778 128.902L202.58 129.127C209.149 126.201 215.254 101.16 213.195 93.5307L212.183 93.1031C212.948 89.0071 213.302 88.6845 215.868 85.4812Z" fill="#7CA27B" fill-opacity="0.380392"/>
<path d="M51.8369 163.725C56.2259 160.77 56.3639 160.65 61.2577 161.94C62.8814 162.27 87.2257 162.33 87.5887 162.195C98.5192 164.123 164.322 173.568 171.108 170.049C177.483 171.55 178.793 169.284 181.047 163.95C181.328 179.997 173.623 171.865 171.976 178.489C170.77 178.722 169.288 179.104 168.112 179.067C168.217 176.951 167.989 176.816 166.774 174.948C161.17 170.957 147.596 175.803 144.397 174.378C130.85 168.347 118.9 173.868 105.091 172.585C98.4899 171.977 86.4502 164.888 79.5232 164.558C71.8919 164.198 62.8942 164.483 55.2314 164.881C53.5709 164.911 53.2687 164.416 51.8369 163.725Z" fill="#84AB82" fill-opacity="0.25098"/>
<path d="M51.5577 0C56.7537 3.20928 50.1672 6.8927 60.1047 10.4861L60.6177 11.6714C58.5387 15.7674 55.2004 15.8349 51.7084 21.3863L51.2734 22.0914L51.0237 22.5715C49.7674 19.9009 48.2614 16.435 45.8314 14.8746C44.5152 14.0344 44.3344 13.7869 43.7539 12.399C44.3067 9.12074 49.1562 6.5176 51.2127 0.951236L51.5577 0Z" fill="#12191A"/>
<path d="M215.868 85.4813C218.301 81.9704 220.452 78.9397 224.427 82.1129C228.872 91.2877 225.063 112.623 222.292 122.33C220.661 118.729 219.122 102.953 222.526 100.065L221.866 100.132L222.259 99.4647L222.927 100.53L224.615 100.718C224.773 98.1069 223.073 97.5442 223.015 96.6815C222.774 93.0657 224.349 88.167 222.815 84.9712C220.287 83.7484 218.985 84.521 215.868 85.4813Z" fill="#7CA27B" fill-opacity="0.45098"/>
<path d="M213.31 153.936C218.2 155.256 223.838 156.089 226.842 160.08C227.627 164.243 226.52 164.828 223.886 167.851C221.627 164.296 220.247 169.607 219.318 160.447C217.027 159.269 214.744 158.069 212.469 156.861L212.155 155.413L213.31 153.936Z" fill="#84AB82" fill-opacity="0.545098"/>
<path d="M212.182 93.1035L213.195 93.5311C215.253 101.16 209.148 126.202 202.579 129.127L201.777 128.902C209.542 112.263 209.019 110.005 212.182 93.1035Z" fill="#7CA27B" fill-opacity="0.509804"/>
<path d="M206.657 144.454L205.379 143.711C204.257 140.958 204.191 141.963 205.081 139.675C207.065 138.092 208.538 137.357 211.231 137.342C212.956 137.335 211.427 134.732 215.175 132.729L217.698 133.584C214.655 139.045 212.764 141.971 206.657 144.454Z" fill="#7CA27B" fill-opacity="0.447059"/>
<path d="M197.145 152.751C201.309 152.233 203.731 152.623 207.925 153.059L208.441 155.279L207.336 156.097C202.315 155.999 195.885 156.127 191.379 153.996C193.129 152.653 194.59 152.984 197.145 152.751Z" fill="#84AB82" fill-opacity="0.466667"/>
<path d="M76.2316 159.907C79.8901 160.59 84.0286 161.273 87.5888 162.196C87.2258 162.331 62.8816 162.271 61.2578 161.941C66.5161 160.883 70.8233 159.802 76.2316 159.907Z" fill="#84AB82" fill-opacity="0.0705882"/>
</svg>
