<svg width="300" height="185" viewBox="0 0 300 185" fill="none" xmlns="http://www.w3.org/2000/svg">
<path d="M133.162 38.0308C134.962 30.904 137.354 17.4232 142.019 12.472C147.644 9.72637 214.379 14.2875 219.494 18.361C222.022 24.8051 216.247 40.5514 214.042 47.9032C221.572 48.2033 227.159 48.0532 234.344 50.4838C235.094 53.417 237.292 68.9233 237.869 69.636C245.414 71.2939 255.374 72.2916 259.717 78.9908C261.644 87.6029 244.529 154.204 239.437 164.324C237.119 165.734 234.847 167.22 232.387 168.338C229.657 169.98 226.904 171.586 224.137 173.154C219.952 174.714 216.284 176.117 212.189 177.925C200.917 180.626 190.514 178.833 178.784 178.675C164.632 177.062 143.332 174.894 129.337 174.729C123.322 174.091 118.454 173.927 112.417 173.769C106.535 173.049 103.485 173.836 101.477 167.902L100.641 167.812L96.8552 167.385C91.9974 166.942 84.5281 166.927 79.4671 166.777C75.0706 167.49 75.7366 167.805 72.2589 166.095C70.2714 165.734 66.9316 165.637 64.8069 165.502C61.6396 164.729 59.2367 163.927 56.1189 164.902C52.7559 165.322 51.6039 164.737 49.0029 162.846L48.4644 162.119C44.6312 159.028 42.5702 159.245 37.5992 158.51C33.3287 145.442 19.2804 94.7446 24.3931 84.3546C29.9964 78.9008 79.3652 66.8829 89.9724 64.5948C94.4312 27.6033 97.6884 37.6407 133.162 38.0308Z" fill="#12191A"/>
<path d="M48.4644 162.118C44.3176 149.995 27.3121 98.6978 31.0088 88.2477C36.9301 83.5216 83.6476 89.9881 93.4644 89.778C101.768 88.8328 107.32 96.7772 113.999 97.6324C130.687 99.7629 168.622 97.7375 182.797 103.334C186.479 104.789 196.049 164.946 196.799 171.038C167.579 173.649 131.279 167.009 101.477 167.902L100.641 167.812L96.8551 167.385C91.9974 166.942 84.5281 166.927 79.4671 166.777C75.0706 167.49 75.7366 167.805 72.2588 166.094C70.2713 165.734 66.9316 165.637 64.8069 165.502C61.6396 164.729 59.2366 163.926 56.1189 164.901C52.7559 165.321 51.6038 164.736 49.0028 162.846L48.4644 162.118Z" fill="#EAF8D8"/>
<path d="M72.2588 166.095C74.319 162.119 77.3453 158.173 82.2458 161.294C82.6546 164.309 81.8041 164.962 79.4671 166.777C75.0706 167.49 75.7365 167.805 72.2588 166.095Z" fill="#12191A"/>
<path d="M125.204 121.068C130.139 122.921 147.629 132.839 151.199 136.807L151.057 138.435C145.439 144.527 134.909 134.377 129.652 130.588C129.734 138.615 129.629 146.8 129.622 154.842C127.574 156.905 125.339 156.98 123.007 155.674C120.584 151.286 121.529 138.75 121.657 133.086C119.317 135.142 116.962 137.197 114.599 139.23C112.012 141.436 110.557 142.839 107.22 142.569C105.029 140.491 104.75 140.926 104.32 138.563C107.925 134.429 120.427 124.947 125.204 121.068Z" fill="#1D4330"/>
<path d="M90.7244 155.276C93.2361 155.036 96.5872 154.451 98.6692 155.673C98.6797 158.036 98.6129 157.339 96.5849 159.687C92.9969 160.332 92.9219 160.895 89.8754 159.889C89.3946 157.384 89.6016 158.074 90.7244 155.276Z" fill="#12191A"/>
<path d="M144.719 15.877C154.837 16.147 208.259 18.2925 213.232 21.5933C214.297 26.9571 198.584 76.1467 196.094 85.584C194.099 90.8052 193.109 93.4909 189.367 97.722C177.344 94.1136 175.379 96.1765 166.357 94.3611C153.082 94.0385 139.807 93.4759 126.547 92.6882C130.184 71.0679 137.902 36.2069 144.719 15.877Z" fill="#FEFDF3"/>
<path d="M172.574 86.9493C179.984 86.9718 188.602 86.1391 196.094 85.584C194.099 90.8053 193.109 93.491 189.367 97.722C177.344 94.1136 175.379 96.1765 166.357 94.3611C170.947 93.7684 175.484 95.3214 178.597 91.4129C176.557 88.8773 165.239 89.9576 161.017 89.1774C164.302 89.1699 169.837 89.4099 172.739 88.4496L172.574 86.9493Z" fill="#E1F2D2"/>
<path d="M161.017 89.1785C154.252 88.9534 141.412 88.0156 135.547 85.27L135.472 84.5799C140.024 84.0322 167.002 86.4628 172.574 86.9504L172.739 88.4507C169.837 89.411 164.302 89.171 161.017 89.1785Z" fill="#A2B297"/>
<path d="M137.474 72.8604C142.799 72.7104 181.357 74.5033 184.889 75.2385L185.122 76.6713C179.377 77.174 141.419 76.3112 137.872 74.4733L137.474 72.8604Z" fill="#12191A"/>
<path d="M141.981 57.1517C151.056 55.8089 177.816 58.8621 188.331 59.2222C189.006 59.7173 189.584 60.1375 190.064 60.4901C189.359 60.7526 187.611 61.1727 186.891 61.1502C172.559 60.7076 158.031 60.25 143.781 58.6671C143.781 58.6671 142.139 57.2867 141.981 57.1517Z" fill="#12191A"/>
<path d="M188.032 29.0959C190.964 28.9159 198.547 28.4508 200.564 30.7238C194.714 33.1619 190.544 30.1612 187.949 35.8551C190.544 35.9451 192.555 35.645 194.46 37.1979L193.739 38.1582C189.502 38.8708 186.539 38.8183 185.167 34.4372C185.639 31.8191 186.344 31.2114 188.032 29.0959Z" fill="#1D4330"/>
<path d="M146.339 40.6259C146.692 40.5884 148.154 40.4534 148.462 40.4909C154.694 41.3086 173.564 39.5157 177.764 43.7017C172.424 44.6544 149.909 44.3843 146.339 40.6259Z" fill="#12191A"/>
<path d="M150.944 27.8496C156.082 27.9546 171.922 27.8871 175.642 29.8076L175.897 31.3905C172.042 31.5105 152.377 31.2704 150.239 29.35L150.944 27.8496Z" fill="#12191A"/>
<path d="M189.734 43.3873C192.607 43.2898 198.749 42.1344 199.672 45.3152C197.317 47.1007 194.714 46.8831 191.632 47.1007C191.302 49.7263 191.272 51.4743 189.584 53.2522C186.719 51.1142 188.062 46.0054 189.734 43.3873Z" fill="#1D4330"/>
<path d="M199.297 95.2008C199.799 93.3178 200.069 92.8828 200.984 91.1424C205.807 88.9293 239.864 87.909 246.404 88.2766C249.202 88.3066 249.869 87.8565 251.969 89.2143C251.677 100.857 237.127 146.041 233.324 159.424C232.222 163.31 210.284 170.669 204.667 171.899C201.749 160.257 200.032 148.816 197.947 137.084C194.812 119.417 192.434 112.237 199.297 95.2008Z" fill="#C6E4BC"/>
<path d="M199.297 95.2008C199.799 93.3178 200.069 92.8828 200.984 91.1424C205.807 88.9293 239.864 87.909 246.404 88.2766C243.007 94.158 217.162 96.2661 208.732 98.7417C205.649 97.684 202.199 96.6261 199.297 95.2008Z" fill="#FEFDF3"/>
<path d="M218.902 110.895L219.689 109.17C220.859 116.859 224.924 124.354 219.074 131.916C218.114 133.153 217.117 133.971 215.609 134.166L215.114 132.501C215.249 127.594 219.629 121.233 218.594 117.024L215.309 115.201C214.057 113.153 214.312 114.256 214.717 111.736C216.359 109.958 214.529 111.901 218.902 110.895Z" fill="#B4D8B0"/>
<path d="M215.114 132.5C215.249 127.594 219.629 121.232 218.594 117.024L215.309 115.201C214.057 113.153 214.312 114.255 214.717 111.735C216.359 109.957 214.529 111.9 218.902 110.895C218.969 114.39 219.817 117.691 220.529 120.467C220.687 121.097 215.707 131.014 215.114 132.5Z" fill="#E1F2D2"/>
<path d="M96.4569 84.6622L94.9171 84.4746C90.8184 80.9488 96.4817 47.4981 100.068 42.7119C104.318 40.5889 126.277 42.5919 131.774 43.3121C128.444 55.8701 125.587 71.2339 122.782 84.167C122.182 88.218 122.767 88.4806 120.592 91.3538C118.109 92.3665 116.587 92.164 114.074 91.0012C105.087 86.8527 106.297 85.96 96.4569 84.6622Z" fill="#FCFCF0"/>
<path d="M96.4565 84.6615C108.121 82.9511 112.117 79.8753 122.782 84.1664C122.182 88.2174 122.767 88.4799 120.592 91.3531C118.109 92.3658 116.587 92.1633 114.074 91.0005C105.087 86.852 106.297 85.9593 96.4565 84.6615Z" fill="#E1F2D2"/>
<path d="M103.008 70.416C108.192 71.0912 113.714 70.536 118.792 71.3087C120.532 71.5788 120.532 72.3739 121.237 73.8143C117.427 73.9268 106.228 73.8743 103.334 72.5165L103.008 70.416Z" fill="#12191A"/>
<path d="M103.272 58.5844C107.49 57.6917 119.834 57.9167 123.472 60.0547C119.212 61.5251 106.897 61.7351 103.272 58.5844Z" fill="#12191A"/>
<path d="M106.409 49.53C110.714 49.4249 115.267 49.3124 118.979 51.7355C115.522 51.713 110.182 52.1932 107.126 51.2029L106.409 49.53Z" fill="#12191A"/>
<path d="M212.219 53.8073C224.722 53.4922 231.674 52.4119 229.814 67.9782C229.297 72.3368 229.214 78.4882 228.967 83.0268L220.304 83.6571C214.454 83.9496 209.099 84.0021 203.257 84.0096C205.079 75.4725 209.557 62.6444 212.219 53.8073Z" fill="#B4D8B0"/>
<path d="M83.4838 72.0069C86.2888 71.6843 85.7046 71.3392 87.9366 72.3444C89.1298 75.2251 88.1518 80.4014 87.8923 83.9422C76.4878 83.9648 62.6698 83.2896 51.236 82.4419L42.5195 81.9093C56.3758 78.0683 69.2615 74.5575 83.4838 72.0069Z" fill="#FEFDF3"/>
<path d="M235.919 75.4336C240.494 75.8312 250.544 76.6639 252.089 81.6076L251.084 82.8004C246.037 82.3803 239.609 83.7681 236.189 82.2003C234.689 79.6271 235.432 79.012 235.919 75.4336Z" fill="#B4D8B0"/>
<path d="M284.272 24.1C288.464 23.8149 297.509 22.2469 299.362 26.553C298.372 33.7472 280.027 69.7186 273.839 71.9766C268.979 70.8813 267.119 67.2429 264.217 63.2294C264.772 63.6345 257.849 54.6774 257.984 54.9174C254.684 49.0585 239.549 38.2409 240.862 31.3917C246.397 26.7781 276.052 24.7301 284.272 24.1Z" fill="#12191A"/>
<path d="M280.379 29.6351C284.969 28.9224 287.482 28.8549 292.162 28.7949C285.937 42.4858 280.612 52.3656 271.904 64.7361C268.357 58.3596 265.949 55.644 261.194 50.1751L257.347 45.7716L253.837 42.0281L246.367 34.0611C256.709 31.5255 269.624 30.6104 280.379 29.6351Z" fill="#B4D8B0"/>
<path d="M246.367 34.0608C256.709 31.5252 269.624 30.61 280.379 29.6348C283.064 29.8598 283.874 29.4847 285.824 30.9175C284.332 32.9956 283.597 33.2657 281.377 34.6985C272.647 36.769 277.574 36.754 273.907 40.6925C268.822 42.4404 262.222 45.5987 257.347 45.7712L253.837 42.0277L246.367 34.0608Z" fill="#F3F5DF"/>
<path d="M260.189 36.2075C265.057 35.6374 277.372 33.6194 281.377 34.6996C272.647 36.7701 277.574 36.7551 273.907 40.6936C268.822 42.4415 262.222 45.5998 257.347 45.7723L253.837 42.0288C255.104 41.2261 258.944 37.4078 260.189 36.2075Z" fill="#E1F2D2"/>
<path d="M273.907 40.6934L274.934 43.7616C272.924 47.385 265.694 47.7676 261.194 50.1757L257.347 45.7721C262.222 45.5996 268.822 42.4413 273.907 40.6934Z" fill="#5C785A"/>
<path d="M62.3301 181.915C58.5576 180.242 54.4446 178.134 50.3519 178.359C49.1429 178.426 49.6401 178.471 48.5376 177.653C49.7848 176.776 52.1046 177.113 53.7411 177.226C61.8081 177.774 64.7368 175.47 73.5808 175.936C83.4081 176.453 91.8936 177.879 101.511 178.621C111.209 179.371 122.969 177.398 132.749 177.886C149.212 178.711 163.582 179.536 180.119 179.394L178.784 178.674C190.514 178.831 200.917 180.624 212.189 177.924L212.152 178.899L208.717 180.632C210.179 180.812 209.722 180.932 211.049 180.564C217.934 180.797 239.309 178.366 242.812 180.017C242.909 181.029 243.074 180.669 242.677 181.202C233.549 182.402 215.902 183.452 206.609 183.565C203.797 181.674 200.617 181.674 197.392 182.425C198.682 183.415 200.857 183.37 202.597 183.527C159.869 186.873 113.527 183.437 70.5486 181.847C67.5501 181.742 65.3736 181.239 62.3301 181.915Z" fill="#84AB82" fill-opacity="0.466667"/>
<path d="M49.0027 162.846C51.6037 164.736 52.7558 165.321 56.1188 164.901C56.337 168.24 56.3153 168.907 57.9533 172.005L59.2957 172.801C62.2605 171.443 63.7005 168.517 64.8068 165.501C66.9315 165.636 70.2712 165.734 72.2587 166.094C75.7365 167.804 75.0705 167.489 79.467 166.777C84.528 166.927 91.9973 166.942 96.855 167.384C96.099 168.862 96.555 168.502 95.3243 169.32L93.4147 168.69C90.6022 169.665 90.0398 169.927 87.09 169.882C89.5245 171.975 92.9333 170.768 95.3243 169.32C95.1195 170.122 95.2485 170.325 95.328 171.21L96.5955 171.398C99.9443 169.74 98.9768 170.73 100.641 167.812L101.477 167.902C103.485 173.836 106.535 173.048 112.417 173.768L107.327 174.654C105.182 175.021 105.047 175.059 103.214 176.221C105.666 176.994 122.902 175.636 127.814 175.869L129.337 174.729C143.332 174.894 164.632 177.062 178.784 178.675L180.119 179.395C163.582 179.537 149.212 178.712 132.749 177.887C122.969 177.399 111.209 179.372 101.511 178.622C91.8938 177.879 83.4082 176.454 73.581 175.936C64.737 175.471 61.8083 177.774 53.7413 177.227C52.1048 177.114 49.785 176.777 48.5378 177.654C49.6403 178.472 49.143 178.427 50.352 178.36C54.4448 178.134 58.5578 180.242 62.3303 181.915C59.2065 183.888 48.3158 181.188 44.2815 180.355C42.7725 178.269 44.3408 178.615 44.1578 174.789C42.648 174.556 41.5418 174.466 40.041 174.361L40.362 173.536L42.06 173.138C47.4593 170.79 47.6453 170.91 48.2678 164.916L49.0027 162.846ZM83.376 173.236L84.8198 173.671L84.8633 172.771L84.1605 172.306L84.3038 172.793C79.3493 172.801 73.8053 173.198 69.216 171.548L67.4303 173.168C72.2805 176.056 78.6255 173.836 83.376 173.236ZM84.801 170.685L85.1767 170.145L84.7268 169.905C83.337 169.155 82.908 169.072 82.143 167.677L81.1673 169.845L81.765 170.708L84.801 170.685Z" fill="#5C785A" fill-opacity="0.113725"/>
<path d="M232.387 168.338C237.404 168.585 243.472 164.144 249.292 163.897C254.744 163.664 259.604 165.367 265.102 166.29C261.374 170.663 266.197 174.054 257.324 175.997C255.524 176.387 255.202 176.56 254.002 177.805L254.249 179.5C250.949 180.626 246.127 181.526 242.677 181.203C243.074 180.671 242.909 181.031 242.812 180.018C239.309 178.368 217.934 180.798 211.049 180.566C219.389 177.242 219.404 182.013 224.137 173.154C226.904 171.586 229.657 169.981 232.387 168.338Z" fill="#7CA379" fill-opacity="0.4"/>
<path d="M105.089 0C108.153 1.72842 108.789 4.98422 110.144 8.47257C113.647 11.2783 116.107 11.7884 119.797 14.8791C118.657 16.1919 117.224 16.2745 115.769 17.2272C110.594 20.633 109.027 24.1213 106.984 29.5677L106.128 30.5054C104.526 29.9953 103.786 26.867 103.149 25.4266C99.4356 17.0621 85.8493 17.1522 100.366 9.84538C101.944 9.05018 104.164 2.50111 105.089 0Z" fill="#12191A"/>
<path d="M105.508 10.1836C106.774 10.9263 110.527 14.3846 111.839 15.5474C109.792 17.4679 108.272 19.5234 106.549 21.7139C104.666 19.5909 101.685 17.2728 99.4277 15.3899C101.665 13.7995 103.496 12.0365 105.508 10.1836Z" fill="#F3F5DF"/>
<path d="M61.1644 23.9492C64.3279 25.202 64.5042 29.103 65.4702 32.3813C70.0557 36.5748 73.1292 37.4976 79.0227 39.4856C67.5605 43.4765 65.9982 43.7316 62.5647 55.7795C60.8682 54.1816 59.5377 49.6281 58.6467 47.175C54.2989 43.2665 50.4934 41.6986 45.2734 39.388C50.7702 38.4878 52.4674 37.13 57.1842 34.2268C58.8634 31.181 60.0342 27.2875 61.1644 23.9492Z" fill="#12191A"/>
<path d="M62.1673 32.6973C64.5928 36.1931 65.015 36.8758 68.3638 39.4339C65.8183 41.4894 63.6335 43.77 61.3243 46.088C59.4298 44.04 57.821 42.3371 55.7915 40.4092L55.8763 39.1263C58.7533 36.9208 59.3788 36.3131 61.619 33.4174L62.1673 32.6973Z" fill="#F3F5DF"/>
<path d="M274.477 90.1152C275.107 91.143 275.474 96.9944 275.504 98.7423C275.707 110.43 271.589 125.554 264.022 134.616C263.144 135.666 260.294 137.819 260.069 139.065C259.859 140.235 259.889 139.867 259.102 140.97L257.527 142.013C263.587 125.006 265.717 112.651 269.714 95.1939C270.412 92.1407 271.762 91.6006 274.477 90.1152Z" fill="#7CA27B" fill-opacity="0.423529"/>
<path d="M265.102 166.289C267.772 167.467 269.062 167.692 270.472 170.183C271.102 176.897 259.117 178.667 254.25 179.5L254.002 177.804C255.202 176.559 255.524 176.387 257.324 175.996C266.197 174.054 261.374 170.663 265.102 166.289Z" fill="#7CA27B" fill-opacity="0.545098"/>
<path d="M42.06 173.138C38.1765 170.49 39.771 165.906 43.2308 163.446C46.2488 163.333 45.114 163.228 48.2678 164.916C47.6453 170.91 47.4593 170.79 42.06 173.138Z" fill="#12191A"/>
<path d="M56.1187 164.901C59.2364 163.926 61.6394 164.728 64.8066 165.501C63.7004 168.517 62.2604 171.442 59.2956 172.8L57.9531 172.005C56.3151 168.907 56.3369 168.239 56.1187 164.901Z" fill="#12191A"/>
<path d="M212.189 177.923C216.284 176.116 219.952 174.713 224.137 173.152C219.404 182.012 219.389 177.241 211.049 180.564C209.722 180.932 210.179 180.812 208.717 180.632L212.152 178.899L212.189 177.923Z" fill="#7CA27B" fill-opacity="0.290196"/>
<path d="M25.6411 164.369C27.9818 165.127 28.2526 165.172 30.2611 166.522C30.8611 168.908 30.5161 168.413 29.2951 171.263C26.7818 171.121 26.0153 171.316 24.0683 169.928C23.7841 167.445 24.5153 166.897 25.6411 164.369Z" fill="#12191A"/>
<path d="M1.29608 148.6C3.73358 149.117 4.26982 149.02 5.81032 150.775C5.90482 153.596 5.88308 152.703 4.17308 155.531C1.32833 155.659 2.09704 156.049 0.229536 154.661C-0.400464 152.2 0.369079 151.023 1.29608 148.6Z" fill="#12191A"/>
<path d="M3.89253 135.42C5.53428 136.538 5.50428 136.71 6.53928 138.338C6.01578 141.406 5.83655 140.821 3.5423 143.499C1.84055 142.442 1.89151 142.532 0.989258 140.769C1.03201 138.458 2.38428 137.31 3.89253 135.42Z" fill="#12191A"/>
<path d="M202.597 183.528C200.857 183.37 198.682 183.415 197.392 182.425C200.617 181.675 203.797 181.675 206.609 183.565L202.597 183.528Z" fill="#7CA27B" fill-opacity="0.745098"/>
</svg>
