<?xml version="1.0" encoding="UTF-8"?>
<svg width="60px" height="60px" viewBox="0 0 60 60" version="1.1" xmlns="http://www.w3.org/2000/svg" xmlns:xlink="http://www.w3.org/1999/xlink">
    <!-- Generator: sketchtool 52.2 (67145) - http://www.bohemiancoding.com/sketch -->
    <title>2AEB4A8A-5DFD-40E7-A4A1-10D890D0F513</title>
    <desc>Created with sketchtool.</desc>
    <g id="16---Inventory" stroke="none" stroke-width="1" fill="none" fill-rule="evenodd">
        <g id="WB_1601A-Inventory" transform="translate(-270.000000, -224.000000)">
            <g id="Key-stats" transform="translate(220.000000, 200.000000)">
                <g id="Icon" transform="translate(50.000000, 24.000000)">
                    <circle id="Oval" fill="#1A8040" cx="30" cy="30" r="30"></circle>
                    <g id="Group-4" transform="translate(14.000000, 18.000000)" fill="#FFFFFF">
                        <path d="M1.93584153,19.7665025 C2.87333633,20.1078359 5.13184653,20.7470369 7.94433092,20.1078359 C13.6119131,18.7442071 18.2567737,18.1471933 26.3533197,18.7863943 L26.3533197,6.93986916 C25.5436651,6.55634856 23.3277683,5.83192077 19.3647221,6.72680216 C17.106638,7.2385891 9.69148032,8.38872476 1.80800133,7.7073365 C1.80800133,9.88019376 1.89322813,15.6756161 1.93584153,19.7665025 M5.47275372,22.2385059 C2.61765593,22.2385059 0.742666334,21.2579715 0.614826134,21.2153581 L0.146078735,20.9601039 L0.146078735,20.4057035 C-0.109601665,6.47112176 -0.0243748648,6.3863211 0.359145734,6.04498777 L0.657439534,5.7471201 L1.08357353,5.7897335 C8.20001132,6.51373516 15.8704233,5.66146717 19.024241,4.9374655 C23.498648,3.91431777 26.1402527,4.76658577 27.2908145,5.3635995 C27.8874021,5.66146717 28.2283093,6.25805476 28.2283093,6.89725576 L28.2283093,19.1703411 C28.2283093,19.5964751 28.0578557,19.9795695 27.759988,20.2356761 C27.4612681,20.5339699 27.0351341,20.6618101 26.6516135,20.6187705 C18.5124541,19.9795695 13.9528203,20.5761571 8.41307832,21.8971725 C7.34774332,22.1102395 6.36763512,22.2385059 5.47275372,22.2385059" id="Fill-1" stroke="#FFFFFF" stroke-width="0.75"></path>
                        <path d="M30.9982655,16.1443635 C30.4869047,16.1443635 30.0607707,15.7182295 30.0607707,15.2068687 L30.0607707,2.97724911 C30.0607707,2.84898277 29.9755439,2.76418211 29.8903171,2.72114257 C28.3988481,2.29500857 24.4358019,1.31532651 20.3023021,2.29500857 C20.0466217,2.33804811 19.7909413,2.42284877 19.4926475,2.46546217 C16.6801631,3.10466317 12.8449571,4.0425841 5.81374615,3.31773017 C5.30238535,3.27511677 4.91886475,2.80679551 5.00409155,2.29500857 C5.08931835,1.78364777 5.51545235,1.40012717 6.02681315,1.48578011 C12.7597303,2.16759451 16.2540291,1.35751377 19.1091269,0.67612551 C19.4074207,0.590472576 19.6631011,0.547859176 19.9187815,0.505245776 C24.4784153,-0.517475822 28.8249821,0.505245776 30.4442913,0.973993175 C31.3391727,1.22967357 31.9357603,2.03932817 31.9357603,2.97724911 L31.9357603,15.2068687 C31.9357603,15.7182295 31.5096263,16.1443635 30.9982655,16.1443635" id="Fill-4" stroke="#FFFFFF" stroke-width="0.75"></path>
                        <path d="M14.9516571,15.5480316 L14.7812035,15.5480316 C13.3323479,15.5480316 12.1391727,14.3548564 12.1391727,12.9060008 C12.1391727,11.4571452 13.3323479,10.26397 14.7812035,10.26397 L14.9516571,10.26397 C16.4005127,10.26397 17.5936879,11.4571452 17.5936879,12.9060008 C17.5936879,14.3548564 16.4005127,15.5480316 14.9516571,15.5480316" id="Fill-7"></path>
                    </g>
                </g>
            </g>
        </g>
    </g>
</svg>