<svg xmlns="http://www.w3.org/2000/svg" width="60" height="60" viewBox="0 0 60 60">
    <g fill="none" fill-rule="evenodd">
        <circle cx="30" cy="30" r="30" fill="#F88D2B"/>
        <path fill="#FFF" d="M19.606 40.394h20.788V19.606H19.606v20.788zm20.788-23.758H19.606s-2.97-.058-2.97 2.97v20.788c0 2.935 2.97 2.97 2.97 2.97h20.788s2.97-.182 2.97-2.877V19.514c0-2.789-2.97-2.878-2.97-2.878zM27.03 37h10v-2h-10v2zm0-4h10v-2h-10v2zm0-4h10v-2h-10v2zm0-4h10v-2h-10v2zm-4.454 12h2.97v-2h-2.97v2zm0-4h2.97v-2h-2.97v2zm0-4h2.97v-2h-2.97v2zm0-4h2.97v-2h-2.97v2z"/>
    </g>
</svg>
