<svg xmlns="http://www.w3.org/2000/svg" width="60" height="60" viewBox="0 0 60 60">
    <g fill="none" fill-rule="evenodd">
        <circle cx="30" cy="30" r="30" fill="#FF1848"/>
        <path fill="#FFF" d="M18.606 43.394h20.788V22.606H18.606v20.788zm20.788-23.758H18.606s-2.97-.058-2.97 2.97v20.788c0 2.935 2.97 2.97 2.97 2.97h20.788s2.97-.182 2.97-2.877V22.514c0-2.789-2.97-2.878-2.97-2.878zM26.03 40h10v-2h-10v2zm0-4h10v-2h-10v2zm0-4h10v-2h-10v2zm0-4h10v-2h-10v2zm-4.454 12h2.97v-2h-2.97v2zm0-4h2.97v-2h-2.97v2zm0-4h2.97v-2h-2.97v2zm0-4h2.97v-2h-2.97v2z"/>
        <path fill="#FFF" stroke="#FF1848" stroke-width="2" d="M46.527 31.73H31.474a4.432 4.432 0 0 1-3.862-2.21c-.817-1.4-.817-3.078 0-4.441l7.532-12.877A4.492 4.492 0 0 1 39 10a4.43 4.43 0 0 1 3.862 2.21l7.526 12.87a4.332 4.332 0 0 1 0 4.44 4.399 4.399 0 0 1-3.861 2.21z"/>
        <g fill="#FF1848" transform="translate(37.778 15.667)">
            <ellipse cx="1.232" cy="10" rx="1.232" ry="1.222"/>
            <rect width="2.444" height="6.72" rx="1.222"/>
        </g>
    </g>
</svg>
