<svg width="294" height="285" viewBox="0 0 294 285" fill="none" xmlns="http://www.w3.org/2000/svg">
<path d="M31.9994 243.831C26.3969 241.161 7.97682 235.422 6.06432 232.524C0.581816 224.227 1.84932 184.84 1.56432 175.781L0.409378 134.845C0.184378 126.985 -0.258144 118.771 0.199356 110.953C0.499356 105.846 2.84689 103.215 7.26439 100.28C24.3194 88.9618 43.8644 79.2372 61.7444 69.0723C81.2819 57.9673 100.594 46.7828 120.229 35.9419C122.637 34.6089 128.127 32.2113 130.879 32.7019C141.462 34.5908 152.104 38.1115 162.409 41.2577C177.469 45.8376 192.507 50.5082 207.514 55.2681C229.077 62.0543 250.737 68.5321 272.224 75.5471C284.239 79.0504 281.449 92.5845 281.224 102.55C280.437 138.082 278.427 173.721 277.579 209.262C313.099 221.583 281.112 243.017 262.489 250.43C260.067 251.373 257.629 252.261 255.162 253.096C261.229 254.115 267.259 255.04 273.237 256.5L273.672 257.131C268.969 263.426 242.577 262.699 235.834 265.37C213.492 274.224 200.329 280.22 176.112 282.757C164.337 285.641 154.324 283.204 142.804 280.721C127.812 283.905 45.5518 270.874 28.4893 263.201C23.8543 261.116 17.6219 259.118 15.3119 253.982C15.4619 247.059 26.5919 245.161 31.9994 243.831Z" fill="#192025"/>
<path d="M277.579 209.262C313.099 221.583 281.111 243.017 262.489 250.43C260.066 251.373 257.629 252.261 255.161 253.096C261.229 254.114 267.259 255.04 273.236 256.5L273.671 257.131C268.969 263.426 242.576 262.699 235.834 265.37C213.491 274.224 200.329 280.219 176.111 282.757C207.266 262.369 244.969 240.375 274.384 216.921C276.484 215.248 277.061 211.897 277.579 209.262Z" fill="#EBF7E1"/>
<path d="M31.999 243.832C56.989 252.543 82.099 260.905 107.329 268.917C115.316 271.509 136.002 277.693 142.804 280.722C127.812 283.906 45.5515 270.875 28.489 263.202C23.854 261.117 17.6215 259.119 15.3115 253.983C15.4615 247.06 26.5915 245.162 31.999 243.832Z" fill="#EBF7E1"/>
<path d="M10.3244 113.635C16.8194 114.071 49.1219 124.67 58.4519 127.224C58.6919 139.022 57.8218 155.196 58.9618 166.551C59.6518 173.367 103.234 181.787 108.529 180.211C110.577 175.607 108.844 148.9 108.627 141.43C125.082 147.42 145.474 153.074 162.432 158.024C162.949 184.354 163.654 209.44 163.497 235.832C163.669 248.637 162.747 261.972 162.807 275.127C151.767 273.551 111.499 259.716 99.0269 255.659C80.5919 249.656 62.1944 243.542 43.8269 237.321C35.3444 234.458 21.1094 230.093 13.3619 226.39C11.3444 214.077 8.23936 123.473 10.3244 113.635Z" fill="#EBF7E1"/>
<path d="M121.482 233.608C126.537 233.493 142.557 237.433 147.177 240.347C148.759 241.349 148.474 242.693 148.714 244.648C143.584 244.718 127.099 241.491 122.412 238.179C121.197 237.322 121.527 235.242 121.482 233.608Z" fill="#192025"/>
<path d="M123.762 246.426C129.627 247.694 143.479 249.999 148.579 253.755C149.734 254.606 149.232 256.408 149.119 257.947C144.289 257.113 127.557 253.854 123.777 250.006C123.064 249.285 123.582 247.739 123.762 246.426Z" fill="#192025"/>
<path d="M271.55 93.7617C272.51 95.0355 268.145 199.271 267.44 209.991C261.222 216.972 236.735 231.458 227.787 237.197L170.78 274.077C170.315 271.018 170.435 266.434 170.562 263.236C171.92 228.354 170.337 193.481 170.465 158.597C177.957 152.837 189.747 146.359 197.967 140.769C221.667 124.66 248.12 109.828 271.55 93.7617Z" fill="#D1EFCB"/>
<path d="M233.914 149.689C238.534 150.6 250.092 157.028 250.812 162.33L249.919 163.49C244.879 164.443 240.844 161.227 236.389 158.62C235.084 169.163 236.982 198.957 232.212 204.437C229.482 205.456 230.622 205.262 227.239 204.485C225.124 202.394 225.754 203.438 224.989 200.382C225.672 190.868 225.574 180.331 225.672 170.719C222.147 174.8 217.924 180.715 212.952 182.345C209.862 182.053 211.069 182.481 208.414 180.45C208.962 175.701 229.137 153.391 233.914 149.689Z" fill="#192025"/>
<path d="M224.967 69.5703C231.004 69.7309 265.909 80.1712 269.254 84.2702C267.867 87.5755 239.419 104.422 235.069 107.173C216.312 119.042 197.659 131.081 179.119 143.287C172.984 147.263 168.222 151.774 161.764 150.396C145.879 145.46 129.957 140.669 113.989 136.021C117.417 133.743 121.122 131.56 124.647 129.411C157.834 109.187 192.117 90.3384 224.967 69.5703Z" fill="#EBF7E1"/>
<path d="M127.924 41.3083C138.949 40.0652 164.764 49.5925 176.839 53.417C140.202 75.5016 97.6692 97.311 62.4192 121.264C47.9442 117.384 26.5842 111.188 12.9492 105.918C43.2717 87.1977 75.5517 71.4604 106.122 53.1499C112.984 49.0404 120.664 44.432 127.924 41.3083Z" fill="#F6FDEC"/>
<path d="M185.022 56.7618C189.86 56.7288 211.542 64.1961 217.024 65.9486C179.284 88.085 141.672 110.434 104.195 132.994C93.732 130.522 81.237 126.726 70.752 123.797L185.022 56.7618Z" fill="#EBF7E1"/>
<path d="M65.8242 130.329C69.2667 129.316 95.8917 137.494 100.452 139.362C101.727 141.012 101.457 142.756 101.502 144.965C101.554 153.521 102.259 163.839 102.612 172.529C98.7417 171.287 82.1067 167.628 81.6192 166.467C75.8292 152.806 73.0842 164.486 66.4017 164.544C64.4892 161.534 65.3142 135.008 65.8242 130.329Z" fill="#E5F6DB"/>
<path d="M65.8242 130.329C69.2667 129.316 95.8918 137.494 100.452 139.362C101.727 141.012 101.457 142.756 101.502 144.965C89.7567 142.394 79.5717 138.89 66.9792 136.36C66.0492 135.116 65.9967 132.044 65.8242 130.329Z" fill="#FEFEF1"/>
<path d="M30.1168 24.9414C34.4518 27.2355 35.5318 38.528 39.7993 42.8205C42.7018 45.735 50.0518 48.2166 51.8593 51.2503C50.4643 52.8947 47.5694 53.8527 45.4319 54.6809C36.6419 58.0838 35.8768 67.2247 32.2543 74.638C28.5418 72.4587 27.6118 63.5863 24.1243 59.2765C20.3368 54.5894 11.7268 54.2923 10.5718 49.9668C11.8768 47.8025 15.2368 47.5347 18.1243 45.7965C26.0443 41.0313 27.8893 33.0824 30.1168 24.9414Z" fill="#192025"/>
<path d="M31.0468 39.4082C34.7518 44.5042 36.7168 46.3129 41.7868 49.9933C36.3043 54.1883 34.7143 55.5177 31.6843 61.6474C28.4968 55.1808 25.9393 53.5604 19.7593 50.2086C26.4118 46.5259 27.4693 46.2259 31.0468 39.4082Z" fill="#FEFEF1"/>
<path d="M233.427 0C236.772 0.827452 237.154 4.29329 238.294 7.54009C242.517 19.6383 247.287 20.6765 258.267 25.2654C243.124 31.8138 241.069 33.1573 237.019 49.2503C231.544 48.0507 231.619 37.8032 227.487 33.6179C224.374 30.4619 218.157 28.9893 214.587 25.3442L214.729 24.4545C228.027 18.429 230.389 13.7111 233.427 0Z" fill="#192025"/>
<path d="M234.619 13.2246C239.719 18.4316 237.131 19.7137 246.641 25.1818C240.281 29.1263 239.164 30.088 235.534 36.6063C233.629 29.9717 228.821 28.1225 223.271 25.0745C229.256 21.7242 231.446 19.1631 234.619 13.2246Z" fill="#FEFEF1"/>
</svg>
