<svg width="333" height="281" viewBox="0 0 333 281" fill="none" xmlns="http://www.w3.org/2000/svg">
<path d="M105.763 255.627C93.2084 250.436 43.9236 239.656 40.5464 225.223C41.1359 216.645 57.5444 212.731 63.4169 205.824C104.664 157.303 88.0071 85.2864 118.249 32.1367C121.274 26.8194 127.897 20.5104 134.205 19.7594C149.805 17.9027 166.616 20.2103 182.314 21.6184C208.279 23.9754 234.214 26.6003 260.126 29.4915C275.006 30.9026 289.864 32.5043 304.699 34.295C332.801 37.5493 336.139 37.0692 330.536 69.8161C329.479 75.9909 327.859 88.612 324.304 93.1851C320.254 95.7912 313.399 94.0651 308.464 93.3824C302.411 129.793 295.571 166.679 285.589 202.277C281.066 218.389 274.271 230.879 266.156 245.295C273.364 243.494 278.636 241.761 283.429 235.35C289.931 226.664 298.031 187.767 305.194 184.162C312.784 187.781 301.414 232.787 297.394 240.138C296.329 242.084 295.181 243.979 293.936 245.817C299.194 247.805 305.554 249.351 308.471 254.039C308.659 256.191 308.689 257.082 307.324 258.94C297.109 272.792 247.361 277.127 230.449 278.56C205.594 280.668 80.5656 283.155 66.3643 271.289C64.5876 269.804 64.2314 269.167 63.7731 267.015C65.1419 264.104 68.4966 262.689 71.5004 261.757C83.9721 257.891 92.6429 254.381 105.763 255.627Z" fill="#192025"/>
<path d="M266.156 245.295C273.364 243.494 278.636 241.761 283.429 235.35C289.931 226.664 298.031 187.767 305.194 184.162C312.784 187.781 301.414 232.787 297.394 240.138C296.329 242.085 295.181 243.979 293.936 245.817C299.194 247.805 305.554 249.351 308.471 254.039C308.659 256.191 308.689 257.082 307.324 258.94C297.109 272.792 247.361 277.127 230.449 278.56C205.594 280.668 80.5659 283.155 66.3647 271.289C64.5879 269.805 64.2317 269.167 63.7734 267.015C65.1422 264.104 68.4969 262.689 71.5007 261.757C83.9724 257.891 92.6432 254.381 105.763 255.627C108.156 255.36 133.964 260.954 139.385 261.64C170.974 265.64 204.514 269.027 236.306 268.177C250.481 267.799 257.794 255.421 266.156 245.295Z" fill="#EBF7E1"/>
<path d="M138.788 26.5455C156.357 25.9379 181.181 28.8276 199.241 30.4195C238.729 34.1366 278.171 38.3077 317.561 42.931C298.676 57.5731 299.464 85.759 295.309 107.619C285.986 156.739 278.441 209.375 246.364 249.755C242.404 254.738 239.899 258.324 233.254 259.152C196.189 260.473 128.214 252.263 93.0721 241.871C78.7381 237.479 64.7911 231.912 51.3721 225.226C57.6706 221.157 70.4686 214.49 74.9003 209.107C110.706 165.619 101.147 97.6546 121.277 47.5537C125.457 37.1516 128.859 30.8043 138.788 26.5455Z" fill="#FEFEF1"/>
<path d="M222.446 50.4043C236.974 50.5791 276.769 54.8896 291.836 56.9099C288.724 72.0433 283.534 117.105 278.246 128.366C270.544 128.825 212.959 124.63 209.726 121.065C208.226 112.847 219.304 59.7778 222.446 50.4043Z" fill="#255739"/>
<path d="M227.194 55.5879C236.217 57.1985 246.919 57.936 256.159 58.7784C255.867 63.0305 254.599 68.9014 253.797 73.215C248.142 74.6501 241.107 75.6088 238.684 81.6035C238.114 90.7947 252.357 93.4917 256.602 100.297L256.144 101.419C250.474 103.344 238.977 100.83 232.069 100.523C231.979 103.606 231.567 102.786 232.969 105.061C235.759 106.872 241.024 106.732 244.557 106.93L242.749 120.396C234.334 120.126 223.279 118.846 214.707 118.11C218.847 97.1968 222.634 76.4415 227.194 55.5879Z" fill="#FEFEF1"/>
<path d="M262.001 59.3203C269.239 60.2708 277.646 60.8364 284.996 61.5018C281.104 82.0929 277.361 102.714 273.776 123.362C269.314 122.847 250.309 121.82 248.434 119.625L250.699 107.706C255.109 107.667 262.076 108.628 263.599 103.331C266.869 91.9187 249.836 89.7605 246.484 83.0741L247.016 81.459C249.401 79.4612 252.926 79.2429 256.076 78.7201C260.216 80.7763 262.991 82.2999 266.651 79.0779L266.464 77.4942C264.679 74.9886 262.676 74.7478 259.654 73.7943C260.704 69.0772 261.319 64.1177 262.001 59.3203Z" fill="#FEFEF1"/>
<path d="M189.357 192.115C190.377 192.101 191.389 192.106 192.409 192.13C200.097 192.334 240.417 194.964 244.272 199.061C244.849 204.814 234.327 230.168 231.679 236.547C231.529 236.822 230.397 238.09 230.119 238.415C224.014 239.785 185.269 236.357 179.599 232.747C176.907 231.034 187.714 196.718 189.357 192.115Z" fill="#192025"/>
<path d="M194.314 198.148L237.176 202.199C234.199 211.499 230.254 221.789 226.886 231.074L225.814 232.206C220.024 232.637 193.181 229.952 186.034 229.367C188.569 218.902 191.329 208.493 194.314 198.148Z" fill="#D1EFCB"/>
<path d="M130.574 128.608C138.831 128.435 245.051 138.73 249.671 140.646C251.321 142.842 250.826 142.022 250.811 145.349C239.576 145.431 133.894 136.062 130.04 133.055C129.358 130.455 129.419 131.485 130.574 128.608Z" fill="#192025"/>
<path d="M124.454 156.326C129.147 156.106 149.623 157.269 154.075 157.943C164.051 159.452 223.961 161.646 228.529 165.354C229.039 167.77 229.061 166.796 227.756 169.369C223.369 169.523 202.856 168.418 198.934 167.764C188.711 166.059 129.126 164.529 124.022 160.836C123.237 158.514 123.506 159.204 124.454 156.326Z" fill="#192025"/>
<path d="M103.235 212.505C116.803 211.964 147.594 216.178 162.434 217.535C164.011 217.679 164.89 218.788 165.611 220.013L164.744 222.542C155.465 223.908 123.221 219.271 112.055 218.55C109.289 218.372 104.638 217.538 102.796 215.058L103.235 212.505Z" fill="#192025"/>
<path d="M132.044 92.6046C139.083 92.1523 185.659 95.0915 188.786 98.9114C188.786 101.245 189.041 100.336 187.339 102.401C181.534 102.378 132.041 98.4913 130.069 96.7126C129.917 94.3983 130.079 95.0367 132.044 92.6046Z" fill="#192025"/>
<path d="M322.091 49.498L323.831 49.6158C325.601 52.9429 319.894 80.4724 318.161 85.0507C316.129 86.2863 313.534 85.6741 310.991 85.4551C310.009 85.1993 309.671 84.9494 308.756 84.4941C306.881 74.5046 313.001 55.9001 322.091 49.498Z" fill="#D1EFCB"/>
<path d="M25.1565 24.7832C26.2792 25.1335 28.551 25.5852 28.9102 26.5409C31.4385 33.2603 32.226 40.486 35.5567 47.0366C38.9212 53.654 49.3365 55.5085 52.6665 61.4702C52.6792 62.1311 52.692 62.792 52.7048 63.4529C48.219 65.5106 41.3287 68.1265 37.9575 71.3606C32.2402 76.8444 31.422 89.4588 27.831 94.0904C23.1855 92.1279 22.7572 78.5864 16.5382 72.6434C11.04 67.3891 2.7135 66.8467 0 62.5864C2.90775 53.4109 21.6225 60.8355 25.1565 24.7832Z" fill="#192025"/>
<path d="M27.4794 41.5703C27.7457 42.0077 29.1647 45.7166 29.5832 46.5583C33.7907 55.0151 36.457 56.7015 44.4925 60.6475C43.9052 60.889 43.3209 61.1388 42.7397 61.3946C33.6257 65.4261 30.9737 68.8207 27.5402 77.7644C20.1017 68.4314 22.5587 67.6047 9.70068 61.3219C20.0949 56.0894 23.1729 52.0976 27.4794 41.5703Z" fill="#FEFEF1"/>
<path d="M78.8093 0C86.2838 14.8551 80.8433 15.0202 98.7428 22.5587C96.7215 23.3644 94.7123 24.2009 92.7166 25.0681C82.5991 29.5107 82.0126 35.5279 78.1403 45.3816C69.8986 37.837 80.0775 33.0846 58.8735 22.7643C68.2703 17.4823 72.4433 16.1942 75.813 5.35556C76.443 3.33007 77.238 1.48761 78.8093 0Z" fill="#192025"/>
<path d="M78.2603 12.7266C82.7468 17.1864 79.4573 16.4167 87.861 22.4684C82.5945 25.5427 81.6195 26.4564 78.6225 31.7047C75.3098 27.0866 73.9703 25.3574 69.207 22.2982C74.0205 19.2194 75.3 17.5697 78.2603 12.7266Z" fill="#FEFEF1"/>
<path d="M64.6972 83.6133C70.3004 86.65 63.9869 95.7828 83.1959 101.994C69.9681 107.93 69.9479 109.306 65.9564 122.84C62.9902 120.008 63.6126 113.447 60.1454 109.436C56.9534 105.744 51.4544 105.559 49.9424 102.189C53.9826 95.4669 59.1299 102.628 64.6972 83.6133Z" fill="#192025"/>
<path d="M65.0092 96.0703C67.1377 98.2143 69.6067 100.377 71.8582 102.428C68.4307 105.119 67.8802 105.58 65.4067 109.14C63.0914 106.481 59.9527 104.13 59.7427 101.52C61.4369 99.4912 63.126 97.9008 65.0092 96.0703Z" fill="#FEFEF1"/>
<path d="M31.5494 238.441C38.1854 240.312 59.6512 247.685 62.0849 254.136C61.7564 257.02 62.1082 255.908 60.0479 258.545C49.4744 259.873 34.4085 254.786 29.7772 244.178C28.9087 242.189 30.5572 240.169 31.5494 238.441Z" fill="#EBF7E1"/>
</svg>
