<svg width="314" height="271" viewBox="0 0 314 271" fill="none" xmlns="http://www.w3.org/2000/svg">
<path d="M194.948 35.7565C189.2 32.6237 186.862 32.0911 186.873 25.2366C186.906 3.04396 190.594 -1.24859 212.878 0.277286C222.54 0.938948 236.429 1.71614 243.751 8.82637C247.814 12.9501 247.483 20.6328 247.043 25.8353C245.594 39.4789 243.264 36.1683 233.57 43.196C232.335 44.0917 232.389 44.6611 232.348 45.8247C235.431 48.6618 246.916 50.7474 251.512 53.1097C261.799 58.397 272.788 65.682 281.086 73.6789C301.537 93.261 313.24 120.256 313.553 148.573C313.955 187.42 300.828 209.997 274.648 236.65C289.585 241.529 313.609 248.028 282.588 259.064C273.838 262.099 264.816 264.287 255.648 265.598C218.024 271.24 173.017 272.047 135.25 267.898C85.761 262.463 102.416 248.898 137.603 239.845C137.332 238.833 129.994 232.95 128.446 231.518C123.505 227.002 118.993 222.038 114.969 216.689C105.343 203.607 98.8005 188.516 95.8312 172.546C90.2775 144.95 95.9302 116.278 111.541 92.8566C131.791 62.8538 160.688 50.5808 194.8 44.0467L194.948 35.7565ZM299.703 168.95C305.81 150.453 300.448 123.04 291.808 105.793C280.588 83.2138 260.812 66.0563 236.88 58.1382C211.331 49.7616 182.514 53.1314 158.707 65.2101C135.403 76.9055 117.703 97.3855 109.504 122.14C104.237 138.538 103.081 162.549 109.6 178.626C111.264 183.162 113.381 188.317 115.71 192.613C149.631 255.204 260.174 254.844 291.942 190.257C295.352 183.323 297.469 176.364 299.703 168.95Z" fill="#192025"/>
<path d="M137.603 239.843C139.73 240.869 143.906 243.765 146.501 245.155C154.951 249.646 163.885 253.161 173.129 255.633C197.36 262.072 228.157 260.734 251.156 250.272C258.844 246.774 267.228 240.938 274.648 236.648C289.585 241.528 313.609 248.027 282.588 259.063C273.838 262.098 264.816 264.286 255.648 265.597C218.024 271.239 173.017 272.046 135.251 267.897C85.761 262.462 102.416 248.897 137.603 239.843Z" fill="#EBF7E1"/>
<path d="M197.321 65.2562C244.158 61.7048 284.935 96.9627 288.198 143.832C291.46 190.701 255.961 231.271 209.085 234.246C162.613 237.196 122.48 202.062 119.246 155.598C116.012 109.134 150.89 68.7768 197.321 65.2562Z" fill="#192025"/>
<path d="M213.818 225.65C179.427 230.302 146.192 211.296 132.752 179.293C119.311 147.289 129.007 110.247 156.403 88.937C183.798 67.628 222.079 67.3519 249.779 88.2641C277.479 109.176 287.708 146.075 274.73 178.269C264.413 203.864 241.159 221.951 213.818 225.65Z" fill="#FEFEF1"/>
<path d="M213.818 225.649C215.754 220.55 228.427 215.874 234.115 213.16C251.486 204.875 256.522 187.72 268.151 176.424C270.01 176.431 272.967 177.572 274.73 178.268C264.413 203.863 241.159 221.95 213.818 225.649Z" fill="#D1EFCB"/>
<path d="M205.869 136.527C206.01 128.505 205.415 83.9844 209.436 80.4945C212.301 80.2349 211.255 79.9356 213.432 81.4608L214.927 84.0526C225.103 86.0796 230.76 86.7098 240.1 91.5155C264.885 104.266 275.859 135.212 271.538 161.665C271.395 162.538 271.083 162.967 270.534 163.647C266.299 165.343 238.279 156.421 232.919 153.973C228.615 152.008 226.048 150.346 222.049 147.937C220.269 175.703 177.594 155.165 205.869 136.527Z" fill="#D1EFCB"/>
<path d="M205.869 136.527C206.01 128.505 205.415 83.9844 209.436 80.4945C212.301 80.2349 211.255 79.9356 213.432 81.4608C214.328 90.0098 211.299 132.774 212.966 136.799C218.982 136.584 242.295 103.005 249.577 101.136C251.828 101.829 250.993 101.182 252.273 102.994C251.631 108.178 224.365 136.248 219.084 141.985C219.774 143.518 221.079 146.814 222.049 147.937C220.269 175.703 177.594 155.165 205.869 136.527Z" fill="#192025"/>
<path d="M206.758 143.805C209.653 142.669 212.931 143.978 214.246 146.796C215.561 149.613 214.46 152.968 211.731 154.458C209.807 155.508 207.459 155.402 205.637 154.183C203.815 152.965 202.82 150.834 203.056 148.654C203.292 146.474 204.718 144.606 206.758 143.805Z" fill="#D1EFCB"/>
<path d="M134.13 145.987C138.048 145.887 144.604 145.288 146.881 148.814C145.633 150.834 145.828 150.274 143.37 151.545C139.714 151.703 132.087 152.586 130.584 148.58C131.532 147.012 132.469 146.785 134.13 145.987Z" fill="#192025"/>
<path d="M205.92 207.678C208.313 208.121 208.435 208.096 210.086 209.765C211.68 213.455 210.74 216.027 209.692 219.787L206.596 219.035C203.092 215.346 203.797 212.187 205.92 207.678Z" fill="#192025"/>
<path d="M172.913 200.916L175.616 201.706C178.948 206.155 175.944 209.205 172.917 212.951C171.658 212.623 171.248 212.13 170.222 211.311C168.994 207.598 171.162 204.475 172.913 200.916Z" fill="#192025"/>
<path d="M144.17 108.059C147.3 108.628 151.607 109.545 153.675 112.007C154.393 114.596 154.247 113.656 153.143 116.641C149.867 115.996 145.92 115.047 143.763 112.386C143.061 109.863 143.141 110.862 144.17 108.059Z" fill="#192025"/>
<path d="M153.003 181.82C154.831 183.225 154.594 184.865 153.979 186.703C151.441 188.869 149.515 189.104 146.278 189.918C144.478 188.74 144.397 187.633 144.927 185.79C147.135 183.543 149.998 182.865 153.003 181.82Z" fill="#192025"/>
<path d="M168.812 87.9431C174.722 87.5268 177.459 90.463 176.573 96.463C170.951 96.1509 169.28 93.4442 168.812 87.9431Z" fill="#192025"/>
<path d="M299.703 168.949C300.781 180.807 287.182 203.487 279.791 212.745C245.831 255.292 180.212 260.132 139.022 225.4C128.376 216.423 109.108 192.84 109.6 178.625C111.264 183.161 113.381 188.316 115.71 192.612C149.631 255.203 260.174 254.843 291.942 190.257C295.352 183.322 297.469 176.363 299.703 168.949Z" fill="#D1EFCB"/>
<path d="M196.594 13.8819C196.915 12.0942 196.856 9.70335 198.841 8.68235C205.171 5.42655 235.297 7.66361 237.787 14.365C237.963 20.9846 237.163 25.7768 236.011 32.1496C225.553 26.3432 207.295 25.512 195.473 26.4287C195.67 22.4947 196.224 17.8586 196.594 13.8819Z" fill="#D1EFCB"/>
<path d="M196.594 13.8819C196.914 12.0942 196.856 9.70335 198.841 8.68235C205.171 5.42655 235.297 7.66361 237.786 14.365C233.083 15.5735 236.95 16.1399 232.992 17.9051C228.477 17.278 198.473 14.8984 196.594 13.8819Z" fill="#FEFEF1"/>
<path d="M204.213 35.4004C210.335 36.1731 216.458 35.6374 221.624 38.4184C223.28 41.1805 222.628 41.1363 222.298 45.0485C215.467 44.0522 209.5 43.9285 202.643 44.1573C203.056 41.3666 203.705 38.2113 204.213 35.4004Z" fill="#D1EFCB"/>
<path d="M287.916 36.9102C294.535 38.2815 314.914 54.541 312.699 63.4051C311.627 67.6947 301.679 76.378 297.363 78.7389C293.163 78.0675 275.561 60.5252 272.636 56.3744C271.125 49.1899 281.802 39.5463 287.916 36.9102Z" fill="#192025"/>
<path d="M287.67 44.1934C293.635 44.5204 302.18 55.6712 304.738 60.6389C301.978 64.2938 300.929 65.428 297.576 68.5578C295.859 67.9884 282.637 55.3981 280.156 53.1783C282.929 48.921 284.022 47.8062 287.67 44.1934Z" fill="#D1EFCB"/>
<path d="M36.7401 143.091C45.5428 143.409 72.3988 139.82 77.276 145.855C77.5513 148.314 77.744 147.173 76.6805 149.403C73.793 150.916 69.4843 150.836 66.0875 151.042C57.773 151.549 27.9538 154.08 23.2168 148.318C24.3628 142.16 31.6611 143.254 36.7401 143.091Z" fill="#192025"/>
<path d="M59.7749 92.0819C67.1256 91.6423 96.4896 89.3992 99.3044 96.0788C97.5164 99.79 95.6946 99.5942 91.8546 100.41C84.4416 100.56 57.0824 102.677 52.3604 97.8605C51.8564 92.841 55.9814 92.6588 59.7749 92.0819Z" fill="#192025"/>
<path d="M56.3241 190.309C64.5673 189.975 81.5803 188.761 89.3391 191.945C90.8983 192.586 90.7851 193.576 91.1061 194.968C89.6428 197.518 90.3816 196.619 87.5076 198.346C80.6383 198.463 54.4206 200.655 51.5698 194.552C53.1133 191.953 53.6443 191.814 56.3241 190.309Z" fill="#192025"/>
<path d="M159.477 29.8262C164.212 30.01 168.862 30.0865 172.895 32.8457L173.117 34.2823C168.776 39.373 158.651 38.5305 152.528 38.4885C147.281 38.6131 140.472 39.2837 136.676 35.1037C139.91 29.4256 153.856 29.9139 159.477 29.8262Z" fill="#192025"/>
<path d="M93.1836 54.5191C99.8878 54.3173 120.035 52.3773 123.826 57.4951L123.496 59.3368C121.714 61.5341 122.653 60.8469 119.744 61.7824C114.508 62.6901 89.6503 65.0584 88.8208 57.9909C89.7636 56.0097 91.1833 55.5829 93.1836 54.5191Z" fill="#192025"/>
<path d="M71.2448 223.93C78.4598 223.686 101.023 221.283 104.504 227.254C103.892 230.009 104.387 228.97 101.949 231.222C95.2815 231.438 72.9585 233.799 69.0713 228.406C69.3225 225.571 69.1718 226.518 71.2448 223.93Z" fill="#192025"/>
<path d="M36.6698 92.4238C40.3748 92.8244 44.4248 92.8987 44.8793 97.2295C43.7701 99.5671 43.2203 99.6421 40.8526 101.018C37.0073 101.007 32.0003 101.412 31.7153 96.4553C33.0953 94.036 34.1993 93.7457 36.6698 92.4238Z" fill="#192025"/>
<path d="M2.39624 144.383C6.52949 144.143 10.4385 143.792 11.9265 148.305C11.4082 150.669 10.9102 150.817 8.94 152.485C5.07825 152.722 1.7955 153.131 0 149.257C0.18975 146.796 0.773994 146.431 2.39624 144.383Z" fill="#192025"/>
<path d="M36.2596 190.836C40.2256 190.528 43.4858 190.035 45.8363 193.613C45.7306 196.137 45.3391 196.469 43.7183 198.46C39.7231 198.833 37.1836 199.408 34.5698 196.02C34.6343 192.669 34.3216 194.003 36.2596 190.836Z" fill="#192025"/>
<path d="M74.4097 54.9649C78.6232 54.7451 81.2857 53.9364 83.9557 57.5088C84.0464 60.0767 83.8372 60.2192 82.5194 62.5478C81.2819 62.5846 80.0437 62.5973 78.8054 62.5861C75.9307 62.5381 74.9894 62.295 73.1384 60.3985C72.6569 57.8749 73.1692 57.4188 74.4097 54.9649Z" fill="#192025"/>
</svg>
