<svg width="317" height="208" viewBox="0 0 317 208" fill="none" xmlns="http://www.w3.org/2000/svg">
<path d="M120.483 0C135.699 1.30382 137.799 5.33902 142.209 18.9864C152.109 19.2227 159.714 17.1807 164.191 27.651C208.366 29.9758 202.959 28.9015 204.549 71.8428C208.914 72.2479 213.166 73.2464 217.501 73.6252C229.561 74.6792 284.266 77.6694 290.176 85.4713C295.599 92.6438 292.929 161.712 292.884 174.647C288.624 181.503 287.004 183.252 279.969 187.169C276.024 189.219 272.529 191.987 269.034 193.669C255.976 198.962 252.084 200.935 237.699 200.861C236.221 200.396 225.031 199.474 222.534 199.23C220.434 198.378 198.571 195.746 194.889 195.267C173.356 191.411 163.186 191.44 141.999 192.204C124.944 190.489 62.6796 195.796 52.6671 188.235L49.6453 185.987C48.2406 183.254 47.2341 180.708 46.8246 177.643C44.2071 158.056 43.2006 53.8151 48.2938 37.8145C49.3671 34.4416 50.4875 32.2834 53.765 30.6082C62.1943 26.2991 75.2646 27.1799 84.5413 27.4582C87.0846 23.1401 87.6613 22.4462 92.0278 19.5467L105.957 18.9766C106.509 7.02093 110.191 4.6984 120.483 0Z" fill="#12191A"/>
<path d="M139.224 170.927C127.276 170.612 74.559 171.553 66.5377 169.203C63.0915 158.824 63.7739 110.817 63.3937 96.6244C63.2144 89.9282 61.5622 50.2615 64.674 47.3846C66.6262 45.5796 72.0795 45.7672 74.5957 45.6989C84.384 45.4311 94.185 46.4851 103.959 46.8835C120.854 47.5737 138.166 47.948 155.071 47.7454C159.879 47.6877 161.739 46.0995 165.946 44.921C171.009 43.5031 176.371 44.5714 181.494 45.1783L181.621 45.87C183.009 53.0582 183.084 63.9209 183.376 71.5225L165.166 75.3132C157.201 77.0708 151.329 78.1984 143.814 81.5569C140.004 84.848 138.849 85.7872 138.519 90.9477C137.904 100.569 138.286 110.315 138.429 119.962L139.224 170.927Z" fill="#FEFDF3"/>
<path d="M143.814 81.5583C145.741 72.6049 159.294 71.7189 165.166 75.3146C157.201 77.0723 151.329 78.1998 143.814 81.5583Z" fill="#E1F2D2"/>
<path d="M95.2894 64.0176C97.9451 64.3852 97.3129 63.9336 99.1999 65.4009C99.3784 69.3814 88.5439 84.0617 83.4229 84.0497C80.6974 82.5839 79.2093 80.163 77.2638 77.6672C75.4743 75.7347 74.2931 73.6132 74.3816 70.9823C78.1309 68.1698 82.7006 75.4136 84.4901 77.8517C88.7733 73.1525 91.5799 69.1698 95.2894 64.0176Z" fill="#1D4330"/>
<path d="M94.4433 127.941L96.4353 128.387C99.1991 131.942 93.7968 139.986 90.9258 142.529C84.6963 148.047 81.6356 144.719 77.4033 139.68C75.9483 137.557 74.5601 135.848 75.5936 133.4C79.4778 133.118 81.5403 136.938 83.5511 139.746C87.2958 135.434 90.4106 132.008 94.4433 127.941Z" fill="#1D4330"/>
<path d="M95.1041 97.0879C97.0256 97.3985 96.9318 97.4135 98.4108 98.4952C98.6178 100.837 93.8201 108.45 91.7846 110.353C84.5741 117.098 82.0578 115.626 76.4231 109.78C75.3536 107.764 74.7198 106.018 75.1743 103.821L76.3571 103.502C79.7816 105.143 81.4053 107.885 83.6973 110.94C87.2433 106.977 91.4388 101.391 95.1041 97.0879Z" fill="#1D4330"/>
<path d="M106.101 74.4593C110.728 73.6454 138.969 73.5036 142.367 76.274C134.664 77.9604 118.526 77.5681 110.257 77.2222C107.492 77.1067 107.492 76.3543 106.101 74.4593Z" fill="#12191A"/>
<path d="M103.911 139.026C108.231 138.187 126.624 137.571 130.554 139.349L130.734 141.115C123.27 141.361 112.649 142.043 105.2 140.813C104.497 140.697 104.456 140.053 103.911 139.026Z" fill="#12191A"/>
<path d="M104.344 106.705C108.354 106.307 125.199 105.516 128.116 107.497L128.371 109.04C123.405 109.301 108.607 110.601 104.899 108.703L104.344 106.705Z" fill="#12191A"/>
<path d="M144.354 93.252C155.041 95.3577 166.456 96.9278 177.271 98.5895C176.724 103.703 175.382 116.608 176.634 121.04C180.407 124.187 204.909 128.451 211.067 129.451C211.127 121.849 210.789 110.33 211.742 103.258C217.202 104.156 238.059 106.607 241.517 108.964C242.244 110.697 242.177 110.688 242.274 112.469C241.337 117.248 241.179 136.06 241.096 141.958L240.272 191.749C220.509 191.576 196.974 186.137 178.419 184.305C138.459 180.358 146.897 174.606 145.082 139.79C144.174 122.466 144.091 108.481 144.354 93.252Z" fill="#F2FBE0"/>
<path d="M211.742 103.258C217.202 104.156 238.059 106.607 241.517 108.964C242.244 110.697 242.177 110.688 242.274 112.469C235.164 113.124 219.722 112.251 212.882 110.293C212.004 108.801 211.914 105.166 211.742 103.258Z" fill="#FEFDF3"/>
<path d="M207.992 174.16C213.954 174.643 224.522 174.968 230.034 177.345C231.212 177.85 231.069 178.454 231.512 179.869C226.667 180.126 211.787 179.071 208.149 176.193L207.992 174.16Z" fill="#12191A"/>
<path d="M207.872 163.53C212.469 163.503 225.024 165.185 229.472 167.12C230.627 167.622 230.312 167.768 230.687 169.249C224.687 169.775 210.422 170.007 207.872 163.53Z" fill="#12191A"/>
<path d="M285.197 91.4648C287.424 94.3613 286.164 164.092 286.112 173.532C273.549 180.856 262.089 186.098 248.919 192.16C248.499 192.035 247.734 191.517 247.307 191.262C246.692 186.595 247.082 170.649 247.067 165.277C246.999 146.217 246.894 127.112 247.907 108.083C260.462 103.013 272.897 97.1415 285.197 91.4648Z" fill="#B4D8B0"/>
<path d="M270.084 116.576C274.186 118.167 270.999 120.926 273.759 123.731C276.879 124.194 278.896 123.812 279.654 127.057C278.446 129.145 277.764 128.869 275.116 129.941C269.439 137.136 278.926 147.571 269.799 153.388C264.826 149.79 267.969 136.683 266.806 131.073C266.041 127.422 262.771 130.192 260.026 128.154L260.409 126.528C269.244 121.974 264.286 121.803 270.084 116.576Z" fill="#172A25"/>
<path d="M111.112 23.8402C111.281 17.8229 110.927 12.6107 115.961 8.41341C124.464 1.32268 131.372 8.17336 135.377 15.4089L135.444 24.228C148.509 24.2123 158.237 20.4959 158.019 36.6878L157.607 39.7156C155.229 41.0674 96.0653 40.723 92.3671 39.9751L91.6876 35.1522C89.6604 21.2258 100.483 23.9272 111.112 23.8402Z" fill="#FEFDF3"/>
<path d="M91.6875 35.1523C108.188 35.6362 130.546 35.1568 146.034 36.0578C150.939 35.8995 153.279 35.6827 158.019 36.688L157.606 39.7157C155.229 41.0675 96.0652 40.7232 92.367 39.9752L91.6875 35.1523Z" fill="#B4D8B0"/>
<path d="M91.6875 35.1523C108.188 35.6362 130.546 35.1568 146.034 36.0578C137.941 36.9475 131.551 37.0555 123.184 38.2131L125.949 38.5746C114.137 40.4058 103.351 38.8267 92.367 39.9752L91.6875 35.1523Z" fill="#E1F2D2"/>
<path d="M122.135 10.7598C129.819 13.4927 129.489 19.2113 124.142 24.2293C114.879 21.7147 116.135 16.1836 122.135 10.7598Z" fill="#12191A"/>
<path d="M58.7347 34.4453C61.2029 36.0815 60.5962 35.1669 61.1782 37.7798L59.9287 41.8053C56.8034 48.6733 57.2977 90.1862 57.9937 100.071C59.3204 118.916 55.8419 157.455 61.0567 174.528C66.1747 180.73 133.096 175.722 138.594 178.63C139.216 180.665 139.329 180.793 138.946 182.822C135.474 184.718 106.819 183.573 99.9457 183.501C90.9742 183.405 62.5004 185.422 55.7467 181.289C49.2217 171.732 54.3194 70.8029 52.6897 52.6912C52.0612 45.71 53.4914 39.5346 58.7347 34.4453Z" fill="#FADBB0"/>
<path d="M240.362 87.3475C252.324 80.9305 256.449 81.92 270.152 84.9612C274.944 85.7294 276.789 86.4631 281.394 88.1892C269.627 92.454 258.257 97.7833 246.947 103.125C236.304 101.936 225.789 100.056 215.154 98.7593C219.587 96.1269 235.494 88.6168 240.362 87.3475Z" fill="#E1F2D2"/>
<path d="M240.361 87.3475C252.324 80.9305 256.449 81.92 270.151 84.9612C266.506 87.2988 257.214 84.4886 253.681 87.0002C250.569 89.2117 248.791 90.247 244.936 89.6124L243.796 88.6011C244.929 87.9057 244.846 87.9267 246.144 87.6776L245.911 86.7766C244.059 86.6889 243.804 86.9259 242.161 87.7031L240.361 87.3475Z" fill="#F3F5DF"/>
<path d="M150.902 85.7048C167.169 78.1227 186.669 74.1557 204.459 77.5421L216.587 78.8631C205.374 84.1031 191.139 87.7701 180.954 94.2606C174.767 93.1684 150.819 90.6635 147.572 88.1182C148.772 86.2142 148.457 86.794 150.902 85.7048Z" fill="#E1F2D2"/>
<path d="M150.901 85.7048C167.169 78.1227 186.669 74.1557 204.459 77.5421L204.091 79.0094C196.861 82.8698 178.261 79.7168 164.476 87.6935C160.681 87.5727 153.879 87.785 150.901 85.7048Z" fill="#F3F6EC"/>
<path d="M181.157 99.2441C189.632 100.011 199.329 101.632 207.692 103.155C206.844 110.396 206.597 114.756 206.567 122.046C203.072 122.882 185.972 118.93 181.367 117.927C180.962 112.717 181.157 104.653 181.157 99.2441Z" fill="#E1F2D2"/>
<path d="M164.477 33.0449C174.002 33.1582 182.027 33.1559 191.342 35.2669C193.397 36.9991 194.844 38.8101 196.592 40.8363C197.244 45.6082 198.864 67.14 196.667 70.2713C193.794 70.8144 193.397 71.4003 191.072 70.3501C185.979 61.1626 195.977 41.4027 181.217 39.9294C175.809 39.3892 170.559 42.3254 165.092 39.2549C163.764 36.7981 164.304 36.1417 164.477 33.0449Z" fill="#FADBB0"/>
<path d="M226.126 79.547C232.366 78.8839 238.036 80.1262 244.126 81.2372C236.769 85.1599 215.754 93.1936 206.026 97.4929C201.009 96.4254 193.074 95.5634 187.794 94.8455C200.184 89.6197 213.526 84.67 226.126 79.547Z" fill="#E1F2D2"/>
<path d="M84.0024 32.0508C84.1141 34.8092 84.2806 37.6749 84.2664 40.4266C76.3276 40.3688 67.6313 39.9442 59.9288 41.8054L61.1784 37.7799C60.5964 35.167 61.2031 36.0815 58.7349 34.4454C66.5881 33.1888 76.0681 32.1881 84.0024 32.0508Z" fill="#FADBB0"/>
<path d="M38.5926 181.322C46.9266 181.356 43.2591 185.889 49.6453 185.988L52.6671 188.236C62.6796 195.796 124.944 190.489 141.999 192.204C128.589 195.048 109.132 190.922 96.5968 193.115C103.213 195.042 122.256 193.285 130.284 193.984C141.136 194.929 152.649 195.279 163.516 195.116C174.069 194.958 184.636 198.35 194.889 195.267C198.571 195.747 220.434 198.379 222.534 199.231L222.526 200.34C225.181 202.338 230.679 204.492 231.324 205.856C225.211 207.231 211.959 205.618 204.946 206.556C163.336 205.212 121.729 205.359 80.0421 201.925C72.4603 201.3 53.8603 200.324 47.1576 198.345L47.9144 197.996L48.0276 197.363C43.7189 196.748 42.0756 196.525 38.0174 195.09L38.5236 192.421C41.2964 191.823 43.5253 193.412 47.6413 192.063C47.0496 191.345 39.5376 188.836 38.0308 188.302C37.1646 185.463 39.2976 184.73 38.5926 181.322Z" fill="#84AB82" fill-opacity="0.384314"/>
<path d="M20.3947 25.623C20.646 25.7048 20.9122 25.7521 21.15 25.8684C23.232 26.8864 26.901 38.3964 28.2667 41.0993C31.8097 43.6177 37.5682 46.2531 39.8512 48.3506C28.5592 55.3116 27.0487 57.7181 22.9792 70.0181L21.786 70.4675C19.5562 68.4338 18.7875 62.7053 17.3602 59.397C14.6505 53.115 6.03675 50.5074 0 47.9613C14.907 42.1008 15.1635 40.5479 20.3947 25.623Z" fill="#12191A"/>
<path d="M21.0564 35.8145C24.3624 42.6276 26.4542 44.5008 33.0947 47.8609C26.8824 52.1489 25.6675 53.377 22.3442 60.1316C17.9635 51.1662 15.9617 53.524 11.9199 48.6516C13.1259 44.6831 17.4797 45.5803 20.7489 36.6644L21.0564 35.8145Z" fill="#F3F5DF"/>
<path d="M279.969 187.169L280.764 187.314C287.836 188.573 305.701 182.097 315.961 188.344L316.449 189.421C312.639 197.621 286.044 201.043 277.119 202.067L272.941 201.523C274.959 201.001 276.864 200.819 277.794 199.034L276.564 198.283C271.269 198.184 263.461 202.641 259.906 200.582L259.794 199.406C262.419 199 264.076 198.719 266.686 198.007C268.809 196.04 268.119 196.943 269.034 193.669C272.529 191.987 276.024 189.219 279.969 187.169Z" fill="#7DA47B" fill-opacity="0.454902"/>
<path d="M269.139 21.918C275.994 25.7567 269.026 34.7116 288.969 41.281C284.011 43.2179 279.954 45.1856 275.199 47.4947C273.414 50.2059 271.786 54.0993 270.414 57.1248C269.979 57.4129 269.296 57.4234 268.689 57.5187C267.226 54.6845 266.671 50.8638 265.276 48.6155C263.199 45.2502 255.939 42.8203 252.294 41.3935C254.356 40.41 256.396 39.383 258.406 38.3132C266.049 34.1774 266.881 29.6966 269.139 21.918Z" fill="#12191A"/>
<path d="M270.069 31.375C272.791 37.381 273.954 36.4147 276.699 41.1566C274.719 44.3734 272.296 45.0951 269.911 49.5902L269.499 50.3816C266.852 45.699 265.037 44.8603 262.749 41.1184C266.402 36.9916 266.941 37.5783 269.626 32.2602L270.069 31.375Z" fill="#F3F5DF"/>
<path d="M141.999 192.203C163.187 191.44 173.357 191.411 194.889 195.266C184.637 198.349 174.069 194.957 163.517 195.115C152.649 195.278 141.137 194.928 130.284 193.983C122.256 193.284 103.214 195.041 96.5972 193.114C109.133 190.921 128.589 195.047 141.999 192.203Z" fill="#84AB82" fill-opacity="0.105882"/>
<path d="M288.947 52.7988C294.174 59.1004 289.254 59.1919 299.019 64.9533C293.499 67.2443 292.442 67.9503 288.782 72.4559L288.572 72.6111C288.317 72.1333 288.069 71.6547 287.822 71.1768L287.469 70.5759C286.007 68.0028 285.024 67.6832 282.377 66.3809L281.529 65.9713C285.077 61.3636 287.634 58.651 288.947 52.7988Z" fill="#12191A"/>
<path d="M25.1406 185.232C30.0831 183.84 34.8359 180.217 38.5926 181.322C39.2976 184.729 37.1646 185.462 38.0308 188.301C39.5376 188.836 47.0496 191.345 47.6414 192.063C43.5254 193.412 41.2964 191.822 38.5236 192.421C34.8036 192.737 27.4551 188.469 25.1406 185.232Z" fill="#7CA27B" fill-opacity="0.415686"/>
<path d="M56.0871 8.58789L57.4896 9.49114C58.7211 14.2833 65.1539 19.3868 63.2489 24.0447C59.4539 24.3027 57.4776 22.167 54.8999 19.7574C51.7116 20.5526 52.3371 21.6194 47.3399 22.047L47.0264 21.5571C52.7279 15.9435 53.4576 16.0387 56.0871 8.58789Z" fill="#12191A"/>
<path d="M237.699 200.86C252.084 200.934 255.976 198.961 269.034 193.668C268.119 196.943 268.809 196.039 266.686 198.006C264.076 198.718 262.419 199 259.794 199.405C259.179 199.339 243.774 203.225 242.686 203.759C243.564 204.157 243.879 204.395 244.809 204.568L243.159 205.123C238.891 204.715 235.951 204.106 231.946 202.679L231.549 201.827C233.739 200.613 235.171 200.863 237.699 200.86Z" fill="#84AB82" fill-opacity="0.196078"/>
<path d="M259.794 199.406L259.906 200.582C263.461 202.641 271.269 198.184 276.564 198.283L277.794 199.034C276.864 200.819 274.959 201.001 272.941 201.523L277.119 202.067C269.244 203.013 250.066 202.577 244.809 204.569C243.879 204.395 243.564 204.158 242.687 203.759C243.774 203.225 259.179 199.34 259.794 199.406Z" fill="#7CA27B" fill-opacity="0.458824"/>
<path d="M25.1409 185.232C27.4554 188.469 34.8039 192.737 38.5239 192.421L38.0176 195.091C42.0759 196.525 43.7191 196.748 48.0279 197.364L47.9146 197.996L47.1579 198.346C42.6444 197.753 38.1706 196.89 33.7599 195.763C29.9094 194.741 25.5136 193.28 23.4331 189.706C23.4691 186.812 23.1706 187.963 25.1409 185.232Z" fill="#7CA27B" fill-opacity="0.529412"/>
<path d="M222.534 199.23C225.032 199.474 236.222 200.397 237.699 200.861C235.172 200.864 233.739 200.615 231.549 201.828L231.947 202.681C235.952 204.107 238.892 204.717 243.159 205.124C236.252 207.179 211.157 207.99 204.947 206.556C211.959 205.617 225.212 207.231 231.324 205.856C230.679 204.492 225.182 202.338 222.527 200.34L222.534 199.23Z" fill="#84AB82" fill-opacity="0.305882"/>
</svg>
