<svg width="253" height="207" viewBox="0 0 253 207" fill="none" xmlns="http://www.w3.org/2000/svg">
<path d="M105.242 40.9066C102.1 40.8113 98.5598 40.8901 95.4848 40.2374C93.6023 39.8383 91.4873 38.8286 90.5423 37.0469C89.9123 35.8533 89.4474 34.4782 89.7774 33.1632C90.7074 29.497 114.422 2.90754 118.202 0.97357C120.88 -0.397765 123.632 -0.186977 126.422 0.780759C134.972 3.74998 157.99 29.518 162.272 37.8466L161.26 39.0671C156.812 40.8195 148.99 40.8278 143.905 41.1136L144.257 54.2523C155.29 53.7917 192.992 51.4939 203.117 55.4009C209.492 57.8622 208.217 87.0563 203.32 93.4711C200.942 94.4666 197.252 94.0968 194.522 94.054C194.027 97.6519 193.562 101.749 192.812 105.253L192.662 108.544L193.547 109.489C201.235 107.421 230.455 97.4216 229.45 111.731C228.152 130.288 229.735 166.124 224.23 182.456C215.147 194.381 208.502 193.65 196.832 200.247C191.777 201.853 184.795 204.079 179.83 204.642C173.965 205.307 140.672 203.031 136.24 201.681C122.402 200.745 39.3623 195.046 31.4423 188.724C30.2648 186.9 29.0423 185.105 27.7748 183.339C21.7973 168.834 16.1948 137.941 13.5098 122.107C12.9923 118.357 12.1748 110.206 14.9048 107.245C19.8848 101.839 50.1324 96.0571 55.0974 100.54L53.6723 102.863L58.1123 103.639C62.1023 88.7277 63.9473 72.7661 71.8073 59.4548C83.9348 53.8067 91.1348 54.4999 104.455 54.2809C105.445 49.3987 105.272 45.836 105.242 40.9066Z" fill="#12191A"/>
<path d="M179.072 196.012C161.35 196.633 47.9347 189.962 38.2222 182.92C29.7247 176.76 22.9221 135.043 21.0996 123.464C20.5821 120.156 19.1721 112.797 21.5421 109.956C24.1071 106.875 34.6446 106.35 38.6121 105.754L44.5146 107.976C39.9996 110.384 30.4596 106.831 26.7096 114.335C26.9121 117.397 26.7322 117.911 29.6872 119.403C32.7172 120.692 40.6747 121.041 44.5822 121.571C61.6672 123.884 85.1422 122.773 100.637 129.4C102.115 130.03 107.485 135.474 108.835 136.818C122.425 139.876 154.135 139.54 169.375 139.727C171.82 157.913 177.152 177.045 179.072 196.012Z" fill="#E1F2D2"/>
<path d="M53.6715 102.863L58.1115 103.64L57.744 109.953C52.569 109.807 34.3215 110.502 31.3215 113.509C30.7965 115.592 30.3541 117.35 29.6866 119.403C26.7316 117.91 26.9115 117.397 26.709 114.335C30.459 106.831 39.999 110.384 44.514 107.976L38.6115 105.754C44.2365 104.911 48.1215 104.31 53.6715 102.863Z" fill="#F3F5DF"/>
<path d="M176.049 114.946L179.671 101.723C183.279 104.658 187.711 101.148 191.844 104.832C192.264 105.207 192.226 105.133 192.811 105.252L192.661 108.543L192.436 109.816C189.519 112.878 180.459 114.1 176.049 114.946Z" fill="#7CA27B"/>
<path d="M31.3213 113.508C34.3213 110.501 52.5688 109.806 57.7438 109.952L56.1163 116.882C51.0388 116.754 34.1188 117.414 31.3213 113.508Z" fill="#84AB82"/>
<path d="M182.514 94.2393L194.522 94.0547C194.027 97.6526 193.562 101.749 192.812 105.253C192.227 105.134 192.264 105.208 191.844 104.833C187.712 101.149 183.279 104.659 179.672 101.724C180.474 99.309 181.584 96.6398 182.514 94.2393Z" fill="#B4D8B0"/>
<path d="M63.9922 117.466C64.2697 107.091 70.9971 69.2664 77.7921 62.6602C82.9146 57.6858 165.325 59.5417 177.932 59.5537L188.792 59.8471C186.917 63.2829 184.922 66.796 183.272 70.3346C178.465 84.9519 166.382 119.393 165.002 133.998C149.44 134.208 127.982 134.836 113.087 132.021C106.097 125.61 101.65 121.559 91.7197 120.381C82.5022 119.289 73.2097 118.436 63.9922 117.466Z" fill="#FEFDF3"/>
<path d="M177.932 59.5527L188.792 59.846C186.917 63.2819 184.922 66.795 183.272 70.3336C180.339 64.9735 183.872 62.5137 177.932 59.5527Z" fill="#E1F2D2"/>
<path d="M157.224 68.8086C161.649 68.4208 163.704 67.5716 166.884 71.0112L166.681 72.111C162.234 74.414 157.547 71.5296 153.047 73.8784C142.562 83.9481 167.724 78.4485 162.909 91.4132C159.602 100.312 153.804 92.4852 151.569 100.277L151.524 100.868L150.669 101.6L149.282 101.155C147.992 99.0193 144.909 94.4034 145.232 92.1596C149.919 90.4162 152.679 93.8438 156.931 91.9788C158.341 89.9968 158.192 89.702 158.169 87.1304C156.017 85.3239 148.516 84.5625 145.224 83.9796C146.679 73.33 146.056 70.462 157.224 68.8086Z" fill="#1F5236"/>
<path d="M76.1113 106.447C81.1813 105.847 146.236 107.505 149.784 108.813L150.474 110.31C140.716 113.545 100.516 107.952 87.6313 109.137C85.6513 109.318 81.7588 108.813 79.6663 108.625C77.7688 108.456 77.3188 107.709 76.1113 106.447Z" fill="#12191A"/>
<path d="M81.2119 90.6127C87.4369 90.2707 121.224 90.0321 125.027 92.0703L125.199 94.0703C118.877 94.2691 83.6419 94.7905 80.6719 92.1409L81.2119 90.6127Z" fill="#12191A"/>
<path d="M81.9167 75.5806C88.1867 74.9992 123.099 74.5514 127.472 77.0532V79.0435C122.627 79.3706 84.7818 78.6969 81.8643 77.1763L81.9167 75.5806Z" fill="#12191A"/>
<path d="M116.214 119.271C126.579 118.541 140.071 118.55 150.504 119.284C153.714 119.511 154.396 119.74 155.964 121.783C150.496 122.313 121.666 121.724 116.896 120.64L116.214 119.271Z" fill="#12191A"/>
<path d="M220.682 109.686L221.889 109.906C224.357 114.611 219.347 169.946 218.222 178.45C211.817 184.478 194.297 192.142 185.792 195.385L178.712 154.353C177.602 147.784 176.162 137.2 174.579 130.971C174.174 128.03 174.107 124.925 175.794 122.418C178.157 120.721 216.362 110.222 220.682 109.686Z" fill="#B4D8B0"/>
<path d="M174.579 130.971C174.174 128.03 174.107 124.925 175.794 122.418C178.157 120.721 216.362 110.222 220.682 109.686C220.029 111.442 219.842 112.753 217.757 113.515C206.304 117.692 195.309 122.337 183.339 124.988C182.177 125.246 180.137 130.28 179.627 131.466L179.447 131.898L178.539 131.846L177.009 129.859C176.222 130.211 175.344 130.575 174.579 130.971Z" fill="#F3F5DF"/>
<path d="M121.794 6.19922C132.436 8.96439 142.929 25.7685 152.079 34.5426C147.286 34.8449 141.601 34.6837 136.734 34.6664C136.479 40.8712 136.306 44.7452 137.739 50.9004C138.181 52.7976 137.401 53.8291 136.344 55.0564C132.984 56.3865 127.471 55.8584 123.676 55.7571L110.109 55.5891C110.559 49.9814 113.424 38.1435 111.219 34.5194C108.376 33.4001 99.9688 33.6567 95.7988 33.2628C103.726 25.4542 113.394 12.0837 121.794 6.19922Z" fill="#E1F2D2"/>
<path d="M197.514 60.2969C198.931 60.9968 198.984 61.1843 200.169 62.2016C203.086 67.8205 199.996 82.3178 199.029 88.9066L187.614 88.7918L185.596 88.6658C182.829 84.1062 192.901 64.2151 197.514 60.2969Z" fill="#B4D8B0"/>
<path d="M31.442 188.725C39.362 195.046 122.402 200.746 136.239 201.681C134.057 201.599 133.547 201.502 131.454 201.999L131.664 202.277L131.529 202.604C133.149 202.935 137.98 203.507 138.902 204.056L136.412 205.833C102.819 207.155 68.3045 204.173 34.922 200.321C37.052 199.419 37.2545 199.734 38.447 198.158L37.172 197.445L38.1095 197.217L38.5219 197.909C41.6944 198.163 43.3145 198.221 46.5095 198.074C41.522 197.456 41.447 195.324 35.192 193.542L34.262 193.281C33.4445 192.026 32.552 191.581 31.3145 190.745L31.442 188.725Z" fill="#84AB82" fill-opacity="0.384314"/>
<path d="M235.209 181.125C241.059 182.062 248.394 183.355 252.024 188.159C253.262 195.23 244.119 196.481 238.727 197.931C235.577 195.703 228.527 196.323 225.729 198.683L226.059 199.867L227.379 200.45C225.429 200.786 222.782 201.33 220.869 201.486L216.227 200.817C215.642 197.915 215.177 200.45 213.392 198.688C218.732 192.89 225.662 195.105 227.844 184.079C228.152 182.499 233.544 181.617 235.209 181.125Z" fill="#7CA27B" fill-opacity="0.443137"/>
<path d="M18.2118 179.105C22.6668 182.323 25.9518 189.893 31.3143 190.744C32.5518 191.58 33.4443 192.025 34.2618 193.28L35.1918 193.54C41.4468 195.323 41.5218 197.455 46.5093 198.073C43.3143 198.22 41.6943 198.162 38.5218 197.908L38.1093 197.216L37.1718 197.444L38.4468 198.157C37.2543 199.733 37.0518 199.418 34.9218 200.32C23.7168 198.486 12.3693 196.398 1.9668 191.654C2.7918 190.235 2.6943 190.661 4.7868 189.986C7.0893 191.129 8.41681 190.949 10.9818 191.018L11.4318 190.303C9.55679 188.7 8.24433 187.973 7.53183 185.521C8.27433 184.921 8.38686 184.61 8.96436 183.828L7.90683 182.052C10.1643 180.934 15.5118 179.775 18.2118 179.105Z" fill="#7CA27B" fill-opacity="0.423529"/>
<path d="M43.5166 33.7441C44.6491 35.0802 47.8291 40.9849 48.8416 42.7681C51.6616 44.0059 55.4341 45.0801 56.4316 47.6075C54.9016 49.8025 52.0816 50.5385 49.4566 51.6195C48.0166 54.8663 46.6366 58.9158 45.3841 62.3103C42.6016 52.1011 42.0991 49.8948 31.3291 47.591C38.7616 42.5806 39.9166 42.1184 43.5166 33.7441Z" fill="#12191A"/>
<path d="M43.397 39.9648C45.467 42.586 47.6871 44.0856 48.7821 46.9228C48.0021 49.583 46.5395 50.1186 44.132 52.2326L43.577 52.4592C39.9245 46.6392 39.947 46.4914 43.397 39.9648Z" fill="#FEFDF3"/>
<path d="M224.229 182.455C229.412 181.768 227.042 179.678 235.209 181.124C233.544 181.616 228.152 182.498 227.844 184.078C225.662 195.104 218.732 192.889 213.392 198.686C215.177 200.449 215.642 197.914 216.227 200.816C212.619 200.727 206.807 197.163 202.817 202.411L202.607 204.461C198.594 205.443 197.267 203.474 192.189 204.576L191.552 204.129C193.472 202.967 194.274 202.521 196.374 201.694L196.877 201.501L196.832 200.246C208.502 193.649 215.147 194.38 224.229 182.455Z" fill="#759974" fill-opacity="0.239216"/>
<path d="M65.8439 14.9824C67.4339 16.3823 66.9838 17.4258 68.3488 19.2097C71.0713 22.7723 74.5364 24.9096 78.2939 27.1594C70.9664 30.5007 69.9464 30.6072 66.9464 38.037L66.6689 38.3424C63.8189 37.8593 63.6163 31.7018 55.4863 27.0671C60.8488 22.614 62.9489 21.2412 65.8439 14.9824Z" fill="#12191A"/>
<path d="M18.2119 179.106C23.7244 178.473 24.0244 179.616 27.7744 183.34C29.0419 185.105 30.2644 186.901 31.4419 188.724L31.3144 190.745C25.9519 189.894 22.6669 182.324 18.2119 179.106Z" fill="#7CA27B" fill-opacity="0.231373"/>
<path d="M1.96657 191.654L0.0990742 190.679C-0.140926 187.996 -0.14093 185.815 2.43907 184.617C5.13907 186.349 3.8491 186.007 7.5316 185.521C8.2441 187.973 9.55656 188.7 11.4316 190.303L10.9816 191.018C8.41658 190.949 7.08907 191.13 4.78657 189.986C2.69407 190.661 2.79157 190.235 1.96657 191.654Z" fill="#7CA27B" fill-opacity="0.470588"/>
<path d="M202.606 204.463L202.816 202.412C206.806 197.164 212.619 200.728 216.226 200.818L220.869 201.487L202.606 204.463Z" fill="#759974" fill-opacity="0.427451"/>
<path d="M227.38 200.451L226.06 199.867L225.729 198.683C228.527 196.323 235.577 195.703 238.727 197.932L227.38 200.451Z" fill="#7CA27B" fill-opacity="0.541176"/>
<path d="M138.902 204.055C145.21 204.755 148.202 204.073 154.78 205.453C148.18 205.82 143.02 205.969 136.412 205.832L138.902 204.055Z" fill="#84AB82" fill-opacity="0.580392"/>
<path d="M2.43945 184.618L7.90698 182.053L8.96451 183.828C8.38701 184.611 8.27448 184.921 7.53198 185.522C3.84948 186.008 5.13945 186.349 2.43945 184.618Z" fill="#7CA27B" fill-opacity="0.509804"/>
</svg>
