<svg width="603" height="158" viewBox="0 0 603 158" fill="none" xmlns="http://www.w3.org/2000/svg">
<path d="M20.9404 30.5537C21.1558 29.5438 22.147 28.8982 23.1572 29.1133L115.483 48.7373C116.494 48.9526 117.139 49.9441 116.924 50.9541L115.361 58.3242C114.8 60.9432 114.042 63.4691 113.106 65.8916L132.116 61.8506C133.127 61.6355 134.119 62.2808 134.334 63.291L136.682 74.3379C144.848 112.734 119.084 150.484 79.6338 156.414C43.2519 161.876 9.47069 136.154 1.83691 100.256L0.0410156 91.8281C-0.174037 90.818 0.471152 89.8264 1.48145 89.6113L33.1387 82.8867C21.4916 71.0172 16.0945 53.3201 19.7617 36.0537L20.9307 30.5635L20.9404 30.5537ZM92.0674 0.0429688C93.0776 -0.171951 94.0689 0.473451 94.2842 1.4834L94.8174 3.97168C97.5584 16.8605 88.9146 29.5339 75.668 31.5264C63.4595 33.3596 52.1112 24.7265 49.5479 12.6699L49.2021 11.0615C48.987 10.0514 49.6322 9.05986 50.6426 8.84473L92.0674 0.0429688Z" fill="#2AC864"></path>
<path d="M582.794 50.5968C582.794 50.1753 583.091 49.8131 583.506 49.7241L600.451 46.2153C600.819 46.1381 601.163 46.4231 601.163 46.7971V127.398C601.163 127.724 600.896 127.991 600.569 127.991H583.388C583.061 127.991 582.794 127.724 582.794 127.398V50.5968Z" fill="#0E3727"></path>
<path d="M496.749 50.591C496.749 50.1695 497.04 49.8073 497.456 49.7182L513.782 46.2154C514.15 46.1382 514.501 46.4173 514.501 46.7972V57.2879C518.36 51.4222 527.004 44.939 539.662 44.939C558.648 44.939 569.145 57.9053 569.145 75.0395V127.392C569.145 127.718 568.878 127.986 568.551 127.986H551.369C551.043 127.986 550.776 127.718 550.776 127.392V78.7442C550.776 69.0194 544.91 61.4557 534.413 61.4557C523.917 61.4557 515.118 69.6368 515.118 81.214V127.392C515.118 127.718 514.851 127.986 514.524 127.986H497.343C497.016 127.986 496.749 127.718 496.749 127.392V50.591Z" fill="#0E3727"></path>
<path d="M365.78 127.392V50.591C365.78 50.1695 366.071 49.8073 366.487 49.7182L382.814 46.2154C383.182 46.1382 383.532 46.4173 383.532 46.7972V57.2879C386.928 51.5765 394.646 44.939 406.686 44.939C417.337 44.939 425.364 50.0329 429.686 58.2141C433.854 51.8852 443.424 44.939 455.465 44.939C473.216 44.939 483.095 57.751 483.095 75.0395V127.392C483.095 127.718 482.828 127.986 482.502 127.986H465.32C464.993 127.986 464.726 127.718 464.726 127.392V77.9724C464.726 68.0932 459.478 61.4557 450.525 61.4557C441.572 61.4557 433.545 68.5563 433.545 80.2878V127.392C433.545 127.718 433.278 127.986 432.951 127.986H415.77C415.443 127.986 415.176 127.718 415.176 127.392V77.9724C415.176 68.2476 410.082 61.4557 401.129 61.4557C391.713 61.4557 384.149 68.5563 384.149 80.2878V127.392C384.149 127.718 383.882 127.986 383.556 127.986L366.368 127.968C366.042 127.968 365.774 127.701 365.774 127.374L365.78 127.392Z" fill="#0E3727"></path>
<path d="M314.989 130.301C291.835 130.301 273.62 114.71 273.62 87.5428C273.62 60.3751 291.995 44.939 314.989 44.939C337.983 44.939 356.358 60.5295 356.358 87.5428C356.358 114.556 337.989 130.301 314.989 130.301ZM291.989 87.5428C291.989 105.449 302.794 113.939 314.989 113.939C327.184 113.939 337.989 105.449 337.989 87.5428C337.989 69.6368 327.029 61.1469 314.989 61.1469C302.949 61.1469 291.989 69.6368 291.989 87.5428Z" fill="#0E3727"></path>
<path d="M191.73 127.391V50.5906C191.73 50.169 192.021 49.8069 192.437 49.7178L208.764 46.215C209.132 46.1378 209.482 46.4169 209.482 46.7968V57.2875C213.341 51.4158 221.985 44.9326 234.643 44.9326C253.63 44.9326 264.126 57.899 264.126 75.0332V127.386C264.126 127.712 263.859 127.979 263.532 127.979H246.351C246.024 127.979 245.757 127.712 245.757 127.386V78.7378C245.757 69.013 239.891 61.4493 229.395 61.4493C218.898 61.4493 210.1 69.6305 210.1 81.2076V127.386C210.1 127.712 209.832 127.979 209.506 127.979H192.324C191.998 127.979 191.73 127.706 191.73 127.38V127.391Z" fill="#0E3727"></path>
<path d="M578.151 23.7736L578.478 25.3172C579.832 31.6876 585.828 36.2532 592.281 35.2855C599.281 34.2346 603.853 27.5317 602.404 20.7161L601.977 18.7034C601.905 18.3769 601.579 18.1632 601.252 18.2344L578.62 23.0434C578.294 23.1146 578.08 23.4412 578.151 23.7677V23.7736Z" fill="#0E3727"></path>
</svg>